<?xml version="1.0" encoding="utf-8"?>
<!-- Generator: Adobe Illustrator 22.1.0, SVG Export Plug-In . SVG Version: 6.00 Build 0)  -->
<svg version="1.1" id="Capa_1" xmlns="http://www.w3.org/2000/svg" xmlns:xlink="http://www.w3.org/1999/xlink" x="0px" y="0px"
	 viewBox="0 0 595.3 144.9" style="enable-background:new 0 0 595.3 144.9;" xml:space="preserve">
<style type="text/css">
	.st0{fill-rule:evenodd;clip-rule:evenodd;fill:#D6C283;}
	.st1{fill-rule:evenodd;clip-rule:evenodd;fill:#11171F;}
	.st2{fill-rule:evenodd;clip-rule:evenodd;fill:#FFFFFF;}
	
		.st3{fill-rule:evenodd;clip-rule:evenodd;fill:none;stroke:#FFFFFF;stroke-linecap:round;stroke-linejoin:round;stroke-miterlimit:10;}
	
		.st4{fill-rule:evenodd;clip-rule:evenodd;fill:none;stroke:#11171F;stroke-linecap:round;stroke-linejoin:round;stroke-miterlimit:10;}
	.st5{fill-rule:evenodd;clip-rule:evenodd;fill:#D3D3D4;}
	.st6{fill-rule:evenodd;clip-rule:evenodd;fill:#1F1D1A;}
	.st7{fill:#D6C283;}
	.st8{fill-rule:evenodd;clip-rule:evenodd;fill:#CBB369;}
</style>
<g>
	<path class="st0" d="M150.7,82.7c0,0,12.9-4.1,144.4-5.7c131.5-1.6,164.3,6.1,144.4,6.5c-1.8,0-3.7,0.1-5.7,0.1
		c-21.2,0.2-55.6-0.5-56.1,0.7c-0.5,1.3,12.3,2.9,6.2,3.3c-6.1,0.3-20.6,0.8-20.6,0.8s11.5-1.4,6.2-2.4c-5.4-1-54.2-4-68.1-3.3
		c0,0,118.8,0,86.6-2.4c-32.1-2.4-182.2-1.8-212.5,1.6C175.4,81.8,157.7,83.8,150.7,82.7z"/>
	<path class="st0" d="M191.9,85.9c-1.9,0.3,46.7-5.4,70.1-4.9c0,0-17.1,1.7-14.4,1.6c2.7-0.1,42.2,1.9,41.3,1.6
		C288,84.1,210.4,82.6,191.9,85.9z"/>
	<path class="st0" d="M237.7,85.2c-0.9,0.3,21.6-5.4,32.4-4.9c0,0-7.9,1.7-6.7,1.6c1.2-0.1,19.5,1.9,19.1,1.6
		C282,83.3,246.2,81.9,237.7,85.2z"/>
	<polygon class="st1" points="295.8,81.8 296.8,81.8 422.2,81.8 431.1,79.2 431.1,76.2 421.2,76.2 415.4,58 386.8,58 385.7,50.8 
		385.8,50.8 382.8,39 386.1,34 391.1,34 389.1,30.7 368.6,30.7 363.3,12.1 361.3,12.1 363,20.7 354.7,20.7 355.8,21.7 363.3,22.7 
		362,37 328.9,37 324.3,43.6 310.7,43.6 305.4,31.7 302.7,31.7 302.7,26.4 301.1,26.4 301.1,31.7 296.8,31.7 295.8,31.7 291.5,31.7 
		291.5,26.4 289.8,26.4 289.8,31.7 287.2,31.7 281.9,43.6 268.3,43.6 263.7,39 230.6,39 229.3,22.7 236.8,21.7 237.9,20.7 
		229.6,20.7 231.3,12.1 229.3,12.1 224,30.7 203.5,30.7 201.5,34 206.5,34 209.8,39 206.2,53.3 206,53.3 205.2,58 177.2,58 
		171.4,76.2 161.5,76.2 161.5,79.2 170.4,81.8 	"/>
	<path class="st2" d="M359.2,50h2.1c0.6,0,1.2,0.7,1.2,1.7V52c0,0.9-0.5,1.7-1.2,1.7h-2.1c-0.6,0-1.2-0.7-1.2-1.7v-0.3
		C358,50.8,358.6,50,359.2,50z"/>
	<path class="st2" d="M376.2,50h1.6c0.5,0,0.9,0.7,0.9,1.7V52c0,0.9-0.4,1.7-0.9,1.7h-1.6c-0.5,0-0.9-0.7-0.9-1.7v-0.3
		C375.3,50.8,375.7,50,376.2,50z"/>
	<path class="st2" d="M352.9,50h2.1c0.6,0,1.2,0.7,1.2,1.7V52c0,0.9-0.5,1.7-1.2,1.7h-2.1c-0.6,0-1.2-0.7-1.2-1.7v-0.3
		C351.8,50.8,352.3,50,352.9,50z"/>
	<path class="st2" d="M371.4,50h1.6c0.5,0,0.9,0.7,0.9,1.7V52c0,0.9-0.4,1.7-0.9,1.7h-1.6c-0.5,0-0.9-0.7-0.9-1.7v-0.3
		C370.5,50.8,370.9,50,371.4,50z"/>
	<path class="st2" d="M347,50h2.1c0.6,0,1.2,0.7,1.2,1.7V52c0,0.9-0.5,1.7-1.2,1.7H347c-0.6,0-1.2-0.7-1.2-1.7v-0.3
		C345.8,50.8,346.3,50,347,50z"/>
	<path class="st2" d="M340.7,50h2.1c0.6,0,1.2,0.7,1.2,1.7V52c0,0.9-0.5,1.7-1.2,1.7h-2.1c-0.6,0-1.2-0.7-1.2-1.7v-0.3
		C339.5,50.8,340,50,340.7,50z"/>
	<path class="st2" d="M334.4,50h2.1c0.6,0,1.2,0.7,1.2,1.7V52c0,0.9-0.5,1.7-1.2,1.7h-2.1c-0.7,0-1.2-0.7-1.2-1.7v-0.3
		C333.2,50.8,333.7,50,334.4,50z"/>
	<path class="st2" d="M328.4,50h2.1c0.6,0,1.2,0.7,1.2,1.7V52c0,0.9-0.5,1.7-1.2,1.7h-2.1c-0.6,0-1.2-0.7-1.2-1.7v-0.3
		C327.2,50.8,327.7,50,328.4,50z"/>
	<path class="st2" d="M309.8,50h2.1c0.7,0,1.2,0.7,1.2,1.7V52c0,0.9-0.5,1.7-1.2,1.7h-2.1c-0.7,0-1.2-0.7-1.2-1.7v-0.3
		C308.7,50.8,309.2,50,309.8,50z"/>
	<path class="st2" d="M322.1,50h2.1c0.7,0,1.2,0.7,1.2,1.7V52c0,0.9-0.5,1.7-1.2,1.7h-2.1c-0.6,0-1.2-0.7-1.2-1.7v-0.3
		C320.9,50.8,321.5,50,322.1,50z"/>
	<path class="st2" d="M303.5,50h2.1c0.6,0,1.2,0.7,1.2,1.7V52c0,0.9-0.5,1.7-1.2,1.7h-2.1c-0.6,0-1.2-0.7-1.2-1.7v-0.3
		C302.4,50.8,302.9,50,303.5,50z"/>
	<path class="st2" d="M315.8,50h2.1c0.6,0,1.2,0.7,1.2,1.7V52c0,0.9-0.5,1.7-1.2,1.7h-2.1c-0.6,0-1.2-0.7-1.2-1.7v-0.3
		C314.6,50.8,315.2,50,315.8,50z"/>
	<path class="st2" d="M297.6,50h2.1c0.6,0,1.2,0.7,1.2,1.7V52c0,0.9-0.5,1.7-1.2,1.7h-2.1c-0.7,0-1.2-0.7-1.2-1.7v-0.3
		C296.4,50.8,296.9,50,297.6,50z"/>
	<path class="st2" d="M359.2,70h2.1c0.6,0,1.2,0.8,1.2,1.7V72c0,0.9-0.5,1.7-1.2,1.7h-2.1c-0.6,0-1.2-0.8-1.2-1.7v-0.3
		C358,70.7,358.6,70,359.2,70z"/>
	<path class="st2" d="M372.8,70h2.1c0.6,0,1.2,0.8,1.2,1.7V72c0,0.9-0.5,1.7-1.2,1.7h-2.1c-0.6,0-1.2-0.8-1.2-1.7v-0.3
		C371.6,70.7,372.1,70,372.8,70z"/>
	<path class="st2" d="M352.9,70h2.1c0.6,0,1.2,0.8,1.2,1.7V72c0,0.9-0.5,1.7-1.2,1.7h-2.1c-0.6,0-1.2-0.8-1.2-1.7v-0.3
		C351.8,70.7,352.3,70,352.9,70z"/>
	<path class="st2" d="M366.5,70h2.1c0.6,0,1.2,0.8,1.2,1.7V72c0,0.9-0.5,1.7-1.2,1.7h-2.1c-0.6,0-1.2-0.8-1.2-1.7v-0.3
		C365.3,70.7,365.9,70,366.5,70z"/>
	<path class="st2" d="M347,70h2.1c0.6,0,1.2,0.8,1.2,1.7V72c0,0.9-0.5,1.7-1.2,1.7H347c-0.6,0-1.2-0.8-1.2-1.7v-0.3
		C345.8,70.7,346.3,70,347,70z"/>
	<path class="st2" d="M340.7,70h2.1c0.6,0,1.2,0.8,1.2,1.7V72c0,0.9-0.5,1.7-1.2,1.7h-2.1c-0.6,0-1.2-0.8-1.2-1.7v-0.3
		C339.5,70.7,340,70,340.7,70z"/>
	<path class="st2" d="M334.4,70h2.1c0.6,0,1.2,0.8,1.2,1.7V72c0,0.9-0.5,1.7-1.2,1.7h-2.1c-0.7,0-1.2-0.8-1.2-1.7v-0.3
		C333.2,70.7,333.7,70,334.4,70z"/>
	<path class="st2" d="M328.4,70h2.1c0.6,0,1.2,0.8,1.2,1.7V72c0,0.9-0.5,1.7-1.2,1.7h-2.1c-0.6,0-1.2-0.8-1.2-1.7v-0.3
		C327.2,70.7,327.7,70,328.4,70z"/>
	<path class="st2" d="M309.8,70h2.1c0.7,0,1.2,0.8,1.2,1.7V72c0,0.9-0.5,1.7-1.2,1.7h-2.1c-0.7,0-1.2-0.8-1.2-1.7v-0.3
		C308.7,70.7,309.2,70,309.8,70z"/>
	<path class="st2" d="M322.1,70h2.1c0.7,0,1.2,0.8,1.2,1.7V72c0,0.9-0.5,1.7-1.2,1.7h-2.1c-0.6,0-1.2-0.8-1.2-1.7v-0.3
		C320.9,70.7,321.5,70,322.1,70z"/>
	<path class="st2" d="M303.5,70h2.1c0.6,0,1.2,0.8,1.2,1.7V72c0,0.9-0.5,1.7-1.2,1.7h-2.1c-0.6,0-1.2-0.8-1.2-1.7v-0.3
		C302.4,70.7,302.9,70,303.5,70z"/>
	<path class="st2" d="M315.8,70h2.1c0.6,0,1.2,0.8,1.2,1.7V72c0,0.9-0.5,1.7-1.2,1.7h-2.1c-0.6,0-1.2-0.8-1.2-1.7v-0.3
		C314.6,70.7,315.2,70,315.8,70z"/>
	<path class="st2" d="M297.6,70h2.1c0.6,0,1.2,0.8,1.2,1.7V72c0,0.9-0.5,1.7-1.2,1.7h-2.1c-0.7,0-1.2-0.8-1.2-1.7v-0.3
		C296.4,70.7,296.9,70,297.6,70z"/>
	<path class="st2" d="M372.5,60h2.1c0.7,0,1.2,0.7,1.2,1.7V62c0,0.9-0.5,1.7-1.2,1.7h-2.1c-0.7,0-1.2-0.7-1.2-1.7v-0.3
		C371.3,60.7,371.8,60,372.5,60z"/>
	<path class="st2" d="M366.2,60h2.1c0.6,0,1.2,0.7,1.2,1.7V62c0,0.9-0.5,1.7-1.2,1.7h-2.1c-0.6,0-1.2-0.7-1.2-1.7v-0.3
		C365,60.7,365.5,60,366.2,60z"/>
	<path class="st2" d="M360.2,60h2.1c0.7,0,1.2,0.7,1.2,1.7V62c0,0.9-0.5,1.7-1.2,1.7h-2.1c-0.6,0-1.2-0.7-1.2-1.7v-0.3
		C359,60.7,359.5,60,360.2,60z"/>
	<path class="st2" d="M353.9,60h2.1c0.6,0,1.2,0.7,1.2,1.7V62c0,0.9-0.5,1.7-1.2,1.7h-2.1c-0.6,0-1.2-0.7-1.2-1.7v-0.3
		C352.7,60.7,353.2,60,353.9,60z"/>
	<path class="st2" d="M347.6,60h2.1c0.6,0,1.2,0.7,1.2,1.7V62c0,0.9-0.5,1.7-1.2,1.7h-2.1c-0.7,0-1.2-0.7-1.2-1.7v-0.3
		C346.4,60.7,347,60,347.6,60z"/>
	<path class="st2" d="M341.6,60h2.1c0.6,0,1.2,0.7,1.2,1.7V62c0,0.9-0.5,1.7-1.2,1.7h-2.1c-0.6,0-1.2-0.7-1.2-1.7v-0.3
		C340.4,60.7,341,60,341.6,60z"/>
	<path class="st2" d="M323.1,60h2.1c0.6,0,1.2,0.7,1.2,1.7V62c0,0.9-0.5,1.7-1.2,1.7h-2.1c-0.6,0-1.2-0.7-1.2-1.7v-0.3
		C321.9,60.7,322.4,60,323.1,60z"/>
	<path class="st2" d="M335.3,60h2.1c0.6,0,1.2,0.7,1.2,1.7V62c0,0.9-0.5,1.7-1.2,1.7h-2.1c-0.7,0-1.2-0.7-1.2-1.7v-0.3
		C334.2,60.7,334.7,60,335.3,60z"/>
	<path class="st2" d="M303.5,60h2.1c0.6,0,1.2,0.7,1.2,1.7V62c0,0.9-0.5,1.7-1.2,1.7h-2.1c-0.6,0-1.2-0.7-1.2-1.7v-0.3
		C302.4,60.7,302.9,60,303.5,60z"/>
	<path class="st2" d="M329.1,60h2.1c0.7,0,1.2,0.7,1.2,1.7V62c0,0.9-0.5,1.7-1.2,1.7h-2.1c-0.7,0-1.2-0.7-1.2-1.7v-0.3
		C327.9,60.7,328.4,60,329.1,60z"/>
	<path class="st2" d="M297.6,60h2.1c0.6,0,1.2,0.7,1.2,1.7V62c0,0.9-0.5,1.7-1.2,1.7h-2.1c-0.7,0-1.2-0.7-1.2-1.7v-0.3
		C296.4,60.7,296.9,60,297.6,60z"/>
	<polygon class="st2" points="369.7,34.3 368.1,37 380,37 382.1,34.3 	"/>
	<polygon class="st1" points="371.2,34.3 369.7,37 370.5,37 371.9,34.1 	"/>
	<polygon class="st1" points="378.4,34.3 376.8,37 377.6,37 379.1,34.1 	"/>
	<polygon class="st1" points="374.7,34.3 373.1,37 373.9,37 375.4,34.1 	"/>
	<path class="st0" d="M378.3,76.3v1h-6v-1.2h-75.8c0,0-0.3,1.7,0,1.7h130.1h4.2l0.2-1.6L378.3,76.3z"/>
	<path class="st2" d="M233.5,70h-2.1c-0.6,0-1.2,0.8-1.2,1.7V72c0,0.9,0.5,1.7,1.2,1.7h2.1c0.7,0,1.2-0.8,1.2-1.7v-0.3
		C234.7,70.7,234.2,70,233.5,70z"/>
	<path class="st2" d="M220,70h-2.1c-0.6,0-1.2,0.8-1.2,1.7V72c0,0.9,0.5,1.7,1.2,1.7h2.1c0.6,0,1.2-0.8,1.2-1.7v-0.3
		C221.1,70.7,220.6,70,220,70z"/>
	<path class="st2" d="M239.8,70h-2.1c-0.6,0-1.2,0.8-1.2,1.7V72c0,0.9,0.5,1.7,1.2,1.7h2.1c0.6,0,1.2-0.8,1.2-1.7v-0.3
		C241,70.7,240.5,70,239.8,70z"/>
	<path class="st2" d="M226.3,70h-2.1c-0.6,0-1.2,0.8-1.2,1.7V72c0,0.9,0.5,1.7,1.2,1.7h2.1c0.7,0,1.2-0.8,1.2-1.7v-0.3
		C227.4,70.7,226.9,70,226.3,70z"/>
	<path class="st2" d="M245.8,70h-2.1c-0.7,0-1.2,0.8-1.2,1.7V72c0,0.9,0.5,1.7,1.2,1.7h2.1c0.7,0,1.2-0.8,1.2-1.7v-0.3
		C247,70.7,246.5,70,245.8,70z"/>
	<path class="st2" d="M252.1,70H250c-0.7,0-1.2,0.8-1.2,1.7V72c0,0.9,0.5,1.7,1.2,1.7h2.1c0.6,0,1.2-0.8,1.2-1.7v-0.3
		C253.3,70.7,252.7,70,252.1,70z"/>
	<path class="st2" d="M258.4,70h-2.1c-0.7,0-1.2,0.8-1.2,1.7V72c0,0.9,0.5,1.7,1.2,1.7h2.1c0.7,0,1.2-0.8,1.2-1.7v-0.3
		C259.6,70.7,259,70,258.4,70z"/>
	<path class="st2" d="M264.4,70h-2.1c-0.6,0-1.2,0.8-1.2,1.7V72c0,0.9,0.5,1.7,1.2,1.7h2.1c0.6,0,1.2-0.8,1.2-1.7v-0.3
		C265.5,70.7,265,70,264.4,70z"/>
	<path class="st2" d="M282.9,70h-2.1c-0.6,0-1.2,0.8-1.2,1.7V72c0,0.9,0.5,1.7,1.2,1.7h2.1c0.6,0,1.2-0.8,1.2-1.7v-0.3
		C284.1,70.7,283.6,70,282.9,70z"/>
	<path class="st2" d="M270.7,70h-2.1c-0.6,0-1.2,0.8-1.2,1.7V72c0,0.9,0.5,1.7,1.2,1.7h2.1c0.7,0,1.2-0.8,1.2-1.7v-0.3
		C271.8,70.7,271.3,70,270.7,70z"/>
	<path class="st2" d="M289.2,70h-2.1c-0.6,0-1.2,0.8-1.2,1.7V72c0,0.9,0.5,1.7,1.2,1.7h2.1c0.7,0,1.2-0.8,1.2-1.7v-0.3
		C290.4,70.7,289.9,70,289.2,70z"/>
	<path class="st2" d="M276.9,70h-2.1c-0.7,0-1.2,0.8-1.2,1.7V72c0,0.9,0.5,1.7,1.2,1.7h2.1c0.7,0,1.2-0.8,1.2-1.7v-0.3
		C278.1,70.7,277.6,70,276.9,70z"/>
	<path class="st2" d="M220.3,60h-2.1c-0.6,0-1.2,0.7-1.2,1.7V62c0,0.9,0.5,1.7,1.2,1.7h2.1c0.6,0,1.2-0.7,1.2-1.7v-0.3
		C221.5,60.7,220.9,60,220.3,60z"/>
	<path class="st2" d="M226.6,60h-2.1c-0.7,0-1.2,0.7-1.2,1.7V62c0,0.9,0.5,1.7,1.2,1.7h2.1c0.7,0,1.2-0.7,1.2-1.7v-0.3
		C227.8,60.7,227.2,60,226.6,60z"/>
	<path class="st2" d="M232.6,60h-2.1c-0.6,0-1.2,0.7-1.2,1.7V62c0,0.9,0.5,1.7,1.2,1.7h2.1c0.6,0,1.2-0.7,1.2-1.7v-0.3
		C233.7,60.7,233.2,60,232.6,60z"/>
	<path class="st2" d="M238.9,60h-2.1c-0.6,0-1.2,0.7-1.2,1.7V62c0,0.9,0.5,1.7,1.2,1.7h2.1c0.6,0,1.2-0.7,1.2-1.7v-0.3
		C240,60.7,239.5,60,238.9,60z"/>
	<path class="st2" d="M245.1,60H243c-0.7,0-1.2,0.7-1.2,1.7V62c0,0.9,0.5,1.7,1.2,1.7h2.1c0.7,0,1.2-0.7,1.2-1.7v-0.3
		C246.3,60.7,245.8,60,245.1,60z"/>
	<path class="st2" d="M251.1,60H249c-0.6,0-1.2,0.7-1.2,1.7V62c0,0.9,0.5,1.7,1.2,1.7h2.1c0.7,0,1.2-0.7,1.2-1.7v-0.3
		C252.3,60.7,251.8,60,251.1,60z"/>
	<path class="st2" d="M269.7,60h-2.1c-0.7,0-1.2,0.7-1.2,1.7V62c0,0.9,0.5,1.7,1.2,1.7h2.1c0.6,0,1.2-0.7,1.2-1.7v-0.3
		C270.9,60.7,270.3,60,269.7,60z"/>
	<path class="st2" d="M257.4,60h-2.1c-0.7,0-1.2,0.7-1.2,1.7V62c0,0.9,0.5,1.7,1.2,1.7h2.1c0.7,0,1.2-0.7,1.2-1.7v-0.3
		C258.6,60.7,258.1,60,257.4,60z"/>
	<path class="st2" d="M289.2,60h-2.1c-0.6,0-1.2,0.7-1.2,1.7V62c0,0.9,0.5,1.7,1.2,1.7h2.1c0.7,0,1.2-0.7,1.2-1.7v-0.3
		C290.4,60.7,289.9,60,289.2,60z"/>
	<path class="st2" d="M263.7,60h-2.1c-0.6,0-1.2,0.7-1.2,1.7V62c0,0.9,0.5,1.7,1.2,1.7h2.1c0.6,0,1.2-0.7,1.2-1.7v-0.3
		C264.9,60.7,264.4,60,263.7,60z"/>
	<polygon class="st2" points="221.6,34.3 223.2,37 211.3,37 209.2,34.3 	"/>
	<polygon class="st1" points="220,34.3 221.6,37 220.8,37 219.3,34.1 	"/>
	<polygon class="st1" points="212.9,34.3 214.5,37 213.6,37 212.2,34.1 	"/>
	<polygon class="st1" points="216.6,34.3 218.2,37 217.3,37 215.9,34.1 	"/>
	<path class="st0" d="M214.6,76.3v1h6v-1.2h75.8c0,0,0.3,1.7,0,1.7H162l-0.2-1.6L214.6,76.3z"/>
	<polygon class="st0" points="284.7,37.9 308.4,37.9 310.4,43.8 282.2,43.8 	"/>
	<polyline class="st0" points="224.1,32.6 202.5,32.6 203.8,30.4 224.1,30.5 	"/>
	<polyline class="st0" points="368.5,32.6 390.1,32.6 388.8,30.4 368.5,30.5 	"/>
	<line class="st3" x1="383.8" y1="43.4" x2="384.9" y2="42.8"/>
	<polygon class="st1" points="402.8,33.2 402.8,33.8 384.5,44.8 383.9,44.3 	"/>
	<polygon class="st1" points="393,39.2 393.2,39.8 378.5,55.5 377.8,55.1 	"/>
	<polygon class="st1" points="190.2,33.2 190.2,33.8 208.5,44.8 209.1,44.2 	"/>
	<polygon class="st1" points="200,39.2 199.8,39.8 214.6,55.3 215.2,55 	"/>
	<rect x="233.9" y="41" class="st2" width="1.7" height="2.8"/>
	<rect x="245.6" y="41" class="st2" width="1.7" height="2.8"/>
	<rect x="257.2" y="41" class="st2" width="1.7" height="2.8"/>
	<g>
		<g>
			<polygon class="st1" points="177.7,55.3 178,55.3 176.7,59.8 176.4,59.8 			"/>
			<polygon class="st1" points="179,55.3 179.3,55.3 178,59.8 177.7,59.8 			"/>
			<polygon class="st1" points="180.3,55.3 180.6,55.3 179.3,59.8 179,59.8 			"/>
			<polygon class="st1" points="181.6,55.3 182,55.3 180.6,59.8 180.3,59.8 			"/>
		</g>
		<g>
			<polygon class="st1" points="182.9,55.3 183.3,55.3 182,59.8 181.6,59.8 			"/>
			<polygon class="st1" points="184.3,55.3 184.6,55.3 183.3,59.8 182.9,59.8 			"/>
			<polygon class="st1" points="185.6,55.3 185.9,55.3 184.6,59.8 184.3,59.8 			"/>
			<polygon class="st1" points="186.9,55.3 187.2,55.3 185.9,59.8 185.6,59.8 			"/>
		</g>
		<g>
			<polygon class="st1" points="188.2,55.3 188.5,55.3 187.2,59.8 186.9,59.8 			"/>
			<polygon class="st1" points="189.5,55.3 189.8,55.3 188.5,59.8 188.2,59.8 			"/>
			<polygon class="st1" points="190.8,55.3 191.2,55.3 189.8,59.8 189.5,59.8 			"/>
			<polygon class="st1" points="192.2,55.3 192.5,55.3 191.2,59.8 190.8,59.8 			"/>
		</g>
		<g>
			<polygon class="st1" points="193.5,55.3 193.8,55.3 192.5,59.8 192.2,59.8 			"/>
			<polygon class="st1" points="194.8,55.3 195.1,55.3 193.8,59.8 193.5,59.8 			"/>
			<polygon class="st1" points="196.1,55.3 196.4,55.3 195.1,59.8 194.8,59.8 			"/>
			<polygon class="st1" points="197.4,55.3 197.7,55.3 196.4,59.8 196.1,59.8 			"/>
		</g>
	</g>
	<line class="st4" x1="177.9" y1="55.5" x2="198" y2="55.5"/>
	<g>
		<g>
			<polygon class="st1" points="198.2,55.3 198.5,55.3 197.2,59.8 196.8,59.8 			"/>
			<polygon class="st1" points="199.5,55.3 199.8,55.3 198.5,59.8 198.2,59.8 			"/>
			<polygon class="st1" points="200.8,55.3 201.1,55.3 199.8,59.8 199.5,59.8 			"/>
			<polygon class="st1" points="202.1,55.3 202.4,55.3 201.1,59.8 200.8,59.8 			"/>
		</g>
		<g>
			<polygon class="st1" points="203.4,55.3 203.8,55.3 202.4,59.8 202.1,59.8 			"/>
			<polygon class="st1" points="204.7,55.3 205.1,55.3 203.8,59.8 203.4,59.8 			"/>
			<polygon class="st1" points="206.1,55.3 206.4,55.3 205.1,59.8 204.7,59.8 			"/>
			<polygon class="st1" points="207.4,55.3 207.7,55.3 206.4,59.8 206.1,59.8 			"/>
		</g>
		<g>
			<polygon class="st1" points="208.7,55.3 209,55.3 207.7,59.8 207.4,59.8 			"/>
			<polygon class="st1" points="210,55.3 210.3,55.3 209,59.8 208.7,59.8 			"/>
			<polygon class="st1" points="211.3,55.3 211.6,55.3 210.3,59.8 210,59.8 			"/>
			<polygon class="st1" points="212.6,55.3 213,55.3 211.6,59.8 211.3,59.8 			"/>
		</g>
		<g>
			<polygon class="st1" points="214,55.3 214.3,55.3 213,59.8 212.6,59.8 			"/>
			<polygon class="st1" points="215.3,55.3 215.6,55.3 214.3,59.8 214,59.8 			"/>
			<polygon class="st1" points="216.6,55.3 216.9,55.3 215.6,59.8 215.3,59.8 			"/>
			<polygon class="st1" points="217.9,55.3 218.2,55.3 216.9,59.8 216.6,59.8 			"/>
		</g>
	</g>
	<line class="st4" x1="198.3" y1="55.5" x2="218.5" y2="55.5"/>
	<g>
		<g>
			<polygon class="st1" points="307.2,41.5 307.5,41.5 306.2,45.9 305.9,45.9 			"/>
			<polygon class="st1" points="308.5,41.5 308.9,41.5 307.5,45.9 307.2,45.9 			"/>
			<polygon class="st1" points="309.9,41.5 310.2,41.5 308.9,45.9 308.5,45.9 			"/>
			<polygon class="st1" points="311.2,41.5 311.5,41.5 310.2,45.9 309.9,45.9 			"/>
		</g>
		<g>
			<polygon class="st1" points="312.5,41.5 312.8,41.5 311.5,45.9 311.2,45.9 			"/>
			<polygon class="st1" points="313.8,41.5 314.1,41.5 312.8,45.9 312.5,45.9 			"/>
			<polygon class="st1" points="315.1,41.5 315.4,41.5 314.1,45.9 313.8,45.9 			"/>
			<polygon class="st1" points="316.4,41.5 316.8,41.5 315.4,45.9 315.1,45.9 			"/>
		</g>
		<g>
			<polygon class="st1" points="317.7,41.5 318.1,41.5 316.8,45.9 316.4,45.9 			"/>
			<polygon class="st1" points="319.1,41.5 319.4,41.5 318.1,45.9 317.7,45.9 			"/>
			<polygon class="st1" points="320.4,41.5 320.7,41.5 319.4,45.9 319.1,45.9 			"/>
			<polygon class="st1" points="321.7,41.5 322,41.5 320.7,45.9 320.4,45.9 			"/>
		</g>
		<g>
			<polygon class="st1" points="323,41.5 323.3,41.5 322,45.9 321.7,45.9 			"/>
			<polygon class="st1" points="324.3,41.5 324.7,41.5 323.3,45.9 323,45.9 			"/>
			<polygon class="st1" points="325.6,41.5 326,41.5 324.7,45.9 324.3,45.9 			"/>
			<polygon class="st1" points="327,41.5 327.3,41.5 326,45.9 325.6,45.9 			"/>
		</g>
	</g>
	<line class="st4" x1="307.4" y1="41.6" x2="327.6" y2="41.6"/>
	<g>
		<g>
			<polygon class="st1" points="327.7,41.5 328,41.5 326.7,45.9 326.4,45.9 			"/>
			<polygon class="st1" points="329,41.5 329.3,41.5 328,45.9 327.7,45.9 			"/>
			<polygon class="st1" points="330.3,41.5 330.7,41.5 329.3,45.9 329,45.9 			"/>
			<polygon class="st1" points="331.7,41.5 332,41.5 330.7,45.9 330.3,45.9 			"/>
		</g>
		<g>
			<polygon class="st1" points="333,41.5 333.3,41.5 332,45.9 331.7,45.9 			"/>
			<polygon class="st1" points="334.3,41.5 334.6,41.5 333.3,45.9 333,45.9 			"/>
			<polygon class="st1" points="335.6,41.5 335.9,41.5 334.6,45.9 334.3,45.9 			"/>
			<polygon class="st1" points="336.9,41.5 337.2,41.5 335.9,45.9 335.6,45.9 			"/>
		</g>
		<g>
			<polygon class="st1" points="338.2,41.5 338.6,41.5 337.2,45.9 336.9,45.9 			"/>
			<polygon class="st1" points="339.5,41.5 339.9,41.5 338.6,45.9 338.2,45.9 			"/>
			<polygon class="st1" points="340.9,41.5 341.2,41.5 339.9,45.9 339.5,45.9 			"/>
			<polygon class="st1" points="342.2,41.5 342.5,41.5 341.2,45.9 340.9,45.9 			"/>
		</g>
		<g>
			<polygon class="st1" points="343.5,41.5 343.8,41.5 342.5,45.9 342.2,45.9 			"/>
			<polygon class="st1" points="344.8,41.5 345.1,41.5 343.8,45.9 343.5,45.9 			"/>
			<polygon class="st1" points="346.1,41.5 346.5,41.5 345.1,45.9 344.8,45.9 			"/>
			<polygon class="st1" points="347.4,41.5 347.8,41.5 346.5,45.9 346.1,45.9 			"/>
		</g>
	</g>
	<line class="st4" x1="327.9" y1="41.6" x2="348.1" y2="41.6"/>
	<g>
		<g>
			<polygon class="st1" points="414.8,55.3 414.4,55.3 415.7,59.8 416.1,59.8 			"/>
			<polygon class="st1" points="413.4,55.3 413.1,55.3 414.4,59.8 414.8,59.8 			"/>
			<polygon class="st1" points="412.1,55.3 411.8,55.3 413.1,59.8 413.4,59.8 			"/>
			<polygon class="st1" points="410.8,55.3 410.5,55.3 411.8,59.8 412.1,59.8 			"/>
		</g>
		<g>
			<polygon class="st1" points="409.5,55.3 409.2,55.3 410.5,59.8 410.8,59.8 			"/>
			<polygon class="st1" points="408.2,55.3 407.8,55.3 409.2,59.8 409.5,59.8 			"/>
			<polygon class="st1" points="406.9,55.3 406.5,55.3 407.8,59.8 408.2,59.8 			"/>
			<polygon class="st1" points="405.5,55.3 405.2,55.3 406.5,59.8 406.9,59.8 			"/>
		</g>
		<g>
			<polygon class="st1" points="404.2,55.3 403.9,55.3 405.2,59.8 405.5,59.8 			"/>
			<polygon class="st1" points="402.9,55.3 402.6,55.3 403.9,59.8 404.2,59.8 			"/>
			<polygon class="st1" points="401.6,55.3 401.3,55.3 402.6,59.8 402.9,59.8 			"/>
			<polygon class="st1" points="400.3,55.3 399.9,55.3 401.3,59.8 401.6,59.8 			"/>
		</g>
		<g>
			<polygon class="st1" points="399,55.3 398.6,55.3 399.9,59.8 400.3,59.8 			"/>
			<polygon class="st1" points="397.6,55.3 397.3,55.3 398.6,59.8 399,59.8 			"/>
			<polygon class="st1" points="396.3,55.3 396,55.3 397.3,59.8 397.6,59.8 			"/>
			<polygon class="st1" points="395,55.3 394.7,55.3 396,59.8 396.3,59.8 			"/>
		</g>
	</g>
	<line class="st4" x1="414.7" y1="55.5" x2="394.6" y2="55.5"/>
	<g>
		<g>
			<polygon class="st1" points="394.3,55.3 393.9,55.3 395.3,59.8 395.6,59.8 			"/>
			<polygon class="st1" points="393,55.3 392.6,55.3 393.9,59.8 394.3,59.8 			"/>
			<polygon class="st1" points="391.6,55.3 391.3,55.3 392.6,59.8 393,59.8 			"/>
			<polygon class="st1" points="390.3,55.3 390,55.3 391.3,59.8 391.6,59.8 			"/>
		</g>
		<g>
			<polygon class="st1" points="389,55.3 388.7,55.3 390,59.8 390.3,59.8 			"/>
			<polygon class="st1" points="387.7,55.3 387.4,55.3 388.7,59.8 389,59.8 			"/>
			<polygon class="st1" points="386.4,55.3 386,55.3 387.4,59.8 387.7,59.8 			"/>
			<polygon class="st1" points="385.1,55.3 384.7,55.3 386,59.8 386.4,59.8 			"/>
		</g>
		<g>
			<polygon class="st1" points="383.7,55.3 383.4,55.3 384.7,59.8 385.1,59.8 			"/>
			<polygon class="st1" points="382.4,55.3 382.1,55.3 383.4,59.8 383.7,59.8 			"/>
			<polygon class="st1" points="381.1,55.3 380.8,55.3 382.1,59.8 382.4,59.8 			"/>
			<polygon class="st1" points="379.8,55.3 379.5,55.3 380.8,59.8 381.1,59.8 			"/>
		</g>
		<g>
			<polygon class="st1" points="378.5,55.3 378.1,55.3 379.5,59.8 379.8,59.8 			"/>
			<polygon class="st1" points="377.2,55.3 376.8,55.3 378.1,59.8 378.5,59.8 			"/>
			<polygon class="st1" points="375.8,55.3 375.5,55.3 376.8,59.8 377.2,59.8 			"/>
			<polygon class="st1" points="374.5,55.3 374.2,55.3 375.5,59.8 375.8,59.8 			"/>
		</g>
	</g>
	<line class="st4" x1="394.3" y1="55.5" x2="374.1" y2="55.5"/>
	<rect x="332.5" y="41" class="st2" width="1.7" height="2.8"/>
	<rect x="344.1" y="41" class="st2" width="1.7" height="2.8"/>
	<rect x="355.7" y="41" class="st2" width="1.7" height="2.8"/>
	<path class="st5" d="M177.4,58.8h28.2l-26.7,1.5h22.4l-23.1,1.5h20.2c-0.5,0-20.2,1.5-20.2,1.5h17.4l-17.4,1.4h15.2l-15.9,1.5h13
		l-13,2.2h9.4l-9.4,1.5h7.2l-7.9,1.4h5.8l-6.5,2.2h4.3l-4.3,1.5h2.9l-3.6,1.2l-3.1-0.2L177.4,58.8z"/>
	<path class="st5" d="M281.8,43.8l5.3-11.9l17,0l-15.6,1.4h13.4l-14.1,1.5l11.8,0c-0.5,0-11.8,1.5-11.8,1.5h9.1l-9.1,1.5l5.8,0.1
		l-6.6,1.3l3.9,0.4l-3.9,1.7l2.6,0l-2.6,1.4l1.1,0.1l1,0.9"/>
	<path class="st5" d="M206.1,55l4.1-16.1h22.5L211.5,41l17.8,0.1l-18.2,1.4l15.9,0.1c-0.4,0-16.2,1.6-16.2,1.6l13.9-0.1l-14.1,1.4
		l12.4,0.1l-12.6,1.3l10.4,0.1l-10.4,1.6l7.6,0.6l-7.8,1.3l6.1,0.2L210,52l4.7,0.1l-5.3,1.7l3.6,0.5"/>
	<path class="st5" d="M415.3,58.8h-28.2l26.7,1.5h-22.4l23.1,1.5h-20.2c0.5,0,20.2,1.5,20.2,1.5h-17.4l17.4,1.4h-15.2l15.9,1.5h-13
		l13,2.2h-9.4l9.4,1.5h-7.2l8,1.4h-5.8l6.5,2.2h-4.3l4.3,1.5h-2.9l3.6,1.2l3.2-0.2L415.3,58.8z"/>
	<path class="st5" d="M386.6,55l-4.1-16.1H360l21.1,2.1l-17.8,0.1l18.1,1.4l-15.9,0.1c0.4,0,16.2,1.6,16.2,1.6L367.9,44l14,1.4
		l-12.4,0.1l12.6,1.3L371.8,47l10.4,1.6l-7.6,0.6l7.8,1.3l-6.1,0.2l6.4,1.4l-4.7,0.1l5.3,1.7l-3.6,0.5"/>
	<path class="st2" d="M233.5,50h-2.1c-0.6,0-1.2,0.7-1.2,1.7V52c0,0.9,0.5,1.7,1.2,1.7h2.1c0.7,0,1.2-0.7,1.2-1.7v-0.3
		C234.7,50.8,234.2,50,233.5,50z"/>
	<path class="st2" d="M216.5,50h-1.6c-0.5,0-0.9,0.7-0.9,1.7V52c0,0.9,0.4,1.7,0.9,1.7h1.6c0.5,0,0.9-0.7,0.9-1.7v-0.3
		C217.5,50.8,217,50,216.5,50z"/>
	<path class="st2" d="M239.8,50h-2.1c-0.6,0-1.2,0.7-1.2,1.7V52c0,0.9,0.5,1.7,1.2,1.7h2.1c0.6,0,1.2-0.7,1.2-1.7v-0.3
		C241,50.8,240.5,50,239.8,50z"/>
	<path class="st2" d="M221.4,50h-1.6c-0.5,0-0.9,0.7-0.9,1.7V52c0,0.9,0.4,1.7,0.9,1.7h1.6c0.5,0,0.9-0.7,0.9-1.7v-0.3
		C222.3,50.8,221.9,50,221.4,50z"/>
	<path class="st2" d="M245.8,50h-2.1c-0.7,0-1.2,0.7-1.2,1.7V52c0,0.9,0.5,1.7,1.2,1.7h2.1c0.7,0,1.2-0.7,1.2-1.7v-0.3
		C247,50.8,246.5,50,245.8,50z"/>
	<path class="st2" d="M252.1,50H250c-0.7,0-1.2,0.7-1.2,1.7V52c0,0.9,0.5,1.7,1.2,1.7h2.1c0.6,0,1.2-0.7,1.2-1.7v-0.3
		C253.3,50.8,252.7,50,252.1,50z"/>
	<path class="st2" d="M258.4,50h-2.1c-0.7,0-1.2,0.7-1.2,1.7V52c0,0.9,0.5,1.7,1.2,1.7h2.1c0.7,0,1.2-0.7,1.2-1.7v-0.3
		C259.6,50.8,259,50,258.4,50z"/>
	<path class="st2" d="M264.4,50h-2.1c-0.6,0-1.2,0.7-1.2,1.7V52c0,0.9,0.5,1.7,1.2,1.7h2.1c0.6,0,1.2-0.7,1.2-1.7v-0.3
		C265.5,50.8,265,50,264.4,50z"/>
	<path class="st2" d="M282.9,50h-2.1c-0.6,0-1.2,0.7-1.2,1.7V52c0,0.9,0.5,1.7,1.2,1.7h2.1c0.6,0,1.2-0.7,1.2-1.7v-0.3
		C284.1,50.8,283.6,50,282.9,50z"/>
	<path class="st2" d="M270.7,50h-2.1c-0.6,0-1.2,0.7-1.2,1.7V52c0,0.9,0.5,1.7,1.2,1.7h2.1c0.7,0,1.2-0.7,1.2-1.7v-0.3
		C271.8,50.8,271.3,50,270.7,50z"/>
	<path class="st2" d="M289.2,50h-2.1c-0.6,0-1.2,0.7-1.2,1.7V52c0,0.9,0.5,1.7,1.2,1.7h2.1c0.7,0,1.2-0.7,1.2-1.7v-0.3
		C290.4,50.8,289.9,50,289.2,50z"/>
	<path class="st2" d="M276.9,50h-2.1c-0.7,0-1.2,0.7-1.2,1.7V52c0,0.9,0.5,1.7,1.2,1.7h2.1c0.7,0,1.2-0.7,1.2-1.7v-0.3
		C278.1,50.8,277.6,50,276.9,50z"/>
	<g>
		<g>
			<polygon class="st1" points="266.3,41.5 266.6,41.5 265.3,45.9 264.9,45.9 			"/>
			<polygon class="st1" points="267.6,41.5 267.9,41.5 266.6,45.9 266.3,45.9 			"/>
			<polygon class="st1" points="268.9,41.5 269.2,41.5 267.9,45.9 267.6,45.9 			"/>
			<polygon class="st1" points="270.2,41.5 270.5,41.5 269.2,45.9 268.9,45.9 			"/>
		</g>
		<g>
			<polygon class="st1" points="271.5,41.5 271.8,41.5 270.5,45.9 270.2,45.9 			"/>
			<polygon class="st1" points="272.8,41.5 273.2,41.5 271.8,45.9 271.5,45.9 			"/>
			<polygon class="st1" points="274.1,41.5 274.5,41.5 273.2,45.9 272.8,45.9 			"/>
			<polygon class="st1" points="275.5,41.5 275.8,41.5 274.5,45.9 274.1,45.9 			"/>
		</g>
		<g>
			<polygon class="st1" points="276.8,41.5 277.1,41.5 275.8,45.9 275.5,45.9 			"/>
			<polygon class="st1" points="278.1,41.5 278.4,41.5 277.1,45.9 276.8,45.9 			"/>
			<polygon class="st1" points="279.4,41.5 279.7,41.5 278.4,45.9 278.1,45.9 			"/>
			<polygon class="st1" points="280.7,41.5 281.1,41.5 279.7,45.9 279.4,45.9 			"/>
		</g>
		<g>
			<polygon class="st1" points="282,41.5 282.4,41.5 281.1,45.9 280.7,45.9 			"/>
			<polygon class="st1" points="283.4,41.5 283.7,41.5 282.4,45.9 282,45.9 			"/>
			<polygon class="st1" points="284.7,41.5 285,41.5 283.7,45.9 283.4,45.9 			"/>
			<polygon class="st1" points="286,41.5 286.3,41.5 285,45.9 284.7,45.9 			"/>
		</g>
	</g>
	<line class="st4" x1="266.4" y1="41.6" x2="286.6" y2="41.6"/>
	<g>
		<g>
			<polygon class="st1" points="286.7,41.5 287.1,41.5 285.7,45.9 285.4,45.9 			"/>
			<polygon class="st1" points="288.1,41.5 288.4,41.5 287.1,45.9 286.7,45.9 			"/>
			<polygon class="st1" points="289.4,41.5 289.7,41.5 288.4,45.9 288.1,45.9 			"/>
			<polygon class="st1" points="290.7,41.5 291,41.5 289.7,45.9 289.4,45.9 			"/>
		</g>
		<g>
			<polygon class="st1" points="292,41.5 292.3,41.5 291,45.9 290.7,45.9 			"/>
			<polygon class="st1" points="293.3,41.5 293.6,41.5 292.3,45.9 292,45.9 			"/>
			<polygon class="st1" points="294.6,41.5 295,41.5 293.6,45.9 293.3,45.9 			"/>
			<polygon class="st1" points="295.9,41.5 296.3,41.5 295,45.9 294.6,45.9 			"/>
		</g>
		<g>
			<polygon class="st1" points="297.3,41.5 297.6,41.5 296.3,45.9 295.9,45.9 			"/>
			<polygon class="st1" points="298.6,41.5 298.9,41.5 297.6,45.9 297.3,45.9 			"/>
			<polygon class="st1" points="299.9,41.5 300.2,41.5 298.9,45.9 298.6,45.9 			"/>
			<polygon class="st1" points="301.2,41.5 301.5,41.5 300.2,45.9 299.9,45.9 			"/>
		</g>
		<g>
			<polygon class="st1" points="302.5,41.5 302.9,41.5 301.5,45.9 301.2,45.9 			"/>
			<polygon class="st1" points="303.8,41.5 304.2,41.5 302.9,45.9 302.5,45.9 			"/>
			<polygon class="st1" points="305.2,41.5 305.5,41.5 304.2,45.9 303.8,45.9 			"/>
			<polygon class="st1" points="306.5,41.5 306.8,41.5 305.5,45.9 305.2,45.9 			"/>
		</g>
	</g>
	<line class="st4" x1="286.9" y1="41.6" x2="307.1" y2="41.6"/>
	<polygon class="st5" points="229.6,22.3 229.6,21.6 236.8,21.2 237.5,21.2 	"/>
	<polygon class="st5" points="229.4,12.3 224.3,30.3 224.5,32.6 230.1,12.1 	"/>
	<polygon class="st5" points="363.1,22.3 363.1,21.6 355.9,21.2 355.2,21.2 	"/>
	<polygon class="st5" points="363.3,12.3 368.4,30.3 368.2,32.6 362.6,12.1 	"/>
</g>
<g>
	<path class="st6" d="M90.6,114.8c0,3.3,0,6.1-0.2,7.6c-0.1,1-0.3,1.8-1,1.9c-0.3,0.1-0.7,0.1-1,0.1c-0.2,0-0.3,0.1-0.3,0.3
		c0,0.3,0.2,0.3,0.6,0.3h7.6c0.4,0,0.6-0.1,0.6-0.3c0-0.1-0.1-0.3-0.3-0.3c-0.3,0-1.2-0.1-1.7-0.1c-1.1-0.1-1.4-0.9-1.5-1.9
		c-0.2-1.5-0.2-4.2-0.2-7.6v-2.9c0-0.3,0.1-0.3,0.3-0.3c0.6,0,4.7,0,5.6,0.1c1.2,0.1,1.8,0.8,2,1.3c0.2,0.4,0.2,0.9,0.2,1.3
		c0,0.2,0.1,0.3,0.3,0.3c0.3,0,0.3-0.3,0.3-0.7c0-0.2,0.1-1.6,0.1-2.3c0.1-1.1,0.3-1.7,0.3-1.9c0-0.2,0-0.3-0.2-0.3
		s-0.2,0.2-0.4,0.3c-0.4,0.5-0.9,0.6-1.8,0.6c-0.5,0-1.1,0-1.7,0l-4.8,0c-0.2,0-0.3-0.1-0.3-0.3v-9.5c0-0.3,0.1-0.4,0.3-0.4l5.8,0.1
		c1.5,0,2.4,0.7,2.6,1.1c0.2,0.4,0.3,1,0.3,1.3c0,0.2,0.1,0.4,0.2,0.4c0.2,0,0.2-0.2,0.3-0.4c0.1-0.6,0.1-2.1,0.2-2.5
		c0.1-1,0.3-1.4,0.3-1.6c0-0.2-0.1-0.3-0.2-0.3s-0.3,0.1-0.5,0.2c-0.3,0.4-0.9,0.4-1.7,0.4c-0.9,0-8.3,0-8.9,0l-1.3,0
		c-0.8,0-1.7,0-2.5,0c-0.4,0-0.5,0.1-0.5,0.3c0,0.1,0.1,0.2,0.3,0.2c0.3,0.2,0.9,0.2,1.2,0.3c1.2,0.2,1.4,0.8,1.5,1.9
		c0.1,1.1,0.1,2,0.1,7.3V114.8z"/>
	<path class="st6" d="M112,116.2c0,2.9,0,5.3-0.2,6.5c-0.1,0.9-0.2,1.5-0.8,1.6c-0.3,0-0.7,0.1-0.9,0.1c-0.2,0-0.2,0.2-0.2,0.3
		c0,0.1,0.2,0.2,0.5,0.2c0.5,0,1.2,0,1.8-0.1c0.6,0.1,1.2,0.1,1.2,0.1c0.4,0,1.2,0,2.5,0.1c1.3-0.1,3.1,0,5.5,0c1.3,0,1.6,0,1.8-0.8
		c0.2-0.6,0.4-2.7,0.4-2.9c0-0.2,0-0.1-0.2-0.1c-0.2,0-0.2-0.3-0.3,0.1c-0.2,1.2-0.6,1.7-1.4,2.1c-0.8,0.3-2.4,0.3-3.2,0.3
		c-3.1,0-3.7-0.4-3.8-2.4c0-0.6,0-4.1,0-5.1v-2.5c0-0.1,0-0.2,0.2-0.2c0.5,0,3.9,0,4.8,0.1c1.2,0.2,1.5,0.5,1.6,0.9
		c0.1,0.4,0.1,0.7,0.1,1c0,0.2,0.1,0.3,0.3,0.3c0.3,0,0.3-0.3,0.3-0.6c0-0.2,0.1-1.3,0.1-1.9c0.1-1,0.2-1.4,0.2-1.6
		c0-0.2-0.1-0.2-0.2-0.2c-0.1,0-0.3,0.2-0.5,0.4c-0.4,0.3-0.8,0.3-1.6,0.4c-0.7,0.1-4.9,0.1-5.3,0.1c-0.2,0-0.2-0.1-0.2-0.3v-7.6
		c0-0.2,0-0.3,0.2-0.3c0.4,0,4,0,4.6,0.1c1.7,0.2,2.1,0.4,2.3,0.9c0.2,0.3,0.2,0.8,0.2,1c0,0.2,0.1,0.4,0.3,0.4
		c0.1,0,0.2-0.2,0.3-0.3c0.1-0.6,0.1-1.9,0.2-2.2c0.1-0.8,0.2-1.2,0.2-1.4c0-0.1,0-0.3-0.1-0.3c-0.1,0-0.3,0.1-0.4,0.1
		c-0.2,0.4-0.9,0.5-1.5,0.5c-0.7,0-7.2,0-7.4,0c-0.2,0-2-0.1-3.4-0.1c-0.3,0-0.5,0.1-0.5,0.3c0,0.1,0.1,0.2,0.2,0.2
		c0.3,0.1,0.8,0.1,1,0.2c1,0.1,1.2,0.6,1.3,1.5c0.1,0.9,0.1,1.7,0.1,6V116.2z"/>
	<path class="st6" d="M135.3,104.6c0-0.2,0.1-0.3,0.3-0.3c0.3-0.1,1.4-0.2,2.3-0.2c3.4,0,5.5,2,5.5,5.4c0,2.1-0.8,3.6-1.9,4.2
		c-0.8,0.5-1.6,0.5-2.4,0.5c-1.4,0-3.1-0.2-3.5-0.4c-0.1-0.1-0.2-0.2-0.2-0.4V104.6z M132.8,116.3c0,2.8,0,5.1-0.2,6.3
		c-0.1,0.9-0.2,1.4-0.8,1.6c-0.3,0.1-0.7,0.1-0.9,0.1c-0.2,0-0.3,0.2-0.3,0.3c0,0.2,0.2,0.3,0.5,0.3h6.8c0.4,0,0.5-0.1,0.5-0.3
		c0-0.1,0-0.3-0.3-0.3c-0.3,0-1-0.1-1.4-0.1c-1-0.1-1.2-0.7-1.3-1.6c-0.1-1.2-0.1-3.5-0.1-6.3v-0.7c0-0.2,0.1-0.3,0.2-0.3l4.1,0.1
		c0.2,0,0.3,0,0.4,0.2c0.7,0.8,2.1,2.7,3.5,4.3c1.6,2.2,2.7,3.6,4,4.3c0.8,0.5,1.5,0.7,3.3,0.7h1.9c0.6,0,0.7-0.1,0.7-0.3
		c0-0.1-0.1-0.3-0.3-0.3c-0.2,0-0.5,0-1.1-0.1c-0.8-0.1-1.8-0.4-3.4-2c-1.8-1.8-3.8-4.5-6.2-7.8c2.8-2.3,3.6-4.3,3.6-6.4
		c0-1.9-1.3-3.3-2-3.8c-1.6-1.3-3.9-1.5-5.9-1.5h-7.5c-0.4,0-0.5,0.1-0.5,0.3c0,0.1,0.1,0.3,0.3,0.3c0.3,0,0.8,0,1,0
		c1,0.1,1.2,0.6,1.2,1.5c0.1,0.9,0.1,1.7,0.1,6.1V116.3z"/>
	<path class="st6" d="M160.1,104.6c0-0.2,0.1-0.3,0.3-0.3c0.3-0.1,1.4-0.2,2.3-0.2c3.4,0,5.5,2,5.5,5.4c0,2.1-0.8,3.6-1.9,4.2
		c-0.8,0.5-1.6,0.5-2.4,0.5c-1.4,0-3.1-0.2-3.5-0.4c-0.1-0.1-0.2-0.2-0.2-0.4V104.6z M157.5,116.3c0,2.8,0,5.1-0.2,6.3
		c-0.1,0.9-0.2,1.4-0.8,1.6c-0.3,0.1-0.7,0.1-0.9,0.1c-0.2,0-0.2,0.2-0.2,0.3c0,0.2,0.2,0.3,0.5,0.3h6.8c0.4,0,0.5-0.1,0.5-0.3
		c0-0.1,0-0.3-0.3-0.3c-0.3,0-1-0.1-1.4-0.1c-1-0.1-1.2-0.7-1.3-1.6c-0.1-1.2-0.1-3.5-0.1-6.3v-0.7c0-0.2,0.1-0.3,0.2-0.3l4.1,0.1
		c0.2,0,0.3,0,0.4,0.2c0.7,0.8,2.1,2.7,3.4,4.3c1.6,2.2,2.7,3.6,4,4.3c0.8,0.5,1.5,0.7,3.3,0.7h1.9c0.6,0,0.7-0.1,0.7-0.3
		c0-0.1-0.1-0.3-0.3-0.3c-0.2,0-0.5,0-1.1-0.1c-0.8-0.1-1.8-0.4-3.4-2c-1.8-1.8-3.8-4.5-6.2-7.8c2.8-2.3,3.6-4.3,3.6-6.4
		c0-1.9-1.3-3.3-2-3.8c-1.6-1.3-3.8-1.5-5.9-1.5h-7.5c-0.3,0-0.5,0.1-0.5,0.3c0,0.1,0.1,0.3,0.2,0.3c0.3,0,0.8,0,1,0
		c1,0.1,1.2,0.6,1.3,1.5c0.1,0.9,0.1,1.7,0.1,6.1V116.3z"/>
	<path class="st6" d="M185.5,119.8c0,0.5,0,1.7-0.1,2.9c-0.1,0.9-0.3,1.4-0.9,1.5c-0.3,0.1-0.6,0.1-0.9,0.1c-0.2,0-0.2,0.2-0.2,0.3
		c0,0.2,0.1,0.3,0.5,0.3h6.6c0.3,0,0.5-0.1,0.5-0.3c0-0.1-0.1-0.3-0.2-0.3c-0.3,0-1-0.1-1.4-0.1c-0.9-0.1-1.1-0.7-1.2-1.5
		c-0.1-1.2-0.1-2.4-0.1-2.9v-2.5c0-0.9-0.1-1.9,0.4-2.9c0.6-1.2,4.9-8,5.9-9.2c0.7-0.8,0.9-1.1,1.5-1.4c0.5-0.3,1.1-0.4,1.4-0.4
		c0.2,0,0.9-0.2,0.9-0.4c0-0.1-0.7-0.2-0.9-0.2h-5.1c-0.3,0-0.5,0.1-0.5,0.2c0,0.2,0.2,0.3,0.4,0.4c0.4,0.1,0.5,0.3,0.5,0.8
		c0,0.4-0.1,0.8-0.5,1.5c-0.6,0.9-4.4,7.2-4.9,8.4l-5.4-9c-0.2-0.4-0.4-0.7-0.4-1.1c0-0.2,0.1-0.4,0.4-0.5c0.3-0.1,0.5-0.3,0.5-0.4
		c0-0.2-0.1-0.3-0.4-0.3h-5.6c-0.3,0-0.4,0.1-0.4,0.3c0,0.2,0.1,0.3,0.3,0.3c0.2,0,0.8,0.1,1.3,0.4c0.6,0.4,1.3,1,2,2.1
		c1,1.5,5.2,8,5.4,8.4c0.5,0.8,0.7,1.4,0.7,3V119.8z"/>
	<path class="st7" d="M54.9,112.2c0.8,1.2,1.8,2.3,3,3.1c1.2,0.9,2.4,1.6,3.8,2.1c1.4,0.5,2.6,0.8,3.7,1c0.2,0.1,0.3,0.1,0.5,0
		c0.1-0.1,0-0.2-0.4-0.3c-1.1-0.2-2.2-0.7-3.5-1.6c-1.3-0.8-2.5-1.8-3.6-2.8c-1.1-1.1-2.1-2.1-2.9-3.1c-0.8-1-1.2-1.8-1.2-2.5
		c0-0.4,0-0.8,0.2-1.4c0.1-0.6,0.6-0.9,1.5-0.9c0.8-0.1,1.6,0.1,2.5,0.5c0.9,0.4,1.3,0.9,1.3,1.5c0.1,1.2,0,2.1-0.3,2.6
		c-0.3,0.5-0.4,0.8-0.3,0.8c0.3,0,0.6-0.4,0.9-1.3c0.3-0.8,0.4-1.6,0.4-2.2c-0.1-1.2-0.6-2-1.5-2.4c-0.9-0.5-1.9-0.7-3.1-0.6
		c-0.7,0.1-1.3,0.3-1.8,0.8c-0.5,0.5-0.7,1.4-0.6,2.5C53.6,109.6,54,111,54.9,112.2z"/>
	<path class="st7" d="M65.9,122.6c-0.9,0-2-0.2-3.1-0.7c-1.1-0.4-2.3-1-3.6-1.7c-1.3-0.7-2.6-1.4-3.9-2.2c-1.4-0.8-2.7-1.5-4.1-2.1
		c-1.3-0.6-2.7-1.2-4-1.6c-1.3-0.4-2.6-0.6-3.8-0.5c-0.5,0-1,0.1-1.6,0.3c-0.6,0.2-1.2,0.4-1.8,0.7c-0.6,0.3-1.2,0.7-1.7,1.1
		c-0.5,0.4-1,0.9-1.3,1.5c-0.1,0.2,0,0.4,0.1,0.4c0.1,0,0.3,0,0.5-0.2c1.3-1.8,3.3-2.8,5.8-3c1.2-0.1,2.6,0.3,4.3,1.2
		c1.7,0.9,3.6,1.9,5.6,3c2,1.1,4.2,2.1,6.4,3c2.2,0.9,4.4,1.3,6.5,1.2c0.2-0.2,0.2-0.3,0.2-0.4C66.3,122.7,66.1,122.6,65.9,122.6z"
		/>
	<path class="st7" d="M73.3,122.2c-1.7-0.1-3.3-0.5-5-1c-2.6-0.9-5.2-2-7.8-3.4c-2.2-1.2-4.3-2.4-6.4-3.8c-2.1-1.3-4.3-2.5-6.4-3.6
		c-2.2-1.1-4.4-1.9-6.7-2.6c-2.3-0.7-4.6-0.9-7.1-0.7c-3.1,0.2-5.4,0.9-6.8,2.2c-1.4,1.2-2.1,2.8-1.9,4.6c0.1,0.9,0.3,1.7,0.8,2.4
		c0.5,0.7,1,1.2,1.6,1.6c0.6,0.4,1.3,0.7,2,0.9c0.7,0.2,1.3,0.3,1.9,0.3c0.3,0,0.2-0.1-0.3-0.3c-0.5-0.2-1-0.4-1.7-0.8
		c-0.7-0.4-1.3-0.9-2-1.6c-0.6-0.6-1-1.5-1.1-2.5c0-0.5,0-1.1,0.2-1.8s0.5-1.3,0.9-1.9c0.4-0.6,1-1.1,1.8-1.6
		c0.8-0.4,1.7-0.7,2.8-0.8c2.4-0.2,4.7,0.1,7,0.8s4.5,1.6,6.7,2.7c2.2,1.1,4.5,2.4,6.7,3.8c2.2,1.4,4.6,2.7,7,3.8
		c2.5,1.3,5.1,2.3,7.7,3.1c2.3,0.7,4.7,1,7.3,1"/>
	<path class="st7" d="M540.6,112.3c-0.8,1.2-1.8,2.2-3,3.1c-1.2,0.9-2.5,1.5-3.8,2.1c-1.3,0.5-2.6,0.8-3.7,0.9
		c-0.2,0.1-0.4,0.1-0.5,0c-0.1-0.1,0-0.2,0.4-0.3c1.1-0.2,2.2-0.7,3.5-1.5c1.3-0.8,2.5-1.7,3.6-2.8c1.1-1,2.1-2.1,2.9-3.1
		c0.8-1,1.2-1.8,1.2-2.4c0-0.3,0-0.8-0.2-1.3c-0.1-0.5-0.6-0.8-1.5-0.9c-0.8-0.1-1.6,0.1-2.5,0.5c-0.8,0.4-1.3,0.9-1.3,1.4
		c-0.1,1.2,0,2.1,0.3,2.6c0.3,0.5,0.4,0.8,0.3,0.8c-0.3,0-0.6-0.4-0.9-1.2c-0.3-0.8-0.4-1.5-0.4-2.2c0.1-1.2,0.6-2,1.5-2.4
		c0.9-0.5,1.9-0.6,3.1-0.6c0.7,0,1.3,0.3,1.8,0.8s0.7,1.3,0.6,2.5C541.9,109.8,541.4,111.1,540.6,112.3z"/>
	<path class="st7" d="M529.5,122.5c0.9,0,2-0.2,3.1-0.7c1.1-0.4,2.3-1,3.6-1.6c1.3-0.7,2.6-1.4,3.9-2.1c1.4-0.8,2.7-1.4,4.1-2.1
		c1.3-0.6,2.7-1.1,4-1.5c1.3-0.4,2.6-0.6,3.8-0.5c0.5,0,1,0.1,1.6,0.3c0.6,0.2,1.2,0.4,1.8,0.7c0.6,0.3,1.2,0.7,1.7,1.1
		c0.5,0.4,1,0.9,1.3,1.5c0.1,0.2,0,0.3-0.1,0.4c-0.1,0-0.3,0-0.5-0.2c-1.3-1.8-3.3-2.8-5.8-2.9c-1.1-0.1-2.6,0.3-4.3,1.2
		c-1.7,0.9-3.6,1.8-5.6,2.9c-2,1.1-4.2,2-6.4,2.9c-2.2,0.9-4.4,1.3-6.5,1.2c-0.2-0.1-0.2-0.3-0.1-0.4
		C529.1,122.5,529.3,122.5,529.5,122.5z"/>
	<path class="st7" d="M522.1,122.1c1.7-0.1,3.4-0.5,5-1c2.6-0.9,5.2-2,7.8-3.4c2.2-1.2,4.3-2.4,6.4-3.7c2.1-1.3,4.3-2.5,6.4-3.5
		c2.2-1.1,4.4-1.9,6.7-2.5c2.3-0.6,4.6-0.9,7.1-0.7c3.1,0.2,5.4,0.9,6.8,2.1c1.4,1.2,2,2.7,1.9,4.5c-0.1,0.9-0.3,1.7-0.8,2.3
		c-0.5,0.7-1,1.2-1.6,1.6c-0.6,0.4-1.3,0.7-2,0.9c-0.7,0.2-1.4,0.3-1.9,0.2c-0.3,0-0.2-0.1,0.3-0.3c0.5-0.1,1-0.4,1.7-0.8
		c0.7-0.4,1.3-0.9,2-1.6c0.6-0.6,1-1.5,1.1-2.5c0-0.5,0-1.1-0.2-1.8c-0.2-0.7-0.5-1.3-0.9-1.9c-0.4-0.6-1-1.1-1.8-1.5
		c-0.8-0.4-1.7-0.7-2.8-0.8c-2.4-0.2-4.7,0.1-7,0.8c-2.3,0.7-4.5,1.6-6.7,2.7c-2.2,1.1-4.5,2.3-6.7,3.7c-2.3,1.4-4.6,2.6-7,3.8
		c-2.5,1.2-5,2.2-7.7,3c-2.3,0.7-4.7,1-7.3,1"/>
	<path class="st6" d="M216.5,108.9c0-5.4,0-6.3,0.1-7.4c0.1-1.2,0.3-1.8,1.3-2c0.4-0.1,0.9-0.1,1.2-0.1c0.1,0,0.3-0.1,0.3-0.3
		c0-0.3-0.2-0.3-0.6-0.3h-7.3c-0.4,0-0.6,0.1-0.6,0.3c0,0.2,0.1,0.3,0.3,0.3c0.3,0,0.9,0,1.2,0.1c1.1,0.3,1.4,0.8,1.5,2
		c0.1,1.1,0.1,2.1,0.1,7.4v6.1c0,3.2,0,5.9-0.2,7.3c-0.1,1-0.3,1.8-1,1.9c-0.3,0.2-0.7,0.2-1,0.2c-0.2,0-0.3,0.1-0.3,0.3
		c0,0.3,0.2,0.3,0.6,0.3c0.5,0,1.3,0,2-0.1c0.6,0,1.1,0,1.3,0c0.9,0,1.9,0,3.4,0.1c1.5-0.1,3.3-0.1,5.8-0.1c1.8,0,1.9-0.1,2.2-0.9
		c0.3-1,0.5-3,0.5-3.4s0-0.5-0.2-0.5c-0.2,0-0.3,0.2-0.3,0.4c-0.1,0.7-0.4,1.5-0.9,2.1c-0.8,1-2.4,1-4.2,1c-2.7,0-3.6-0.2-4.2-0.8
		c-0.6-0.6-0.8-2.8-0.8-7.9V108.9z"/>
	<path class="st6" d="M237.5,115.6c-0.1,0-0.1-0.1-0.1-0.2l2.8-8.1c0.2-0.4,0.3-0.4,0.5,0l3,8.1c0,0.1,0,0.2-0.1,0.2H237.5z
		 M233.1,121.7c-0.6,1.5-1.2,2.5-2.6,2.6c-0.2,0-0.7,0.1-0.9,0.1c-0.1,0-0.3,0.1-0.3,0.3c0,0.2,0.2,0.3,0.6,0.3h5.8
		c0.3,0,0.4-0.1,0.4-0.3c0-0.2-0.1-0.3-0.3-0.3h-0.3c-0.5,0-1-0.2-1-0.8c0-0.5,0.2-1.2,0.4-1.9l1.7-4.6c0.1-0.2,0.2-0.2,0.3-0.2h7
		c0.2,0,0.2,0,0.3,0.2l2.7,6.6c0.2,0.5-0.1,0.7-0.3,0.8c-0.1,0.1-0.2,0.1-0.2,0.3c0,0.2,0.5,0.2,1.1,0.3c2.1,0.1,4.4,0.1,4.8,0.1
		c0.3,0,0.7-0.1,0.7-0.3c0-0.2-0.2-0.3-0.4-0.3c-0.3,0-0.8,0-1.2-0.2c-0.7-0.2-1.5-0.6-2.6-3.1c-1.9-4.4-6.8-16.5-7.3-17.8
		c-0.3-0.7-0.4-1.1-0.7-1.1c-0.2,0-0.3,0.2-0.7,1.1L233.1,121.7z"/>
	<path class="st6" d="M259.1,107.2c0.9,1,4.3,4.6,7.8,8.2c3.2,3.7,7.5,8.1,7.8,8.4c1.7,1.5,2.1,1.7,2.4,1.7c0.2,0,0.3-0.2,0.3-2
		l0.1-17.5c0-1.8,0.1-2.4,1.1-2.6c0.4-0.1,0.6-0.1,0.7-0.1c0.2,0,0.4-0.2,0.4-0.3c0-0.2-0.2-0.3-0.6-0.3h-5.9c-0.3,0-0.6,0-0.6,0.3
		c0,0.1,0,0.3,0.2,0.3c0.2,0,0.9,0,1.5,0.1c0.9,0.2,1.1,0.8,1.1,2.8l0.3,14.9c-0.9-1-4.1-4.5-7.1-7.7c-4.6-5.3-9-9.9-9.5-10.4
		c-0.3-0.3-0.9-0.9-1.2-0.9c-0.3,0-0.4,0.3-0.4,1.5v16.8c0,2.7-0.1,3.4-0.9,3.7c-0.4,0.1-1,0.2-1.2,0.2c-0.1,0-0.3,0.1-0.3,0.3
		c0,0.3,0.2,0.3,0.5,0.3h6.2c0.3,0,0.5-0.1,0.5-0.3c0-0.2-0.1-0.3-0.2-0.3c-0.3,0-1,0-1.5-0.2c-0.8-0.2-1.1-0.9-1.2-3.3L259.1,107.2
		z"/>
	<path class="st6" d="M290.7,104.9c0-0.3,0.1-0.5,0.4-0.6c0.3-0.1,1.3-0.2,1.9-0.2c3.7,0,7.2,0.4,10.2,3.3c1.3,1.2,3,3.6,3,7.3
		c0,2.7-0.8,5.5-2.5,7c-1.9,1.7-4.5,2.7-7.4,2.7c-3.7,0-4.8-0.6-5.2-1.2c-0.3-0.3-0.3-1.4-0.4-2.1c0-0.5,0-3.3,0-6.4V104.9z
		 M288.1,116.7c0,2.6,0,4.8-0.2,6c-0.1,0.8-0.2,1.4-0.8,1.5c-0.3,0.1-0.7,0.1-0.9,0.1c-0.2,0-0.2,0.2-0.2,0.3c0,0.2,0.2,0.3,0.5,0.3
		c0.5,0,1.2,0,1.8-0.1c0.6,0,1.1,0,1.2,0c0.1,0,1.1,0.1,2.4,0.2c1.4,0.4,3,0.5,4.4,0.5c5.4,0,8.2-2.2,9.5-3.5
		c1.5-1.7,2.9-4.5,2.9-8.2c0-3.5-1.3-5.9-2.6-7.4c-3.7-3.8-9.5-3.5-12.6-3.5H286c-0.3,0-0.5,0.1-0.5,0.3c0,0.1,0.1,0.3,0.2,0.3
		c0.3,0,0.8,0,1,0.1c1,0.1,1.2,0.6,1.3,1.6c0.1,0.9,0.1,1.8,0.1,6.3V116.7z"/>
	<path class="st6" d="M320.1,111.3c0-4.5,0-5.3,0-6.2c0.1-1,0.2-1.4,1.1-1.6c0.3-0.1,0.5-0.1,0.8-0.1c0.1,0,0.2-0.2,0.2-0.3
		c0-0.2-0.1-0.3-0.5-0.3h-5.9c-0.4,0-0.5,0.1-0.5,0.3c0,0.1,0.1,0.3,0.3,0.3c0.2,0,0.6,0,0.9,0.1c0.7,0.1,0.9,0.6,1,1.6
		c0.1,0.9,0.1,1.7,0.1,6.2v5.1c0,2.8,0,5.1-0.2,6.3c-0.1,0.9-0.2,1.4-0.8,1.5c-0.3,0.1-0.7,0.1-0.9,0.1c-0.2,0-0.3,0.2-0.3,0.3
		c0,0.2,0.2,0.3,0.5,0.3h6.6c0.4,0,0.5-0.1,0.5-0.3c0-0.1-0.1-0.3-0.3-0.3c-0.3,0-0.9-0.1-1.4-0.1c-0.9-0.1-1-0.7-1.1-1.5
		c-0.1-1.2-0.1-3.5-0.1-6.3V111.3z"/>
	<path class="st6" d="M333.3,107.2c0.9,1,4.3,4.6,7.8,8.2c3.2,3.7,7.5,8.1,7.8,8.4c1.7,1.5,2.1,1.7,2.4,1.7c0.2,0,0.3-0.2,0.3-2
		l0.1-17.5c0-1.8,0.1-2.4,1.1-2.6c0.3-0.1,0.6-0.1,0.7-0.1c0.2,0,0.4-0.2,0.4-0.3c0-0.2-0.2-0.3-0.6-0.3h-5.8c-0.3,0-0.6,0-0.6,0.3
		c0,0.1,0,0.3,0.2,0.3c0.2,0,0.9,0,1.5,0.1c0.9,0.2,1.1,0.8,1.1,2.8l0.3,14.9c-0.9-1-4.1-4.5-7.1-7.7c-4.6-5.3-9-9.9-9.4-10.4
		c-0.3-0.3-0.9-0.9-1.2-0.9c-0.3,0-0.4,0.3-0.4,1.5v16.8c0,2.7-0.1,3.4-0.9,3.7c-0.5,0.1-1,0.2-1.3,0.2c-0.1,0-0.2,0.1-0.2,0.3
		c0,0.3,0.2,0.3,0.5,0.3h6.2c0.3,0,0.5-0.1,0.5-0.3c0-0.2-0.1-0.3-0.2-0.3c-0.3,0-1,0-1.5-0.2c-0.8-0.2-1.1-0.9-1.2-3.3L333.3,107.2
		z"/>
	<path class="st6" d="M377,122.8c0,0.6-0.3,0.7-0.6,0.9c-0.8,0.5-2.3,0.6-3.4,0.6c-2.9,0-5.5-0.9-8-3.2c-1.1-1.1-3.3-4.2-3.3-8.5
		c0-3.4,1.3-6,3.1-7.3c2.4-1.7,4.7-1.9,6.6-1.9c3.9,0,6.2,1.1,7,2.2c0.5,0.7,0.7,1.5,0.7,1.9c0,0.3,0,0.4,0.2,0.4
		c0.2,0,0.4-0.1,0.4-0.6c0-2.9,0.2-3.7,0.2-4.1c0-0.1-0.1-0.3-0.4-0.3c-0.8,0-1.9-0.2-2.5-0.3c-0.6-0.1-2.8-0.5-4.8-0.5
		c-2.4,0-5.5,0.2-8.3,1.9c-2.7,1.6-4.8,4.9-4.8,9.5c0,3.9,1.6,7.2,3.4,8.9c3.5,2.9,7.9,3.1,10.2,3.1c2,0,4.8-0.3,6.6-1.2
		c0.4-0.2,0.4-0.3,0.4-1.7v-3.5c0-1.3,0-2.2,0-3.2c0.1-1.1,0.3-1.6,1.1-1.7c0.4-0.1,0.6-0.1,0.8-0.1c0.1,0,0.2-0.2,0.2-0.3
		c0-0.3-0.1-0.3-0.5-0.3h-6.5c-0.4,0-0.5,0-0.5,0.3c0,0.1,0.1,0.3,0.3,0.3c0.3,0,0.8,0,1.1,0.1c1.3,0.3,1.4,0.6,1.4,3.1V122.8z"/>
	<path class="st8" d="M402.2,125.6c1.9,0,3.7-0.4,5.2-1.4c2.4-1.7,2.9-4.4,2.9-5.8c0-2.8-1-5-5-8.2l-1-0.8c-3.1-2.6-3.9-3.9-3.9-5.9
		c0-2.6,1.8-4.1,4.1-4.1c3.1,0,4,1.5,4.2,1.9c0.2,0.4,0.4,1.3,0.4,1.8c0,0.3,0.1,0.5,0.3,0.5c0.2,0,0.2-0.2,0.2-0.8
		c0-2.3,0.1-3.4,0.1-3.6c0-0.2-0.1-0.2-0.4-0.2s-0.5,0-1.2-0.2c-0.9-0.4-1.8-0.5-3.1-0.5c-4.2,0-6.6,2.5-6.6,6.3
		c0,2.4,0.7,4.6,4.1,7.6l1.5,1.3c2.9,2.5,3.8,3.9,3.8,6.3c0,2.2-1.6,4.7-4.8,4.7c-2.5,0-4.8-1-5.3-3.6c-0.1-0.5-0.1-1-0.1-1.3
		c0-0.3,0-0.4-0.2-0.4c-0.1,0-0.2,0.2-0.2,0.6c0,0.6-0.2,2-0.2,3.7c0,1,0,1.1,0.4,1.3C398.9,125.3,400.5,125.6,402.2,125.6z"/>
	<path class="st8" d="M419.2,115.8c0,4.3,1.1,6.3,2.4,7.7c2.2,2,5.4,2.1,6.4,2.1c1.8,0,4.2-0.2,6.5-2.1c2.3-2.1,2.6-5.6,2.6-8.8
		v-3.2c0-4.6,0-5.4,0-6.3c0.1-1,0.2-1.5,1.1-1.6c0.4-0.1,0.6-0.1,0.8-0.1c0.1,0,0.2-0.2,0.2-0.3c0-0.2-0.1-0.3-0.5-0.3h-5.6
		c-0.4,0-0.5,0.1-0.5,0.3c0,0.1,0.1,0.3,0.2,0.3c0.3,0,0.8,0,1.1,0.1c1,0.1,1.2,0.7,1.2,1.6c0,0.9,0.1,1.8,0.1,6.3v3.7
		c0,3-0.3,5.4-1.8,7.1c-1.1,1.3-2.9,2.1-4.8,2.1c-1.8,0-3.1-0.2-4.6-1.6c-1.3-1.2-2.3-3-2.3-7.2v-4.1c0-4.6,0-5.4,0.1-6.3
		c0.1-1,0.3-1.5,1.1-1.6c0.4-0.1,0.6-0.1,0.8-0.1c0.1,0,0.3-0.2,0.3-0.3c0-0.2-0.2-0.3-0.5-0.3h-6.4c-0.4,0-0.5,0.1-0.5,0.3
		c0,0.1,0.1,0.3,0.2,0.3c0.3,0,0.8,0,1,0.1c1,0.1,1.2,0.7,1.3,1.6c0.1,0.9,0.1,1.8,0.1,6.3V115.8z"/>
	<path class="st8" d="M449.8,111.3c0-4.5,0-5.3,0-6.2c0.1-1,0.2-1.4,1.1-1.6c0.3-0.1,0.6-0.1,0.8-0.1c0.1,0,0.2-0.2,0.2-0.3
		c0-0.2-0.1-0.3-0.5-0.3h-6c-0.4,0-0.5,0.1-0.5,0.3c0,0.1,0.1,0.3,0.3,0.3c0.2,0,0.6,0,0.9,0.1c0.7,0.1,0.9,0.6,1,1.6
		c0.1,0.9,0.1,1.7,0.1,6.2v5.1c0,2.8,0,5.1-0.2,6.3c-0.1,0.9-0.2,1.4-0.8,1.5c-0.3,0.1-0.7,0.1-0.9,0.1c-0.2,0-0.2,0.2-0.2,0.3
		c0,0.2,0.2,0.3,0.5,0.3h6.6c0.4,0,0.5-0.1,0.5-0.3c0-0.1-0.1-0.3-0.2-0.3c-0.3,0-0.9-0.1-1.4-0.1c-0.9-0.1-1-0.7-1.1-1.5
		c-0.1-1.2-0.1-3.5-0.1-6.3V111.3z"/>
	<path class="st8" d="M468.5,104.1l3.8,0.1c2.9,0.1,3.5,0.7,3.6,1.6l0,0.3c0,0.4,0.1,0.5,0.2,0.5c0.1,0,0.3-0.1,0.3-0.4
		c0-0.6,0.1-2.7,0.1-3.6c0-0.2,0-0.3-0.1-0.3c-0.1,0-0.4,0.1-0.8,0.1c-0.5,0.4-1.2,0.5-2.2,0.5h-11.3c-0.4,0-1.5,0-2.4-0.1
		c-0.8-0.2-1.1-0.5-1.4-0.5c-0.1,0-0.3,0.4-0.3,0.6c-0.1,0.4-0.7,2.9-0.7,3.2c0,0.2,0.1,0.3,0.2,0.3c0.1,0,0.2,0,0.3-0.3
		c0.1-0.2,0.1-0.4,0.5-0.9c0.5-0.7,1.2-0.9,3.1-0.9l4.4-0.1v12.3c0,2.8,0,5.1-0.1,6.3c-0.1,0.9-0.3,1.4-0.9,1.6
		c-0.3,0.1-0.6,0.1-0.9,0.1c-0.2,0-0.3,0.1-0.3,0.3c0,0.2,0.1,0.3,0.5,0.3h6.7c0.4,0,0.5-0.1,0.5-0.3c0-0.1,0-0.3-0.2-0.3
		c-0.3,0-0.9-0.1-1.4-0.1c-0.9-0.1-1.1-0.7-1.2-1.5c-0.1-1.2-0.1-3.5-0.1-6.3V104.1z"/>
	<path class="st8" d="M484.7,116.2c0,2.9,0,5.3-0.2,6.5c-0.1,0.9-0.2,1.5-0.8,1.6c-0.3,0-0.7,0.1-0.9,0.1c-0.2,0-0.3,0.2-0.3,0.3
		c0,0.1,0.2,0.2,0.5,0.2c0.5,0,1.2,0,1.8-0.1c0.6,0.1,1.2,0.1,1.2,0.1c0.4,0,1.2,0,2.5,0.1c1.3-0.1,3.1,0,5.5,0c1.3,0,1.6,0,1.8-0.8
		c0.2-0.6,0.4-2.7,0.4-2.9c0-0.2,0-0.1-0.2-0.1c-0.2,0-0.2-0.3-0.3,0.1c-0.2,1.2-0.6,1.7-1.4,2.1c-0.9,0.3-2.4,0.3-3.2,0.3
		c-3.1,0-3.7-0.4-3.8-2.4c0-0.6,0-4.1,0-5.1v-2.5c0-0.1,0-0.2,0.2-0.2c0.5,0,3.9,0,4.8,0.1c1.2,0.2,1.5,0.5,1.6,0.9
		c0.1,0.4,0.1,0.7,0.1,1c0,0.2,0.1,0.3,0.3,0.3c0.3,0,0.3-0.3,0.3-0.6c0-0.2,0.1-1.3,0.1-1.9c0.1-1,0.2-1.4,0.2-1.6
		c0-0.2-0.1-0.2-0.2-0.2s-0.3,0.2-0.5,0.4c-0.4,0.3-0.8,0.3-1.6,0.4c-0.7,0.1-4.9,0.1-5.3,0.1c-0.2,0-0.2-0.1-0.2-0.3v-7.6
		c0-0.2,0-0.3,0.2-0.3c0.4,0,4,0,4.6,0.1c1.7,0.2,2,0.4,2.3,0.9c0.2,0.3,0.2,0.8,0.2,1c0,0.2,0.1,0.4,0.3,0.4c0.1,0,0.2-0.2,0.3-0.3
		c0.1-0.6,0.1-1.9,0.2-2.2c0.1-0.8,0.2-1.2,0.2-1.4c0-0.1,0-0.3-0.1-0.3c-0.1,0-0.3,0.1-0.4,0.1c-0.2,0.4-0.9,0.5-1.5,0.5
		c-0.7,0-7.2,0-7.4,0c-0.2,0-2.1-0.1-3.4-0.1c-0.4,0-0.5,0.1-0.5,0.3c0,0.1,0.1,0.2,0.3,0.2c0.3,0.1,0.8,0.1,1,0.2
		c1,0.1,1.2,0.6,1.2,1.5c0.1,0.9,0.1,1.7,0.1,6V116.2z"/>
	<path class="st8" d="M507.5,125.6c1.7,0,3.6-0.2,4.9-1.1c2.2-1.4,2.9-3.3,2.9-5.1c0-2.6-1.3-4.6-5.1-7.2l-0.9-0.6
		c-3.1-2.1-4-3.1-4-5c0-2.1,1.9-3.2,4.1-3.2c2.8,0,3.8,1.1,4,1.5c0.2,0.3,0.4,1.1,0.5,1.5c0,0.2,0.1,0.4,0.3,0.4
		c0.2,0.1,0.3-0.1,0.3-0.6c0-2,0.1-2.9,0.1-3.1c0-0.1-0.1-0.2-0.3-0.2s-0.5,0-1.1-0.1c-0.7-0.4-2-0.5-3.2-0.5c-4,0-6.5,2.1-6.5,5.6
		c0,2.1,0.9,3.9,4.1,6.4l1.4,1.1c2.7,2,3.9,3,3.9,5.2c0,2.2-1.6,4-4.6,4c-2,0-4.3-0.8-4.8-2.9c-0.1-0.4-0.1-0.8-0.1-1.1
		c0-0.2-0.1-0.3-0.2-0.3c-0.1,0-0.2,0.2-0.2,0.5c0,0.5-0.2,1.7-0.2,3.1c0,0.8,0,0.9,0.4,1.1C504.3,125.3,506.1,125.6,507.5,125.6z"
		/>
</g>
</svg>
