<?xml version="1.0" encoding="utf-8"?>
<!-- Generator: Adobe Illustrator 22.1.0, SVG Export Plug-In . SVG Version: 6.00 Build 0)  -->
<svg version="1.1" id="Capa_1" xmlns="http://www.w3.org/2000/svg" xmlns:xlink="http://www.w3.org/1999/xlink" x="0px" y="0px"
	 viewBox="0 0 595.3 209.9" style="enable-background:new 0 0 595.3 209.9;" xml:space="preserve">
<style type="text/css">
	.st0{fill-rule:evenodd;clip-rule:evenodd;fill:#FFFFFF;}
	.st1{fill:#D6C283;}
	.st2{fill-rule:evenodd;clip-rule:evenodd;fill:#CBB369;}
	.st3{fill-rule:evenodd;clip-rule:evenodd;fill:#FFFFFF;stroke:#FFFFFF;stroke-miterlimit:10;}
	
		.st4{fill-rule:evenodd;clip-rule:evenodd;fill:#FFFFFF;stroke:#FFFFFF;stroke-linecap:round;stroke-linejoin:round;stroke-miterlimit:10;}
	.st5{fill-rule:evenodd;clip-rule:evenodd;fill:#D6C283;}
	.st6{fill-rule:evenodd;clip-rule:evenodd;fill:#11171F;}
	
		.st7{fill-rule:evenodd;clip-rule:evenodd;fill:none;stroke:#FFFFFF;stroke-linecap:round;stroke-linejoin:round;stroke-miterlimit:10;}
	
		.st8{fill-rule:evenodd;clip-rule:evenodd;fill:#11171F;stroke:#FFFFFF;stroke-linecap:round;stroke-linejoin:round;stroke-miterlimit:10;}
	.st9{fill-rule:evenodd;clip-rule:evenodd;fill:#A8A7A8;}
	.st10{fill-rule:evenodd;clip-rule:evenodd;fill:#D3D3D4;}
	.st11{fill-rule:evenodd;clip-rule:evenodd;fill:none;}
</style>
<g>
	<g>
		<path class="st0" d="M43.6,116.4c0,3,0,5.4-0.2,6.7c-0.1,0.9-0.3,1.6-0.9,1.7c-0.3,0.1-0.6,0.1-0.9,0.1c-0.2,0-0.3,0.1-0.3,0.3
			c0,0.3,0.2,0.4,0.5,0.4h6.5c0.3,0,0.5-0.1,0.5-0.4c0-0.1-0.1-0.3-0.3-0.3c-0.3,0-1-0.1-1.4-0.1c-1-0.1-1.1-0.8-1.2-1.7
			c-0.2-1.3-0.2-3.8-0.2-6.7v-2.6c0-0.2,0.1-0.3,0.2-0.3c0.5,0,4,0,4.8,0.1c1,0.1,1.5,0.7,1.6,1.1c0.1,0.4,0.2,0.8,0.2,1.1
			c0,0.2,0.1,0.3,0.3,0.3c0.3,0,0.3-0.3,0.3-0.6c0-0.2,0.1-1.5,0.1-2.1c0.1-0.6,0.3-1.2,0.3-1.4c0-0.2,0-0.3-0.2-0.3
			c-0.1,0-0.2,0.2-0.4,0.3c-0.4,0.5-0.8,0.6-1.6,0.6c-0.4,0-0.9,0-1.4,0l-4,0c-0.2,0-0.2-0.1-0.2-0.3v-9.7c0-0.3,0.1-0.4,0.3-0.4
			l4.9,0.1c1.2,0,2.1,0.7,2.4,1.1c0.2,0.5,0.3,1.1,0.3,1.3c0,0.2,0.1,0.4,0.2,0.4c0.1,0,0.2-0.2,0.2-0.4c0.1,0.2,0.1-1.3,0.2-1.6
			c0.1-0.9,0.3-1.3,0.3-1.6c0-0.2-0.1-0.3-0.2-0.3c-0.1,0-0.3,0.1-0.4,0.2c-0.3-0.1-0.9-0.1-1.6,0c-0.7,0-7,0-7.5,0l-1,0
			c-0.7,0-1.5,0-2.2,0c-0.3,0-0.5,0.1-0.5,0.2c0,0.1,0.1,0.1,0.3,0.1c0.3,0.2,0.8,0.2,1.1,0.3c1,0.2,1.3,0.8,1.3,1.9
			c0.1,1.1,0.1,2,0.1,7.2V116.4z"/>
		<path class="st0" d="M66.8,117.5c0,2.6,0,4.8-0.2,5.9c-0.1,0.8-0.2,1.4-0.7,1.5c-0.3-0.1-0.6,0-0.8,0c-0.2,0-0.2,0.2-0.2,0.3
			c0,0,0.2,0,0.4,0c0.4,0,1.1,0,1.6,0c0.5,0.3,1,0.3,1,0.3c0.3,0,1,0,2,0.1c1-0.3,2.5-0.3,4.3-0.3c1.3,0,1.6,0,1.7-0.4
			c0.2-0.4,0.4-2.3,0.4-2.5s0-0.4-0.2-0.4c-0.2,0-0.2,0.1-0.3,0.4c-0.2,1.1-0.5,1.6-1.4,2c-0.7,0.3-1.9,0.3-2.6,0.3
			c-2.5,0-2.9-0.4-3-2.3c0-0.6,0-3.9,0-4.8v-2.4c0-0.1,0-0.2,0.2-0.2c0.4,0,3.1,0,3.8,0.1c1,0.1,1.2,0.5,1.3,0.9
			c0.1,0.4,0.1,0.7,0.1,0.9c0,0.2,0.1,0.3,0.3,0.3c0.3,0,0.4-0.3,0.4-0.5c0-0.2,0.1-1.3,0.1-1.8c0.1-0.5,0.2-1,0.2-1.2
			c0-0.2-0.1-0.2-0.2-0.2c-0.1,0-0.2,0.2-0.5,0.4c-0.4,0.3-0.8,0.3-1.3,0.4c-0.6,0.1-3.9,0.1-4.2,0.1c-0.1,0-0.1-0.1-0.1-0.3v-7.6
			c0-0.2,0-0.3,0.1-0.3c0.3,0,3.2,0,3.6,0.1c1.4,0.2,1.6,0.4,1.9,0.8c0.2,0.3,0.2,0.8,0.2,1c0,0.2,0.1,0.4,0.3,0.4
			c0.1,0,0.2-0.2,0.3-0.3c0.1,0.1,0.1-1.1,0.1-1.4c0.1-0.7,0.2-1.1,0.2-1.2c0-0.1,0-0.3-0.1-0.3c-0.1,0-0.2,0.1-0.4,0.1
			c-0.2-0.1-0.9,0-1.4,0.1c-0.6,0-5.7,0-5.9,0c-0.1,0-1.8-0.1-3-0.1c-0.3,0-0.4,0.1-0.4,0.2c0,0.1,0.1,0.1,0.2,0.1
			c0.3,0.1,0.7,0.2,0.9,0.2c0.9,0.1,1.1,0.6,1.1,1.5c0.1,0.8,0.1,1.6,0.1,5.7V117.5z"/>
		<path class="st0" d="M91.4,106.7c0-0.2,0.1-0.3,0.2-0.3c0.3-0.1,1.1-0.2,1.9-0.2c2.9,0,4.7,2,4.7,5.6c0,2.2-0.7,3.7-1.6,4.3
			c-0.7,0.5-1.4,0.5-2,0.5c-1.2,0-2.6-0.2-3-0.4c-0.1-0.1-0.2-0.2-0.2-0.4V106.7z M89.3,118c0,2.4,0,4.5-0.2,5.5
			c-0.1,0.8-0.2,1.2-0.7,1.3c-0.3,0.1-0.6,0.1-0.8,0.1c-0.2,0-0.2,0.2-0.2,0.3c0,0.2,0.2,0.3,0.4,0.3h5.8c0.3,0,0.4-0.1,0.4-0.3
			c0-0.1,0-0.3-0.2-0.3c-0.3,0-0.8-0.1-1.2-0.1c-0.8-0.1-1-0.6-1.1-1.3c-0.1-1-0.1-3-0.1-5.5v-0.6c0-0.2,0.1-0.2,0.2-0.2l3.4,0
			c0.2,0,0.2,0,0.4,0.2c0.6,0.7,1.8,2.3,2.9,3.7c1.3,1.9,2.2,3.1,3.4,3.7c0.7,0.5,1.4,0.8,2.9,0.8h1.7c0.5,0,0.7-0.1,0.7-0.3
			c0-0.1-0.1-0.3-0.3-0.3c-0.2,0-0.4,0-1-0.1c-0.7-0.1-1.6-0.3-3.1-1.8c-1.6-1.6-3.3-3.9-5.4-6.4c2.3-2.3,3-4.3,3-6.4
			c0-2-1-3.3-1.6-3.9c-1.3-0.8-3.3-0.9-5-0.9h-6.4c-0.3,0-0.4,0-0.4,0.2c0,0.1,0.1,0.2,0.2,0.2c0.3,0.1,0.7,0.1,0.9,0.1
			c0.9,0.1,1.1,0.6,1.1,1.5c0.1,0.9,0.1,1.7,0.1,6V118z"/>
		<path class="st0" d="M117.7,106.7c0-0.2,0.1-0.3,0.2-0.3c0.3-0.1,1.1-0.2,1.9-0.2c2.9,0,4.7,2,4.7,5.6c0,2.2-0.7,3.7-1.6,4.3
			c-0.7,0.5-1.4,0.5-2,0.5c-1.2,0-2.6-0.2-3-0.4c-0.1-0.1-0.2-0.2-0.2-0.4V106.7z M115.5,118c0,2.4,0,4.5-0.2,5.5
			c-0.1,0.8-0.2,1.2-0.7,1.3c-0.3,0.1-0.6,0.1-0.8,0.1c-0.2,0-0.2,0.2-0.2,0.3c0,0.2,0.2,0.3,0.4,0.3h5.8c0.3,0,0.4-0.1,0.4-0.3
			c0-0.1,0-0.3-0.2-0.3c-0.3,0-0.8-0.1-1.2-0.1c-0.8-0.1-1-0.6-1.1-1.3c-0.1-1-0.1-3-0.1-5.5v-0.6c0-0.2,0.1-0.2,0.2-0.2l3.4,0
			c0.2,0,0.3,0,0.4,0.2c0.6,0.7,1.8,2.3,2.9,3.7c1.3,1.9,2.2,3.1,3.4,3.7c0.7,0.5,1.4,0.8,2.9,0.8h1.7c0.5,0,0.6-0.1,0.6-0.3
			c0-0.1-0.1-0.3-0.2-0.3c-0.2,0-0.4,0-1-0.1c-0.7-0.1-1.6-0.3-3.1-1.8c-1.6-1.6-3.3-3.9-5.4-6.4c2.3-2.3,3-4.3,3-6.4
			c0-2-1.1-3.3-1.6-3.9c-1.3-0.8-3.3-0.9-5-0.9h-6.4c-0.3,0-0.4,0-0.4,0.2c0,0.1,0.1,0.2,0.2,0.2c0.2,0.1,0.7,0.1,0.9,0.1
			c0.9,0.1,1.1,0.6,1.1,1.5c0.1,0.9,0.1,1.7,0.1,6V118z"/>
		<path class="st0" d="M144.7,120.8c0,0.4,0,1.5-0.1,2.6c-0.1,0.8-0.3,1.3-0.8,1.4c-0.2,0.1-0.6,0.1-0.8,0.1c-0.2,0-0.2,0.2-0.2,0.3
			c0,0.2,0.1,0.3,0.4,0.3h5.8c0.3,0,0.4-0.1,0.4-0.3c0-0.1-0.1-0.3-0.2-0.3c-0.3,0-0.9-0.1-1.2-0.1c-0.8-0.1-1-0.6-1.1-1.4
			c-0.1-1.1-0.1-2.2-0.1-2.6v-2.3c0-0.9-0.1-1.7,0.3-2.6c0.6-1.1,4.4-7.3,5.3-8.4c0.6-0.7,0.8-1,1.4-1.3c0.4-0.2,1-0.3,1.3-0.3v-0.7
			h-4.6c-0.3,0-0.4,0.1-0.4,0.2c0,0.2,0.2,0.4,0.4,0.4c0.3,0.1,0.4,0.3,0.4,0.7c0,0.3-0.1,0.8-0.5,1.4c-0.5,0.9-3.9,6.5-4.4,7.6
			l-4.8-8.2c-0.2-0.3-0.4-0.7-0.4-1c0-0.2,0.1-0.3,0.4-0.4c0.3-0.1,0.4-0.3,0.4-0.4c0-0.2-0.1-0.3-0.4-0.3h-5.1
			c-0.3,0-0.3,0.1-0.3,0.3s0.1,0.4,0.3,0.4c0.2,0,0.7,0.1,1.2,0.4c0.5,0.4,1.1,0.9,1.8,1.9c0.9,1.4,4.6,7.3,4.9,7.6
			c0.4,0.7,0.6,1.3,0.6,2.7V120.8z"/>
	</g>
	<g>
		<path class="st0" d="M436.8,110.9c0-5,0-5.9,0.1-6.9c0.1-1.1,0.3-1.6,1.2-1.8c0.4-0.1,0.8-0.1,1-0.1c0.1,0,0.3-0.1,0.3-0.3
			c0-0.3-0.2-0.4-0.5-0.4h-6.3c-0.3,0-0.5,0.1-0.5,0.4c0,0.2,0.1,0.3,0.2,0.3c0.3,0,0.8,0,1,0.1c1,0.2,1.3,0.7,1.3,1.8
			c0.1,1,0.1,1.9,0.1,6.9v5.6c0,2.8,0,5.2-0.2,6.6c-0.1,0.9-0.3,1.6-0.9,1.7c-0.3,0-0.6,0.1-0.9,0.1c-0.2,0-0.2,0.1-0.2,0.3
			c0,0.3,0.1,0.4,0.5,0.4c0.5,0,1.1,0,1.7-0.1c0.5,0,0.9,0,1,0c0.7,0,1.6,0,2.9,0.1c1.3-0.3,2.9-0.3,5.1-0.3c1.6,0,1.7-0.1,1.9-0.5
			c0.2-0.7,0.5-2.7,0.5-3c0-0.3,0-0.5-0.2-0.5c-0.2,0-0.2,0.2-0.3,0.4c-0.1,0.6-0.4,1.4-0.8,1.9c-0.7,0.9-2.1,1-3.7,1
			c-2.4,0-3.2-0.2-3.7-0.7c-0.6-0.6-0.7-2.6-0.7-7.3V110.9z"/>
		<path class="st0" d="M453.8,117.3c-0.1,0-0.1-0.1-0.1-0.2l2.5-7.2c0.1-0.4,0.3-0.4,0.5,0l2.7,7.2c0,0.1,0,0.2-0.1,0.2H453.8z
			 M449.9,122.4c-0.5,1.3-1.1,2.3-2.3,2.4c-0.2,0-0.6,0.1-0.8,0.1c-0.1,0-0.3,0.1-0.3,0.3c0,0.2,0.2,0.3,0.5,0.3h5.2
			c0.3,0,0.4-0.1,0.4-0.3c0-0.2-0.1-0.3-0.3-0.3h-0.3c-0.5,0-0.9-0.2-0.9-0.7c0-0.5,0.1-1.1,0.4-1.8l1.5-4.2
			c0.1-0.2,0.1-0.2,0.3-0.2h6.2c0.1,0,0.2,0,0.2,0.2l2.4,6.1c0.2,0.4-0.1,0.7-0.2,0.7c-0.1,0.1-0.2,0.1-0.2,0.3
			c0,0.2,0.4,0.2,0.9,0.3c1.9,0.1,3.9,0.1,4.3,0.1c0.3,0,0.6-0.1,0.6-0.3c0-0.2-0.2-0.3-0.3-0.3c-0.3,0-0.7,0-1.1-0.2
			c-0.6-0.2-1.3-0.5-2.3-2.9c-1.7-4-6-14.5-6.5-15.6c-0.3-0.6-0.4-1-0.6-1c-0.2,0-0.3,0.2-0.6,1L449.9,122.4z"/>
		<path class="st0" d="M472.1,109.4c0.8,0.9,3.9,4.1,7.1,7.5c2.9,3,6.8,6.8,7.1,7.1c1.5,1.4,1.7,1.7,2,1.7c0.2,0,0.2-0.2,0.2-1.9
			l0.1-15.4c0-1.6,0.1-2.1,1-2.3c0.3-0.1,0.5-0.1,0.6-0.1c0.2,0,0.3-0.2,0.3-0.4c0-0.2-0.2-0.3-0.5-0.3h-5c-0.3,0-0.5,0-0.5,0.3
			c0,0.1,0,0.4,0.2,0.4c0.2,0,0.8,0,1.3,0.1c0.8,0.2,1,0.8,1,2.5l0.3,13.2c-0.8-0.9-3.8-4-6.5-6.8c-4.2-4.1-8.2-8.3-8.6-8.7
			c-0.3-0.3-0.7-0.8-0.9-0.8c-0.2,0-0.3,0.3-0.3,1.3v14.9c0,2.3-0.1,3-0.8,3.2c-0.4,0.1-0.9,0.2-1.1,0.2c-0.1,0-0.2,0.1-0.2,0.3
			c0,0.3,0.2,0.3,0.4,0.3h5.3c0.3,0,0.5-0.1,0.5-0.3c0-0.2-0.1-0.3-0.2-0.3c-0.3,0-0.9,0-1.4-0.2c-0.7-0.2-1-0.8-1-3L472.1,109.4z"
			/>
		<path class="st0" d="M499.6,106.9c0-0.3,0.1-0.4,0.3-0.5c0.3-0.1,1.1-0.2,1.6-0.2c3.3,0,6.3,0.3,8.8,3c1.1,1.1,2.6,3.3,2.6,6.7
			c0,2.5-0.7,5-2.1,6.4c-1.6,1.6-3.9,2.4-6.4,2.4c-3.2,0-4.2-0.6-4.5-1.1c-0.2-0.3-0.3-1.3-0.3-1.9c0-0.5,0-3,0-5.8V106.9z
			 M497.4,117.7c0,2.5,0,4.6-0.2,5.7c-0.1,0.8-0.2,1.3-0.7,1.4c-0.3,0.1-0.6,0.1-0.8,0.1c-0.1,0-0.2,0.2-0.2,0.3
			c0,0.2,0.1,0.3,0.4,0.3c0.4,0,1.1,0,1.6-0.1c0.5,0,0.9,0,1,0c0.1,0,0.9,0.1,2.1,0.2c1.2-0.4,2.6-0.3,3.8-0.3
			c4.6,0,7.1-1.5,8.3-2.7c1.3-1.6,2.4-4.2,2.4-7.5c0-3.2-1-5.4-2.1-6.8c-3.2-3-8.2-2.7-10.9-2.7h-6.4c-0.3,0-0.4,0-0.4,0.2
			c0,0.1,0.1,0.1,0.2,0.1c0.3,0.1,0.7,0.1,0.9,0.1c0.9,0.1,1,0.6,1.1,1.5c0.1,0.8,0.1,1.6,0.1,5.7V117.7z"/>
		<path class="st0" d="M524.6,113.1c0-4.1,0-4.8,0-5.7c0.1-0.9,0.2-1.3,1-1.4c0.3-0.1,0.5-0.1,0.7-0.1c0.1,0,0.2-0.2,0.2-0.3
			c0-0.2-0.1-0.3-0.4-0.3H521c-0.3,0-0.4,0.1-0.4,0.3c0,0.2,0.1,0.3,0.2,0.3c0.2,0,0.5,0,0.8,0.1c0.6,0.1,0.8,0.5,0.9,1.4
			c0.1,0.8,0.1,1.6,0.1,5.7v4.7c0,2.5,0,4.6-0.2,5.7c-0.1,0.8-0.2,1.3-0.7,1.4c-0.2,0.1-0.6,0.1-0.8,0.1c-0.2,0-0.2,0.2-0.2,0.3
			c0,0.2,0.2,0.3,0.4,0.3h5.7c0.3,0,0.4-0.1,0.4-0.3c0-0.1-0.1-0.3-0.2-0.3c-0.3,0-0.8-0.1-1.2-0.1c-0.8-0.1-0.9-0.6-1-1.4
			c-0.1-1.1-0.1-3.2-0.1-5.7V113.1z"/>
		<path class="st0" d="M534.8,109.4c0.8,0.9,3.9,4.1,7.1,7.5c2.9,3,6.8,6.8,7.1,7.1c1.5,1.4,1.7,1.7,2,1.7c0.2,0,0.2-0.2,0.2-1.9
			l0.1-15.4c0-1.6,0.1-2.1,1-2.3c0.3-0.1,0.5-0.1,0.6-0.1c0.2,0,0.3-0.2,0.3-0.4c0-0.2-0.2-0.3-0.5-0.3h-5c-0.3,0-0.5,0-0.5,0.3
			c0,0.1,0,0.4,0.2,0.4c0.2,0,0.8,0,1.3,0.1c0.8,0.2,1,0.8,1,2.5l0.3,13.2c-0.8-0.9-3.8-4-6.5-6.8c-4.2-4.1-8.2-8.3-8.6-8.7
			c-0.3-0.3-0.7-0.8-0.9-0.8c-0.2,0-0.3,0.3-0.3,1.3v14.9c0,2.3-0.1,3-0.8,3.2c-0.4,0.1-0.9,0.2-1.1,0.2c-0.1,0-0.2,0.1-0.2,0.3
			c0,0.3,0.2,0.3,0.4,0.3h5.3c0.3,0,0.5-0.1,0.5-0.3c0-0.2-0.1-0.3-0.2-0.3c-0.3,0-0.9,0-1.4-0.2c-0.7-0.2-1-0.8-1-3L534.8,109.4z"
			/>
		<path class="st0" d="M572.7,123.3c0,0.5-0.2,0.6-0.6,0.8c-0.7,0.4-2,0.5-3,0.5c-2.5,0-4.8-0.8-7-2.8c-1-0.9-2.9-3.7-2.9-7.6
			c0-2.9,1.1-5.2,2.7-6.4c2.1-1.5,4.1-1.6,5.7-1.6c3.2,0,5.2,1,5.8,2c0.4,0.6,0.6,1.3,0.6,1.7c0,0.2,0,0.4,0.2,0.4
			c0.2,0,0.4-0.1,0.4-0.5c0-2.5,0.2-3.2,0.2-3.5c0-0.1-0.1-0.2-0.4-0.2c-0.8,0-1.7-0.1-2.2-0.2c-0.5-0.1-2.4-0.3-4.1-0.3
			c-2,0-4.7,0.1-7,1.3c-2.3,1.4-4,4.3-4,8.3c0,3.6,1.3,6.5,2.8,7.9c2.9,2.2,6.7,2.3,8.7,2.3c1.9,0,4.3-0.2,5.8-0.6
			c0.3-0.2,0.3-0.2,0.3-1.4v-3c0-1.1,0-1.9,0-2.8c0.1-1,0.3-1.4,1-1.5c0.3-0.1,0.5-0.1,0.7-0.1c0.1,0,0.2-0.2,0.2-0.3
			c0-0.3-0.1-0.3-0.4-0.3h-5.5c-0.3,0-0.4,0-0.4,0.3c0,0.1,0.1,0.3,0.2,0.3c0.3,0,0.7,0,0.9,0.1c1.1,0.2,1.2,0.5,1.2,2.7V123.3z"/>
	</g>
</g>
<g>
	<g>
		<path class="st1" d="M215.6,151.7c0.8,1.1,1.7,2,2.7,2.8c1.1,0.8,2.2,1.4,3.4,1.9c1.2,0.5,2.4,0.8,3.4,0.9c0.2,0.1,0.3,0.1,0.4,0
			c0.1-0.1,0-0.2-0.4-0.3c-0.9-0.2-2-0.7-3.2-1.4c-1.2-0.7-2.3-1.6-3.3-2.5c-1-0.9-1.9-1.9-2.6-2.8s-1.1-1.6-1.1-2.2
			c0-0.3,0-0.7,0.2-1.2c0.1-0.5,0.6-0.8,1.3-0.8c0.7-0.1,1.4,0.1,2.2,0.5c0.8,0.4,1.2,0.8,1.2,1.3c0.1,1.1,0,1.9-0.3,2.3
			c-0.3,0.5-0.4,0.7-0.2,0.7c0.3,0,0.6-0.4,0.8-1.1c0.3-0.7,0.4-1.4,0.3-2c-0.1-1.1-0.5-1.8-1.3-2.2c-0.8-0.4-1.8-0.6-2.8-0.5
			c-0.6,0-1.2,0.3-1.6,0.8c-0.4,0.5-0.6,1.2-0.6,2.3C214.5,149.4,214.9,150.6,215.6,151.7z"/>
		<path class="st1" d="M225.6,161c-0.8,0-1.8-0.2-2.8-0.6c-1-0.4-2.1-0.9-3.3-1.5c-1.1-0.6-2.3-1.3-3.6-1.9
			c-1.2-0.7-2.4-1.3-3.7-1.9c-1.2-0.6-2.4-1-3.6-1.4c-1.2-0.4-2.3-0.5-3.5-0.4c-0.4,0-0.9,0.1-1.4,0.3c-0.5,0.1-1.1,0.4-1.6,0.6
			c-0.5,0.3-1.1,0.6-1.5,1c-0.5,0.4-0.9,0.8-1.2,1.3c-0.1,0.2,0,0.3,0.1,0.4c0.1,0,0.3,0,0.5-0.1c1.2-1.6,2.9-2.5,5.2-2.7
			c1-0.1,2.3,0.3,3.9,1.1c1.5,0.8,3.2,1.7,5.1,2.7c1.8,1,3.8,1.9,5.8,2.7c2,0.8,4,1.2,5.9,1.1c0.2-0.1,0.2-0.2,0.1-0.3
			C226,161.1,225.8,161,225.6,161z"/>
		<path class="st1" d="M232.3,160.7c-1.5-0.1-3-0.4-4.5-0.9c-2.4-0.8-4.7-1.8-7-3.1c-1.9-1.1-3.9-2.2-5.8-3.4
			c-1.9-1.2-3.8-2.3-5.8-3.2c-1.9-1-3.9-1.7-6-2.3s-4.2-0.8-6.4-0.6c-2.8,0.2-4.9,0.8-6.1,1.9c-1.3,1.1-1.9,2.5-1.7,4.1
			c0.1,0.8,0.3,1.6,0.7,2.1c0.4,0.6,0.9,1.1,1.5,1.5c0.6,0.4,1.2,0.7,1.8,0.8c0.7,0.2,1.2,0.3,1.7,0.2c0.3,0,0.2-0.1-0.2-0.2
			c-0.4-0.1-0.9-0.4-1.5-0.8c-0.6-0.4-1.2-0.8-1.8-1.4s-0.9-1.3-1-2.3c0-0.5,0-1,0.2-1.6c0.2-0.6,0.4-1.2,0.8-1.7
			c0.4-0.5,0.9-1,1.6-1.4c0.7-0.4,1.5-0.7,2.5-0.7c2.2-0.1,4.3,0.1,6.3,0.7c2,0.6,4.1,1.4,6.1,2.4c2,1,4,2.2,6.1,3.4
			c2,1.3,4.1,2.4,6.3,3.4c2.2,1.1,4.6,2.1,6.9,2.8c2.1,0.6,4.2,0.9,6.6,0.9"/>
	</g>
	<g>
		<path class="st1" d="M367.9,151.8c-0.8,1.1-1.7,2-2.7,2.8c-1.1,0.8-2.2,1.4-3.4,1.9c-1.2,0.5-2.4,0.7-3.4,0.8
			c-0.2,0.1-0.3,0.1-0.4,0c-0.1-0.1,0-0.2,0.4-0.3c0.9-0.2,2-0.6,3.2-1.4c1.2-0.7,2.3-1.6,3.3-2.5c1-0.9,1.9-1.8,2.6-2.7
			s1.1-1.6,1.1-2.2c0-0.3,0-0.7-0.2-1.2c-0.1-0.5-0.6-0.8-1.3-0.8c-0.7-0.1-1.5,0.1-2.2,0.4c-0.8,0.4-1.2,0.8-1.2,1.3
			c-0.1,1.1,0,1.8,0.3,2.3c0.3,0.4,0.4,0.7,0.2,0.7c-0.3,0-0.6-0.4-0.8-1.1c-0.3-0.7-0.4-1.4-0.3-2c0.1-1,0.5-1.8,1.3-2.2
			c0.8-0.4,1.7-0.6,2.8-0.5c0.6,0,1.2,0.3,1.6,0.7c0.5,0.4,0.6,1.2,0.6,2.2C369.1,149.5,368.7,150.7,367.9,151.8z"/>
		<path class="st1" d="M358,160.9c0.9,0,1.8-0.2,2.8-0.6c1-0.4,2.1-0.9,3.3-1.5c1.1-0.6,2.3-1.2,3.6-1.9c1.2-0.7,2.5-1.3,3.7-1.9
			c1.2-0.6,2.4-1,3.6-1.4c1.2-0.4,2.4-0.5,3.5-0.4c0.4,0,0.9,0.1,1.4,0.3c0.5,0.2,1.1,0.4,1.6,0.6s1,0.6,1.5,1
			c0.5,0.4,0.9,0.8,1.2,1.3c0.1,0.2,0,0.3-0.1,0.3c-0.1,0-0.3,0-0.5-0.1c-1.2-1.6-2.9-2.5-5.3-2.6c-1-0.1-2.3,0.3-3.9,1.1
			c-1.5,0.8-3.2,1.7-5.1,2.6c-1.8,1-3.8,1.8-5.8,2.6s-4,1.1-5.9,1.1c-0.2-0.1-0.2-0.2-0.1-0.3C357.6,161,357.8,160.9,358,160.9z"/>
		<path class="st1" d="M351.3,160.6c1.5-0.1,3-0.4,4.5-0.9c2.4-0.8,4.7-1.8,7-3c1.9-1,3.9-2.1,5.8-3.3c1.9-1.2,3.9-2.2,5.8-3.2
			c2-0.9,4-1.7,6-2.3c2.1-0.6,4.2-0.8,6.4-0.6c2.8,0.2,4.9,0.8,6.1,1.9c1.3,1.1,1.9,2.4,1.7,4c-0.1,0.8-0.3,1.5-0.7,2.1
			c-0.4,0.6-0.9,1.1-1.5,1.4c-0.6,0.4-1.2,0.6-1.8,0.8c-0.6,0.2-1.2,0.3-1.7,0.2c-0.3,0-0.2-0.1,0.2-0.2c0.4-0.1,0.9-0.4,1.5-0.7
			c0.6-0.3,1.2-0.8,1.8-1.4c0.6-0.6,0.9-1.3,1-2.2c0-0.5,0-1-0.2-1.6c-0.1-0.6-0.4-1.2-0.8-1.7c-0.4-0.5-0.9-1-1.6-1.4
			c-0.7-0.4-1.5-0.6-2.5-0.7c-2.2-0.1-4.3,0.1-6.3,0.7c-2,0.6-4.1,1.4-6.1,2.4s-4,2.1-6.1,3.3c-2,1.2-4.1,2.4-6.3,3.4
			c-2.2,1.1-4.6,2-7,2.7c-2,0.6-4.2,0.9-6.6,0.9"/>
	</g>
	<g>
		<path class="st2" d="M243.8,163c1.7,0,3.4-0.2,4.7-0.8c2.1-1.5,2.6-3.9,2.6-5.2c0-2.5-0.9-4.4-4.5-7.3l-0.9-0.7
			c-3-2.4-3.8-3.5-3.8-5.3c0-2.3,1.7-3.6,3.8-3.6c2.8,0,3.7,1.3,3.9,1.7c0.2,0.3,0.4,1.2,0.4,1.6c0,0.3,0.1,0.4,0.2,0.4
			c0.2,0,0.2-0.2,0.2-0.7c0-2.4,0.1-3.4,0.1-3.6c0-0.2-0.1-0.2-0.3-0.2c-0.2,0-0.5,0-1.1-0.2c-0.8,0.5-1.7,0.4-2.9,0.4
			c-3.9,0-6.4,1.8-6.4,5.2c0,2.1,0.8,4.1,4.1,6.8l1.4,1.2c2.7,2.2,3.6,3.5,3.6,5.6c0,2-1.5,4.2-4.4,4.2c-2.1,0-4.2-0.9-4.7-3.2
			c-0.1-0.4-0.1-0.9-0.1-1.2c0-0.3,0-0.3-0.2-0.3c-0.2,0-0.2,0.2-0.3,0.5c0,0.5-0.2,1.8-0.2,3.3c0,0.9,0,0.9,0.5,1.1
			C240.9,162.9,242.3,163,243.8,163z"/>
		<path class="st2" d="M259.3,154.7c0,3.8,0.9,5.7,2.1,6.9c2,1.4,4.9,1.4,5.9,1.4c1.7,0,3.9-0.1,5.9-1.5c2.3-1.9,2.7-5,2.7-7.9v-2.8
			c0-4.1,0-4.8,0-5.7c0.1-0.9,0.2-1.3,1-1.5c0.4-0.1,0.5-0.1,0.7-0.1c0.1,0,0.2-0.2,0.2-0.3c0-0.2-0.1-0.3-0.4-0.3h-5.4
			c-0.3,0-0.5,0.1-0.5,0.3c0,0.1,0.1,0.3,0.2,0.3c0.3,0,0.7,0,1,0.1c0.9,0.1,1.1,0.6,1.1,1.5s0.1,1.6,0.1,5.7v3.3
			c0,2.7-0.3,4.9-1.6,6.4c-1,1.1-2.6,1.9-4.4,1.9c-1.6,0-2.8-0.2-4.2-1.4c-1.2-1.1-2.1-2.6-2.1-6.4v-3.7c0-4.1,0-4.8,0.1-5.7
			c0.1-0.9,0.2-1.3,1-1.5c0.4-0.1,0.5-0.1,0.7-0.1c0.1,0,0.3-0.2,0.3-0.3c0-0.2-0.2-0.3-0.5-0.3h-5.6c-0.3,0-0.4,0.1-0.4,0.3
			c0,0.1,0.1,0.3,0.2,0.3c0.3,0,0.7,0,0.9,0.1c0.9,0.1,1.1,0.6,1.1,1.5s0.1,1.6,0.1,5.7V154.7z"/>
		<path class="st2" d="M286.9,150.8c0-4.1,0-4.8,0-5.7c0.1-0.9,0.2-1.3,1-1.5c0.3-0.1,0.5-0.1,0.7-0.1c0.1,0,0.2-0.2,0.2-0.3
			c0-0.2-0.1-0.3-0.4-0.3h-5.2c-0.3,0-0.4,0.1-0.4,0.3c0,0.1,0.1,0.3,0.2,0.3c0.2,0,0.5,0,0.9,0.1c0.6,0.1,0.8,0.5,0.9,1.4
			c0.1,0.8,0.1,1.6,0.1,5.7v4.6c0,2.5,0,4.6-0.1,5.7c-0.1,0.8-0.2,1.3-0.7,1.4c-0.3,0.1-0.6,0.1-0.9,0.1c-0.2,0-0.2,0.2-0.2,0.3
			c0,0.2,0.2,0.3,0.4,0.3h5.9c0.3,0,0.4-0.1,0.4-0.3c0-0.2-0.1-0.3-0.2-0.3c-0.3,0-0.9-0.1-1.3-0.1c-0.8-0.1-0.9-0.6-1-1.4
			c-0.1-1.1-0.1-3.2-0.1-5.7V150.8z"/>
		<path class="st2" d="M303.4,143.9l3.5,0c2.7,0.1,3.3,0.7,3.4,1.5l0,0.3c0,0.4,0.1,0.5,0.3,0.5c0.2,0,0.3-0.1,0.3-0.4
			c0,0.2,0.1-1.7,0.1-2.5c0-0.2,0-0.3-0.2-0.3c-0.1,0-0.4,0.1-0.8,0.1c-0.5,0-1.1,0.1-2,0.1h-10.2c-0.3,0-1.4,0-2.2-0.1
			c-0.8,0.2-1-0.1-1.2-0.1c-0.1,0-0.3,0.3-0.3,0.5c-0.1-0.1-0.6,1.9-0.6,2.1c0,0.2,0.1,0.2,0.2,0.2c0.1,0,0.2,0,0.3-0.3
			c0.1-0.2,0.1-0.4,0.4-0.9c0.4-0.6,1.1-0.8,2.8-0.9l4,0v11.3c0,2.6,0,4.7-0.1,5.9c-0.1,0.8-0.3,1.3-0.8,1.5
			c-0.3,0.1-0.6,0.1-0.8,0.1c-0.2,0-0.2,0.1-0.2,0.3c0,0.3,0.1,0.3,0.4,0.3h6c0.3,0,0.4-0.1,0.4-0.3c0-0.2,0-0.3-0.2-0.3
			c-0.3,0-0.9-0.1-1.3-0.1c-0.9-0.1-1-0.6-1.1-1.4c-0.1-1.1-0.1-3.2-0.1-5.9V143.9z"/>
		<path class="st2" d="M318.3,155.3c0,2.6,0,4.8-0.2,5.9c-0.1,0.8-0.2,1.4-0.7,1.5c-0.3-0.1-0.6,0-0.9,0c-0.2,0-0.2,0.2-0.2,0.3
			c0,0,0.2,0,0.4,0c0.4,0,1.1,0,1.6,0c0.5,0.3,1,0.3,1,0.3c0.4,0,1,0,2,0.1c1-0.3,2.5-0.3,4.4-0.3c1.3,0,1.6,0,1.8-0.4
			c0.2-0.4,0.4-2.3,0.4-2.5s0-0.4-0.2-0.4c-0.2,0-0.2,0.1-0.3,0.4c-0.2,1.1-0.5,1.6-1.4,2c-0.8,0.3-2,0.3-2.6,0.3
			c-2.5,0-3-0.4-3-2.3c0-0.6,0-3.9,0-4.8v-2.4c0-0.1,0-0.2,0.2-0.2c0.4,0,3.1,0,3.8,0.1c1,0.1,1.2,0.5,1.3,0.9
			c0.1,0.4,0.1,0.7,0.1,0.9c0,0.2,0.1,0.3,0.3,0.3c0.3,0,0.4-0.3,0.4-0.5c0-0.2,0.1-1.3,0.1-1.8c0.1-0.5,0.2-1,0.2-1.1
			s-0.1-0.2-0.2-0.2s-0.2,0.2-0.5,0.4c-0.4,0.3-0.8,0.3-1.4,0.4c-0.6,0.1-3.9,0.1-4.2,0.1c-0.1,0-0.1-0.1-0.1-0.3v-7.6
			c0-0.2,0-0.3,0.1-0.3c0.3,0,3.2,0,3.7,0.1c1.4,0.2,1.7,0.4,1.9,0.9c0.2,0.3,0.2,0.8,0.2,1c0,0.2,0.1,0.4,0.3,0.4
			c0.1,0,0.2-0.2,0.3-0.3c0.1,0.1,0.1-1.1,0.2-1.4c0.1-0.7,0.2-1,0.2-1.2c0-0.1,0-0.2-0.1-0.2c-0.1,0-0.3,0.1-0.4,0.1
			c-0.2-0.1-0.9,0-1.4,0.1c-0.6,0-5.8,0-6,0c-0.1,0-1.8-0.1-3-0.1c-0.3,0-0.4,0.1-0.4,0.2c0,0.1,0.1,0.1,0.2,0.1
			c0.3,0.1,0.7,0.2,1,0.2c0.9,0.1,1.1,0.6,1.1,1.5c0.1,0.8,0.1,1.6,0.1,5.7V155.3z"/>
		<path class="st2" d="M338.4,163c1.5,0,3.2-0.1,4.3-0.6c2-1.2,2.6-2.9,2.6-4.4c0-2.3-1.2-4.1-4.5-6.3l-0.8-0.5
			c-3-1.8-3.9-2.8-3.9-4.4c0-1.9,1.7-2.8,3.8-2.8c2.6,0,3.5,1,3.7,1.3c0.2,0.3,0.4,1,0.4,1.3c0,0.2,0.1,0.3,0.3,0.3
			c0.2-0.2,0.2-0.4,0.2-0.8c0-1.8,0.1-2.7,0.1-2.8c0-0.2-0.1-0.2-0.3-0.2s-0.4,0-1-0.1c-0.7,0.5-1.8,0.4-3,0.4
			c-3.8,0-6.3,1.5-6.3,4.5c0,1.8,1,3.4,4.1,5.6l1.3,0.9c2.5,1.8,3.6,2.7,3.6,4.6c0,2-1.5,3.5-4.3,3.5c-1.6,0-3.6-0.7-4-2.6
			c-0.1-0.4-0.1-0.7-0.1-1s-0.1-0.3-0.3-0.3c-0.2,0-0.2,0.2-0.2,0.4c0,0.4-0.2,1.5-0.2,2.8c0,0.7,0,0.7,0.4,0.9
			C335.6,162.9,337.1,163,338.4,163z"/>
	</g>
</g>
<g>
	<g>
		<g>
			<g>
				<polygon class="st3" points="299.4,93.7 299.7,93.7 298.5,97.5 298.3,97.5 				"/>
				<polygon class="st3" points="300.5,93.7 300.8,93.7 299.7,97.5 299.4,97.5 				"/>
				<polygon class="st3" points="301.6,93.7 301.9,93.7 300.8,97.5 300.5,97.5 				"/>
				<polygon class="st3" points="302.8,93.7 303,93.7 301.9,97.5 301.6,97.5 				"/>
			</g>
			<g>
				<polygon class="st3" points="303.9,93.7 304.2,93.7 303,97.5 302.8,97.5 				"/>
				<polygon class="st3" points="305,93.7 305.3,93.7 304.2,97.5 303.9,97.5 				"/>
				<polygon class="st3" points="306.1,93.7 306.4,93.7 305.3,97.5 305,97.5 				"/>
				<polygon class="st3" points="307.3,93.7 307.5,93.7 306.4,97.5 306.1,97.5 				"/>
			</g>
			<g>
				<polygon class="st3" points="308.4,93.7 308.7,93.7 307.5,97.5 307.3,97.5 				"/>
				<polygon class="st3" points="309.5,93.7 309.8,93.7 308.7,97.5 308.4,97.5 				"/>
				<polygon class="st3" points="310.6,93.7 310.9,93.7 309.8,97.5 309.5,97.5 				"/>
				<polygon class="st3" points="311.8,93.7 312,93.7 310.9,97.5 310.6,97.5 				"/>
			</g>
			<g>
				<polygon class="st3" points="312.9,93.7 313.2,93.7 312,97.5 311.8,97.5 				"/>
				<polygon class="st3" points="314,93.7 314.3,93.7 313.2,97.5 312.9,97.5 				"/>
				<polygon class="st3" points="315.1,93.7 315.4,93.7 314.3,97.5 314,97.5 				"/>
				<polygon class="st3" points="316.2,93.7 316.5,93.7 315.4,97.5 315.1,97.5 				"/>
			</g>
		</g>
		<g>
			<g>
				<polygon class="st3" points="316.9,93.7 317.2,93.7 316,97.5 315.8,97.5 				"/>
				<polygon class="st3" points="318,93.7 318.3,93.7 317.2,97.5 316.9,97.5 				"/>
				<polygon class="st3" points="319.1,93.7 319.4,93.7 318.3,97.5 318,97.5 				"/>
				<polygon class="st3" points="320.2,93.7 320.5,93.7 319.4,97.5 319.1,97.5 				"/>
			</g>
			<g>
				<polygon class="st3" points="321.4,93.7 321.7,93.7 320.5,97.5 320.2,97.5 				"/>
				<polygon class="st3" points="322.5,93.7 322.8,93.7 321.7,97.5 321.4,97.5 				"/>
				<polygon class="st3" points="323.6,93.7 323.9,93.7 322.8,97.5 322.5,97.5 				"/>
				<polygon class="st3" points="324.7,93.7 325,93.7 323.9,97.5 323.6,97.5 				"/>
			</g>
			<g>
				<polygon class="st3" points="325.9,93.7 326.1,93.7 325,97.5 324.7,97.5 				"/>
				<polygon class="st3" points="327,93.7 327.3,93.7 326.1,97.5 325.9,97.5 				"/>
				<polygon class="st3" points="328.1,93.7 328.4,93.7 327.3,97.5 327,97.5 				"/>
				<polygon class="st3" points="329.2,93.7 329.5,93.7 328.4,97.5 328.1,97.5 				"/>
			</g>
			<g>
				<polygon class="st3" points="330.4,93.7 330.6,93.7 329.5,97.5 329.2,97.5 				"/>
				<polygon class="st3" points="331.5,93.7 331.8,93.7 330.6,97.5 330.4,97.5 				"/>
				<polygon class="st3" points="332.6,93.7 332.9,93.7 331.8,97.5 331.5,97.5 				"/>
				<polygon class="st3" points="333.7,93.7 334,93.7 332.9,97.5 332.6,97.5 				"/>
			</g>
		</g>
		<g>
			<g>
				<g>
					<polygon class="st3" points="264.4,93.7 264.7,93.7 263.6,97.5 263.3,97.5 					"/>
					<polygon class="st3" points="265.6,93.7 265.8,93.7 264.7,97.5 264.4,97.5 					"/>
					<polygon class="st3" points="266.7,93.7 267,93.7 265.8,97.5 265.6,97.5 					"/>
					<polygon class="st3" points="267.8,93.7 268.1,93.7 267,97.5 266.7,97.5 					"/>
				</g>
				<g>
					<polygon class="st3" points="268.9,93.7 269.2,93.7 268.1,97.5 267.8,97.5 					"/>
					<polygon class="st3" points="270,93.7 270.3,93.7 269.2,97.5 268.9,97.5 					"/>
					<polygon class="st3" points="271.2,93.7 271.5,93.7 270.3,97.5 270,97.5 					"/>
					<polygon class="st3" points="272.3,93.7 272.6,93.7 271.5,97.5 271.2,97.5 					"/>
				</g>
				<g>
					<polygon class="st3" points="273.4,93.7 273.7,93.7 272.6,97.5 272.3,97.5 					"/>
					<polygon class="st3" points="274.5,93.7 274.8,93.7 273.7,97.5 273.4,97.5 					"/>
					<polygon class="st3" points="275.7,93.7 275.9,93.7 274.8,97.5 274.5,97.5 					"/>
					<polygon class="st3" points="276.8,93.7 277.1,93.7 275.9,97.5 275.7,97.5 					"/>
				</g>
				<g>
					<polygon class="st3" points="277.9,93.7 278.2,93.7 277.1,97.5 276.8,97.5 					"/>
					<polygon class="st3" points="279,93.7 279.3,93.7 278.2,97.5 277.9,97.5 					"/>
					<polygon class="st3" points="280.2,93.7 280.4,93.7 279.3,97.5 279,97.5 					"/>
					<polygon class="st3" points="281.3,93.7 281.6,93.7 280.4,97.5 280.2,97.5 					"/>
				</g>
			</g>
			<line class="st4" x1="264.6" y1="93.8" x2="281.8" y2="93.8"/>
		</g>
		<g>
			<g>
				<g>
					<polygon class="st3" points="281.9,93.7 282.2,93.7 281.1,97.5 280.8,97.5 					"/>
					<polygon class="st3" points="283,93.7 283.3,93.7 282.2,97.5 281.9,97.5 					"/>
					<polygon class="st3" points="284.2,93.7 284.4,93.7 283.3,97.5 283,97.5 					"/>
					<polygon class="st3" points="285.3,93.7 285.6,93.7 284.4,97.5 284.2,97.5 					"/>
				</g>
				<g>
					<polygon class="st3" points="286.4,93.7 286.7,93.7 285.6,97.5 285.3,97.5 					"/>
					<polygon class="st3" points="287.5,93.7 287.8,93.7 286.7,97.5 286.4,97.5 					"/>
					<polygon class="st3" points="288.7,93.7 288.9,93.7 287.8,97.5 287.5,97.5 					"/>
					<polygon class="st3" points="289.8,93.7 290.1,93.7 288.9,97.5 288.7,97.5 					"/>
				</g>
				<g>
					<polygon class="st3" points="290.9,93.7 291.2,93.7 290.1,97.5 289.8,97.5 					"/>
					<polygon class="st3" points="292,93.7 292.3,93.7 291.2,97.5 290.9,97.5 					"/>
					<polygon class="st3" points="293.1,93.7 293.4,93.7 292.3,97.5 292,97.5 					"/>
					<polygon class="st3" points="294.3,93.7 294.5,93.7 293.4,97.5 293.1,97.5 					"/>
				</g>
				<g>
					<polygon class="st3" points="295.4,93.7 295.7,93.7 294.5,97.5 294.3,97.5 					"/>
					<polygon class="st3" points="296.5,93.7 296.8,93.7 295.7,97.5 295.4,97.5 					"/>
					<polygon class="st3" points="297.6,93.7 297.9,93.7 296.8,97.5 296.5,97.5 					"/>
					<polygon class="st3" points="298.8,93.7 299,93.7 297.9,97.5 297.6,97.5 					"/>
				</g>
			</g>
			<line class="st4" x1="282.1" y1="93.8" x2="299.3" y2="93.8"/>
		</g>
	</g>
	<polygon class="st0" points="380.9,86.6 380.9,87.1 365.2,96.5 364.8,96.1 	"/>
	<polygon class="st0" points="371.9,91.6 372.1,92.1 359.2,105.3 358.6,105 	"/>
	<polygon class="st0" points="199.5,86.7 199.5,87.1 215,96.5 215.5,96 	"/>
	<polygon class="st0" points="207.2,91.6 207.1,92.1 219.3,105.2 219.8,104.9 	"/>
	<path class="st5" d="M165.8,128.8c0,0,11-3.5,123.3-4.9c112.3-1.3,140.2,5.2,123.3,5.6c-17,0.4-52.4-0.4-52.8,0.7
		c-0.5,1.1,10.5,2.5,5.3,2.8c-5.2,0.3-17.6,0.7-17.6,0.7s9.9-1.2,5.3-2.1c-4.6-0.9-46.3-3.4-58.1-2.8c0,0,101.4,0,74-2.1
		c-27.4-2.1-155.5-1.5-181.4,1.4C186.9,128.1,171.8,129.8,165.8,128.8z"/>
	<path class="st5" d="M201,131.6c-1.6,0.3,39.8-4.6,59.9-4.2c0,0-14.6,1.4-12.3,1.4c2.3-0.1,36,1.6,35.2,1.4
		C283,130,216.8,128.7,201,131.6z"/>
	<path class="st5" d="M240,130.9c-0.7,0.3,18.4-4.6,27.7-4.2c0,0-6.7,1.4-5.7,1.4c1-0.1,16.6,1.6,16.3,1.4
		C277.9,129.3,247.3,128.1,240,130.9z"/>
	<polygon class="st4" points="289.7,128.1 290.5,128.1 397.5,128.1 405.1,125.8 405.1,123.3 396.7,123.3 391.7,107.8 367.3,107.8 
		366.4,101.7 366.5,101.7 363.9,91.6 366.7,87.4 371,87.4 369.3,84.5 351.8,84.5 347.2,68.7 345.6,68.7 347,76 339.9,76 340.9,76.8 
		347.2,77.7 346.1,89.9 317.9,89.9 313.9,95.6 302.4,95.6 297.8,85.4 295.6,85.4 295.6,80.8 294.2,80.8 294.2,85.4 290.5,85.4 
		289.7,85.4 286,85.4 286,80.8 284.6,80.8 284.6,85.4 282.3,85.4 277.8,95.6 266.2,95.6 262.3,91.6 234,91.6 232.9,77.7 239.3,76.8 
		240.2,76 233.2,76 234.6,68.7 232.9,68.7 228.4,84.5 210.9,84.5 209.2,87.4 213.4,87.4 216.2,91.6 213.1,103.8 213,103.8 
		212.3,107.8 188.4,107.8 183.5,123.3 175,123.3 175,125.8 182.6,128.1 	"/>
	<path class="st6" d="M343.8,101h1.8c0.6,0,1,0.6,1,1.4v0.3c0,0.8-0.4,1.4-1,1.4h-1.8c-0.6,0-1-0.6-1-1.4v-0.3
		C342.8,101.6,343.2,101,343.8,101z"/>
	<path class="st6" d="M358.3,101h1.4c0.4,0,0.8,0.6,0.8,1.4v0.3c0,0.8-0.3,1.4-0.8,1.4h-1.4c-0.4,0-0.8-0.6-0.8-1.4v-0.3
		C357.5,101.6,357.9,101,358.3,101z"/>
	<path class="st6" d="M338.4,101h1.8c0.6,0,1,0.6,1,1.4v0.3c0,0.8-0.5,1.4-1,1.4h-1.8c-0.6,0-1-0.6-1-1.4v-0.3
		C337.4,101.6,337.9,101,338.4,101z"/>
	<path class="st6" d="M354.2,101h1.4c0.4,0,0.8,0.6,0.8,1.4v0.3c0,0.8-0.3,1.4-0.8,1.4h-1.4c-0.4,0-0.8-0.6-0.8-1.4v-0.3
		C353.4,101.6,353.7,101,354.2,101z"/>
	<path class="st6" d="M333.3,101h1.8c0.6,0,1,0.6,1,1.4v0.3c0,0.8-0.5,1.4-1,1.4h-1.8c-0.6,0-1-0.6-1-1.4v-0.3
		C332.3,101.6,332.8,101,333.3,101z"/>
	<path class="st6" d="M327.9,101h1.8c0.6,0,1,0.6,1,1.4v0.3c0,0.8-0.5,1.4-1,1.4h-1.8c-0.6,0-1-0.6-1-1.4v-0.3
		C326.9,101.6,327.4,101,327.9,101z"/>
	<path class="st6" d="M322.6,101h1.8c0.6,0,1,0.6,1,1.4v0.3c0,0.8-0.4,1.4-1,1.4h-1.8c-0.6,0-1-0.6-1-1.4v-0.3
		C321.6,101.6,322,101,322.6,101z"/>
	<path class="st6" d="M317.5,101h1.8c0.6,0,1,0.6,1,1.4v0.3c0,0.8-0.5,1.4-1,1.4h-1.8c-0.6,0-1-0.6-1-1.4v-0.3
		C316.5,101.6,316.9,101,317.5,101z"/>
	<path class="st6" d="M301.6,101h1.8c0.6,0,1,0.6,1,1.4v0.3c0,0.8-0.4,1.4-1,1.4h-1.8c-0.6,0-1-0.6-1-1.4v-0.3
		C300.6,101.6,301.1,101,301.6,101z"/>
	<path class="st6" d="M312.1,101h1.8c0.6,0,1,0.6,1,1.4v0.3c0,0.8-0.4,1.4-1,1.4h-1.8c-0.6,0-1-0.6-1-1.4v-0.3
		C311.1,101.6,311.5,101,312.1,101z"/>
	<path class="st6" d="M296.3,101h1.8c0.6,0,1,0.6,1,1.4v0.3c0,0.8-0.4,1.4-1,1.4h-1.8c-0.6,0-1-0.6-1-1.4v-0.3
		C295.3,101.6,295.7,101,296.3,101z"/>
	<path class="st6" d="M306.7,101h1.8c0.6,0,1,0.6,1,1.4v0.3c0,0.8-0.4,1.4-1,1.4h-1.8c-0.6,0-1-0.6-1-1.4v-0.3
		C305.7,101.6,306.2,101,306.7,101z"/>
	<path class="st6" d="M291.1,101h1.8c0.6,0,1,0.6,1,1.4v0.3c0,0.8-0.4,1.4-1,1.4h-1.8c-0.6,0-1-0.6-1-1.4v-0.3
		C290.1,101.6,290.6,101,291.1,101z"/>
	<path class="st6" d="M343.8,118h1.8c0.6,0,1,0.6,1,1.4v0.3c0,0.8-0.4,1.4-1,1.4h-1.8c-0.6,0-1-0.6-1-1.4v-0.3
		C342.8,118.6,343.2,118,343.8,118z"/>
	<path class="st6" d="M355.4,118h1.8c0.6,0,1,0.6,1,1.4v0.3c0,0.8-0.4,1.4-1,1.4h-1.8c-0.6,0-1-0.6-1-1.4v-0.3
		C354.4,118.6,354.8,118,355.4,118z"/>
	<path class="st6" d="M338.4,118h1.8c0.6,0,1,0.6,1,1.4v0.3c0,0.8-0.5,1.4-1,1.4h-1.8c-0.6,0-1-0.6-1-1.4v-0.3
		C337.4,118.6,337.9,118,338.4,118z"/>
	<path class="st6" d="M350,118h1.8c0.6,0,1,0.6,1,1.4v0.3c0,0.8-0.4,1.4-1,1.4H350c-0.6,0-1-0.6-1-1.4v-0.3
		C349,118.6,349.4,118,350,118z"/>
	<path class="st6" d="M333.3,118h1.8c0.6,0,1,0.6,1,1.4v0.3c0,0.8-0.5,1.4-1,1.4h-1.8c-0.6,0-1-0.6-1-1.4v-0.3
		C332.3,118.6,332.8,118,333.3,118z"/>
	<path class="st6" d="M327.9,118h1.8c0.6,0,1,0.6,1,1.4v0.3c0,0.8-0.5,1.4-1,1.4h-1.8c-0.6,0-1-0.6-1-1.4v-0.3
		C326.9,118.6,327.4,118,327.9,118z"/>
	<path class="st6" d="M322.6,118h1.8c0.6,0,1,0.6,1,1.4v0.3c0,0.8-0.4,1.4-1,1.4h-1.8c-0.6,0-1-0.6-1-1.4v-0.3
		C321.6,118.6,322,118,322.6,118z"/>
	<path class="st6" d="M317.5,118h1.8c0.6,0,1,0.6,1,1.4v0.3c0,0.8-0.5,1.4-1,1.4h-1.8c-0.6,0-1-0.6-1-1.4v-0.3
		C316.5,118.6,316.9,118,317.5,118z"/>
	<path class="st6" d="M301.6,118h1.8c0.6,0,1,0.6,1,1.4v0.3c0,0.8-0.4,1.4-1,1.4h-1.8c-0.6,0-1-0.6-1-1.4v-0.3
		C300.6,118.6,301.1,118,301.6,118z"/>
	<path class="st6" d="M312.1,118h1.8c0.6,0,1,0.6,1,1.4v0.3c0,0.8-0.4,1.4-1,1.4h-1.8c-0.6,0-1-0.6-1-1.4v-0.3
		C311.1,118.6,311.5,118,312.1,118z"/>
	<path class="st6" d="M296.3,118h1.8c0.6,0,1,0.6,1,1.4v0.3c0,0.8-0.4,1.4-1,1.4h-1.8c-0.6,0-1-0.6-1-1.4v-0.3
		C295.3,118.6,295.7,118,296.3,118z"/>
	<path class="st6" d="M306.7,118h1.8c0.6,0,1,0.6,1,1.4v0.3c0,0.8-0.4,1.4-1,1.4h-1.8c-0.6,0-1-0.6-1-1.4v-0.3
		C305.7,118.6,306.2,118,306.7,118z"/>
	<path class="st6" d="M291.1,118h1.8c0.6,0,1,0.6,1,1.4v0.3c0,0.8-0.4,1.4-1,1.4h-1.8c-0.6,0-1-0.6-1-1.4v-0.3
		C290.1,118.6,290.6,118,291.1,118z"/>
	<path class="st6" d="M355.1,109.5h1.8c0.6,0,1,0.6,1,1.4v0.3c0,0.8-0.5,1.4-1,1.4h-1.8c-0.6,0-1-0.6-1-1.4v-0.3
		C354.1,110.1,354.5,109.5,355.1,109.5z"/>
	<path class="st6" d="M349.7,109.5h1.8c0.6,0,1,0.6,1,1.4v0.3c0,0.8-0.4,1.4-1,1.4h-1.8c-0.6,0-1-0.6-1-1.4v-0.3
		C348.7,110.1,349.2,109.5,349.7,109.5z"/>
	<path class="st6" d="M344.6,109.5h1.8c0.6,0,1,0.6,1,1.4v0.3c0,0.8-0.4,1.4-1,1.4h-1.8c-0.6,0-1-0.6-1-1.4v-0.3
		C343.6,110.1,344.1,109.5,344.6,109.5z"/>
	<path class="st6" d="M339.2,109.5h1.8c0.6,0,1,0.6,1,1.4v0.3c0,0.8-0.4,1.4-1,1.4h-1.8c-0.6,0-1-0.6-1-1.4v-0.3
		C338.2,110.1,338.7,109.5,339.2,109.5z"/>
	<path class="st6" d="M333.9,109.5h1.8c0.6,0,1,0.6,1,1.4v0.3c0,0.8-0.4,1.4-1,1.4h-1.8c-0.6,0-1-0.6-1-1.4v-0.3
		C332.9,110.1,333.3,109.5,333.9,109.5z"/>
	<path class="st6" d="M328.8,109.5h1.8c0.6,0,1,0.6,1,1.4v0.3c0,0.8-0.4,1.4-1,1.4h-1.8c-0.6,0-1-0.6-1-1.4v-0.3
		C327.8,110.1,328.2,109.5,328.8,109.5z"/>
	<path class="st6" d="M312.9,109.5h1.8c0.6,0,1,0.6,1,1.4v0.3c0,0.8-0.5,1.4-1,1.4h-1.8c-0.6,0-1-0.6-1-1.4v-0.3
		C311.9,110.1,312.4,109.5,312.9,109.5z"/>
	<path class="st6" d="M323.4,109.5h1.8c0.6,0,1,0.6,1,1.4v0.3c0,0.8-0.4,1.4-1,1.4h-1.8c-0.6,0-1-0.6-1-1.4v-0.3
		C322.4,110.1,322.8,109.5,323.4,109.5z"/>
	<path class="st6" d="M296.3,109.5h1.8c0.6,0,1,0.6,1,1.4v0.3c0,0.8-0.4,1.4-1,1.4h-1.8c-0.6,0-1-0.6-1-1.4v-0.3
		C295.3,110.1,295.7,109.5,296.3,109.5z"/>
	<path class="st6" d="M318,109.5h1.8c0.6,0,1,0.6,1,1.4v0.3c0,0.8-0.5,1.4-1,1.4H318c-0.6,0-1-0.6-1-1.4v-0.3
		C317,110.1,317.5,109.5,318,109.5z"/>
	<path class="st6" d="M291.1,109.5h1.8c0.6,0,1,0.6,1,1.4v0.3c0,0.8-0.4,1.4-1,1.4h-1.8c-0.6,0-1-0.6-1-1.4v-0.3
		C290.1,110.1,290.6,109.5,291.1,109.5z"/>
	<polygon class="st0" points="352.7,87.6 351.3,89.9 361.5,89.9 363.3,87.6 	"/>
	<polygon class="st6" points="354,87.6 352.7,89.9 353.4,89.9 354.6,87.5 	"/>
	<polygon class="st6" points="360.1,87.6 358.8,89.9 359.5,89.9 360.7,87.5 	"/>
	<polygon class="st6" points="357,87.6 355.6,89.9 356.3,89.9 357.6,87.5 	"/>
	<path class="st5" d="M360.1,123.4v0.9H355v-1h-64.7c0,0-0.3,1.4,0,1.4H405l0.2-1.3L360.1,123.4z"/>
	<path class="st6" d="M236.5,118h-1.8c-0.6,0-1,0.6-1,1.4v0.3c0,0.8,0.4,1.4,1,1.4h1.8c0.6,0,1-0.6,1-1.4v-0.3
		C237.5,118.6,237.1,118,236.5,118z"/>
	<path class="st6" d="M224.9,118h-1.8c-0.6,0-1,0.6-1,1.4v0.3c0,0.8,0.5,1.4,1,1.4h1.8c0.6,0,1-0.6,1-1.4v-0.3
		C225.9,118.6,225.5,118,224.9,118z"/>
	<path class="st6" d="M241.9,118H240c-0.6,0-1,0.6-1,1.4v0.3c0,0.8,0.4,1.4,1,1.4h1.8c0.6,0,1-0.6,1-1.4v-0.3
		C242.9,118.6,242.4,118,241.9,118z"/>
	<path class="st6" d="M230.3,118h-1.8c-0.6,0-1,0.6-1,1.4v0.3c0,0.8,0.4,1.4,1,1.4h1.8c0.6,0,1-0.6,1-1.4v-0.3
		C231.3,118.6,230.8,118,230.3,118z"/>
	<path class="st6" d="M247,118h-1.8c-0.6,0-1,0.6-1,1.4v0.3c0,0.8,0.4,1.4,1,1.4h1.8c0.6,0,1-0.6,1-1.4v-0.3
		C248,118.6,247.5,118,247,118z"/>
	<path class="st6" d="M252.3,118h-1.8c-0.6,0-1,0.6-1,1.4v0.3c0,0.8,0.5,1.4,1,1.4h1.8c0.6,0,1-0.6,1-1.4v-0.3
		C253.3,118.6,252.9,118,252.3,118z"/>
	<path class="st6" d="M257.7,118h-1.8c-0.6,0-1,0.6-1,1.4v0.3c0,0.8,0.5,1.4,1,1.4h1.8c0.6,0,1-0.6,1-1.4v-0.3
		C258.7,118.6,258.3,118,257.7,118z"/>
	<path class="st6" d="M262.8,118H261c-0.6,0-1,0.6-1,1.4v0.3c0,0.8,0.5,1.4,1,1.4h1.8c0.6,0,1-0.6,1-1.4v-0.3
		C263.8,118.6,263.4,118,262.8,118z"/>
	<path class="st6" d="M278.7,118h-1.8c-0.6,0-1,0.6-1,1.4v0.3c0,0.8,0.4,1.4,1,1.4h1.8c0.6,0,1-0.6,1-1.4v-0.3
		C279.7,118.6,279.2,118,278.7,118z"/>
	<path class="st6" d="M268.2,118h-1.8c-0.6,0-1,0.6-1,1.4v0.3c0,0.8,0.5,1.4,1,1.4h1.8c0.6,0,1-0.6,1-1.4v-0.3
		C269.2,118.6,268.7,118,268.2,118z"/>
	<path class="st6" d="M284,118h-1.8c-0.6,0-1,0.6-1,1.4v0.3c0,0.8,0.4,1.4,1,1.4h1.8c0.6,0,1-0.6,1-1.4v-0.3
		C285,118.6,284.6,118,284,118z"/>
	<path class="st6" d="M273.6,118h-1.8c-0.6,0-1,0.6-1,1.4v0.3c0,0.8,0.4,1.4,1,1.4h1.8c0.6,0,1-0.6,1-1.4v-0.3
		C274.6,118.6,274.1,118,273.6,118z"/>
	<path class="st6" d="M225.2,109.5h-1.8c-0.6,0-1,0.6-1,1.4v0.3c0,0.8,0.5,1.4,1,1.4h1.8c0.6,0,1-0.6,1-1.4v-0.3
		C226.2,110.1,225.8,109.5,225.2,109.5z"/>
	<path class="st6" d="M230.6,109.5h-1.8c-0.6,0-1,0.6-1,1.4v0.3c0,0.8,0.5,1.4,1,1.4h1.8c0.6,0,1-0.6,1-1.4v-0.3
		C231.6,110.1,231.1,109.5,230.6,109.5z"/>
	<path class="st6" d="M235.7,109.5h-1.8c-0.6,0-1,0.6-1,1.4v0.3c0,0.8,0.5,1.4,1,1.4h1.8c0.6,0,1-0.6,1-1.4v-0.3
		C236.7,110.1,236.2,109.5,235.7,109.5z"/>
	<path class="st6" d="M241,109.5h-1.8c-0.6,0-1,0.6-1,1.4v0.3c0,0.8,0.4,1.4,1,1.4h1.8c0.6,0,1-0.6,1-1.4v-0.3
		C242.1,110.1,241.6,109.5,241,109.5z"/>
	<path class="st6" d="M246.4,109.5h-1.8c-0.6,0-1,0.6-1,1.4v0.3c0,0.8,0.4,1.4,1,1.4h1.8c0.6,0,1-0.6,1-1.4v-0.3
		C247.4,110.1,247,109.5,246.4,109.5z"/>
	<path class="st6" d="M251.5,109.5h-1.8c-0.6,0-1,0.6-1,1.4v0.3c0,0.8,0.4,1.4,1,1.4h1.8c0.6,0,1-0.6,1-1.4v-0.3
		C252.5,110.1,252.1,109.5,251.5,109.5z"/>
	<path class="st6" d="M267.4,109.5h-1.8c-0.6,0-1,0.6-1,1.4v0.3c0,0.8,0.4,1.4,1,1.4h1.8c0.6,0,1-0.6,1-1.4v-0.3
		C268.4,110.1,267.9,109.5,267.4,109.5z"/>
	<path class="st6" d="M256.9,109.5h-1.8c-0.6,0-1,0.6-1,1.4v0.3c0,0.8,0.4,1.4,1,1.4h1.8c0.6,0,1-0.6,1-1.4v-0.3
		C257.9,110.1,257.4,109.5,256.9,109.5z"/>
	<path class="st6" d="M284,109.5h-1.8c-0.6,0-1,0.6-1,1.4v0.3c0,0.8,0.4,1.4,1,1.4h1.8c0.6,0,1-0.6,1-1.4v-0.3
		C285,110.1,284.6,109.5,284,109.5z"/>
	<path class="st6" d="M262.3,109.5h-1.8c-0.6,0-1,0.6-1,1.4v0.3c0,0.8,0.4,1.4,1,1.4h1.8c0.6,0,1-0.6,1-1.4v-0.3
		C263.3,110.1,262.8,109.5,262.3,109.5z"/>
	<polygon class="st0" points="226.3,87.6 227.7,89.9 217.5,89.9 215.7,87.6 	"/>
	<polygon class="st6" points="225,87.6 226.3,89.9 225.6,89.9 224.4,87.5 	"/>
	<polygon class="st6" points="218.9,87.6 220.2,89.9 219.5,89.9 218.3,87.5 	"/>
	<polygon class="st6" points="222,87.6 223.4,89.9 222.7,89.9 221.4,87.5 	"/>
	<path class="st5" d="M220.3,123.4v0.9h5.1v-1h64.7c0,0,0.3,1.4,0,1.4H175.4l-0.1-1.3L220.3,123.4z"/>
	<polyline class="st5" points="228.4,86.1 210,86.1 211.1,84.2 228.4,84.4 	"/>
	<polyline class="st5" points="351.7,86.1 370.2,86.1 369,84.2 351.7,84.4 	"/>
	<line class="st7" x1="364.7" y1="95.3" x2="365.7" y2="94.8"/>
	<rect x="236.8" y="93.3" class="st6" width="1.4" height="2.4"/>
	<rect x="246.8" y="93.3" class="st6" width="1.4" height="2.4"/>
	<rect x="256.7" y="93.3" class="st6" width="1.4" height="2.4"/>
	<polygon class="st7" points="188.8,104.3 189.1,104.3 188,108 187.7,108 	"/>
	<polygon class="st7" points="189.9,104.3 190.2,104.3 189.1,108 188.8,108 	"/>
	<polygon class="st7" points="191.1,104.3 191.4,104.3 190.2,108 189.9,108 	"/>
	<polygon class="st7" points="192.2,104.3 192.5,104.3 191.4,108 191.1,108 	"/>
	<polygon class="st7" points="193.3,104.3 193.6,104.3 192.5,108 192.2,108 	"/>
	<polygon class="st7" points="194.4,104.3 194.7,104.3 193.6,108 193.3,108 	"/>
	<polygon class="st7" points="195.6,104.3 195.8,104.3 194.7,108 194.4,108 	"/>
	<polygon class="st7" points="196.7,104.3 197,104.3 195.8,108 195.6,108 	"/>
	<polygon class="st7" points="197.8,104.3 198.1,104.3 197,108 196.7,108 	"/>
	<polygon class="st7" points="198.9,104.3 199.2,104.3 198.1,108 197.8,108 	"/>
	<polygon class="st7" points="200.1,104.3 200.3,104.3 199.2,108 198.9,108 	"/>
	<polygon class="st7" points="201.2,104.3 201.5,104.3 200.3,108 200.1,108 	"/>
	<polygon class="st7" points="202.3,104.3 202.6,104.3 201.5,108 201.2,108 	"/>
	<polygon class="st7" points="203.4,104.3 203.7,104.3 202.6,108 202.3,108 	"/>
	<polygon class="st7" points="204.6,104.3 204.8,104.3 203.7,108 203.4,108 	"/>
	<polygon class="st7" points="205.7,104.3 206,104.3 204.8,108 204.6,108 	"/>
	<line class="st7" x1="189" y1="104.4" x2="206.2" y2="104.4"/>
	<polygon class="st7" points="206.3,104.3 206.6,104.3 205.5,108 205.2,108 	"/>
	<polygon class="st7" points="207.4,104.3 207.7,104.3 206.6,108 206.3,108 	"/>
	<polygon class="st7" points="208.6,104.3 208.8,104.3 207.7,108 207.4,108 	"/>
	<polygon class="st7" points="209.7,104.3 210,104.3 208.8,108 208.6,108 	"/>
	<polygon class="st7" points="210.8,104.3 211.1,104.3 210,108 209.7,108 	"/>
	<polygon class="st7" points="211.9,104.3 212.2,104.3 211.1,108 210.8,108 	"/>
	<polygon class="st7" points="213.1,104.3 213.3,104.3 212.2,108 211.9,108 	"/>
	<polygon class="st7" points="214.2,104.3 214.5,104.3 213.3,108 213.1,108 	"/>
	<polygon class="st7" points="215.3,104.3 215.6,104.3 214.5,108 214.2,108 	"/>
	<polygon class="st7" points="216.4,104.3 216.7,104.3 215.6,108 215.3,108 	"/>
	<polygon class="st7" points="217.5,104.3 217.8,104.3 216.7,108 216.4,108 	"/>
	<polygon class="st7" points="218.7,104.3 218.9,104.3 217.8,108 217.5,108 	"/>
	<polygon class="st7" points="219.8,104.3 220.1,104.3 218.9,108 218.7,108 	"/>
	<polygon class="st7" points="220.9,104.3 221.2,104.3 220.1,108 219.8,108 	"/>
	<polygon class="st7" points="222,104.3 222.3,104.3 221.2,108 220.9,108 	"/>
	<polygon class="st7" points="223.2,104.3 223.4,104.3 222.3,108 222,108 	"/>
	<line class="st7" x1="206.5" y1="104.4" x2="223.7" y2="104.4"/>
	<polygon class="st8" points="391.2,105.5 390.9,105.5 392,109.3 392.3,109.3 	"/>
	<polygon class="st8" points="390.1,105.5 389.8,105.5 390.9,109.3 391.2,109.3 	"/>
	<polygon class="st8" points="388.9,105.5 388.6,105.5 389.8,109.3 390.1,109.3 	"/>
	<polygon class="st8" points="387.8,105.5 387.5,105.5 388.6,109.3 388.9,109.3 	"/>
	<polygon class="st8" points="386.7,105.5 386.4,105.5 387.5,109.3 387.8,109.3 	"/>
	<polygon class="st8" points="385.6,105.5 385.3,105.5 386.4,109.3 386.7,109.3 	"/>
	<polygon class="st8" points="384.4,105.5 384.2,105.5 385.3,109.3 385.6,109.3 	"/>
	<polygon class="st8" points="383.3,105.5 383,105.5 384.2,109.3 384.4,109.3 	"/>
	<polygon class="st8" points="382.2,105.5 381.9,105.5 383,109.3 383.3,109.3 	"/>
	<polygon class="st8" points="381.1,105.5 380.8,105.5 381.9,109.3 382.2,109.3 	"/>
	<polygon class="st8" points="379.9,105.5 379.7,105.5 380.8,109.3 381.1,109.3 	"/>
	<polygon class="st8" points="378.8,105.5 378.5,105.5 379.7,109.3 379.9,109.3 	"/>
	<polygon class="st8" points="377.7,105.5 377.4,105.5 378.5,109.3 378.8,109.3 	"/>
	<polygon class="st8" points="376.6,105.5 376.3,105.5 377.4,109.3 377.7,109.3 	"/>
	<polygon class="st8" points="375.4,105.5 375.2,105.5 376.3,109.3 376.6,109.3 	"/>
	<polygon class="st8" points="374.3,105.5 374,105.5 375.2,109.3 375.4,109.3 	"/>
	<line class="st7" x1="391.2" y1="105.6" x2="373.9" y2="105.6"/>
	<polygon class="st8" points="373.7,105.5 373.4,105.5 374.5,109.3 374.8,109.3 	"/>
	<polygon class="st8" points="372.6,105.5 372.3,105.5 373.4,109.3 373.7,109.3 	"/>
	<polygon class="st8" points="371.4,105.5 371.2,105.5 372.3,109.3 372.6,109.3 	"/>
	<polygon class="st8" points="370.3,105.5 370,105.5 371.2,109.3 371.4,109.3 	"/>
	<polygon class="st8" points="369.2,105.5 368.9,105.5 370,109.3 370.3,109.3 	"/>
	<polygon class="st8" points="368.1,105.5 367.8,105.5 368.9,109.3 369.2,109.3 	"/>
	<polygon class="st8" points="367,105.5 366.7,105.5 367.8,109.3 368.1,109.3 	"/>
	<polygon class="st8" points="365.8,105.5 365.6,105.5 366.7,109.3 367,109.3 	"/>
	<polygon class="st8" points="364.7,105.5 364.4,105.5 365.6,109.3 365.8,109.3 	"/>
	<polygon class="st8" points="363.6,105.5 363.3,105.5 364.4,109.3 364.7,109.3 	"/>
	<polygon class="st8" points="362.5,105.5 362.2,105.5 363.3,109.3 363.6,109.3 	"/>
	<polygon class="st8" points="361.3,105.5 361.1,105.5 362.2,109.3 362.5,109.3 	"/>
	<polygon class="st8" points="360.2,105.5 359.9,105.5 361.1,109.3 361.3,109.3 	"/>
	<polygon class="st8" points="359.1,105.5 358.8,105.5 359.9,109.3 360.2,109.3 	"/>
	<polygon class="st8" points="358,105.5 357.7,105.5 358.8,109.3 359.1,109.3 	"/>
	<polygon class="st8" points="356.8,105.5 356.6,105.5 357.7,109.3 358,109.3 	"/>
	<line class="st7" x1="373.7" y1="105.6" x2="356.5" y2="105.6"/>
	<rect x="321" y="93.3" class="st6" width="1.4" height="2.4"/>
	<rect x="330.9" y="93.3" class="st6" width="1.4" height="2.4"/>
	<rect x="340.8" y="93.3" class="st6" width="1.4" height="2.4"/>
	<path class="st9" d="M188.6,108.5h24.1l-22.8,1.3h19.1l-19.7,1.2h17.3c-0.4,0-17.3,1.2-17.3,1.2H204l-14.8,1.2h12.9l-13.6,1.2h11.1
		l-11.1,1.9h8l-8,1.2h6.2L188,119h4.9l-5.6,1.9h3.7l-3.7,1.2h2.5l-3.1,1l-2.7-0.2L188.6,108.5z"/>
	<path class="st10" d="M277.7,95.7l4.6-10.1l14.6,0l-13.3,1.2h11.4l-12,1.2l10.1,0c-0.4,0-10.1,1.3-10.1,1.3h7.8l-7.8,1.2l5,0.1
		l-5.6,1.1l3.4,0.4l-3.4,1.5l2.2,0l-2.2,1.2l1,0.1l0.9,0.7"/>
	<path class="st9" d="M213.1,105.2l3.5-13.7h19.2l-18,1.8l15.2,0l-15.5,1.2l13.6,0.1c-0.3,0-13.8,1.3-13.8,1.3l11.9-0.1l-12,1.2
		l10.6,0.1l-10.8,1.2l8.8,0.1l-8.9,1.3l6.5,0.5l-6.6,1.1l5.2,0.2l-5.4,1.2l4,0.1l-4.5,1.5l3.1,0.4"/>
	<path class="st6" d="M391.6,108.5h-24.1l22.8,1.3h-19.1L391,111h-17.3c0.4,0,17.3,1.2,17.3,1.2h-14.8l14.8,1.2h-13l13.6,1.2h-11.1
		l11.1,1.9h-8l8,1.2h-6.2l6.8,1.2h-4.9l5.6,1.9h-3.7l3.7,1.2h-2.5l3.1,1l2.7-0.2L391.6,108.5z"/>
	<path class="st6" d="M367.1,105.2l-3.5-13.7h-19.2l18,1.8l-15.2,0l15.5,1.2l-13.6,0.1c0.3,0,13.8,1.3,13.8,1.3l-11.9-0.1l12,1.2
		l-10.6,0.1l10.8,1.2l-8.8,0.1l8.9,1.3l-6.5,0.5l6.6,1.1l-5.2,0.2l5.5,1.2l-4,0.1l4.5,1.5l-3.1,0.4"/>
	<path class="st6" d="M236.5,101h-1.8c-0.6,0-1,0.6-1,1.4v0.3c0,0.8,0.4,1.4,1,1.4h1.8c0.6,0,1-0.6,1-1.4v-0.3
		C237.5,101.6,237.1,101,236.5,101z"/>
	<path class="st6" d="M222,101h-1.4c-0.4,0-0.8,0.6-0.8,1.4v0.3c0,0.8,0.3,1.4,0.8,1.4h1.4c0.4,0,0.8-0.6,0.8-1.4v-0.3
		C222.8,101.6,222.4,101,222,101z"/>
	<path class="st6" d="M241.9,101H240c-0.6,0-1,0.6-1,1.4v0.3c0,0.8,0.4,1.4,1,1.4h1.8c0.6,0,1-0.6,1-1.4v-0.3
		C242.9,101.6,242.4,101,241.9,101z"/>
	<path class="st6" d="M226.1,101h-1.4c-0.4,0-0.8,0.6-0.8,1.4v0.3c0,0.8,0.3,1.4,0.8,1.4h1.4c0.4,0,0.8-0.6,0.8-1.4v-0.3
		C226.9,101.6,226.5,101,226.1,101z"/>
	<path class="st6" d="M247,101h-1.8c-0.6,0-1,0.6-1,1.4v0.3c0,0.8,0.4,1.4,1,1.4h1.8c0.6,0,1-0.6,1-1.4v-0.3
		C248,101.6,247.5,101,247,101z"/>
	<path class="st6" d="M252.3,101h-1.8c-0.6,0-1,0.6-1,1.4v0.3c0,0.8,0.5,1.4,1,1.4h1.8c0.6,0,1-0.6,1-1.4v-0.3
		C253.3,101.6,252.9,101,252.3,101z"/>
	<path class="st6" d="M257.7,101h-1.8c-0.6,0-1,0.6-1,1.4v0.3c0,0.8,0.5,1.4,1,1.4h1.8c0.6,0,1-0.6,1-1.4v-0.3
		C258.7,101.6,258.3,101,257.7,101z"/>
	<path class="st6" d="M262.8,101H261c-0.6,0-1,0.6-1,1.4v0.3c0,0.8,0.5,1.4,1,1.4h1.8c0.6,0,1-0.6,1-1.4v-0.3
		C263.8,101.6,263.4,101,262.8,101z"/>
	<path class="st6" d="M278.7,101h-1.8c-0.6,0-1,0.6-1,1.4v0.3c0,0.8,0.4,1.4,1,1.4h1.8c0.6,0,1-0.6,1-1.4v-0.3
		C279.7,101.6,279.2,101,278.7,101z"/>
	<path class="st6" d="M268.2,101h-1.8c-0.6,0-1,0.6-1,1.4v0.3c0,0.8,0.5,1.4,1,1.4h1.8c0.6,0,1-0.6,1-1.4v-0.3
		C269.2,101.6,268.7,101,268.2,101z"/>
	<path class="st6" d="M284,101h-1.8c-0.6,0-1,0.6-1,1.4v0.3c0,0.8,0.4,1.4,1,1.4h1.8c0.6,0,1-0.6,1-1.4v-0.3
		C285,101.6,284.6,101,284,101z"/>
	<path class="st6" d="M273.6,101h-1.8c-0.6,0-1,0.6-1,1.4v0.3c0,0.8,0.4,1.4,1,1.4h1.8c0.6,0,1-0.6,1-1.4v-0.3
		C274.6,101.6,274.1,101,273.6,101z"/>
	<polygon class="st10" points="233.2,77.4 233.2,76.8 239.3,76.5 239.9,76.4 	"/>
	<polygon class="st10" points="233,68.9 228.6,84.2 228.8,86.2 233.6,68.7 	"/>
	<polygon class="st10" points="347.1,77.4 347.1,76.8 340.9,76.5 340.3,76.4 	"/>
	<polygon class="st10" points="347.3,68.9 351.6,84.2 351.4,86.2 346.7,68.7 	"/>
	<polygon class="st11" points="263.4,93 266,95.6 313.9,95.6 315.8,92.4 	"/>
	<polygon class="st5" points="280.1,90.7 300.4,90.7 302.1,95.6 278.1,95.6 	"/>
</g>
</svg>
