<?xml version="1.0" encoding="utf-8"?>
<!-- Generator: Adobe Illustrator 22.1.0, SVG Export Plug-In . SVG Version: 6.00 Build 0)  -->
<svg version="1.1" id="Capa_1" xmlns="http://www.w3.org/2000/svg" xmlns:xlink="http://www.w3.org/1999/xlink" x="0px" y="0px"
	 viewBox="0 0 595.3 144.9" style="enable-background:new 0 0 595.3 144.9;" xml:space="preserve">
<style type="text/css">
	.st0{fill-rule:evenodd;clip-rule:evenodd;fill:#FFFFFF;}
	.st1{fill:#D6C283;}
	.st2{fill-rule:evenodd;clip-rule:evenodd;fill:#CBB369;}
	.st3{fill-rule:evenodd;clip-rule:evenodd;fill:#FFFFFF;stroke:#FFFFFF;stroke-miterlimit:10;}
	
		.st4{fill-rule:evenodd;clip-rule:evenodd;fill:#FFFFFF;stroke:#FFFFFF;stroke-linecap:round;stroke-linejoin:round;stroke-miterlimit:10;}
	.st5{fill-rule:evenodd;clip-rule:evenodd;fill:#D6C283;}
	.st6{fill-rule:evenodd;clip-rule:evenodd;fill:#11171F;}
	
		.st7{fill-rule:evenodd;clip-rule:evenodd;fill:none;stroke:#FFFFFF;stroke-linecap:round;stroke-linejoin:round;stroke-miterlimit:10;}
	
		.st8{fill-rule:evenodd;clip-rule:evenodd;fill:#11171F;stroke:#FFFFFF;stroke-linecap:round;stroke-linejoin:round;stroke-miterlimit:10;}
	.st9{fill-rule:evenodd;clip-rule:evenodd;fill:#A8A7A8;}
	.st10{fill-rule:evenodd;clip-rule:evenodd;fill:#D3D3D4;}
	.st11{fill-rule:evenodd;clip-rule:evenodd;fill:none;}
</style>
<g>
	<path class="st0" d="M90.6,114.9c0,3.3,0,6.1-0.2,7.5c-0.1,1-0.3,1.8-1,1.9c-0.3,0.1-0.7,0.1-1,0.1c-0.2,0-0.3,0.1-0.3,0.3
		c0,0.3,0.2,0.3,0.6,0.3h7.6c0.4,0,0.6-0.1,0.6-0.3c0-0.1-0.1-0.3-0.3-0.3c-0.3,0-1.2-0.1-1.7-0.1c-1.1-0.1-1.4-0.9-1.5-1.9
		c-0.2-1.5-0.2-4.2-0.2-7.5v-3c0-0.3,0.1-0.3,0.3-0.3c0.6,0,4.7,0,5.6,0.1c1.2,0.1,1.8,0.8,2,1.3c0.2,0.4,0.2,0.9,0.2,1.3
		c0,0.2,0.1,0.3,0.3,0.3c0.3,0,0.3-0.3,0.3-0.7c0-0.2,0.1-1.6,0.1-2.3c0.1-1.1,0.3-1.7,0.3-1.9c0-0.2,0-0.3-0.2-0.3
		s-0.2,0.2-0.4,0.3c-0.4,0.5-0.9,0.6-1.8,0.6c-0.5,0-1.1,0-1.7,0l-4.8,0c-0.2,0-0.3-0.1-0.3-0.3v-9.5c0-0.3,0.1-0.4,0.3-0.4l5.8,0.1
		c1.5,0,2.4,0.7,2.6,1.1c0.2,0.4,0.3,1,0.3,1.3c0,0.2,0.1,0.4,0.2,0.4c0.2,0,0.2-0.2,0.3-0.4c0.1-0.6,0.1-2.1,0.2-2.5
		c0.1-1,0.3-1.4,0.3-1.6c0-0.2-0.1-0.3-0.2-0.3s-0.3,0.1-0.5,0.2c-0.3,0.4-0.9,0.4-1.7,0.4c-0.9,0-8.3,0-8.9,0l-1.3,0
		c-0.8,0-1.7,0-2.5,0c-0.4,0-0.5,0.1-0.5,0.3c0,0.1,0.1,0.2,0.3,0.2c0.3,0.1,0.9,0.2,1.2,0.3c1.2,0.2,1.4,0.8,1.5,1.9
		c0.1,1.1,0.1,2,0.1,7.3V114.9z"/>
	<path class="st0" d="M112,116.3c0,2.9,0,5.3-0.2,6.5c-0.1,0.9-0.2,1.5-0.8,1.6c-0.3,0-0.7,0.1-0.9,0.1c-0.2,0-0.2,0.2-0.2,0.3
		c0,0.1,0.2,0.2,0.5,0.2c0.5,0,1.2,0,1.8-0.1c0.6,0.1,1.2,0.1,1.2,0.1c0.4,0,1.2,0,2.5,0.1c1.3-0.1,3.1,0,5.5,0c1.3,0,1.6,0,1.8-0.8
		c0.2-0.6,0.4-2.7,0.4-2.9s0-0.1-0.2-0.1c-0.2,0-0.2-0.3-0.3,0.1c-0.2,1.2-0.6,1.7-1.4,2.1c-0.8,0.3-2.4,0.3-3.2,0.3
		c-3.1,0-3.7-0.4-3.8-2.4c0-0.6,0-4.1,0-5.1v-2.5c0-0.1,0-0.2,0.2-0.2c0.5,0,3.9,0,4.8,0.1c1.2,0.2,1.5,0.5,1.6,0.9
		c0.1,0.4,0.1,0.7,0.1,1c0,0.2,0.1,0.3,0.3,0.3c0.3,0,0.3-0.3,0.3-0.6c0-0.2,0.1-1.3,0.1-1.9c0.1-1,0.2-1.4,0.2-1.6
		c0-0.2-0.1-0.2-0.2-0.2c-0.1,0-0.3,0.2-0.5,0.4c-0.4,0.3-0.8,0.3-1.6,0.4c-0.7,0.1-4.9,0.1-5.3,0.1c-0.2,0-0.2-0.1-0.2-0.3v-7.6
		c0-0.2,0-0.3,0.2-0.3c0.4,0,4,0,4.6,0.1c1.7,0.2,2.1,0.4,2.3,0.9c0.2,0.3,0.2,0.8,0.2,1c0,0.2,0.1,0.4,0.3,0.4
		c0.1,0,0.2-0.2,0.3-0.3c0.1-0.6,0.1-1.9,0.2-2.2c0.1-0.8,0.2-1.2,0.2-1.4c0-0.1,0-0.3-0.1-0.3c-0.1,0-0.3,0.1-0.4,0.1
		c-0.2,0.4-0.9,0.5-1.5,0.5c-0.7,0-7.2,0-7.4,0c-0.2,0-2-0.1-3.4-0.1c-0.3,0-0.5,0.1-0.5,0.3c0,0.1,0.1,0.2,0.2,0.2
		c0.3,0.1,0.8,0.1,1,0.2c1,0.1,1.2,0.6,1.3,1.5c0.1,0.9,0.1,1.7,0.1,6V116.3z"/>
	<path class="st0" d="M135.3,104.8c0-0.2,0.1-0.3,0.3-0.3c0.3-0.1,1.4-0.2,2.3-0.2c3.4,0,5.5,2,5.5,5.4c0,2.1-0.8,3.6-1.9,4.2
		c-0.8,0.5-1.6,0.5-2.4,0.5c-1.4,0-3.1-0.2-3.5-0.4c-0.1-0.1-0.2-0.2-0.2-0.4V104.8z M132.8,116.5c0,2.8,0,5.1-0.2,6.3
		c-0.1,0.9-0.2,1.4-0.8,1.6c-0.3,0.1-0.7,0.1-0.9,0.1c-0.2,0-0.3,0.2-0.3,0.3c0,0.2,0.2,0.3,0.5,0.3h6.8c0.4,0,0.5-0.1,0.5-0.3
		c0-0.1,0-0.3-0.3-0.3c-0.3,0-1-0.1-1.4-0.1c-1-0.1-1.2-0.7-1.3-1.6c-0.1-1.2-0.1-3.5-0.1-6.3v-0.7c0-0.2,0.1-0.3,0.2-0.3l4.1,0.1
		c0.2,0,0.3,0,0.4,0.2c0.7,0.8,2.1,2.7,3.5,4.3c1.6,2.2,2.7,3.6,4,4.3c0.8,0.5,1.5,0.7,3.3,0.7h1.9c0.6,0,0.7-0.1,0.7-0.3
		c0-0.1-0.1-0.3-0.3-0.3c-0.2,0-0.5,0-1.1-0.1c-0.8-0.1-1.8-0.4-3.4-2c-1.8-1.8-3.8-4.5-6.2-7.8c2.8-2.3,3.6-4.3,3.6-6.4
		c0-1.9-1.3-3.3-2-3.8c-1.6-1.3-3.9-1.5-5.9-1.5h-7.5c-0.4,0-0.5,0.1-0.5,0.3c0,0.1,0.1,0.3,0.3,0.3c0.3,0,0.8,0,1,0
		c1,0.1,1.2,0.6,1.2,1.6c0.1,0.9,0.1,1.7,0.1,6.1V116.5z"/>
	<path class="st0" d="M160.1,104.8c0-0.2,0.1-0.3,0.3-0.3c0.3-0.1,1.4-0.2,2.3-0.2c3.4,0,5.5,2,5.5,5.4c0,2.1-0.8,3.6-1.9,4.2
		c-0.8,0.5-1.6,0.5-2.4,0.5c-1.4,0-3.1-0.2-3.5-0.4c-0.1-0.1-0.2-0.2-0.2-0.4V104.8z M157.5,116.5c0,2.8,0,5.1-0.2,6.3
		c-0.1,0.9-0.2,1.4-0.8,1.6c-0.3,0.1-0.7,0.1-0.9,0.1c-0.2,0-0.2,0.2-0.2,0.3c0,0.2,0.2,0.3,0.5,0.3h6.8c0.4,0,0.5-0.1,0.5-0.3
		c0-0.1,0-0.3-0.3-0.3c-0.3,0-1-0.1-1.4-0.1c-1-0.1-1.2-0.7-1.3-1.6c-0.1-1.2-0.1-3.5-0.1-6.3v-0.7c0-0.2,0.1-0.3,0.2-0.3l4.1,0.1
		c0.2,0,0.3,0,0.4,0.2c0.7,0.8,2.1,2.7,3.4,4.3c1.6,2.2,2.7,3.6,4,4.3c0.8,0.5,1.5,0.7,3.3,0.7h1.9c0.6,0,0.7-0.1,0.7-0.3
		c0-0.1-0.1-0.3-0.3-0.3c-0.2,0-0.5,0-1.1-0.1c-0.8-0.1-1.8-0.4-3.4-2c-1.8-1.8-3.8-4.5-6.2-7.8c2.8-2.3,3.6-4.3,3.6-6.4
		c0-1.9-1.3-3.3-2-3.8c-1.6-1.3-3.8-1.5-5.9-1.5h-7.5c-0.3,0-0.5,0.1-0.5,0.3c0,0.1,0.1,0.3,0.2,0.3c0.3,0,0.8,0,1,0
		c1,0.1,1.2,0.6,1.3,1.6c0.1,0.9,0.1,1.7,0.1,6.1V116.5z"/>
	<path class="st0" d="M185.5,120c0,0.5,0,1.7-0.1,2.9c-0.1,0.8-0.3,1.4-0.9,1.5c-0.3,0.1-0.6,0.1-0.9,0.1c-0.2,0-0.2,0.2-0.2,0.3
		c0,0.2,0.1,0.3,0.5,0.3h6.6c0.3,0,0.5-0.1,0.5-0.3c0-0.1-0.1-0.3-0.2-0.3c-0.3,0-1-0.1-1.4-0.1c-0.9-0.1-1.1-0.7-1.2-1.5
		c-0.1-1.2-0.1-2.4-0.1-2.9v-2.5c0-1-0.1-1.9,0.4-2.9c0.6-1.2,4.9-8,5.9-9.2c0.7-0.8,0.9-1.1,1.5-1.4c0.5-0.3,1.1-0.4,1.4-0.4
		c0.2,0,0.9-0.2,0.9-0.4c0-0.1-0.7-0.2-0.9-0.2h-5.1c-0.3,0-0.5,0.1-0.5,0.2c0,0.2,0.2,0.3,0.4,0.4c0.4,0.1,0.5,0.3,0.5,0.8
		c0,0.4-0.1,0.8-0.5,1.5c-0.6,0.9-4.4,7.2-4.9,8.4l-5.4-9c-0.2-0.4-0.4-0.7-0.4-1.1c0-0.2,0.1-0.4,0.4-0.5c0.3-0.1,0.5-0.3,0.5-0.4
		c0-0.2-0.1-0.3-0.4-0.3h-5.6c-0.3,0-0.4,0.1-0.4,0.3c0,0.2,0.1,0.3,0.3,0.3c0.2,0,0.8,0.1,1.3,0.4c0.6,0.4,1.3,1,2,2.1
		c1,1.5,5.2,8,5.4,8.4c0.5,0.8,0.7,1.4,0.7,3V120z"/>
	<path class="st1" d="M54.9,112.4c0.8,1.2,1.8,2.3,3,3.1c1.2,0.9,2.4,1.6,3.8,2.1c1.4,0.5,2.6,0.9,3.7,1c0.2,0.1,0.3,0.1,0.5,0
		c0.1-0.1,0-0.2-0.4-0.3c-1.1-0.2-2.2-0.7-3.5-1.6c-1.3-0.8-2.5-1.8-3.6-2.8s-2.1-2.1-2.9-3.1c-0.8-1-1.2-1.8-1.2-2.5
		c0-0.4,0-0.8,0.2-1.4c0.1-0.6,0.6-0.9,1.5-0.9c0.8-0.1,1.6,0.1,2.5,0.5c0.9,0.4,1.3,0.9,1.3,1.5c0.1,1.2,0,2.1-0.3,2.6
		c-0.3,0.5-0.4,0.8-0.3,0.8c0.3,0,0.6-0.4,0.9-1.3c0.3-0.8,0.4-1.6,0.4-2.2c-0.1-1.2-0.6-2-1.5-2.5c-0.9-0.5-1.9-0.7-3.1-0.6
		c-0.7,0.1-1.3,0.3-1.8,0.8c-0.5,0.5-0.7,1.3-0.6,2.5C53.6,109.8,54,111.2,54.9,112.4z"/>
	<path class="st1" d="M65.9,122.8c-0.9,0-2-0.2-3.1-0.7c-1.1-0.5-2.3-1-3.6-1.7c-1.3-0.7-2.6-1.4-3.9-2.2c-1.4-0.8-2.7-1.5-4.1-2.1
		c-1.3-0.6-2.7-1.2-4-1.6c-1.3-0.4-2.6-0.6-3.8-0.5c-0.5,0-1,0.1-1.6,0.3c-0.6,0.2-1.2,0.4-1.8,0.7c-0.6,0.3-1.2,0.7-1.7,1.1
		c-0.5,0.4-1,0.9-1.3,1.5c-0.1,0.2,0,0.4,0.1,0.4c0.1,0,0.3,0,0.5-0.2c1.3-1.8,3.3-2.8,5.8-3c1.2-0.1,2.6,0.3,4.3,1.2
		c1.7,0.9,3.6,1.9,5.6,3c2,1.1,4.2,2.1,6.4,3c2.2,0.9,4.4,1.3,6.5,1.2c0.2-0.1,0.2-0.3,0.2-0.4C66.3,122.8,66.1,122.8,65.9,122.8z"
		/>
	<path class="st1" d="M73.3,122.4c-1.7-0.1-3.3-0.5-5-1c-2.6-0.9-5.2-2-7.8-3.4c-2.2-1.2-4.3-2.4-6.4-3.8c-2.1-1.3-4.3-2.5-6.4-3.6
		c-2.2-1.1-4.4-1.9-6.7-2.6c-2.3-0.7-4.6-0.9-7.1-0.7c-3.1,0.2-5.4,0.9-6.8,2.2c-1.4,1.2-2.1,2.8-1.9,4.6c0.1,0.9,0.3,1.7,0.8,2.4
		c0.5,0.7,1,1.2,1.6,1.6c0.6,0.4,1.3,0.7,2,0.9c0.7,0.2,1.3,0.3,1.9,0.3c0.3,0,0.2-0.1-0.3-0.3c-0.5-0.2-1-0.4-1.7-0.8
		c-0.7-0.4-1.3-0.9-2-1.6c-0.6-0.7-1-1.5-1.1-2.5c0-0.5,0-1.1,0.2-1.8s0.5-1.3,0.9-1.9c0.4-0.6,1-1.1,1.8-1.6
		c0.8-0.5,1.7-0.7,2.8-0.8c2.4-0.2,4.7,0.1,7,0.8s4.5,1.6,6.7,2.7c2.2,1.1,4.5,2.4,6.7,3.8c2.2,1.4,4.6,2.7,7,3.8
		c2.5,1.3,5.1,2.3,7.7,3.1c2.3,0.7,4.7,1,7.3,1"/>
	<path class="st1" d="M540.6,112.5c-0.8,1.2-1.8,2.2-3,3.1c-1.2,0.9-2.5,1.5-3.8,2.1c-1.3,0.5-2.6,0.8-3.7,0.9
		c-0.2,0.1-0.4,0.1-0.5,0c-0.1-0.1,0-0.2,0.4-0.3c1.1-0.2,2.2-0.7,3.5-1.5c1.3-0.8,2.5-1.7,3.6-2.8c1.1-1,2.1-2.1,2.9-3
		c0.8-1,1.2-1.8,1.2-2.4c0-0.3,0-0.8-0.2-1.3c-0.1-0.5-0.6-0.8-1.5-0.9c-0.8,0-1.6,0.1-2.5,0.5c-0.8,0.4-1.3,0.9-1.3,1.5
		c-0.1,1.2,0,2,0.3,2.6s0.4,0.8,0.3,0.8c-0.3,0-0.6-0.4-0.9-1.2c-0.3-0.8-0.4-1.5-0.4-2.2c0.1-1.2,0.6-2,1.5-2.4
		c0.9-0.4,1.9-0.6,3.1-0.6c0.7,0,1.3,0.3,1.8,0.8s0.7,1.3,0.6,2.5C541.9,109.9,541.4,111.3,540.6,112.5z"/>
	<path class="st1" d="M529.5,122.7c0.9,0,2-0.2,3.1-0.7c1.1-0.4,2.3-1,3.6-1.7c1.3-0.7,2.6-1.4,3.9-2.1c1.4-0.8,2.7-1.4,4.1-2.1
		c1.3-0.6,2.7-1.1,4-1.5c1.3-0.4,2.6-0.6,3.8-0.5c0.5,0,1,0.1,1.6,0.3c0.6,0.2,1.2,0.4,1.8,0.7c0.6,0.3,1.2,0.7,1.7,1.1
		c0.5,0.4,1,0.9,1.3,1.5c0.1,0.2,0,0.3-0.1,0.4c-0.1,0-0.3,0-0.5-0.2c-1.3-1.8-3.3-2.8-5.8-2.9c-1.1-0.1-2.6,0.3-4.3,1.2
		c-1.7,0.9-3.6,1.8-5.6,2.9c-2,1.1-4.2,2-6.4,2.9c-2.2,0.9-4.4,1.3-6.5,1.2c-0.2-0.1-0.2-0.3-0.1-0.4
		C529.1,122.7,529.3,122.7,529.5,122.7z"/>
	<path class="st1" d="M522.1,122.3c1.7-0.1,3.4-0.5,5-1c2.6-0.8,5.2-2,7.8-3.4c2.2-1.2,4.3-2.4,6.4-3.7c2.1-1.3,4.3-2.5,6.4-3.5
		c2.2-1.1,4.4-1.9,6.7-2.5c2.3-0.6,4.6-0.9,7.1-0.7c3.1,0.2,5.4,0.9,6.8,2.1c1.4,1.2,2,2.7,1.9,4.5c-0.1,0.9-0.3,1.7-0.8,2.3
		c-0.5,0.7-1,1.2-1.6,1.6c-0.6,0.4-1.3,0.7-2,0.9c-0.7,0.2-1.4,0.3-1.9,0.2c-0.3,0-0.2-0.1,0.3-0.3c0.5-0.1,1-0.4,1.7-0.8
		c0.7-0.4,1.3-0.9,2-1.5c0.6-0.6,1-1.5,1.1-2.5c0-0.5,0-1.1-0.2-1.8c-0.2-0.7-0.5-1.3-0.9-1.9c-0.4-0.6-1-1.1-1.8-1.5
		c-0.8-0.4-1.7-0.7-2.8-0.8c-2.4-0.2-4.7,0.1-7,0.8c-2.3,0.7-4.5,1.6-6.7,2.7c-2.2,1.1-4.5,2.4-6.7,3.7c-2.3,1.4-4.6,2.6-7,3.8
		c-2.5,1.2-5,2.2-7.7,3c-2.3,0.7-4.7,1-7.3,1"/>
	<path class="st0" d="M216.5,109.1c0-5.4,0-6.3,0.1-7.4c0.1-1.2,0.3-1.8,1.3-2c0.4-0.1,0.9-0.1,1.2-0.1c0.1,0,0.3-0.1,0.3-0.3
		c0-0.3-0.2-0.3-0.6-0.3h-7.3c-0.4,0-0.6,0.1-0.6,0.3c0,0.2,0.1,0.3,0.3,0.3c0.3,0,0.9,0,1.2,0.1c1.1,0.3,1.4,0.8,1.5,2
		c0.1,1.1,0.1,2.1,0.1,7.4v6c0,3.2,0,5.9-0.2,7.3c-0.1,1-0.3,1.8-1,1.9c-0.3,0.2-0.7,0.2-1,0.2c-0.2,0-0.3,0.1-0.3,0.3
		c0,0.3,0.2,0.3,0.6,0.3c0.5,0,1.3,0,2-0.1c0.6,0,1.1,0,1.3,0c0.9,0,1.9,0,3.4,0.1c1.5-0.1,3.3-0.1,5.8-0.1c1.8,0,1.9-0.1,2.2-0.9
		c0.3-1,0.5-3,0.5-3.4c0-0.4,0-0.5-0.2-0.5c-0.2,0-0.3,0.2-0.3,0.4c-0.1,0.7-0.4,1.5-0.9,2.1c-0.8,1-2.4,1-4.2,1
		c-2.7,0-3.6-0.2-4.2-0.8c-0.6-0.6-0.8-2.8-0.8-7.9V109.1z"/>
	<path class="st0" d="M237.5,115.8c-0.1,0-0.1-0.1-0.1-0.2l2.8-8.1c0.2-0.4,0.3-0.4,0.5,0l3,8.1c0,0.1,0,0.2-0.1,0.2H237.5z
		 M233.1,121.8c-0.6,1.5-1.2,2.5-2.6,2.6c-0.2,0-0.7,0.1-0.9,0.1c-0.1,0-0.3,0.1-0.3,0.3c0,0.2,0.2,0.3,0.6,0.3h5.8
		c0.3,0,0.4-0.1,0.4-0.3c0-0.2-0.1-0.3-0.3-0.3h-0.3c-0.5,0-1-0.2-1-0.8c0-0.5,0.2-1.2,0.4-1.9l1.7-4.6c0.1-0.2,0.2-0.2,0.3-0.2h7
		c0.2,0,0.2,0,0.3,0.2l2.7,6.6c0.2,0.5-0.1,0.7-0.3,0.8c-0.1,0.1-0.2,0.1-0.2,0.3c0,0.2,0.5,0.2,1.1,0.3c2.1,0.1,4.4,0.1,4.8,0.1
		c0.3,0,0.7-0.1,0.7-0.3s-0.2-0.3-0.4-0.3c-0.3,0-0.8,0-1.2-0.2c-0.7-0.2-1.5-0.6-2.6-3.1c-1.9-4.4-6.8-16.5-7.3-17.8
		c-0.3-0.7-0.4-1.1-0.7-1.1c-0.2,0-0.3,0.2-0.7,1.1L233.1,121.8z"/>
	<path class="st0" d="M259.1,107.4c0.9,1,4.3,4.6,7.8,8.2c3.2,3.7,7.5,8.1,7.8,8.4c1.7,1.5,2.1,1.7,2.4,1.7c0.2,0,0.3-0.1,0.3-2
		l0.1-17.4c0-1.8,0.1-2.4,1.1-2.6c0.4-0.1,0.6-0.1,0.7-0.1c0.2,0,0.4-0.2,0.4-0.3c0-0.2-0.2-0.3-0.6-0.3h-5.9c-0.3,0-0.6,0-0.6,0.3
		c0,0.1,0,0.3,0.2,0.3c0.2,0,0.9,0,1.5,0.1c0.9,0.2,1.1,0.8,1.1,2.8l0.3,14.9c-0.9-1-4.1-4.5-7.1-7.7c-4.6-5.3-9-10-9.5-10.4
		c-0.3-0.3-0.9-0.9-1.2-0.9c-0.3,0-0.4,0.3-0.4,1.5v16.8c0,2.7-0.1,3.5-0.9,3.7c-0.4,0.1-1,0.2-1.2,0.2c-0.1,0-0.3,0.1-0.3,0.3
		c0,0.3,0.2,0.3,0.5,0.3h6.2c0.3,0,0.5-0.1,0.5-0.3c0-0.2-0.1-0.3-0.2-0.3c-0.3,0-1,0-1.5-0.2c-0.8-0.2-1.1-0.9-1.2-3.4L259.1,107.4
		z"/>
	<path class="st0" d="M290.7,105.1c0-0.3,0.1-0.5,0.4-0.6c0.3-0.1,1.3-0.2,1.9-0.2c3.7,0,7.2,0.4,10.2,3.3c1.3,1.2,3,3.6,3,7.3
		c0,2.7-0.8,5.5-2.5,7c-1.9,1.7-4.5,2.7-7.4,2.7c-3.7,0-4.8-0.6-5.2-1.2c-0.3-0.3-0.3-1.4-0.4-2.1c0-0.6,0-3.3,0-6.4V105.1z
		 M288.1,116.8c0,2.6,0,4.8-0.2,6c-0.1,0.9-0.2,1.4-0.8,1.5c-0.3,0.1-0.7,0.1-0.9,0.1c-0.2,0-0.2,0.2-0.2,0.3c0,0.2,0.2,0.3,0.5,0.3
		c0.5,0,1.2,0,1.8-0.1c0.6,0,1.1,0,1.2,0c0.1,0,1.1,0.1,2.4,0.2c1.4,0.4,3,0.5,4.4,0.5c5.4,0,8.2-2.2,9.5-3.5
		c1.5-1.7,2.9-4.6,2.9-8.2c0-3.5-1.3-5.9-2.6-7.4c-3.7-3.8-9.5-3.5-12.6-3.5H286c-0.3,0-0.5,0.1-0.5,0.3c0,0.1,0.1,0.3,0.2,0.3
		c0.3,0,0.8,0,1,0.1c1,0.1,1.2,0.6,1.3,1.6c0.1,0.9,0.1,1.8,0.1,6.3V116.8z"/>
	<path class="st0" d="M320.1,111.5c0-4.5,0-5.3,0-6.2c0.1-1,0.2-1.4,1.1-1.6c0.3-0.1,0.5-0.1,0.8-0.1c0.1,0,0.2-0.2,0.2-0.3
		c0-0.2-0.1-0.3-0.5-0.3h-5.9c-0.4,0-0.5,0.1-0.5,0.3c0,0.1,0.1,0.3,0.3,0.3c0.2,0,0.6,0,0.9,0.1c0.7,0.1,0.9,0.6,1,1.6
		c0.1,0.9,0.1,1.7,0.1,6.2v5.1c0,2.8,0,5.1-0.2,6.3c-0.1,0.8-0.2,1.4-0.8,1.5c-0.3,0.1-0.7,0.1-0.9,0.1c-0.2,0-0.3,0.2-0.3,0.3
		c0,0.2,0.2,0.3,0.5,0.3h6.6c0.4,0,0.5-0.1,0.5-0.3c0-0.1-0.1-0.3-0.3-0.3c-0.3,0-0.9-0.1-1.4-0.1c-0.9-0.1-1-0.7-1.1-1.5
		c-0.1-1.2-0.1-3.5-0.1-6.3V111.5z"/>
	<path class="st0" d="M333.3,107.4c0.9,1,4.3,4.6,7.8,8.2c3.2,3.7,7.5,8.1,7.8,8.4c1.7,1.5,2.1,1.7,2.4,1.7c0.2,0,0.3-0.1,0.3-2
		l0.1-17.4c0-1.8,0.1-2.4,1.1-2.6c0.3-0.1,0.6-0.1,0.7-0.1c0.2,0,0.4-0.2,0.4-0.3c0-0.2-0.2-0.3-0.6-0.3h-5.8c-0.3,0-0.6,0-0.6,0.3
		c0,0.1,0,0.3,0.2,0.3c0.2,0,0.9,0,1.5,0.1c0.9,0.2,1.1,0.8,1.1,2.8l0.3,14.9c-0.9-1-4.1-4.5-7.1-7.7c-4.6-5.3-9-10-9.4-10.4
		c-0.3-0.3-0.9-0.9-1.2-0.9c-0.3,0-0.4,0.3-0.4,1.5v16.8c0,2.7-0.1,3.5-0.9,3.7c-0.5,0.1-1,0.2-1.3,0.2c-0.1,0-0.2,0.1-0.2,0.3
		c0,0.3,0.2,0.3,0.5,0.3h6.2c0.3,0,0.5-0.1,0.5-0.3c0-0.2-0.1-0.3-0.2-0.3c-0.3,0-1,0-1.5-0.2c-0.8-0.2-1.1-0.9-1.2-3.4L333.3,107.4
		z"/>
	<path class="st0" d="M377,123c0,0.6-0.3,0.7-0.6,0.9c-0.8,0.5-2.3,0.6-3.4,0.6c-2.9,0-5.5-0.9-8-3.2c-1.1-1.1-3.3-4.2-3.3-8.5
		c0-3.4,1.3-6,3.1-7.3c2.4-1.7,4.7-1.9,6.6-1.9c3.9,0,6.2,1.2,7,2.2c0.5,0.7,0.7,1.5,0.7,1.9c0,0.3,0,0.4,0.2,0.4
		c0.2,0,0.4-0.1,0.4-0.6c0-2.9,0.2-3.7,0.2-4.1c0-0.1-0.1-0.3-0.4-0.3c-0.8,0-1.9-0.2-2.5-0.3c-0.6-0.1-2.8-0.5-4.8-0.5
		c-2.4,0-5.5,0.2-8.3,1.9c-2.7,1.6-4.8,4.9-4.8,9.5c0,3.9,1.6,7.2,3.4,8.9c3.5,2.9,7.9,3.1,10.2,3.1c2,0,4.8-0.3,6.6-1.2
		c0.4-0.2,0.4-0.3,0.4-1.7v-3.5c0-1.3,0-2.2,0-3.2c0.1-1.1,0.3-1.6,1.1-1.7c0.4-0.1,0.6-0.1,0.8-0.1c0.1,0,0.2-0.2,0.2-0.3
		c0-0.3-0.1-0.3-0.5-0.3h-6.5c-0.4,0-0.5,0-0.5,0.3c0,0.1,0.1,0.3,0.3,0.3c0.3,0,0.8,0,1.1,0.1c1.3,0.3,1.4,0.6,1.4,3.1V123z"/>
	<path class="st2" d="M402.2,125.8c1.9,0,3.7-0.4,5.2-1.4c2.4-1.7,2.9-4.4,2.9-5.8c0-2.8-1-5-5-8.2l-1-0.8c-3.1-2.6-3.9-3.9-3.9-5.9
		c0-2.6,1.8-4.1,4.1-4.1c3.1,0,4,1.5,4.2,1.9c0.2,0.4,0.4,1.3,0.4,1.8c0,0.3,0.1,0.4,0.3,0.4c0.2,0,0.2-0.2,0.2-0.8
		c0-2.3,0.1-3.4,0.1-3.6c0-0.2-0.1-0.2-0.4-0.2s-0.5,0-1.2-0.2c-0.9-0.4-1.8-0.5-3.1-0.5c-4.2,0-6.6,2.5-6.6,6.3
		c0,2.4,0.7,4.5,4.1,7.6l1.5,1.3c2.9,2.5,3.8,3.9,3.8,6.3c0,2.2-1.6,4.7-4.8,4.7c-2.5,0-4.8-1-5.3-3.6c-0.1-0.5-0.1-1-0.1-1.3
		c0-0.3,0-0.4-0.2-0.4c-0.1,0-0.2,0.2-0.2,0.6c0,0.6-0.2,2-0.2,3.7c0,1,0,1.1,0.4,1.3C398.9,125.5,400.5,125.8,402.2,125.8z"/>
	<path class="st2" d="M419.2,115.9c0,4.3,1.1,6.3,2.4,7.7c2.2,2,5.4,2.1,6.4,2.1c1.8,0,4.2-0.2,6.5-2.2c2.3-2.1,2.6-5.6,2.6-8.8
		v-3.2c0-4.6,0-5.4,0-6.3c0.1-1,0.2-1.5,1.1-1.6c0.4-0.1,0.6-0.1,0.8-0.1c0.1,0,0.2-0.2,0.2-0.3c0-0.2-0.1-0.3-0.5-0.3h-5.6
		c-0.4,0-0.5,0.1-0.5,0.3c0,0.1,0.1,0.3,0.2,0.3c0.3,0,0.8,0,1.1,0.1c1,0.1,1.2,0.7,1.2,1.6c0,0.9,0.1,1.8,0.1,6.3v3.7
		c0,3-0.3,5.4-1.8,7.1c-1.1,1.3-2.9,2.1-4.8,2.1c-1.8,0-3.1-0.2-4.6-1.6c-1.3-1.2-2.3-2.9-2.3-7.2v-4.1c0-4.6,0-5.4,0.1-6.3
		c0.1-1,0.3-1.5,1.1-1.6c0.4-0.1,0.6-0.1,0.8-0.1c0.1,0,0.3-0.2,0.3-0.3c0-0.2-0.2-0.3-0.5-0.3h-6.4c-0.4,0-0.5,0.1-0.5,0.3
		c0,0.1,0.1,0.3,0.2,0.3c0.3,0,0.8,0,1,0.1c1,0.1,1.2,0.7,1.3,1.6c0.1,0.9,0.1,1.8,0.1,6.3V115.9z"/>
	<path class="st2" d="M449.8,111.5c0-4.5,0-5.3,0-6.2c0.1-1,0.2-1.4,1.1-1.6c0.3-0.1,0.6-0.1,0.8-0.1c0.1,0,0.2-0.2,0.2-0.3
		c0-0.2-0.1-0.3-0.5-0.3h-6c-0.4,0-0.5,0.1-0.5,0.3c0,0.1,0.1,0.3,0.3,0.3c0.2,0,0.6,0,0.9,0.1c0.7,0.1,0.9,0.6,1,1.6
		c0.1,0.9,0.1,1.7,0.1,6.2v5.1c0,2.8,0,5.1-0.2,6.3c-0.1,0.8-0.2,1.4-0.8,1.5c-0.3,0.1-0.7,0.1-0.9,0.1c-0.2,0-0.2,0.2-0.2,0.3
		c0,0.2,0.2,0.3,0.5,0.3h6.6c0.4,0,0.5-0.1,0.5-0.3c0-0.1-0.1-0.3-0.2-0.3c-0.3,0-0.9-0.1-1.4-0.1c-0.9-0.1-1-0.7-1.1-1.5
		c-0.1-1.2-0.1-3.5-0.1-6.3V111.5z"/>
	<path class="st2" d="M468.5,104.3l3.8,0.1c2.9,0.1,3.5,0.7,3.6,1.6l0,0.3c0,0.4,0.1,0.5,0.2,0.5c0.1,0,0.3-0.1,0.3-0.4
		c0-0.6,0.1-2.7,0.1-3.6c0-0.2,0-0.3-0.1-0.3c-0.1,0-0.4,0.1-0.8,0.1c-0.5,0.4-1.2,0.5-2.2,0.5h-11.3c-0.4,0-1.5,0-2.4-0.1
		c-0.8-0.2-1.1-0.5-1.4-0.5c-0.1,0-0.3,0.4-0.3,0.6c-0.1,0.4-0.7,2.9-0.7,3.2c0,0.2,0.1,0.3,0.2,0.3c0.1,0,0.2,0,0.3-0.3
		c0.1-0.2,0.1-0.4,0.5-0.9c0.5-0.7,1.2-0.9,3.1-0.9l4.4-0.1v12.3c0,2.8,0,5.1-0.1,6.3c-0.1,0.9-0.3,1.4-0.9,1.6
		c-0.3,0.1-0.6,0.1-0.9,0.1c-0.2,0-0.3,0.1-0.3,0.3c0,0.2,0.1,0.3,0.5,0.3h6.7c0.4,0,0.5-0.1,0.5-0.3c0-0.1,0-0.3-0.2-0.3
		c-0.3,0-0.9-0.1-1.4-0.1c-0.9-0.1-1.1-0.7-1.2-1.6c-0.1-1.2-0.1-3.5-0.1-6.3V104.3z"/>
	<path class="st2" d="M484.7,116.3c0,2.9,0,5.3-0.2,6.5c-0.1,0.9-0.2,1.5-0.8,1.6c-0.3,0-0.7,0.1-0.9,0.1c-0.2,0-0.3,0.2-0.3,0.3
		c0,0.1,0.2,0.2,0.5,0.2c0.5,0,1.2,0,1.8-0.1c0.6,0.1,1.2,0.1,1.2,0.1c0.4,0,1.2,0,2.5,0.1c1.3-0.1,3.1,0,5.5,0c1.3,0,1.6,0,1.8-0.8
		c0.2-0.6,0.4-2.7,0.4-2.9s0-0.1-0.2-0.1c-0.2,0-0.2-0.3-0.3,0.1c-0.2,1.2-0.6,1.7-1.4,2.1c-0.9,0.3-2.4,0.3-3.2,0.3
		c-3.1,0-3.7-0.4-3.8-2.4c0-0.6,0-4.1,0-5.1v-2.5c0-0.1,0-0.2,0.2-0.2c0.5,0,3.9,0,4.8,0.1c1.2,0.2,1.5,0.5,1.6,0.9
		c0.1,0.4,0.1,0.7,0.1,1c0,0.2,0.1,0.3,0.3,0.3c0.3,0,0.3-0.3,0.3-0.6c0-0.2,0.1-1.3,0.1-1.9c0.1-1,0.2-1.4,0.2-1.6
		c0-0.2-0.1-0.2-0.2-0.2s-0.3,0.2-0.5,0.4c-0.4,0.3-0.8,0.3-1.6,0.4c-0.7,0.1-4.9,0.1-5.3,0.1c-0.2,0-0.2-0.1-0.2-0.3v-7.6
		c0-0.2,0-0.3,0.2-0.3c0.4,0,4,0,4.6,0.1c1.7,0.2,2,0.4,2.3,0.9c0.2,0.3,0.2,0.8,0.2,1c0,0.2,0.1,0.4,0.3,0.4c0.1,0,0.2-0.2,0.3-0.3
		c0.1-0.6,0.1-1.9,0.2-2.2c0.1-0.8,0.2-1.2,0.2-1.4c0-0.1,0-0.3-0.1-0.3c-0.1,0-0.3,0.1-0.4,0.1c-0.2,0.4-0.9,0.5-1.5,0.5
		c-0.7,0-7.2,0-7.4,0c-0.2,0-2.1-0.1-3.4-0.1c-0.4,0-0.5,0.1-0.5,0.3c0,0.1,0.1,0.2,0.3,0.2c0.3,0.1,0.8,0.1,1,0.2
		c1,0.1,1.2,0.6,1.2,1.5c0.1,0.9,0.1,1.7,0.1,6V116.3z"/>
	<path class="st2" d="M507.5,125.7c1.7,0,3.6-0.2,4.9-1.1c2.2-1.4,2.9-3.3,2.9-5.1c0-2.5-1.3-4.6-5.1-7.2l-0.9-0.6
		c-3.1-2.1-4-3.1-4-5c0-2.1,1.9-3.2,4.1-3.2c2.8,0,3.8,1.1,4,1.5c0.2,0.3,0.4,1.1,0.5,1.5c0,0.2,0.1,0.4,0.3,0.4
		c0.2,0.1,0.3-0.1,0.3-0.6c0-2,0.1-2.9,0.1-3.1c0-0.2-0.1-0.2-0.3-0.2s-0.5,0-1.1-0.1c-0.7-0.4-2-0.6-3.2-0.6c-4,0-6.5,2.1-6.5,5.6
		c0,2.1,0.9,3.9,4.1,6.4l1.4,1.1c2.7,2,3.9,3,3.9,5.2c0,2.2-1.6,4-4.6,4c-2,0-4.3-0.8-4.8-2.9c-0.1-0.4-0.1-0.8-0.1-1.1
		c0-0.2-0.1-0.3-0.2-0.3c-0.1,0-0.2,0.2-0.2,0.5c0,0.5-0.2,1.7-0.2,3.2c0,0.8,0,0.9,0.4,1.1C504.3,125.5,506.1,125.7,507.5,125.7z"
		/>
</g>
<g>
	<g>
		<g>
			<g>
				<polygon class="st3" points="307.2,41.8 307.5,41.8 306.2,46.2 305.9,46.2 				"/>
				<polygon class="st3" points="308.5,41.8 308.9,41.8 307.5,46.2 307.2,46.2 				"/>
				<polygon class="st3" points="309.9,41.8 310.2,41.8 308.9,46.2 308.5,46.2 				"/>
				<polygon class="st3" points="311.2,41.8 311.5,41.8 310.2,46.2 309.9,46.2 				"/>
			</g>
			<g>
				<polygon class="st3" points="312.5,41.8 312.8,41.8 311.5,46.2 311.2,46.2 				"/>
				<polygon class="st3" points="313.8,41.8 314.1,41.8 312.8,46.2 312.5,46.2 				"/>
				<polygon class="st3" points="315.1,41.8 315.4,41.8 314.1,46.2 313.8,46.2 				"/>
				<polygon class="st3" points="316.4,41.8 316.8,41.8 315.4,46.2 315.1,46.2 				"/>
			</g>
			<g>
				<polygon class="st3" points="317.8,41.8 318.1,41.8 316.8,46.2 316.4,46.2 				"/>
				<polygon class="st3" points="319.1,41.8 319.4,41.8 318.1,46.2 317.8,46.2 				"/>
				<polygon class="st3" points="320.4,41.8 320.7,41.8 319.4,46.2 319.1,46.2 				"/>
				<polygon class="st3" points="321.7,41.8 322,41.8 320.7,46.2 320.4,46.2 				"/>
			</g>
			<g>
				<polygon class="st3" points="323,41.8 323.3,41.8 322,46.2 321.7,46.2 				"/>
				<polygon class="st3" points="324.3,41.8 324.7,41.8 323.3,46.2 323,46.2 				"/>
				<polygon class="st3" points="325.7,41.8 326,41.8 324.7,46.2 324.3,46.2 				"/>
				<polygon class="st3" points="327,41.8 327.3,41.8 326,46.2 325.7,46.2 				"/>
			</g>
		</g>
		<g>
			<g>
				<polygon class="st3" points="327.7,41.8 328,41.8 326.7,46.2 326.4,46.2 				"/>
				<polygon class="st3" points="329,41.8 329.4,41.8 328,46.2 327.7,46.2 				"/>
				<polygon class="st3" points="330.3,41.8 330.7,41.8 329.4,46.2 329,46.2 				"/>
				<polygon class="st3" points="331.7,41.8 332,41.8 330.7,46.2 330.3,46.2 				"/>
			</g>
			<g>
				<polygon class="st3" points="333,41.8 333.3,41.8 332,46.2 331.7,46.2 				"/>
				<polygon class="st3" points="334.3,41.8 334.6,41.8 333.3,46.2 333,46.2 				"/>
				<polygon class="st3" points="335.6,41.8 335.9,41.8 334.6,46.2 334.3,46.2 				"/>
				<polygon class="st3" points="336.9,41.8 337.3,41.8 335.9,46.2 335.6,46.2 				"/>
			</g>
			<g>
				<polygon class="st3" points="338.2,41.8 338.6,41.8 337.3,46.2 336.9,46.2 				"/>
				<polygon class="st3" points="339.6,41.8 339.9,41.8 338.6,46.2 338.2,46.2 				"/>
				<polygon class="st3" points="340.9,41.8 341.2,41.8 339.9,46.2 339.6,46.2 				"/>
				<polygon class="st3" points="342.2,41.8 342.5,41.8 341.2,46.2 340.9,46.2 				"/>
			</g>
			<g>
				<polygon class="st3" points="343.5,41.8 343.8,41.8 342.5,46.2 342.2,46.2 				"/>
				<polygon class="st3" points="344.8,41.8 345.2,41.8 343.8,46.2 343.5,46.2 				"/>
				<polygon class="st3" points="346.1,41.8 346.5,41.8 345.2,46.2 344.8,46.2 				"/>
				<polygon class="st3" points="347.5,41.8 347.8,41.8 346.5,46.2 346.1,46.2 				"/>
			</g>
		</g>
		<g>
			<g>
				<g>
					<polygon class="st3" points="266.2,41.8 266.6,41.8 265.3,46.2 264.9,46.2 					"/>
					<polygon class="st3" points="267.6,41.8 267.9,41.8 266.6,46.2 266.2,46.2 					"/>
					<polygon class="st3" points="268.9,41.8 269.2,41.8 267.9,46.2 267.6,46.2 					"/>
					<polygon class="st3" points="270.2,41.8 270.5,41.8 269.2,46.2 268.9,46.2 					"/>
				</g>
				<g>
					<polygon class="st3" points="271.5,41.8 271.8,41.8 270.5,46.2 270.2,46.2 					"/>
					<polygon class="st3" points="272.8,41.8 273.2,41.8 271.8,46.2 271.5,46.2 					"/>
					<polygon class="st3" points="274.1,41.8 274.5,41.8 273.2,46.2 272.8,46.2 					"/>
					<polygon class="st3" points="275.5,41.8 275.8,41.8 274.5,46.2 274.1,46.2 					"/>
				</g>
				<g>
					<polygon class="st3" points="276.8,41.8 277.1,41.8 275.8,46.2 275.5,46.2 					"/>
					<polygon class="st3" points="278.1,41.8 278.4,41.8 277.1,46.2 276.8,46.2 					"/>
					<polygon class="st3" points="279.4,41.8 279.7,41.8 278.4,46.2 278.1,46.2 					"/>
					<polygon class="st3" points="280.7,41.8 281.1,41.8 279.7,46.2 279.4,46.2 					"/>
				</g>
				<g>
					<polygon class="st3" points="282,41.8 282.4,41.8 281.1,46.2 280.7,46.2 					"/>
					<polygon class="st3" points="283.4,41.8 283.7,41.8 282.4,46.2 282,46.2 					"/>
					<polygon class="st3" points="284.7,41.8 285,41.8 283.7,46.2 283.4,46.2 					"/>
					<polygon class="st3" points="286,41.8 286.3,41.8 285,46.2 284.7,46.2 					"/>
				</g>
			</g>
			<line class="st4" x1="266.4" y1="41.9" x2="286.6" y2="41.9"/>
		</g>
		<g>
			<g>
				<g>
					<polygon class="st3" points="286.7,41.8 287.1,41.8 285.7,46.2 285.4,46.2 					"/>
					<polygon class="st3" points="288,41.8 288.4,41.8 287.1,46.2 286.7,46.2 					"/>
					<polygon class="st3" points="289.4,41.8 289.7,41.8 288.4,46.2 288,46.2 					"/>
					<polygon class="st3" points="290.7,41.8 291,41.8 289.7,46.2 289.4,46.2 					"/>
				</g>
				<g>
					<polygon class="st3" points="292,41.8 292.3,41.8 291,46.2 290.7,46.2 					"/>
					<polygon class="st3" points="293.3,41.8 293.6,41.8 292.3,46.2 292,46.2 					"/>
					<polygon class="st3" points="294.6,41.8 295,41.8 293.6,46.2 293.3,46.2 					"/>
					<polygon class="st3" points="295.9,41.8 296.3,41.8 295,46.2 294.6,46.2 					"/>
				</g>
				<g>
					<polygon class="st3" points="297.3,41.8 297.6,41.8 296.3,46.2 295.9,46.2 					"/>
					<polygon class="st3" points="298.6,41.8 298.9,41.8 297.6,46.2 297.3,46.2 					"/>
					<polygon class="st3" points="299.9,41.8 300.2,41.8 298.9,46.2 298.6,46.2 					"/>
					<polygon class="st3" points="301.2,41.8 301.5,41.8 300.2,46.2 299.9,46.2 					"/>
				</g>
				<g>
					<polygon class="st3" points="302.5,41.8 302.9,41.8 301.5,46.2 301.2,46.2 					"/>
					<polygon class="st3" points="303.8,41.8 304.2,41.8 302.9,46.2 302.5,46.2 					"/>
					<polygon class="st3" points="305.2,41.8 305.5,41.8 304.2,46.2 303.8,46.2 					"/>
					<polygon class="st3" points="306.5,41.8 306.8,41.8 305.5,46.2 305.2,46.2 					"/>
				</g>
			</g>
			<line class="st4" x1="286.9" y1="41.9" x2="307.1" y2="41.9"/>
		</g>
	</g>
	<polygon class="st0" points="402.7,33.5 402.7,34 384.4,45.1 383.8,44.5 	"/>
	<polygon class="st0" points="392.3,39.3 392.4,39.8 377.3,55.4 376.6,55 	"/>
	<polygon class="st0" points="190.1,33.5 190.1,34 208.4,45 208.9,44.4 	"/>
	<polygon class="st0" points="199.1,39.3 199,39.8 213.3,55.2 213.9,54.9 	"/>
	<path class="st5" d="M150.6,82.9c0,0,12.9-4.1,144.5-5.7c131.6-1.6,164.3,6.1,144.5,6.5c-19.9,0.4-61.4-0.5-61.9,0.8
		c-0.5,1.3,12.3,2.9,6.2,3.3c-6.1,0.3-20.6,0.8-20.6,0.8s11.6-1.4,6.2-2.4c-5.4-1-54.2-4-68.1-3.3c0,0,118.8,0,86.7-2.4
		S205.7,78.7,175.4,82C175.4,82,157.7,84,150.6,82.9z"/>
	<path class="st5" d="M191.9,86.1c-1.9,0.3,46.7-5.4,70.2-4.9c0,0-17.1,1.7-14.4,1.6c2.7-0.1,42.2,1.9,41.3,1.6
		C288,84.2,210.4,82.8,191.9,86.1z"/>
	<path class="st5" d="M237.6,85.4c-0.9,0.3,21.6-5.4,32.4-4.9c0,0-7.9,1.7-6.7,1.6c1.2-0.1,19.5,1.9,19.1,1.6
		C282,83.5,246.2,82.1,237.6,85.4z"/>
	<polygon class="st4" points="295.8,82 296.8,82 422.2,82 431.1,79.4 431.1,76.4 421.2,76.4 415.5,58.3 386.8,58.3 385.7,51.1 
		385.9,51.1 382.8,39.3 386.1,34.3 391.1,34.3 389.1,31 368.6,31 363.3,12.4 361.3,12.4 363,21 354.7,21 355.9,22 363.3,23 
		362,37.3 328.9,37.3 324.3,43.9 310.7,43.9 305.4,32 302.7,32 302.7,26.7 301.1,26.7 301.1,32 296.8,32 295.8,32 291.5,32 
		291.5,26.7 289.8,26.7 289.8,32 287.2,32 281.9,43.9 268.3,43.9 263.7,39.3 230.6,39.3 229.3,23 236.7,22 237.9,21 229.6,21 
		231.3,12.4 229.3,12.4 224,31 203.5,31 201.5,34.3 206.5,34.3 209.8,39.3 206.1,53.5 205.9,53.5 205.2,58.3 177.1,58.3 171.4,76.4 
		161.4,76.4 161.4,79.4 170.4,82 	"/>
	<path class="st6" d="M359.2,50.3h2.1c0.7,0,1.2,0.7,1.2,1.7v0.3c0,0.9-0.5,1.7-1.2,1.7h-2.1c-0.7,0-1.2-0.7-1.2-1.7v-0.3
		C358.1,51,358.6,50.3,359.2,50.3z"/>
	<path class="st6" d="M376.2,50.3h1.6c0.5,0,0.9,0.7,0.9,1.7v0.3c0,0.9-0.4,1.7-0.9,1.7h-1.6c-0.5,0-0.9-0.7-0.9-1.7v-0.3
		C375.3,51,375.7,50.3,376.2,50.3z"/>
	<path class="st6" d="M353,50.3h2.1c0.7,0,1.2,0.7,1.2,1.7v0.3c0,0.9-0.5,1.7-1.2,1.7H353c-0.7,0-1.2-0.7-1.2-1.7v-0.3
		C351.8,51,352.3,50.3,353,50.3z"/>
	<path class="st6" d="M371.4,50.3h1.6c0.5,0,0.9,0.7,0.9,1.7v0.3c0,0.9-0.4,1.7-0.9,1.7h-1.6c-0.5,0-0.9-0.7-0.9-1.7v-0.3
		C370.5,51,370.9,50.3,371.4,50.3z"/>
	<path class="st6" d="M347,50.3h2.1c0.7,0,1.2,0.7,1.2,1.7v0.3c0,0.9-0.5,1.7-1.2,1.7H347c-0.7,0-1.2-0.7-1.2-1.7v-0.3
		C345.8,51,346.3,50.3,347,50.3z"/>
	<path class="st6" d="M340.7,50.3h2.1c0.7,0,1.2,0.7,1.2,1.7v0.3c0,0.9-0.5,1.7-1.2,1.7h-2.1c-0.7,0-1.2-0.7-1.2-1.7v-0.3
		C339.5,51,340,50.3,340.7,50.3z"/>
	<path class="st6" d="M334.4,50.3h2.1c0.7,0,1.2,0.7,1.2,1.7v0.3c0,0.9-0.5,1.7-1.2,1.7h-2.1c-0.7,0-1.2-0.7-1.2-1.7v-0.3
		C333.2,51,333.7,50.3,334.4,50.3z"/>
	<path class="st6" d="M328.4,50.3h2.1c0.7,0,1.2,0.7,1.2,1.7v0.3c0,0.9-0.5,1.7-1.2,1.7h-2.1c-0.7,0-1.2-0.7-1.2-1.7v-0.3
		C327.2,51,327.8,50.3,328.4,50.3z"/>
	<path class="st6" d="M309.8,50.3h2.1c0.7,0,1.2,0.7,1.2,1.7v0.3c0,0.9-0.5,1.7-1.2,1.7h-2.1c-0.7,0-1.2-0.7-1.2-1.7v-0.3
		C308.7,51,309.2,50.3,309.8,50.3z"/>
	<path class="st6" d="M322.1,50.3h2.1c0.7,0,1.2,0.7,1.2,1.7v0.3c0,0.9-0.5,1.7-1.2,1.7h-2.1c-0.7,0-1.2-0.7-1.2-1.7v-0.3
		C320.9,51,321.5,50.3,322.1,50.3z"/>
	<path class="st6" d="M303.5,50.3h2.1c0.7,0,1.2,0.7,1.2,1.7v0.3c0,0.9-0.5,1.7-1.2,1.7h-2.1c-0.7,0-1.2-0.7-1.2-1.7v-0.3
		C302.4,51,302.9,50.3,303.5,50.3z"/>
	<path class="st6" d="M315.8,50.3h2.1c0.7,0,1.2,0.7,1.2,1.7v0.3c0,0.9-0.5,1.7-1.2,1.7h-2.1c-0.7,0-1.2-0.7-1.2-1.7v-0.3
		C314.6,51,315.2,50.3,315.8,50.3z"/>
	<path class="st6" d="M297.6,50.3h2.1c0.7,0,1.2,0.7,1.2,1.7v0.3c0,0.9-0.5,1.7-1.2,1.7h-2.1c-0.7,0-1.2-0.7-1.2-1.7v-0.3
		C296.4,51,296.9,50.3,297.6,50.3z"/>
	<path class="st6" d="M359.2,70.2h2.1c0.7,0,1.2,0.7,1.2,1.7v0.3c0,0.9-0.5,1.7-1.2,1.7h-2.1c-0.7,0-1.2-0.7-1.2-1.7v-0.3
		C358.1,70.9,358.6,70.2,359.2,70.2z"/>
	<path class="st6" d="M372.8,70.2h2.1c0.7,0,1.2,0.7,1.2,1.7v0.3c0,0.9-0.5,1.7-1.2,1.7h-2.1c-0.7,0-1.2-0.7-1.2-1.7v-0.3
		C371.6,70.9,372.2,70.2,372.8,70.2z"/>
	<path class="st6" d="M353,70.2h2.1c0.7,0,1.2,0.7,1.2,1.7v0.3c0,0.9-0.5,1.7-1.2,1.7H353c-0.7,0-1.2-0.7-1.2-1.7v-0.3
		C351.8,70.9,352.3,70.2,353,70.2z"/>
	<path class="st6" d="M366.5,70.2h2.1c0.7,0,1.2,0.7,1.2,1.7v0.3c0,0.9-0.5,1.7-1.2,1.7h-2.1c-0.7,0-1.2-0.7-1.2-1.7v-0.3
		C365.4,70.9,365.9,70.2,366.5,70.2z"/>
	<path class="st6" d="M347,70.2h2.1c0.7,0,1.2,0.7,1.2,1.7v0.3c0,0.9-0.5,1.7-1.2,1.7H347c-0.7,0-1.2-0.7-1.2-1.7v-0.3
		C345.8,70.9,346.3,70.2,347,70.2z"/>
	<path class="st6" d="M340.7,70.2h2.1c0.7,0,1.2,0.7,1.2,1.7v0.3c0,0.9-0.5,1.7-1.2,1.7h-2.1c-0.7,0-1.2-0.7-1.2-1.7v-0.3
		C339.5,70.9,340,70.2,340.7,70.2z"/>
	<path class="st6" d="M334.4,70.2h2.1c0.7,0,1.2,0.7,1.2,1.7v0.3c0,0.9-0.5,1.7-1.2,1.7h-2.1c-0.7,0-1.2-0.7-1.2-1.7v-0.3
		C333.2,70.9,333.7,70.2,334.4,70.2z"/>
	<path class="st6" d="M328.4,70.2h2.1c0.7,0,1.2,0.7,1.2,1.7v0.3c0,0.9-0.5,1.7-1.2,1.7h-2.1c-0.7,0-1.2-0.7-1.2-1.7v-0.3
		C327.2,70.9,327.8,70.2,328.4,70.2z"/>
	<path class="st6" d="M309.8,70.2h2.1c0.7,0,1.2,0.7,1.2,1.7v0.3c0,0.9-0.5,1.7-1.2,1.7h-2.1c-0.7,0-1.2-0.7-1.2-1.7v-0.3
		C308.7,70.9,309.2,70.2,309.8,70.2z"/>
	<path class="st6" d="M322.1,70.2h2.1c0.7,0,1.2,0.7,1.2,1.7v0.3c0,0.9-0.5,1.7-1.2,1.7h-2.1c-0.7,0-1.2-0.7-1.2-1.7v-0.3
		C320.9,70.9,321.5,70.2,322.1,70.2z"/>
	<path class="st6" d="M303.5,70.2h2.1c0.7,0,1.2,0.7,1.2,1.7v0.3c0,0.9-0.5,1.7-1.2,1.7h-2.1c-0.7,0-1.2-0.7-1.2-1.7v-0.3
		C302.4,70.9,302.9,70.2,303.5,70.2z"/>
	<path class="st6" d="M315.8,70.2h2.1c0.7,0,1.2,0.7,1.2,1.7v0.3c0,0.9-0.5,1.7-1.2,1.7h-2.1c-0.7,0-1.2-0.7-1.2-1.7v-0.3
		C314.6,70.9,315.2,70.2,315.8,70.2z"/>
	<path class="st6" d="M297.6,70.2h2.1c0.7,0,1.2,0.7,1.2,1.7v0.3c0,0.9-0.5,1.7-1.2,1.7h-2.1c-0.7,0-1.2-0.7-1.2-1.7v-0.3
		C296.4,70.9,296.9,70.2,297.6,70.2z"/>
	<path class="st6" d="M372.5,60.2h2.1c0.7,0,1.2,0.7,1.2,1.7v0.3c0,0.9-0.5,1.7-1.2,1.7h-2.1c-0.7,0-1.2-0.7-1.2-1.7v-0.3
		C371.3,61,371.8,60.2,372.5,60.2z"/>
	<path class="st6" d="M366.2,60.2h2.1c0.7,0,1.2,0.7,1.2,1.7v0.3c0,0.9-0.5,1.7-1.2,1.7h-2.1c-0.7,0-1.2-0.7-1.2-1.7v-0.3
		C365,61,365.5,60.2,366.2,60.2z"/>
	<path class="st6" d="M360.2,60.2h2.1c0.7,0,1.2,0.7,1.2,1.7v0.3c0,0.9-0.5,1.7-1.2,1.7h-2.1c-0.7,0-1.2-0.7-1.2-1.7v-0.3
		C359,61,359.6,60.2,360.2,60.2z"/>
	<path class="st6" d="M353.9,60.2h2.1c0.7,0,1.2,0.7,1.2,1.7v0.3c0,0.9-0.5,1.7-1.2,1.7h-2.1c-0.7,0-1.2-0.7-1.2-1.7v-0.3
		C352.7,61,353.3,60.2,353.9,60.2z"/>
	<path class="st6" d="M347.6,60.2h2.1c0.7,0,1.2,0.7,1.2,1.7v0.3c0,0.9-0.5,1.7-1.2,1.7h-2.1c-0.7,0-1.2-0.7-1.2-1.7v-0.3
		C346.5,61,347,60.2,347.6,60.2z"/>
	<path class="st6" d="M341.6,60.2h2.1c0.7,0,1.2,0.7,1.2,1.7v0.3c0,0.9-0.5,1.7-1.2,1.7h-2.1c-0.7,0-1.2-0.7-1.2-1.7v-0.3
		C340.5,61,341,60.2,341.6,60.2z"/>
	<path class="st6" d="M323.1,60.2h2.1c0.7,0,1.2,0.7,1.2,1.7v0.3c0,0.9-0.5,1.7-1.2,1.7h-2.1c-0.7,0-1.2-0.7-1.2-1.7v-0.3
		C321.9,61,322.4,60.2,323.1,60.2z"/>
	<path class="st6" d="M335.4,60.2h2.1c0.7,0,1.2,0.7,1.2,1.7v0.3c0,0.9-0.5,1.7-1.2,1.7h-2.1c-0.7,0-1.2-0.7-1.2-1.7v-0.3
		C334.2,61,334.7,60.2,335.4,60.2z"/>
	<path class="st6" d="M303.5,60.2h2.1c0.7,0,1.2,0.7,1.2,1.7v0.3c0,0.9-0.5,1.7-1.2,1.7h-2.1c-0.7,0-1.2-0.7-1.2-1.7v-0.3
		C302.4,61,302.9,60.2,303.5,60.2z"/>
	<path class="st6" d="M329.1,60.2h2.1c0.7,0,1.2,0.7,1.2,1.7v0.3c0,0.9-0.5,1.7-1.2,1.7h-2.1c-0.7,0-1.2-0.7-1.2-1.7v-0.3
		C327.9,61,328.4,60.2,329.1,60.2z"/>
	<path class="st6" d="M297.6,60.2h2.1c0.7,0,1.2,0.7,1.2,1.7v0.3c0,0.9-0.5,1.7-1.2,1.7h-2.1c-0.7,0-1.2-0.7-1.2-1.7v-0.3
		C296.4,61,296.9,60.2,297.6,60.2z"/>
	<polygon class="st0" points="369.7,34.6 368.1,37.3 380,37.3 382.1,34.6 	"/>
	<polygon class="st6" points="371.3,34.6 369.7,37.3 370.5,37.3 372,34.4 	"/>
	<polygon class="st6" points="378.4,34.6 376.8,37.3 377.7,37.3 379.1,34.4 	"/>
	<polygon class="st6" points="374.7,34.6 373.1,37.3 374,37.3 375.4,34.4 	"/>
	<path class="st5" d="M378.4,76.5v1.1h-6v-1.2h-75.8c0,0-0.3,1.7,0,1.7H431l0.2-1.6L378.4,76.5z"/>
	<path class="st6" d="M233.5,70.2h-2.1c-0.7,0-1.2,0.7-1.2,1.7v0.3c0,0.9,0.5,1.7,1.2,1.7h2.1c0.7,0,1.2-0.7,1.2-1.7v-0.3
		C234.7,70.9,234.2,70.2,233.5,70.2z"/>
	<path class="st6" d="M219.9,70.2h-2.1c-0.7,0-1.2,0.7-1.2,1.7v0.3c0,0.9,0.5,1.7,1.2,1.7h2.1c0.7,0,1.2-0.7,1.2-1.7v-0.3
		C221.1,70.9,220.6,70.2,219.9,70.2z"/>
	<path class="st6" d="M239.8,70.2h-2.1c-0.7,0-1.2,0.7-1.2,1.7v0.3c0,0.9,0.5,1.7,1.2,1.7h2.1c0.7,0,1.2-0.7,1.2-1.7v-0.3
		C241,70.9,240.4,70.2,239.8,70.2z"/>
	<path class="st6" d="M226.2,70.2h-2.1c-0.7,0-1.2,0.7-1.2,1.7v0.3c0,0.9,0.5,1.7,1.2,1.7h2.1c0.7,0,1.2-0.7,1.2-1.7v-0.3
		C227.4,70.9,226.9,70.2,226.2,70.2z"/>
	<path class="st6" d="M245.8,70.2h-2.1c-0.7,0-1.2,0.7-1.2,1.7v0.3c0,0.9,0.5,1.7,1.2,1.7h2.1c0.7,0,1.2-0.7,1.2-1.7v-0.3
		C247,70.9,246.4,70.2,245.8,70.2z"/>
	<path class="st6" d="M252.1,70.2h-2.1c-0.7,0-1.2,0.7-1.2,1.7v0.3c0,0.9,0.5,1.7,1.2,1.7h2.1c0.7,0,1.2-0.7,1.2-1.7v-0.3
		C253.3,70.9,252.7,70.2,252.1,70.2z"/>
	<path class="st6" d="M258.4,70.2h-2.1c-0.7,0-1.2,0.7-1.2,1.7v0.3c0,0.9,0.5,1.7,1.2,1.7h2.1c0.7,0,1.2-0.7,1.2-1.7v-0.3
		C259.5,70.9,259,70.2,258.4,70.2z"/>
	<path class="st6" d="M264.4,70.2h-2.1c-0.7,0-1.2,0.7-1.2,1.7v0.3c0,0.9,0.5,1.7,1.2,1.7h2.1c0.7,0,1.2-0.7,1.2-1.7v-0.3
		C265.5,70.9,265,70.2,264.4,70.2z"/>
	<path class="st6" d="M282.9,70.2h-2.1c-0.7,0-1.2,0.7-1.2,1.7v0.3c0,0.9,0.5,1.7,1.2,1.7h2.1c0.7,0,1.2-0.7,1.2-1.7v-0.3
		C284.1,70.9,283.6,70.2,282.9,70.2z"/>
	<path class="st6" d="M270.6,70.2h-2.1c-0.7,0-1.2,0.7-1.2,1.7v0.3c0,0.9,0.5,1.7,1.2,1.7h2.1c0.7,0,1.2-0.7,1.2-1.7v-0.3
		C271.8,70.9,271.3,70.2,270.6,70.2z"/>
	<path class="st6" d="M289.2,70.2h-2.1c-0.7,0-1.2,0.7-1.2,1.7v0.3c0,0.9,0.5,1.7,1.2,1.7h2.1c0.7,0,1.2-0.7,1.2-1.7v-0.3
		C290.4,70.9,289.9,70.2,289.2,70.2z"/>
	<path class="st6" d="M276.9,70.2h-2.1c-0.7,0-1.2,0.7-1.2,1.7v0.3c0,0.9,0.5,1.7,1.2,1.7h2.1c0.7,0,1.2-0.7,1.2-1.7v-0.3
		C278.1,70.9,277.6,70.2,276.9,70.2z"/>
	<path class="st6" d="M220.3,60.2h-2.1c-0.7,0-1.2,0.7-1.2,1.7v0.3c0,0.9,0.5,1.7,1.2,1.7h2.1c0.7,0,1.2-0.7,1.2-1.7v-0.3
		C221.5,61,220.9,60.2,220.3,60.2z"/>
	<path class="st6" d="M226.6,60.2h-2.1c-0.7,0-1.2,0.7-1.2,1.7v0.3c0,0.9,0.5,1.7,1.2,1.7h2.1c0.7,0,1.2-0.7,1.2-1.7v-0.3
		C227.7,61,227.2,60.2,226.6,60.2z"/>
	<path class="st6" d="M232.5,60.2h-2.1c-0.7,0-1.2,0.7-1.2,1.7v0.3c0,0.9,0.5,1.7,1.2,1.7h2.1c0.7,0,1.2-0.7,1.2-1.7v-0.3
		C233.7,61,233.2,60.2,232.5,60.2z"/>
	<path class="st6" d="M238.8,60.2h-2.1c-0.7,0-1.2,0.7-1.2,1.7v0.3c0,0.9,0.5,1.7,1.2,1.7h2.1c0.7,0,1.2-0.7,1.2-1.7v-0.3
		C240,61,239.5,60.2,238.8,60.2z"/>
	<path class="st6" d="M245.1,60.2H243c-0.7,0-1.2,0.7-1.2,1.7v0.3c0,0.9,0.5,1.7,1.2,1.7h2.1c0.7,0,1.2-0.7,1.2-1.7v-0.3
		C246.3,61,245.8,60.2,245.1,60.2z"/>
	<path class="st6" d="M251.1,60.2H249c-0.7,0-1.2,0.7-1.2,1.7v0.3c0,0.9,0.5,1.7,1.2,1.7h2.1c0.7,0,1.2-0.7,1.2-1.7v-0.3
		C252.3,61,251.8,60.2,251.1,60.2z"/>
	<path class="st6" d="M269.7,60.2h-2.1c-0.7,0-1.2,0.7-1.2,1.7v0.3c0,0.9,0.5,1.7,1.2,1.7h2.1c0.7,0,1.2-0.7,1.2-1.7v-0.3
		C270.9,61,270.3,60.2,269.7,60.2z"/>
	<path class="st6" d="M257.4,60.2h-2.1c-0.7,0-1.2,0.7-1.2,1.7v0.3c0,0.9,0.5,1.7,1.2,1.7h2.1c0.7,0,1.2-0.7,1.2-1.7v-0.3
		C258.6,61,258.1,60.2,257.4,60.2z"/>
	<path class="st6" d="M289.2,60.2h-2.1c-0.7,0-1.2,0.7-1.2,1.7v0.3c0,0.9,0.5,1.7,1.2,1.7h2.1c0.7,0,1.2-0.7,1.2-1.7v-0.3
		C290.4,61,289.9,60.2,289.2,60.2z"/>
	<path class="st6" d="M263.7,60.2h-2.1c-0.7,0-1.2,0.7-1.2,1.7v0.3c0,0.9,0.5,1.7,1.2,1.7h2.1c0.7,0,1.2-0.7,1.2-1.7v-0.3
		C264.9,61,264.3,60.2,263.7,60.2z"/>
	<polygon class="st0" points="221.6,34.6 223.2,37.3 211.3,37.3 209.1,34.6 	"/>
	<polygon class="st6" points="220,34.6 221.6,37.3 220.7,37.3 219.3,34.4 	"/>
	<polygon class="st6" points="212.8,34.6 214.4,37.3 213.6,37.3 212.1,34.4 	"/>
	<polygon class="st6" points="216.5,34.6 218.1,37.3 217.3,37.3 215.9,34.4 	"/>
	<path class="st5" d="M214.6,76.5v1.1h6v-1.2h75.8c0,0,0.3,1.7,0,1.7H161.9l-0.2-1.6L214.6,76.5z"/>
	<polyline class="st5" points="224,32.9 202.4,32.9 203.8,30.7 224,30.9 	"/>
	<polyline class="st5" points="368.6,32.9 390.2,32.9 388.8,30.7 368.6,30.9 	"/>
	<line class="st7" x1="383.8" y1="43.6" x2="384.9" y2="43.1"/>
	<rect x="233.9" y="41.2" class="st6" width="1.7" height="2.8"/>
	<rect x="245.5" y="41.2" class="st6" width="1.7" height="2.8"/>
	<rect x="257.2" y="41.2" class="st6" width="1.7" height="2.8"/>
	<polygon class="st7" points="177.6,54.1 178,54.1 176.6,58.5 176.3,58.5 	"/>
	<polygon class="st7" points="178.9,54.1 179.3,54.1 178,58.5 177.6,58.5 	"/>
	<polygon class="st7" points="180.3,54.1 180.6,54.1 179.3,58.5 178.9,58.5 	"/>
	<polygon class="st7" points="181.6,54.1 181.9,54.1 180.6,58.5 180.3,58.5 	"/>
	<polygon class="st7" points="182.9,54.1 183.2,54.1 181.9,58.5 181.6,58.5 	"/>
	<polygon class="st7" points="184.2,54.1 184.5,54.1 183.2,58.5 182.9,58.5 	"/>
	<polygon class="st7" points="185.5,54.1 185.9,54.1 184.5,58.5 184.2,58.5 	"/>
	<polygon class="st7" points="186.8,54.1 187.2,54.1 185.9,58.5 185.5,58.5 	"/>
	<polygon class="st7" points="188.2,54.1 188.5,54.1 187.2,58.5 186.8,58.5 	"/>
	<polygon class="st7" points="189.5,54.1 189.8,54.1 188.5,58.5 188.2,58.5 	"/>
	<polygon class="st7" points="190.8,54.1 191.1,54.1 189.8,58.5 189.5,58.5 	"/>
	<polygon class="st7" points="192.1,54.1 192.4,54.1 191.1,58.5 190.8,58.5 	"/>
	<polygon class="st7" points="193.4,54.1 193.8,54.1 192.4,58.5 192.1,58.5 	"/>
	<polygon class="st7" points="194.8,54.1 195.1,54.1 193.8,58.5 193.4,58.5 	"/>
	<polygon class="st7" points="196.1,54.1 196.4,54.1 195.1,58.5 194.8,58.5 	"/>
	<polygon class="st7" points="197.4,54.1 197.7,54.1 196.4,58.5 196.1,58.5 	"/>
	<line class="st7" x1="177.8" y1="54.2" x2="198" y2="54.2"/>
	<polygon class="st7" points="198.1,54.1 198.5,54.1 197.1,58.5 196.8,58.5 	"/>
	<polygon class="st7" points="199.4,54.1 199.8,54.1 198.5,58.5 198.1,58.5 	"/>
	<polygon class="st7" points="200.8,54.1 201.1,54.1 199.8,58.5 199.4,58.5 	"/>
	<polygon class="st7" points="202.1,54.1 202.4,54.1 201.1,58.5 200.8,58.5 	"/>
	<polygon class="st7" points="203.4,54.1 203.7,54.1 202.4,58.5 202.1,58.5 	"/>
	<polygon class="st7" points="204.7,54.1 205,54.1 203.7,58.5 203.4,58.5 	"/>
	<polygon class="st7" points="206,54.1 206.3,54.1 205,58.5 204.7,58.5 	"/>
	<polygon class="st7" points="207.3,54.1 207.7,54.1 206.3,58.5 206,58.5 	"/>
	<polygon class="st7" points="208.7,54.1 209,54.1 207.7,58.5 207.3,58.5 	"/>
	<polygon class="st7" points="210,54.1 210.3,54.1 209,58.5 208.7,58.5 	"/>
	<polygon class="st7" points="211.3,54.1 211.6,54.1 210.3,58.5 210,58.5 	"/>
	<polygon class="st7" points="212.6,54.1 212.9,54.1 211.6,58.5 211.3,58.5 	"/>
	<polygon class="st7" points="213.9,54.1 214.2,54.1 212.9,58.5 212.6,58.5 	"/>
	<polygon class="st7" points="215.2,54.1 215.6,54.1 214.2,58.5 213.9,58.5 	"/>
	<polygon class="st7" points="216.6,54.1 216.9,54.1 215.6,58.5 215.2,58.5 	"/>
	<polygon class="st7" points="217.9,54.1 218.2,54.1 216.9,58.5 216.6,58.5 	"/>
	<line class="st7" x1="198.3" y1="54.2" x2="218.5" y2="54.2"/>
	<polygon class="st8" points="414.8,55.6 414.5,55.6 415.8,60 416.1,60 	"/>
	<polygon class="st8" points="413.5,55.6 413.1,55.6 414.5,60 414.8,60 	"/>
	<polygon class="st8" points="412.2,55.6 411.8,55.6 413.1,60 413.5,60 	"/>
	<polygon class="st8" points="410.8,55.6 410.5,55.6 411.8,60 412.2,60 	"/>
	<polygon class="st8" points="409.5,55.6 409.2,55.6 410.5,60 410.8,60 	"/>
	<polygon class="st8" points="408.2,55.6 407.9,55.6 409.2,60 409.5,60 	"/>
	<polygon class="st8" points="406.9,55.6 406.6,55.6 407.9,60 408.2,60 	"/>
	<polygon class="st8" points="405.6,55.6 405.2,55.6 406.6,60 406.9,60 	"/>
	<polygon class="st8" points="404.3,55.6 403.9,55.6 405.2,60 405.6,60 	"/>
	<polygon class="st8" points="402.9,55.6 402.6,55.6 403.9,60 404.3,60 	"/>
	<polygon class="st8" points="401.6,55.6 401.3,55.6 402.6,60 402.9,60 	"/>
	<polygon class="st8" points="400.3,55.6 400,55.6 401.3,60 401.6,60 	"/>
	<polygon class="st8" points="399,55.6 398.7,55.6 400,60 400.3,60 	"/>
	<polygon class="st8" points="397.7,55.6 397.3,55.6 398.7,60 399,60 	"/>
	<polygon class="st8" points="396.4,55.6 396,55.6 397.3,60 397.7,60 	"/>
	<polygon class="st8" points="395,55.6 394.7,55.6 396,60 396.4,60 	"/>
	<line class="st7" x1="414.8" y1="55.7" x2="394.6" y2="55.7"/>
	<polygon class="st8" points="394.3,55.6 394,55.6 395.3,60 395.6,60 	"/>
	<polygon class="st8" points="393,55.6 392.7,55.6 394,60 394.3,60 	"/>
	<polygon class="st8" points="391.7,55.6 391.3,55.6 392.7,60 393,60 	"/>
	<polygon class="st8" points="390.3,55.6 390,55.6 391.3,60 391.7,60 	"/>
	<polygon class="st8" points="389,55.6 388.7,55.6 390,60 390.3,60 	"/>
	<polygon class="st8" points="387.7,55.6 387.4,55.6 388.7,60 389,60 	"/>
	<polygon class="st8" points="386.4,55.6 386.1,55.6 387.4,60 387.7,60 	"/>
	<polygon class="st8" points="385.1,55.6 384.8,55.6 386.1,60 386.4,60 	"/>
	<polygon class="st8" points="383.8,55.6 383.4,55.6 384.8,60 385.1,60 	"/>
	<polygon class="st8" points="382.5,55.6 382.1,55.6 383.4,60 383.8,60 	"/>
	<polygon class="st8" points="381.1,55.6 380.8,55.6 382.1,60 382.5,60 	"/>
	<polygon class="st8" points="379.8,55.6 379.5,55.6 380.8,60 381.1,60 	"/>
	<polygon class="st8" points="378.5,55.6 378.2,55.6 379.5,60 379.8,60 	"/>
	<polygon class="st8" points="377.2,55.6 376.9,55.6 378.2,60 378.5,60 	"/>
	<polygon class="st8" points="375.9,55.6 375.5,55.6 376.9,60 377.2,60 	"/>
	<polygon class="st8" points="374.6,55.6 374.2,55.6 375.5,60 375.9,60 	"/>
	<line class="st7" x1="394.3" y1="55.7" x2="374.1" y2="55.7"/>
	<rect x="332.5" y="41.2" class="st6" width="1.7" height="2.8"/>
	<rect x="344.1" y="41.2" class="st6" width="1.7" height="2.8"/>
	<rect x="355.7" y="41.2" class="st6" width="1.7" height="2.8"/>
	<path class="st9" d="M177.4,59h28.2l-26.8,1.5h22.4L178.1,62h20.2c-0.5,0-20.2,1.4-20.2,1.4h17.4l-17.4,1.4h15.2l-15.9,1.4h13
		l-13,2.2h9.4l-9.4,1.4h7.2l-8,1.4h5.8l-6.5,2.2h4.3l-4.3,1.4h2.9l-3.6,1.2L172,76L177.4,59z"/>
	<path class="st10" d="M281.8,44.1l5.3-11.8l17.1,0l-15.6,1.4h13.4l-14.1,1.4l11.8,0c-0.5,0-11.8,1.5-11.8,1.5h9.1l-9.1,1.4l5.8,0.1
		l-6.6,1.3L291,40l-3.9,1.7l2.6,0l-2.6,1.4l1.1,0.1l1,0.9"/>
	<path class="st9" d="M206.1,55.3l4.1-16.1h22.5l-21.1,2.1l17.8,0.1l-18.2,1.4l15.9,0.1c-0.4,0-16.2,1.6-16.2,1.6l13.9-0.1
		l-14.1,1.4l12.4,0.1l-12.6,1.4l10.4,0.1l-10.4,1.6l7.6,0.6l-7.8,1.2l6.1,0.2l-6.4,1.4l4.7,0.1l-5.3,1.7l3.6,0.5"/>
	<path class="st6" d="M415.3,59h-28.2l26.8,1.5h-22.4l23.1,1.4h-20.2c0.5,0,20.2,1.4,20.2,1.4h-17.4l17.4,1.4h-15.2l15.9,1.4h-13
		l13,2.2h-9.4l9.4,1.4h-7.2l8,1.4h-5.8l6.5,2.2h-4.3l4.3,1.4h-2.9l3.6,1.2l3.2-0.2L415.3,59z"/>
	<path class="st6" d="M386.6,55.3l-4.1-16.1h-22.5l21.1,2.1l-17.8,0.1l18.2,1.4l-15.9,0.1c0.4,0,16.2,1.6,16.2,1.6l-13.9-0.1
		l14.1,1.4l-12.4,0.1l12.6,1.4l-10.4,0.1l10.4,1.6l-7.6,0.6l7.8,1.2l-6.1,0.2l6.4,1.4l-4.7,0.1l5.3,1.7l-3.6,0.5"/>
	<path class="st6" d="M233.5,50.3h-2.1c-0.7,0-1.2,0.7-1.2,1.7v0.3c0,0.9,0.5,1.7,1.2,1.7h2.1c0.7,0,1.2-0.7,1.2-1.7v-0.3
		C234.7,51,234.2,50.3,233.5,50.3z"/>
	<path class="st6" d="M216.5,50.3h-1.6c-0.5,0-0.9,0.7-0.9,1.7v0.3c0,0.9,0.4,1.7,0.9,1.7h1.6c0.5,0,0.9-0.7,0.9-1.7v-0.3
		C217.4,51,217,50.3,216.5,50.3z"/>
	<path class="st6" d="M239.8,50.3h-2.1c-0.7,0-1.2,0.7-1.2,1.7v0.3c0,0.9,0.5,1.7,1.2,1.7h2.1c0.7,0,1.2-0.7,1.2-1.7v-0.3
		C241,51,240.4,50.3,239.8,50.3z"/>
	<path class="st6" d="M221.3,50.3h-1.6c-0.5,0-0.9,0.7-0.9,1.7v0.3c0,0.9,0.4,1.7,0.9,1.7h1.6c0.5,0,0.9-0.7,0.9-1.7v-0.3
		C222.3,51,221.8,50.3,221.3,50.3z"/>
	<path class="st6" d="M245.8,50.3h-2.1c-0.7,0-1.2,0.7-1.2,1.7v0.3c0,0.9,0.5,1.7,1.2,1.7h2.1c0.7,0,1.2-0.7,1.2-1.7v-0.3
		C247,51,246.4,50.3,245.8,50.3z"/>
	<path class="st6" d="M252.1,50.3h-2.1c-0.7,0-1.2,0.7-1.2,1.7v0.3c0,0.9,0.5,1.7,1.2,1.7h2.1c0.7,0,1.2-0.7,1.2-1.7v-0.3
		C253.3,51,252.7,50.3,252.1,50.3z"/>
	<path class="st6" d="M258.4,50.3h-2.1c-0.7,0-1.2,0.7-1.2,1.7v0.3c0,0.9,0.5,1.7,1.2,1.7h2.1c0.7,0,1.2-0.7,1.2-1.7v-0.3
		C259.5,51,259,50.3,258.4,50.3z"/>
	<path class="st6" d="M264.4,50.3h-2.1c-0.7,0-1.2,0.7-1.2,1.7v0.3c0,0.9,0.5,1.7,1.2,1.7h2.1c0.7,0,1.2-0.7,1.2-1.7v-0.3
		C265.5,51,265,50.3,264.4,50.3z"/>
	<path class="st6" d="M282.9,50.3h-2.1c-0.7,0-1.2,0.7-1.2,1.7v0.3c0,0.9,0.5,1.7,1.2,1.7h2.1c0.7,0,1.2-0.7,1.2-1.7v-0.3
		C284.1,51,283.6,50.3,282.9,50.3z"/>
	<path class="st6" d="M270.6,50.3h-2.1c-0.7,0-1.2,0.7-1.2,1.7v0.3c0,0.9,0.5,1.7,1.2,1.7h2.1c0.7,0,1.2-0.7,1.2-1.7v-0.3
		C271.8,51,271.3,50.3,270.6,50.3z"/>
	<path class="st6" d="M289.2,50.3h-2.1c-0.7,0-1.2,0.7-1.2,1.7v0.3c0,0.9,0.5,1.7,1.2,1.7h2.1c0.7,0,1.2-0.7,1.2-1.7v-0.3
		C290.4,51,289.9,50.3,289.2,50.3z"/>
	<path class="st6" d="M276.9,50.3h-2.1c-0.7,0-1.2,0.7-1.2,1.7v0.3c0,0.9,0.5,1.7,1.2,1.7h2.1c0.7,0,1.2-0.7,1.2-1.7v-0.3
		C278.1,51,277.6,50.3,276.9,50.3z"/>
	<polygon class="st10" points="229.6,22.7 229.6,22 236.8,21.5 237.5,21.5 	"/>
	<polygon class="st10" points="229.4,12.6 224.2,30.6 224.5,32.9 230.1,12.4 	"/>
	<polygon class="st10" points="363.1,22.7 363.1,22 355.9,21.5 355.2,21.5 	"/>
	<polygon class="st10" points="363.3,12.6 368.5,30.6 368.2,32.9 362.6,12.4 	"/>
	<polygon class="st11" points="265.1,41 268.1,43.9 324.3,43.9 326.5,40.2 	"/>
	<polygon class="st5" points="284.7,38.2 308.4,38.2 310.4,44 282.2,44 	"/>
</g>
</svg>
