<?xml version="1.0" encoding="utf-8"?>
<!-- Generator: Adobe Illustrator 22.1.0, SVG Export Plug-In . SVG Version: 6.00 Build 0)  -->
<svg version="1.1" id="Capa_1" xmlns="http://www.w3.org/2000/svg" xmlns:xlink="http://www.w3.org/1999/xlink" x="0px" y="0px"
	 viewBox="0 0 595.3 209.9" style="enable-background:new 0 0 595.3 209.9;" xml:space="preserve">
<style type="text/css">
	.st0{fill-rule:evenodd;clip-rule:evenodd;fill:#1F1D1A;}
	.st1{fill:#D6C283;}
	.st2{fill-rule:evenodd;clip-rule:evenodd;fill:#CBB369;}
	.st3{fill-rule:evenodd;clip-rule:evenodd;fill:#D6C283;}
	.st4{fill-rule:evenodd;clip-rule:evenodd;fill:#11171F;}
	.st5{fill-rule:evenodd;clip-rule:evenodd;fill:#FFFFFF;}
	
		.st6{fill-rule:evenodd;clip-rule:evenodd;fill:none;stroke:#FFFFFF;stroke-linecap:round;stroke-linejoin:round;stroke-miterlimit:10;}
	
		.st7{fill-rule:evenodd;clip-rule:evenodd;fill:none;stroke:#11171F;stroke-linecap:round;stroke-linejoin:round;stroke-miterlimit:10;}
	.st8{fill-rule:evenodd;clip-rule:evenodd;fill:#D3D3D4;}
</style>
<g>
	<g>
		<g>
			<path class="st0" d="M37.9,113.7c0,3,0,5.4-0.2,6.7c-0.1,0.9-0.3,1.6-0.9,1.7c-0.3,0.1-0.7,0.1-0.9,0.1c-0.2,0-0.3,0.1-0.3,0.3
				c0,0.3,0.2,0.4,0.5,0.4h6.5c0.3,0,0.5-0.1,0.5-0.4c0-0.1-0.1-0.3-0.3-0.3c-0.3,0-1-0.1-1.4-0.1c-1-0.1-1.1-0.8-1.2-1.7
				c-0.2-1.3-0.2-3.8-0.2-6.7v-2.6c0-0.2,0.1-0.3,0.2-0.3c0.5,0,4,0,4.8,0.1c1,0.1,1.5,0.7,1.6,1.1c0.1,0.4,0.2,0.8,0.2,1.1
				c0,0.2,0.1,0.3,0.3,0.3c0.3,0,0.3-0.3,0.3-0.6c0-0.2,0.1-1.5,0.1-2.1c0.1-0.6,0.3-1.2,0.3-1.4c0-0.2,0-0.3-0.2-0.3
				c-0.1,0-0.2,0.2-0.4,0.3c-0.4,0.5-0.9,0.6-1.6,0.6c-0.4,0-0.9,0-1.4,0l-4,0c-0.2,0-0.2-0.1-0.2-0.3v-9.7c0-0.3,0.1-0.4,0.3-0.4
				l4.9,0.1c1.2,0,2.1,0.7,2.4,1.1c0.2,0.5,0.3,1.1,0.3,1.3c0,0.2,0.1,0.4,0.2,0.4c0.1,0,0.2-0.2,0.2-0.4c0.1,0.2,0.1-1.3,0.2-1.6
				c0.1-0.9,0.3-1.3,0.3-1.6c0-0.2-0.1-0.3-0.2-0.3c-0.1,0-0.3,0.1-0.4,0.2c-0.3-0.1-0.9-0.1-1.6,0c-0.7,0-7,0-7.5,0l-1.1,0
				c-0.7,0-1.5,0-2.2,0c-0.3,0-0.5,0.1-0.5,0.2c0,0.1,0.1,0.1,0.3,0.1c0.3,0.2,0.8,0.2,1.1,0.3c1,0.2,1.3,0.8,1.3,1.9
				c0.1,1.1,0.1,2,0.1,7.2V113.7z"/>
			<path class="st0" d="M61.1,114.8c0,2.6,0,4.8-0.2,5.9c-0.1,0.8-0.2,1.4-0.7,1.5c-0.3-0.1-0.6,0-0.8,0c-0.2,0-0.2,0.2-0.2,0.3
				c0,0,0.2,0,0.4,0c0.4,0,1.1,0,1.6,0c0.5,0.3,1,0.3,1,0.3c0.4,0,1,0,2,0.1c1-0.3,2.5-0.3,4.3-0.3c1.3,0,1.6,0,1.7-0.4
				c0.2-0.4,0.4-2.3,0.4-2.5c0-0.2,0-0.4-0.2-0.4c-0.2,0-0.2,0.1-0.3,0.4c-0.2,1.1-0.5,1.6-1.4,2c-0.7,0.3-1.9,0.3-2.6,0.3
				c-2.5,0-2.9-0.4-3-2.3c0-0.6,0-3.9,0-4.8v-2.4c0-0.1,0-0.2,0.2-0.2c0.4,0,3.1,0,3.8,0.1c1,0.1,1.2,0.5,1.3,0.9
				c0.1,0.4,0.1,0.7,0.1,0.9c0,0.2,0.1,0.3,0.3,0.3c0.3,0,0.4-0.3,0.4-0.5c0-0.2,0.1-1.3,0.1-1.8c0.1-0.5,0.2-1,0.2-1.2
				c0-0.2-0.1-0.2-0.2-0.2c-0.1,0-0.2,0.2-0.5,0.4c-0.4,0.3-0.8,0.3-1.3,0.4c-0.6,0.1-3.9,0.1-4.2,0.1c-0.1,0-0.1-0.1-0.1-0.3v-7.6
				c0-0.2,0-0.3,0.1-0.3c0.3,0,3.2,0,3.6,0.1c1.4,0.2,1.6,0.4,1.9,0.8c0.2,0.3,0.2,0.8,0.2,1c0,0.2,0.1,0.4,0.3,0.4
				c0.1,0,0.2-0.2,0.3-0.3c0.1,0.1,0.1-1.1,0.2-1.4c0.1-0.7,0.2-1,0.2-1.2c0-0.1,0-0.3-0.1-0.3c-0.1,0-0.2,0.1-0.4,0.1
				c-0.2-0.1-0.9,0-1.4,0.1c-0.6,0-5.7,0-5.9,0c-0.1,0-1.8-0.1-3-0.1c-0.3,0-0.4,0.1-0.4,0.2c0,0.1,0.1,0.1,0.2,0.1
				c0.3,0.1,0.7,0.2,0.9,0.2c0.9,0.1,1.1,0.6,1.1,1.5c0.1,0.8,0.1,1.6,0.1,5.7V114.8z"/>
			<path class="st0" d="M85.8,104c0-0.2,0.1-0.3,0.2-0.3c0.3-0.1,1.1-0.2,1.9-0.2c2.9,0,4.7,2,4.7,5.6c0,2.2-0.7,3.7-1.6,4.3
				c-0.7,0.5-1.4,0.5-2,0.5c-1.2,0-2.6-0.2-3-0.4c-0.1-0.1-0.2-0.2-0.2-0.4V104z M83.6,115.3c0,2.4,0,4.5-0.2,5.5
				c-0.1,0.8-0.2,1.2-0.7,1.3c-0.3,0.1-0.6,0.1-0.8,0.1c-0.2,0-0.2,0.2-0.2,0.3c0,0.2,0.2,0.3,0.4,0.3H88c0.3,0,0.4-0.1,0.4-0.3
				c0-0.1,0-0.3-0.2-0.3c-0.3,0-0.8-0.1-1.2-0.1c-0.8-0.1-1-0.6-1.1-1.3c-0.1-1-0.1-3-0.1-5.5v-0.6c0-0.2,0.1-0.2,0.2-0.2l3.4,0
				c0.2,0,0.2,0,0.4,0.2c0.6,0.7,1.8,2.3,2.9,3.7c1.3,1.9,2.2,3.1,3.4,3.7c0.7,0.5,1.4,0.8,2.9,0.8h1.7c0.5,0,0.6-0.1,0.6-0.3
				c0-0.1-0.1-0.3-0.3-0.3c-0.1,0-0.4,0-1-0.1c-0.7-0.1-1.6-0.3-3-1.8c-1.6-1.6-3.3-3.9-5.4-6.4c2.3-2.3,3-4.3,3-6.4
				c0-2-1.1-3.3-1.6-3.9c-1.3-0.8-3.3-0.9-5-0.9h-6.4c-0.3,0-0.4,0-0.4,0.2c0,0.1,0.1,0.2,0.2,0.2c0.3,0.1,0.7,0.1,0.9,0.1
				c0.9,0.1,1.1,0.6,1.1,1.5c0.1,0.9,0.1,1.7,0.1,6V115.3z"/>
			<path class="st0" d="M112,104c0-0.2,0.1-0.3,0.2-0.3c0.3-0.1,1.1-0.2,1.9-0.2c2.9,0,4.7,2,4.7,5.6c0,2.2-0.7,3.7-1.6,4.3
				c-0.7,0.5-1.4,0.5-2,0.5c-1.2,0-2.6-0.2-3-0.4c-0.1-0.1-0.2-0.2-0.2-0.4V104z M109.9,115.3c0,2.4,0,4.5-0.2,5.5
				c-0.1,0.8-0.2,1.2-0.7,1.3c-0.3,0.1-0.6,0.1-0.8,0.1c-0.2,0-0.2,0.2-0.2,0.3c0,0.2,0.2,0.3,0.4,0.3h5.8c0.3,0,0.4-0.1,0.4-0.3
				c0-0.1,0-0.3-0.2-0.3c-0.3,0-0.8-0.1-1.2-0.1c-0.8-0.1-1-0.6-1.1-1.3c-0.1-1-0.1-3-0.1-5.5v-0.6c0-0.2,0.1-0.2,0.2-0.2l3.4,0
				c0.2,0,0.3,0,0.4,0.2c0.6,0.7,1.8,2.3,2.9,3.7c1.3,1.9,2.2,3.1,3.4,3.7c0.7,0.5,1.4,0.8,2.9,0.8h1.7c0.5,0,0.7-0.1,0.7-0.3
				c0-0.1-0.1-0.3-0.2-0.3c-0.2,0-0.4,0-1-0.1c-0.7-0.1-1.6-0.3-3.1-1.8c-1.6-1.6-3.3-3.9-5.4-6.4c2.3-2.3,3-4.3,3-6.4
				c0-2-1-3.3-1.6-3.9c-1.3-0.8-3.3-0.9-5-0.9H108c-0.3,0-0.4,0-0.4,0.2c0,0.1,0.1,0.2,0.2,0.2c0.2,0.1,0.7,0.1,0.9,0.1
				c0.9,0.1,1.1,0.6,1.1,1.5c0.1,0.9,0.1,1.7,0.1,6V115.3z"/>
			<path class="st0" d="M139.1,118.1c0,0.4,0,1.6-0.1,2.6c-0.1,0.8-0.3,1.3-0.8,1.4c-0.2,0.1-0.6,0.1-0.8,0.1
				c-0.2,0-0.2,0.2-0.2,0.3c0,0.2,0.1,0.3,0.4,0.3h5.8c0.3,0,0.4-0.1,0.4-0.3c0-0.1-0.1-0.3-0.2-0.3c-0.3,0-0.9-0.1-1.2-0.1
				c-0.8-0.1-1-0.6-1.1-1.4c-0.1-1.1-0.1-2.2-0.1-2.6v-2.3c0-0.9-0.1-1.7,0.3-2.6c0.6-1.1,4.4-7.3,5.3-8.4c0.6-0.7,0.8-1,1.4-1.3
				c0.4-0.2,1-0.3,1.3-0.3v-0.7H145c-0.3,0-0.4,0.1-0.4,0.2c0,0.2,0.2,0.4,0.4,0.4c0.3,0.1,0.4,0.3,0.4,0.7c0,0.3-0.1,0.8-0.5,1.4
				c-0.5,0.9-3.9,6.5-4.4,7.6l-4.8-8.2c-0.2-0.3-0.4-0.7-0.4-1c0-0.2,0.1-0.3,0.4-0.4c0.3-0.1,0.4-0.3,0.4-0.4
				c0-0.2-0.1-0.3-0.4-0.3h-5.1c-0.3,0-0.3,0.1-0.3,0.3c0,0.2,0.1,0.4,0.3,0.4c0.2,0,0.7,0.1,1.2,0.4c0.5,0.3,1.1,0.9,1.8,1.9
				c0.9,1.4,4.6,7.3,4.8,7.7c0.4,0.7,0.6,1.3,0.6,2.7V118.1z"/>
		</g>
		<g>
			<path class="st0" d="M431.2,108.2c0-5,0-5.9,0.1-6.9c0.1-1.1,0.3-1.6,1.2-1.8c0.4-0.1,0.8-0.1,1-0.1c0.1,0,0.3-0.1,0.3-0.3
				c0-0.3-0.2-0.4-0.5-0.4h-6.3c-0.3,0-0.5,0.1-0.5,0.4c0,0.2,0.1,0.3,0.2,0.3c0.3,0,0.8,0,1.1,0.1c1,0.2,1.3,0.7,1.3,1.8
				c0.1,1,0.1,1.9,0.1,6.9v5.6c0,2.8,0,5.2-0.2,6.6c-0.1,0.9-0.3,1.6-0.9,1.7c-0.3,0-0.6,0.1-0.9,0.1c-0.2,0-0.2,0.1-0.2,0.3
				c0,0.3,0.1,0.4,0.5,0.4c0.5,0,1.1,0,1.7-0.1c0.5,0,0.9,0,1,0c0.7,0,1.6,0,2.9,0.1c1.3-0.3,2.9-0.3,5.1-0.3c1.6,0,1.7-0.1,1.9-0.5
				c0.2-0.7,0.5-2.7,0.5-3c0-0.3,0-0.5-0.2-0.5c-0.2,0-0.2,0.2-0.3,0.4c-0.1,0.6-0.4,1.4-0.8,1.9c-0.7,0.9-2.1,1-3.7,1
				c-2.4,0-3.2-0.2-3.7-0.7c-0.5-0.6-0.7-2.6-0.7-7.3V108.2z"/>
			<path class="st0" d="M448.2,114.6c-0.1,0-0.1-0.1-0.1-0.2l2.5-7.2c0.1-0.4,0.3-0.4,0.5,0l2.7,7.2c0,0.1,0,0.2-0.1,0.2H448.2z
				 M444.3,119.7c-0.5,1.3-1,2.3-2.3,2.4c-0.2,0-0.6,0.1-0.8,0.1c-0.1,0-0.3,0.1-0.3,0.3c0,0.2,0.2,0.3,0.5,0.3h5.2
				c0.3,0,0.4-0.1,0.4-0.3c0-0.2-0.1-0.3-0.3-0.3h-0.3c-0.5,0-0.9-0.2-0.9-0.7c0-0.5,0.1-1.1,0.4-1.8l1.5-4.2
				c0.1-0.2,0.1-0.2,0.3-0.2h6.2c0.1,0,0.2,0,0.2,0.2l2.4,6.1c0.2,0.4-0.1,0.7-0.2,0.7c-0.1,0.1-0.2,0.1-0.2,0.3
				c0,0.2,0.4,0.2,1,0.3c1.9,0.1,3.9,0.1,4.3,0.1c0.3,0,0.6-0.1,0.6-0.3c0-0.2-0.2-0.3-0.3-0.3c-0.3,0-0.7,0-1.1-0.2
				c-0.6-0.2-1.3-0.5-2.3-2.9c-1.7-4-6-14.5-6.5-15.6c-0.3-0.6-0.4-1-0.7-1c-0.2,0-0.3,0.2-0.6,1L444.3,119.7z"/>
			<path class="st0" d="M466.5,106.7c0.8,0.9,3.9,4.2,7.1,7.5c2.9,3,6.8,6.8,7.1,7.1c1.5,1.4,1.7,1.7,2,1.7c0.2,0,0.2-0.2,0.2-1.9
				l0.1-15.4c0-1.6,0.1-2.1,1-2.3c0.3-0.1,0.5-0.1,0.6-0.1c0.2,0,0.3-0.2,0.3-0.4c0-0.2-0.2-0.3-0.5-0.3h-5.1c-0.3,0-0.5,0-0.5,0.3
				c0,0.1,0,0.4,0.2,0.4c0.2,0,0.8,0,1.3,0.1c0.8,0.2,1,0.8,1,2.4l0.3,13.2c-0.8-0.9-3.8-4-6.5-6.8c-4.2-4.1-8.2-8.3-8.6-8.7
				c-0.3-0.3-0.7-0.8-0.9-0.8c-0.2,0-0.3,0.3-0.3,1.3v14.9c0,2.3-0.1,3-0.8,3.2c-0.4,0.1-0.9,0.2-1.1,0.2c-0.1,0-0.2,0.1-0.2,0.3
				c0,0.3,0.2,0.3,0.4,0.3h5.3c0.3,0,0.5-0.1,0.5-0.3c0-0.2-0.1-0.3-0.2-0.3c-0.3,0-0.9,0-1.4-0.2c-0.7-0.2-1-0.8-1.1-3L466.5,106.7
				z"/>
			<path class="st0" d="M493.9,104.2c0-0.3,0.1-0.4,0.3-0.5c0.3-0.1,1.1-0.2,1.6-0.2c3.3,0,6.3,0.3,8.8,3c1.1,1.1,2.6,3.3,2.6,6.7
				c0,2.5-0.7,5-2.1,6.4c-1.6,1.6-3.9,2.4-6.4,2.4c-3.2,0-4.2-0.6-4.5-1.1c-0.2-0.3-0.3-1.3-0.3-1.9c0-0.5,0-3,0-5.8V104.2z
				 M491.8,115c0,2.5,0,4.6-0.2,5.7c-0.1,0.8-0.2,1.3-0.7,1.4c-0.3,0.1-0.6,0.1-0.8,0.1c-0.1,0-0.2,0.2-0.2,0.3
				c0,0.2,0.1,0.3,0.4,0.3c0.4,0,1.1,0,1.6-0.1c0.5,0,0.9,0,0.9,0c0.1,0,0.9,0.1,2.1,0.2c1.2-0.4,2.6-0.3,3.8-0.3
				c4.6,0,7.1-1.5,8.3-2.7c1.3-1.6,2.4-4.2,2.4-7.5c0-3.2-1-5.4-2.1-6.8c-3.2-3-8.2-2.7-10.9-2.7h-6.4c-0.3,0-0.4,0-0.4,0.2
				c0,0.1,0.1,0.1,0.2,0.1c0.3,0.1,0.7,0.1,0.9,0.1c0.9,0.1,1.1,0.6,1.1,1.5c0.1,0.8,0.1,1.6,0.1,5.7V115z"/>
			<path class="st0" d="M519,110.4c0-4.1,0-4.8,0-5.7c0.1-0.9,0.2-1.3,1-1.4c0.3-0.1,0.5-0.1,0.7-0.1c0.1,0,0.2-0.2,0.2-0.3
				c0-0.2-0.1-0.3-0.4-0.3h-5.1c-0.3,0-0.4,0.1-0.4,0.3c0,0.2,0.1,0.3,0.2,0.3c0.2,0,0.5,0,0.8,0.1c0.6,0.1,0.8,0.5,0.9,1.4
				c0.1,0.8,0.1,1.6,0.1,5.7v4.7c0,2.5,0,4.6-0.1,5.7c-0.1,0.8-0.2,1.3-0.7,1.4c-0.2,0.1-0.6,0.1-0.8,0.1c-0.1,0-0.2,0.2-0.2,0.3
				c0,0.2,0.1,0.3,0.4,0.3h5.7c0.3,0,0.4-0.1,0.4-0.3c0-0.1-0.1-0.3-0.2-0.3c-0.3,0-0.8-0.1-1.2-0.1c-0.8-0.1-0.9-0.6-1-1.4
				c-0.1-1.1-0.1-3.1-0.1-5.7V110.4z"/>
			<path class="st0" d="M529.2,106.7c0.8,0.9,3.9,4.2,7.1,7.5c2.9,3,6.8,6.8,7.1,7.1c1.5,1.4,1.7,1.7,2,1.7c0.2,0,0.2-0.2,0.2-1.9
				l0.1-15.4c0-1.6,0.1-2.1,1-2.3c0.3-0.1,0.5-0.1,0.6-0.1c0.2,0,0.3-0.2,0.3-0.4c0-0.2-0.2-0.3-0.5-0.3H542c-0.3,0-0.5,0-0.5,0.3
				c0,0.1,0,0.4,0.2,0.4c0.2,0,0.8,0,1.3,0.1c0.8,0.2,1,0.8,1,2.4l0.3,13.2c-0.8-0.9-3.8-4-6.5-6.8c-4.2-4.1-8.2-8.3-8.6-8.7
				c-0.3-0.3-0.7-0.8-0.9-0.8c-0.2,0-0.3,0.3-0.3,1.3v14.9c0,2.3-0.1,3-0.8,3.2c-0.4,0.1-0.9,0.2-1.1,0.2c-0.1,0-0.2,0.1-0.2,0.3
				c0,0.3,0.2,0.3,0.4,0.3h5.3c0.3,0,0.5-0.1,0.5-0.3c0-0.2-0.1-0.3-0.2-0.3c-0.3,0-0.9,0-1.4-0.2c-0.7-0.2-1-0.8-1.1-3L529.2,106.7
				z"/>
			<path class="st0" d="M567,120.6c0,0.5-0.2,0.6-0.6,0.8c-0.7,0.4-2,0.5-2.9,0.5c-2.5,0-4.8-0.8-7-2.8c-1-0.9-2.9-3.7-2.9-7.6
				c0-3,1.1-5.2,2.7-6.4c2.1-1.5,4.1-1.6,5.7-1.6c3.2,0,5.2,1,5.8,2c0.4,0.6,0.6,1.3,0.6,1.7c0,0.2,0,0.4,0.2,0.4
				c0.2,0,0.4-0.1,0.4-0.5c0-2.5,0.2-3.2,0.2-3.5c0-0.1-0.1-0.2-0.4-0.2c-0.8,0-1.7-0.1-2.2-0.2c-0.5-0.1-2.4-0.3-4.1-0.3
				c-2,0-4.6,0.1-7,1.3c-2.3,1.4-4,4.3-4,8.3c0,3.6,1.3,6.5,2.8,7.9c2.9,2.2,6.7,2.3,8.7,2.3c1.9,0,4.3-0.2,5.8-0.6
				c0.3-0.2,0.3-0.2,0.3-1.4v-3c0-1.1,0-1.9,0-2.8c0.1-0.9,0.3-1.4,1-1.5c0.3-0.1,0.5-0.1,0.7-0.1c0.1,0,0.2-0.2,0.2-0.3
				c0-0.3-0.1-0.3-0.4-0.3h-5.5c-0.3,0-0.4,0-0.4,0.3c0,0.1,0.1,0.3,0.2,0.3c0.3,0,0.7,0,0.9,0.1c1.1,0.2,1.2,0.5,1.2,2.7V120.6z"/>
		</g>
	</g>
	<g>
		<g>
			<path class="st1" d="M210,149c0.8,1.1,1.7,2,2.7,2.8c1.1,0.8,2.2,1.4,3.4,1.9c1.2,0.5,2.4,0.8,3.4,0.9c0.2,0.1,0.3,0.1,0.4,0
				c0.1-0.1,0-0.2-0.4-0.3c-0.9-0.2-2-0.7-3.1-1.4c-1.2-0.7-2.3-1.6-3.3-2.5s-1.9-1.9-2.6-2.8c-0.7-0.9-1.1-1.7-1.1-2.2
				c0-0.3,0-0.7,0.2-1.2c0.1-0.5,0.6-0.8,1.3-0.8c0.7-0.1,1.4,0.1,2.2,0.5c0.8,0.4,1.2,0.8,1.2,1.3c0.1,1.1,0,1.9-0.3,2.3
				c-0.3,0.5-0.4,0.7-0.2,0.7c0.3,0,0.6-0.4,0.8-1.1c0.3-0.7,0.4-1.4,0.3-2c-0.1-1-0.5-1.8-1.3-2.2c-0.8-0.4-1.8-0.6-2.8-0.5
				c-0.6,0-1.2,0.3-1.6,0.8c-0.4,0.5-0.6,1.2-0.6,2.3C208.8,146.7,209.2,147.9,210,149z"/>
			<path class="st1" d="M220,158.3c-0.9,0-1.8-0.2-2.8-0.6c-1-0.4-2.1-0.9-3.3-1.5c-1.1-0.6-2.3-1.3-3.6-1.9
				c-1.2-0.7-2.4-1.3-3.7-1.9c-1.2-0.6-2.4-1-3.6-1.4c-1.2-0.4-2.3-0.5-3.5-0.4c-0.4,0-0.9,0.1-1.4,0.3c-0.5,0.2-1.1,0.4-1.6,0.6
				c-0.5,0.3-1.1,0.6-1.5,1c-0.5,0.4-0.9,0.8-1.2,1.3c-0.1,0.2,0,0.3,0.1,0.4c0.1,0,0.3,0,0.5-0.2c1.2-1.6,2.9-2.5,5.2-2.7
				c1-0.1,2.3,0.3,3.9,1.1c1.5,0.8,3.2,1.7,5.1,2.7c1.8,1,3.8,1.9,5.8,2.7c2,0.8,4,1.2,5.9,1.1c0.2-0.1,0.2-0.2,0.1-0.3
				C220.3,158.4,220.2,158.3,220,158.3z"/>
			<path class="st1" d="M226.6,158c-1.5-0.1-3-0.4-4.5-0.9c-2.4-0.8-4.7-1.8-7-3.1c-1.9-1.1-3.9-2.2-5.8-3.4
				c-1.9-1.2-3.8-2.3-5.8-3.2c-1.9-1-3.9-1.7-6-2.3c-2.1-0.6-4.2-0.8-6.4-0.7c-2.8,0.2-4.9,0.8-6.1,1.9c-1.3,1.1-1.9,2.5-1.7,4.1
				c0.1,0.8,0.3,1.6,0.7,2.1c0.4,0.6,0.9,1.1,1.5,1.5c0.6,0.4,1.2,0.7,1.8,0.9c0.7,0.2,1.2,0.3,1.7,0.2c0.3,0,0.2-0.1-0.2-0.2
				c-0.4-0.1-0.9-0.4-1.5-0.8c-0.6-0.4-1.2-0.8-1.8-1.4s-0.9-1.3-1-2.3c0-0.5,0-1,0.2-1.6c0.2-0.6,0.4-1.2,0.8-1.7
				c0.4-0.5,0.9-1,1.6-1.4c0.7-0.4,1.5-0.6,2.5-0.7c2.2-0.2,4.3,0.1,6.3,0.7c2,0.6,4.1,1.4,6.1,2.4c2,1,4,2.2,6.1,3.4
				c2,1.3,4.1,2.4,6.3,3.4c2.2,1.1,4.6,2.1,6.9,2.8c2.1,0.6,4.2,0.9,6.6,0.9"/>
		</g>
		<g>
			<path class="st1" d="M362.3,149.1c-0.8,1.1-1.7,2-2.7,2.8c-1.1,0.8-2.2,1.4-3.4,1.9c-1.2,0.5-2.4,0.7-3.4,0.8
				c-0.2,0.1-0.3,0.1-0.4,0c-0.1-0.1,0-0.2,0.4-0.3c1-0.2,2-0.6,3.2-1.4c1.2-0.7,2.3-1.6,3.3-2.5c1-0.9,1.9-1.9,2.6-2.7
				c0.7-0.9,1.1-1.6,1.1-2.2c0-0.3,0-0.7-0.2-1.2c-0.1-0.5-0.6-0.8-1.3-0.8c-0.7-0.1-1.4,0.1-2.2,0.4c-0.8,0.3-1.2,0.8-1.2,1.3
				c-0.1,1.1,0,1.8,0.3,2.3c0.3,0.5,0.4,0.7,0.2,0.7c-0.3,0-0.6-0.4-0.8-1.1c-0.3-0.7-0.4-1.4-0.3-2c0.1-1,0.5-1.8,1.3-2.2
				c0.8-0.4,1.7-0.6,2.8-0.5c0.6,0,1.2,0.3,1.6,0.7c0.5,0.4,0.6,1.2,0.5,2.2C363.5,146.8,363.1,148,362.3,149.1z"/>
			<path class="st1" d="M352.3,158.2c0.9,0,1.8-0.2,2.8-0.6c1-0.4,2.1-0.9,3.3-1.5c1.1-0.6,2.3-1.2,3.6-1.9c1.2-0.7,2.4-1.3,3.7-1.9
				c1.2-0.6,2.4-1,3.6-1.4c1.2-0.4,2.3-0.5,3.5-0.4c0.4,0,0.9,0.1,1.4,0.3c0.5,0.1,1.1,0.4,1.6,0.6c0.5,0.3,1.1,0.6,1.5,1
				c0.5,0.4,0.9,0.8,1.2,1.3c0.1,0.2,0,0.3-0.1,0.4c-0.1,0-0.3,0-0.5-0.2c-1.2-1.6-2.9-2.5-5.3-2.6c-1-0.1-2.3,0.3-3.9,1.1
				s-3.2,1.6-5.1,2.6c-1.8,1-3.8,1.8-5.8,2.6s-4,1.1-5.9,1.1c-0.2-0.1-0.2-0.2-0.1-0.3C352,158.3,352.1,158.2,352.3,158.2z"/>
			<path class="st1" d="M345.6,157.9c1.5-0.1,3-0.4,4.5-0.9c2.4-0.8,4.7-1.8,7-3c1.9-1,3.9-2.1,5.8-3.3c1.9-1.2,3.9-2.2,5.8-3.2
				c1.9-0.9,3.9-1.7,6-2.3c2.1-0.6,4.2-0.8,6.4-0.6c2.8,0.2,4.9,0.8,6.2,1.9s1.8,2.4,1.7,4c-0.1,0.8-0.3,1.5-0.7,2.1
				c-0.4,0.6-0.9,1.1-1.5,1.4c-0.6,0.4-1.2,0.6-1.8,0.8c-0.6,0.2-1.2,0.3-1.7,0.2c-0.3,0-0.2-0.1,0.2-0.2c0.4-0.1,0.9-0.4,1.5-0.7
				c0.6-0.4,1.2-0.8,1.8-1.4c0.6-0.6,0.9-1.3,1-2.2c0-0.5,0-1-0.2-1.6c-0.1-0.6-0.4-1.2-0.8-1.7c-0.4-0.5-0.9-1-1.6-1.4
				c-0.7-0.4-1.5-0.6-2.5-0.7c-2.2-0.1-4.3,0.1-6.3,0.7c-2,0.6-4.1,1.4-6.1,2.4c-2,1-4,2.1-6.1,3.3c-2,1.2-4.1,2.3-6.3,3.4
				c-2.2,1.1-4.6,2-6.9,2.7c-2.1,0.6-4.2,0.9-6.6,0.9"/>
		</g>
		<g>
			<path class="st2" d="M238.1,160.3c1.7,0,3.4-0.2,4.7-0.8c2.1-1.5,2.6-3.9,2.6-5.2c0-2.5-0.9-4.4-4.5-7.3l-0.9-0.7
				c-3-2.3-3.8-3.5-3.8-5.3c0-2.3,1.7-3.6,3.8-3.6c2.9,0,3.7,1.3,3.9,1.6c0.2,0.4,0.4,1.2,0.4,1.6c0,0.3,0.1,0.4,0.2,0.4
				c0.2,0,0.2-0.2,0.2-0.7c0-2.4,0.1-3.4,0.1-3.6c0-0.2-0.1-0.2-0.3-0.2c-0.2,0-0.5,0-1.1-0.1c-0.8,0.5-1.7,0.4-2.9,0.4
				c-3.9,0-6.4,1.9-6.4,5.2c0,2.1,0.8,4.1,4.1,6.8l1.4,1.2c2.7,2.2,3.6,3.5,3.6,5.6c0,2-1.4,4.2-4.4,4.2c-2.1,0-4.2-0.9-4.7-3.2
				c-0.1-0.4-0.1-0.9-0.1-1.1c0-0.3,0-0.4-0.2-0.4c-0.2,0-0.2,0.2-0.3,0.5c0,0.5-0.2,1.8-0.2,3.3c0,0.8,0,0.9,0.5,1
				C235.2,160.2,236.6,160.3,238.1,160.3z"/>
			<path class="st2" d="M253.6,152c0,3.8,0.9,5.7,2.1,6.9c2,1.4,4.9,1.4,5.9,1.4c1.7,0,3.8-0.1,5.9-1.5c2.3-1.9,2.7-5.1,2.7-7.9
				v-2.8c0-4.1,0-4.8,0-5.7c0.1-0.9,0.2-1.3,1-1.5c0.4-0.1,0.5-0.1,0.7-0.1c0.1,0,0.2-0.2,0.2-0.3c0-0.2-0.1-0.3-0.5-0.3h-5.4
				c-0.3,0-0.4,0.1-0.4,0.3c0,0.1,0.1,0.3,0.2,0.3c0.3,0,0.7,0,1,0.1c0.9,0.1,1.1,0.6,1.1,1.5c0,0.8,0.1,1.6,0.1,5.7v3.3
				c0,2.7-0.3,4.9-1.6,6.4c-1,1.1-2.6,1.9-4.4,1.9c-1.6,0-2.8-0.2-4.2-1.4c-1.2-1.1-2.1-2.6-2.1-6.4v-3.7c0-4.1,0-4.8,0.1-5.7
				c0.1-0.9,0.2-1.3,1-1.5c0.4-0.1,0.5-0.1,0.7-0.1c0.1,0,0.3-0.2,0.3-0.3c0-0.2-0.2-0.3-0.5-0.3h-5.6c-0.3,0-0.4,0.1-0.4,0.3
				c0,0.1,0.1,0.3,0.2,0.3c0.3,0,0.7,0,1,0.1c0.9,0.1,1.1,0.6,1.1,1.5c0.1,0.8,0.1,1.6,0.1,5.7V152z"/>
			<path class="st2" d="M281.3,148.1c0-4.1,0-4.8,0-5.7c0.1-0.9,0.2-1.3,1-1.5c0.3-0.1,0.5-0.1,0.7-0.1c0.1,0,0.2-0.2,0.2-0.3
				c0-0.2-0.1-0.3-0.4-0.3h-5.2c-0.3,0-0.4,0.1-0.4,0.3c0,0.1,0.1,0.3,0.2,0.3c0.2,0,0.5,0,0.9,0.1c0.6,0.1,0.8,0.5,0.9,1.4
				c0.1,0.8,0.1,1.6,0.1,5.7v4.6c0,2.5,0,4.6-0.2,5.7c-0.1,0.8-0.2,1.3-0.7,1.4c-0.3,0.1-0.6,0.1-0.9,0.1c-0.2,0-0.2,0.2-0.2,0.3
				c0,0.2,0.2,0.3,0.4,0.3h5.9c0.3,0,0.4-0.1,0.4-0.3c0-0.1-0.1-0.3-0.2-0.3c-0.3,0-0.9-0.1-1.3-0.1c-0.8-0.1-0.9-0.6-1-1.4
				c-0.1-1.1-0.1-3.2-0.1-5.7V148.1z"/>
			<path class="st2" d="M297.7,141.2l3.5,0.1c2.7,0.1,3.3,0.7,3.4,1.5l0,0.3c0,0.4,0.1,0.5,0.3,0.5c0.1,0,0.3-0.1,0.3-0.3
				c0,0.2,0.1-1.7,0.1-2.5c0-0.2,0-0.3-0.1-0.3c-0.1,0-0.4,0.1-0.9,0.1c-0.4,0-1.1,0.1-2,0.1h-10.2c-0.3,0-1.4,0-2.2-0.1
				c-0.8,0.1-1-0.1-1.2-0.1c-0.1,0-0.3,0.3-0.3,0.5c-0.1-0.1-0.6,1.9-0.6,2.1c0,0.2,0.1,0.2,0.2,0.2c0.1,0,0.2,0,0.3-0.3
				c0.1-0.2,0.1-0.4,0.4-0.9c0.4-0.6,1.1-0.8,2.8-0.9l4-0.1v11.3c0,2.6,0,4.7-0.1,5.9c-0.1,0.8-0.3,1.3-0.8,1.5
				c-0.3,0.1-0.6,0.1-0.8,0.1c-0.2,0-0.2,0.2-0.2,0.3c0,0.3,0.1,0.4,0.4,0.4h6c0.3,0,0.5-0.2,0.5-0.4c0-0.1,0-0.3-0.2-0.3
				c-0.3,0-0.9-0.1-1.3-0.1c-0.9-0.1-1-0.6-1.1-1.4c-0.1-1.1-0.1-3.2-0.1-5.9V141.2z"/>
			<path class="st2" d="M312.7,152.6c0,2.6,0,4.8-0.1,5.9c-0.1,0.8-0.2,1.4-0.7,1.5c-0.3-0.1-0.6,0-0.9,0c-0.2,0-0.2,0.2-0.2,0.3
				c0,0,0.2,0,0.4,0c0.4,0,1.1,0,1.6,0c0.5,0.3,1,0.3,1,0.3c0.4,0,1,0,2,0.1c1-0.3,2.5-0.3,4.4-0.3c1.3,0,1.6,0,1.8-0.4
				c0.2-0.4,0.4-2.3,0.4-2.5c0-0.2,0-0.4-0.2-0.4s-0.2,0.1-0.3,0.4c-0.2,1.1-0.5,1.6-1.4,2c-0.8,0.3-1.9,0.3-2.6,0.3
				c-2.5,0-3-0.4-3-2.3c0-0.6,0-3.9,0-4.8v-2.4c0-0.1,0-0.2,0.2-0.2c0.4,0,3.1,0,3.8,0.1c1,0.1,1.2,0.5,1.3,0.9
				c0.1,0.4,0.1,0.7,0.1,0.9c0,0.2,0.1,0.3,0.3,0.3c0.3,0,0.4-0.3,0.4-0.5c0-0.2,0.1-1.3,0.1-1.8c0.1-0.5,0.2-1,0.2-1.2
				c0-0.2-0.1-0.2-0.2-0.2s-0.2,0.2-0.5,0.4c-0.4,0.3-0.8,0.3-1.4,0.4c-0.6,0.1-3.9,0.1-4.2,0.1c-0.1,0-0.1-0.1-0.1-0.3v-7.6
				c0-0.2,0-0.3,0.1-0.3c0.3,0,3.2,0,3.6,0.1c1.4,0.2,1.7,0.4,1.9,0.8c0.2,0.3,0.2,0.8,0.2,1c0,0.2,0.1,0.4,0.3,0.4
				c0.1,0,0.2-0.2,0.3-0.3c0.1,0.1,0.1-1.1,0.2-1.4c0.1-0.7,0.2-1.1,0.2-1.2c0-0.1,0-0.2-0.1-0.2c-0.1,0-0.3,0.1-0.4,0.1
				c-0.2-0.1-0.9,0-1.4,0.1c-0.6,0-5.8,0-6,0c-0.1,0-1.8-0.1-3-0.1c-0.3,0-0.4,0.1-0.4,0.2c0,0.1,0.1,0.1,0.2,0.1
				c0.3,0.1,0.7,0.2,0.9,0.2c0.9,0.1,1.1,0.6,1.1,1.5c0.1,0.8,0.1,1.6,0.1,5.7V152.6z"/>
			<path class="st2" d="M332.7,160.3c1.5,0,3.2-0.1,4.3-0.6c2-1.2,2.6-2.9,2.6-4.4c0-2.3-1.2-4.1-4.5-6.3l-0.8-0.5
				c-3-1.8-3.9-2.8-3.9-4.4c0-1.8,1.7-2.8,3.8-2.8c2.6,0,3.5,1,3.7,1.3c0.2,0.3,0.4,1,0.4,1.3c0,0.2,0.1,0.3,0.3,0.3
				c0.2-0.2,0.2-0.4,0.2-0.8c0-1.8,0.1-2.7,0.1-2.8c0-0.2-0.1-0.2-0.3-0.2s-0.4,0-1-0.1c-0.7,0.5-1.8,0.4-3,0.4
				c-3.8,0-6.3,1.5-6.3,4.6c0,1.8,1,3.4,4.1,5.6l1.3,0.9c2.6,1.8,3.6,2.7,3.6,4.6c0,2-1.5,3.5-4.3,3.5c-1.6,0-3.6-0.7-4-2.6
				c-0.1-0.4-0.1-0.7-0.1-1c0-0.2-0.1-0.3-0.3-0.3c-0.2,0-0.2,0.2-0.2,0.4c0,0.4-0.2,1.5-0.2,2.8c0,0.7,0,0.7,0.4,0.9
				C329.9,160.2,331.5,160.3,332.7,160.3z"/>
		</g>
	</g>
	<g>
		<path class="st3" d="M159.6,126.5c0,0,11.1-3.6,124.3-4.9c113.2-1.3,141.4,5.2,124.3,5.6c-1.5,0-3.2,0.1-4.9,0.1
			c-18.2,0.2-47.9-0.4-48.3,0.6c-0.5,1.1,10.6,2.5,5.3,2.8c-5.3,0.3-17.8,0.7-17.8,0.7s9.9-1.2,5.3-2.1c-4.6-0.9-46.6-3.5-58.6-2.8
			c0,0,102.2,0,74.6-2.1c-27.6-2.1-156.8-1.5-182.9,1.4C180.9,125.8,165.7,127.5,159.6,126.5z"/>
		<path class="st3" d="M195.1,129.3c-1.6,0.3,40.1-4.6,60.4-4.2c0,0-14.7,1.5-12.4,1.4c2.3-0.1,36.3,1.6,35.5,1.4
			C277.8,127.7,211,126.5,195.1,129.3z"/>
		<path class="st3" d="M234.5,128.7c-0.7,0.3,18.5-4.7,27.9-4.2c0,0-6.8,1.5-5.7,1.4c1.1-0.1,16.8,1.6,16.4,1.4
			C272.6,127.1,241.8,125.8,234.5,128.7z"/>
		<polygon class="st4" points="284.5,125.8 285.3,125.8 393.2,125.8 400.9,123.5 400.9,120.9 392.4,120.9 387.4,105.3 362.8,105.3 
			361.9,99.1 362,99.1 359.4,88.9 362.2,84.6 366.5,84.6 364.8,81.8 347.1,81.8 342.6,65.8 340.9,65.8 342.3,73.2 335.2,73.2 
			336.2,74 342.6,74.9 341.4,87.2 313,87.2 309,92.9 297.3,92.9 292.7,82.6 290.5,82.6 290.5,78.1 289,78.1 289,82.6 285.3,82.6 
			284.5,82.6 280.8,82.6 280.8,78.1 279.4,78.1 279.4,82.6 277.1,82.6 272.5,92.9 260.9,92.9 256.9,88.9 228.4,88.9 227.3,74.9 
			233.7,74 234.7,73.2 227.6,73.2 229,65.8 227.3,65.8 222.7,81.8 205.1,81.8 203.4,84.6 207.6,84.6 210.5,88.9 207.3,101.2 
			207.2,101.2 206.5,105.3 182.4,105.3 177.5,120.9 168.9,120.9 168.9,123.5 176.6,125.8 		"/>
		<path class="st5" d="M339.1,98.4h1.8c0.6,0,1,0.6,1,1.4v0.3c0,0.8-0.5,1.4-1,1.4h-1.8c-0.6,0-1-0.6-1-1.4v-0.3
			C338.1,99.1,338.5,98.4,339.1,98.4z"/>
		<path class="st5" d="M353.7,98.4h1.4c0.4,0,0.8,0.6,0.8,1.4v0.3c0,0.8-0.3,1.4-0.8,1.4h-1.4c-0.4,0-0.8-0.6-0.8-1.4v-0.3
			C352.9,99.1,353.2,98.4,353.7,98.4z"/>
		<path class="st5" d="M333.7,98.4h1.8c0.6,0,1,0.6,1,1.4v0.3c0,0.8-0.5,1.4-1,1.4h-1.8c-0.6,0-1-0.6-1-1.4v-0.3
			C332.6,99.1,333.1,98.4,333.7,98.4z"/>
		<path class="st5" d="M349.5,98.4h1.4c0.4,0,0.8,0.6,0.8,1.4v0.3c0,0.8-0.3,1.4-0.8,1.4h-1.4c-0.4,0-0.8-0.6-0.8-1.4v-0.3
			C348.7,99.1,349.1,98.4,349.5,98.4z"/>
		<path class="st5" d="M328.5,98.4h1.8c0.6,0,1,0.6,1,1.4v0.3c0,0.8-0.5,1.4-1,1.4h-1.8c-0.6,0-1-0.6-1-1.4v-0.3
			C327.5,99.1,328,98.4,328.5,98.4z"/>
		<path class="st5" d="M323.1,98.4h1.8c0.6,0,1,0.6,1,1.4v0.3c0,0.8-0.4,1.4-1,1.4h-1.8c-0.6,0-1-0.6-1-1.4v-0.3
			C322.1,99.1,322.5,98.4,323.1,98.4z"/>
		<path class="st5" d="M317.7,98.4h1.8c0.6,0,1,0.6,1,1.4v0.3c0,0.8-0.5,1.4-1,1.4h-1.8c-0.6,0-1-0.6-1-1.4v-0.3
			C316.7,99.1,317.1,98.4,317.7,98.4z"/>
		<path class="st5" d="M312.5,98.4h1.8c0.6,0,1,0.6,1,1.4v0.3c0,0.8-0.5,1.4-1,1.4h-1.8c-0.6,0-1-0.6-1-1.4v-0.3
			C311.5,99.1,312,98.4,312.5,98.4z"/>
		<path class="st5" d="M296.6,98.4h1.8c0.6,0,1,0.6,1,1.4v0.3c0,0.8-0.5,1.4-1,1.4h-1.8c-0.6,0-1-0.6-1-1.4v-0.3
			C295.6,99.1,296,98.4,296.6,98.4z"/>
		<path class="st5" d="M307.1,98.4h1.8c0.6,0,1,0.6,1,1.4v0.3c0,0.8-0.4,1.4-1,1.4h-1.8c-0.6,0-1-0.6-1-1.4v-0.3
			C306.1,99.1,306.6,98.4,307.1,98.4z"/>
		<path class="st5" d="M291.2,98.4h1.8c0.6,0,1,0.6,1,1.4v0.3c0,0.8-0.5,1.4-1,1.4h-1.8c-0.6,0-1-0.6-1-1.4v-0.3
			C290.1,99.1,290.6,98.4,291.2,98.4z"/>
		<path class="st5" d="M301.7,98.4h1.8c0.6,0,1,0.6,1,1.4v0.3c0,0.8-0.5,1.4-1,1.4h-1.8c-0.6,0-1-0.6-1-1.4v-0.3
			C300.7,99.1,301.2,98.4,301.7,98.4z"/>
		<path class="st5" d="M286,98.4h1.8c0.6,0,1,0.6,1,1.4v0.3c0,0.8-0.4,1.4-1,1.4H286c-0.6,0-1-0.6-1-1.4v-0.3
			C285,99.1,285.4,98.4,286,98.4z"/>
		<path class="st5" d="M339.1,115.6h1.8c0.6,0,1,0.6,1,1.4v0.3c0,0.8-0.5,1.4-1,1.4h-1.8c-0.6,0-1-0.6-1-1.4V117
			C338.1,116.2,338.5,115.6,339.1,115.6z"/>
		<path class="st5" d="M350.7,115.6h1.8c0.6,0,1,0.6,1,1.4v0.3c0,0.8-0.5,1.4-1,1.4h-1.8c-0.6,0-1-0.6-1-1.4V117
			C349.7,116.2,350.2,115.6,350.7,115.6z"/>
		<path class="st5" d="M333.7,115.6h1.8c0.6,0,1,0.6,1,1.4v0.3c0,0.8-0.5,1.4-1,1.4h-1.8c-0.6,0-1-0.6-1-1.4V117
			C332.6,116.2,333.1,115.6,333.7,115.6z"/>
		<path class="st5" d="M345.3,115.6h1.8c0.6,0,1,0.6,1,1.4v0.3c0,0.8-0.5,1.4-1,1.4h-1.8c-0.6,0-1-0.6-1-1.4V117
			C344.3,116.2,344.8,115.6,345.3,115.6z"/>
		<path class="st5" d="M328.5,115.6h1.8c0.6,0,1,0.6,1,1.4v0.3c0,0.8-0.5,1.4-1,1.4h-1.8c-0.6,0-1-0.6-1-1.4V117
			C327.5,116.2,328,115.6,328.5,115.6z"/>
		<path class="st5" d="M323.1,115.6h1.8c0.6,0,1,0.6,1,1.4v0.3c0,0.8-0.4,1.4-1,1.4h-1.8c-0.6,0-1-0.6-1-1.4V117
			C322.1,116.2,322.5,115.6,323.1,115.6z"/>
		<path class="st5" d="M317.7,115.6h1.8c0.6,0,1,0.6,1,1.4v0.3c0,0.8-0.5,1.4-1,1.4h-1.8c-0.6,0-1-0.6-1-1.4V117
			C316.7,116.2,317.1,115.6,317.7,115.6z"/>
		<path class="st5" d="M312.5,115.6h1.8c0.6,0,1,0.6,1,1.4v0.3c0,0.8-0.5,1.4-1,1.4h-1.8c-0.6,0-1-0.6-1-1.4V117
			C311.5,116.2,312,115.6,312.5,115.6z"/>
		<path class="st5" d="M296.6,115.6h1.8c0.6,0,1,0.6,1,1.4v0.3c0,0.8-0.5,1.4-1,1.4h-1.8c-0.6,0-1-0.6-1-1.4V117
			C295.6,116.2,296,115.6,296.6,115.6z"/>
		<path class="st5" d="M307.1,115.6h1.8c0.6,0,1,0.6,1,1.4v0.3c0,0.8-0.4,1.4-1,1.4h-1.8c-0.6,0-1-0.6-1-1.4V117
			C306.1,116.2,306.6,115.6,307.1,115.6z"/>
		<path class="st5" d="M291.2,115.6h1.8c0.6,0,1,0.6,1,1.4v0.3c0,0.8-0.5,1.4-1,1.4h-1.8c-0.6,0-1-0.6-1-1.4V117
			C290.1,116.2,290.6,115.6,291.2,115.6z"/>
		<path class="st5" d="M301.7,115.6h1.8c0.6,0,1,0.6,1,1.4v0.3c0,0.8-0.5,1.4-1,1.4h-1.8c-0.6,0-1-0.6-1-1.4V117
			C300.7,116.2,301.2,115.6,301.7,115.6z"/>
		<path class="st5" d="M286,115.6h1.8c0.6,0,1,0.6,1,1.4v0.3c0,0.8-0.4,1.4-1,1.4H286c-0.6,0-1-0.6-1-1.4V117
			C285,116.2,285.4,115.6,286,115.6z"/>
		<path class="st5" d="M350.5,107h1.8c0.6,0,1,0.6,1,1.4v0.3c0,0.8-0.5,1.4-1,1.4h-1.8c-0.6,0-1-0.6-1-1.4v-0.3
			C349.4,107.6,349.9,107,350.5,107z"/>
		<path class="st5" d="M345,107h1.8c0.6,0,1,0.6,1,1.4v0.3c0,0.8-0.5,1.4-1,1.4H345c-0.6,0-1-0.6-1-1.4v-0.3
			C344,107.6,344.5,107,345,107z"/>
		<path class="st5" d="M339.9,107h1.8c0.6,0,1,0.6,1,1.4v0.3c0,0.8-0.4,1.4-1,1.4h-1.8c-0.6,0-1-0.6-1-1.4v-0.3
			C338.9,107.6,339.3,107,339.9,107z"/>
		<path class="st5" d="M334.5,107h1.8c0.6,0,1,0.6,1,1.4v0.3c0,0.8-0.5,1.4-1,1.4h-1.8c-0.6,0-1-0.6-1-1.4v-0.3
			C333.5,107.6,333.9,107,334.5,107z"/>
		<path class="st5" d="M329.1,107h1.8c0.6,0,1,0.6,1,1.4v0.3c0,0.8-0.5,1.4-1,1.4h-1.8c-0.6,0-1-0.6-1-1.4v-0.3
			C328.1,107.6,328.5,107,329.1,107z"/>
		<path class="st5" d="M323.9,107h1.8c0.6,0,1,0.6,1,1.4v0.3c0,0.8-0.5,1.4-1,1.4h-1.8c-0.6,0-1-0.6-1-1.4v-0.3
			C322.9,107.6,323.4,107,323.9,107z"/>
		<path class="st5" d="M308,107h1.8c0.6,0,1,0.6,1,1.4v0.3c0,0.8-0.5,1.4-1,1.4H308c-0.6,0-1-0.6-1-1.4v-0.3
			C306.9,107.6,307.4,107,308,107z"/>
		<path class="st5" d="M318.5,107h1.8c0.6,0,1,0.6,1,1.4v0.3c0,0.8-0.5,1.4-1,1.4h-1.8c-0.6,0-1-0.6-1-1.4v-0.3
			C317.5,107.6,318,107,318.5,107z"/>
		<path class="st5" d="M291.2,107h1.8c0.6,0,1,0.6,1,1.4v0.3c0,0.8-0.5,1.4-1,1.4h-1.8c-0.6,0-1-0.6-1-1.4v-0.3
			C290.1,107.6,290.6,107,291.2,107z"/>
		<path class="st5" d="M313.1,107h1.8c0.6,0,1,0.6,1,1.4v0.3c0,0.8-0.5,1.4-1,1.4h-1.8c-0.6,0-1-0.6-1-1.4v-0.3
			C312.1,107.6,312.5,107,313.1,107z"/>
		<path class="st5" d="M286,107h1.8c0.6,0,1,0.6,1,1.4v0.3c0,0.8-0.4,1.4-1,1.4H286c-0.6,0-1-0.6-1-1.4v-0.3
			C285,107.6,285.4,107,286,107z"/>
		<polygon class="st5" points="348,84.9 346.7,87.2 356.9,87.2 358.7,84.9 		"/>
		<polygon class="st4" points="349.4,84.9 348,87.2 348.8,87.2 350,84.7 		"/>
		<polygon class="st4" points="355.6,84.9 354.2,87.2 354.9,87.2 356.2,84.7 		"/>
		<polygon class="st4" points="352.4,84.9 351,87.2 351.7,87.2 353,84.7 		"/>
		<path class="st3" d="M355.5,121v0.9h-5.1v-1h-65.2c0,0-0.3,1.4,0,1.4h112h3.6l0.2-1.4L355.5,121z"/>
		<path class="st5" d="M230.9,115.6h-1.8c-0.6,0-1,0.6-1,1.4v0.3c0,0.8,0.5,1.4,1,1.4h1.8c0.6,0,1-0.6,1-1.4V117
			C231.9,116.2,231.5,115.6,230.9,115.6z"/>
		<path class="st5" d="M219.2,115.6h-1.8c-0.6,0-1,0.6-1,1.4v0.3c0,0.8,0.5,1.4,1,1.4h1.8c0.6,0,1-0.6,1-1.4V117
			C220.2,116.2,219.8,115.6,219.2,115.6z"/>
		<path class="st5" d="M236.3,115.6h-1.8c-0.6,0-1,0.6-1,1.4v0.3c0,0.8,0.5,1.4,1,1.4h1.8c0.6,0,1-0.6,1-1.4V117
			C237.3,116.2,236.9,115.6,236.3,115.6z"/>
		<path class="st5" d="M224.6,115.6h-1.8c-0.6,0-1,0.6-1,1.4v0.3c0,0.8,0.4,1.4,1,1.4h1.8c0.6,0,1-0.6,1-1.4V117
			C225.7,116.2,225.2,115.6,224.6,115.6z"/>
		<path class="st5" d="M241.5,115.6h-1.8c-0.6,0-1,0.6-1,1.4v0.3c0,0.8,0.4,1.4,1,1.4h1.8c0.6,0,1-0.6,1-1.4V117
			C242.5,116.2,242,115.6,241.5,115.6z"/>
		<path class="st5" d="M246.9,115.6H245c-0.6,0-1,0.6-1,1.4v0.3c0,0.8,0.5,1.4,1,1.4h1.8c0.6,0,1-0.6,1-1.4V117
			C247.9,116.2,247.4,115.6,246.9,115.6z"/>
		<path class="st5" d="M252.3,115.6h-1.8c-0.6,0-1,0.6-1,1.4v0.3c0,0.8,0.5,1.4,1,1.4h1.8c0.6,0,1-0.6,1-1.4V117
			C253.3,116.2,252.8,115.6,252.3,115.6z"/>
		<path class="st5" d="M257.4,115.6h-1.8c-0.6,0-1,0.6-1,1.4v0.3c0,0.8,0.5,1.4,1,1.4h1.8c0.6,0,1-0.6,1-1.4V117
			C258.5,116.2,258,115.6,257.4,115.6z"/>
		<path class="st5" d="M273.4,115.6h-1.8c-0.6,0-1,0.6-1,1.4v0.3c0,0.8,0.5,1.4,1,1.4h1.8c0.6,0,1-0.6,1-1.4V117
			C274.4,116.2,274,115.6,273.4,115.6z"/>
		<path class="st5" d="M262.9,115.6H261c-0.6,0-1,0.6-1,1.4v0.3c0,0.8,0.5,1.4,1,1.4h1.8c0.6,0,1-0.6,1-1.4V117
			C263.9,116.2,263.4,115.6,262.9,115.6z"/>
		<path class="st5" d="M278.8,115.6H277c-0.6,0-1,0.6-1,1.4v0.3c0,0.8,0.4,1.4,1,1.4h1.8c0.6,0,1-0.6,1-1.4V117
			C279.8,116.2,279.4,115.6,278.8,115.6z"/>
		<path class="st5" d="M268.3,115.6h-1.8c-0.6,0-1,0.6-1,1.4v0.3c0,0.8,0.5,1.4,1,1.4h1.8c0.6,0,1-0.6,1-1.4V117
			C269.3,116.2,268.8,115.6,268.3,115.6z"/>
		<path class="st5" d="M219.5,107h-1.8c-0.6,0-1,0.6-1,1.4v0.3c0,0.8,0.5,1.4,1,1.4h1.8c0.6,0,1-0.6,1-1.4v-0.3
			C220.5,107.6,220.1,107,219.5,107z"/>
		<path class="st5" d="M224.9,107h-1.8c-0.6,0-1,0.6-1,1.4v0.3c0,0.8,0.4,1.4,1,1.4h1.8c0.6,0,1-0.6,1-1.4v-0.3
			C225.9,107.6,225.5,107,224.9,107z"/>
		<path class="st5" d="M230.1,107h-1.8c-0.6,0-1,0.6-1,1.4v0.3c0,0.8,0.5,1.4,1,1.4h1.8c0.6,0,1-0.6,1-1.4v-0.3
			C231.1,107.6,230.6,107,230.1,107z"/>
		<path class="st5" d="M235.5,107h-1.8c-0.6,0-1,0.6-1,1.4v0.3c0,0.8,0.5,1.4,1,1.4h1.8c0.6,0,1-0.6,1-1.4v-0.3
			C236.5,107.6,236,107,235.5,107z"/>
		<path class="st5" d="M240.9,107h-1.8c-0.6,0-1,0.6-1,1.4v0.3c0,0.8,0.5,1.4,1,1.4h1.8c0.6,0,1-0.6,1-1.4v-0.3
			C241.9,107.6,241.5,107,240.9,107z"/>
		<path class="st5" d="M246.1,107h-1.8c-0.6,0-1,0.6-1,1.4v0.3c0,0.8,0.4,1.4,1,1.4h1.8c0.6,0,1-0.6,1-1.4v-0.3
			C247.1,107.6,246.6,107,246.1,107z"/>
		<path class="st5" d="M262,107h-1.8c-0.6,0-1,0.6-1,1.4v0.3c0,0.8,0.4,1.4,1,1.4h1.8c0.6,0,1-0.6,1-1.4v-0.3
			C263,107.6,262.6,107,262,107z"/>
		<path class="st5" d="M251.5,107h-1.8c-0.6,0-1,0.6-1,1.4v0.3c0,0.8,0.5,1.4,1,1.4h1.8c0.6,0,1-0.6,1-1.4v-0.3
			C252.5,107.6,252,107,251.5,107z"/>
		<path class="st5" d="M278.8,107H277c-0.6,0-1,0.6-1,1.4v0.3c0,0.8,0.4,1.4,1,1.4h1.8c0.6,0,1-0.6,1-1.4v-0.3
			C279.8,107.6,279.4,107,278.8,107z"/>
		<path class="st5" d="M256.9,107H255c-0.6,0-1,0.6-1,1.4v0.3c0,0.8,0.5,1.4,1,1.4h1.8c0.6,0,1-0.6,1-1.4v-0.3
			C257.9,107.6,257.4,107,256.9,107z"/>
		<polygon class="st5" points="220.6,84.9 222,87.2 211.8,87.2 209.9,84.9 		"/>
		<polygon class="st4" points="219.3,84.9 220.6,87.2 219.9,87.2 218.7,84.7 		"/>
		<polygon class="st4" points="213.1,84.9 214.5,87.2 213.8,87.2 212.5,84.7 		"/>
		<polygon class="st4" points="216.3,84.9 217.7,87.2 217,87.2 215.7,84.7 		"/>
		<path class="st3" d="M214.6,121v0.9h5.1v-1h65.2c0,0,0.3,1.4,0,1.4H169.3l-0.1-1.4L214.6,121z"/>
		<polygon class="st3" points="274.9,88 295.3,88 297,93 272.8,93 		"/>
		<polyline class="st3" points="222.8,83.4 204.2,83.4 205.3,81.5 222.8,81.7 		"/>
		<polyline class="st3" points="347.1,83.4 365.7,83.4 364.5,81.5 347.1,81.7 		"/>
		<line class="st6" x1="360.2" y1="92.7" x2="361.1" y2="92.2"/>
		<polygon class="st4" points="376.5,83.9 376.5,84.4 360.8,93.9 360.3,93.5 		"/>
		<polygon class="st4" points="368.2,89.1 368.3,89.6 355.6,103.1 355.1,102.8 		"/>
		<polygon class="st4" points="193.6,83.9 193.6,84.4 209.4,93.9 209.9,93.4 		"/>
		<polygon class="st4" points="202,89.1 201.9,89.6 214.6,103 215.2,102.7 		"/>
		<rect x="231.3" y="90.6" class="st5" width="1.4" height="2.4"/>
		<rect x="241.3" y="90.6" class="st5" width="1.4" height="2.4"/>
		<rect x="251.3" y="90.6" class="st5" width="1.4" height="2.4"/>
		<g>
			<g>
				<polygon class="st4" points="182.8,103 183.1,103 182,106.8 181.7,106.8 				"/>
				<polygon class="st4" points="184,103 184.3,103 183.1,106.8 182.8,106.8 				"/>
				<polygon class="st4" points="185.1,103 185.4,103 184.3,106.8 184,106.8 				"/>
				<polygon class="st4" points="186.2,103 186.5,103 185.4,106.8 185.1,106.8 				"/>
			</g>
			<g>
				<polygon class="st4" points="187.4,103 187.7,103 186.5,106.8 186.2,106.8 				"/>
				<polygon class="st4" points="188.5,103 188.8,103 187.7,106.8 187.4,106.8 				"/>
				<polygon class="st4" points="189.6,103 189.9,103 188.8,106.8 188.5,106.8 				"/>
				<polygon class="st4" points="190.8,103 191.1,103 189.9,106.8 189.6,106.8 				"/>
			</g>
			<g>
				<polygon class="st4" points="191.9,103 192.2,103 191.1,106.8 190.8,106.8 				"/>
				<polygon class="st4" points="193,103 193.3,103 192.2,106.8 191.9,106.8 				"/>
				<polygon class="st4" points="194.2,103 194.4,103 193.3,106.8 193,106.8 				"/>
				<polygon class="st4" points="195.3,103 195.6,103 194.4,106.8 194.2,106.8 				"/>
			</g>
			<g>
				<polygon class="st4" points="196.4,103 196.7,103 195.6,106.8 195.3,106.8 				"/>
				<polygon class="st4" points="197.6,103 197.8,103 196.7,106.8 196.4,106.8 				"/>
				<polygon class="st4" points="198.7,103 199,103 197.8,106.8 197.6,106.8 				"/>
				<polygon class="st4" points="199.8,103 200.1,103 199,106.8 198.7,106.8 				"/>
			</g>
		</g>
		<line class="st7" x1="183" y1="103.1" x2="200.4" y2="103.1"/>
		<g>
			<g>
				<polygon class="st4" points="200.5,103 200.7,103 199.6,106.8 199.3,106.8 				"/>
				<polygon class="st4" points="201.6,103 201.9,103 200.7,106.8 200.5,106.8 				"/>
				<polygon class="st4" points="202.7,103 203,103 201.9,106.8 201.6,106.8 				"/>
				<polygon class="st4" points="203.9,103 204.1,103 203,106.8 202.7,106.8 				"/>
			</g>
			<g>
				<polygon class="st4" points="205,103 205.3,103 204.1,106.8 203.9,106.8 				"/>
				<polygon class="st4" points="206.1,103 206.4,103 205.3,106.8 205,106.8 				"/>
				<polygon class="st4" points="207.3,103 207.5,103 206.4,106.8 206.1,106.8 				"/>
				<polygon class="st4" points="208.4,103 208.7,103 207.5,106.8 207.3,106.8 				"/>
			</g>
			<g>
				<polygon class="st4" points="209.5,103 209.8,103 208.7,106.8 208.4,106.8 				"/>
				<polygon class="st4" points="210.7,103 210.9,103 209.8,106.8 209.5,106.8 				"/>
				<polygon class="st4" points="211.8,103 212.1,103 210.9,106.8 210.7,106.8 				"/>
				<polygon class="st4" points="212.9,103 213.2,103 212.1,106.8 211.8,106.8 				"/>
			</g>
			<g>
				<polygon class="st4" points="214.1,103 214.3,103 213.2,106.8 212.9,106.8 				"/>
				<polygon class="st4" points="215.2,103 215.5,103 214.3,106.8 214.1,106.8 				"/>
				<polygon class="st4" points="216.3,103 216.6,103 215.5,106.8 215.2,106.8 				"/>
				<polygon class="st4" points="217.5,103 217.7,103 216.6,106.8 216.3,106.8 				"/>
			</g>
		</g>
		<line class="st7" x1="200.6" y1="103.1" x2="218" y2="103.1"/>
		<g>
			<g>
				<polygon class="st4" points="294.3,91.1 294.6,91.1 293.5,94.9 293.2,94.9 				"/>
				<polygon class="st4" points="295.4,91.1 295.7,91.1 294.6,94.9 294.3,94.9 				"/>
				<polygon class="st4" points="296.6,91.1 296.9,91.1 295.7,94.9 295.4,94.9 				"/>
				<polygon class="st4" points="297.7,91.1 298,91.1 296.9,94.9 296.6,94.9 				"/>
			</g>
			<g>
				<polygon class="st4" points="298.8,91.1 299.1,91.1 298,94.9 297.7,94.9 				"/>
				<polygon class="st4" points="300,91.1 300.3,91.1 299.1,94.9 298.8,94.9 				"/>
				<polygon class="st4" points="301.1,91.1 301.4,91.1 300.3,94.9 300,94.9 				"/>
				<polygon class="st4" points="302.2,91.1 302.5,91.1 301.4,94.9 301.1,94.9 				"/>
			</g>
			<g>
				<polygon class="st4" points="303.4,91.1 303.7,91.1 302.5,94.9 302.2,94.9 				"/>
				<polygon class="st4" points="304.5,91.1 304.8,91.1 303.7,94.9 303.4,94.9 				"/>
				<polygon class="st4" points="305.6,91.1 305.9,91.1 304.8,94.9 304.5,94.9 				"/>
				<polygon class="st4" points="306.8,91.1 307.1,91.1 305.9,94.9 305.6,94.9 				"/>
			</g>
			<g>
				<polygon class="st4" points="307.9,91.1 308.2,91.1 307.1,94.9 306.8,94.9 				"/>
				<polygon class="st4" points="309,91.1 309.3,91.1 308.2,94.9 307.9,94.9 				"/>
				<polygon class="st4" points="310.2,91.1 310.5,91.1 309.3,94.9 309,94.9 				"/>
				<polygon class="st4" points="311.3,91.1 311.6,91.1 310.5,94.9 310.2,94.9 				"/>
			</g>
		</g>
		<line class="st7" x1="294.5" y1="91.2" x2="311.8" y2="91.2"/>
		<g>
			<g>
				<polygon class="st4" points="311.9,91.1 312.2,91.1 311.1,94.9 310.8,94.9 				"/>
				<polygon class="st4" points="313.1,91.1 313.4,91.1 312.2,94.9 311.9,94.9 				"/>
				<polygon class="st4" points="314.2,91.1 314.5,91.1 313.4,94.9 313.1,94.9 				"/>
				<polygon class="st4" points="315.3,91.1 315.6,91.1 314.5,94.9 314.2,94.9 				"/>
			</g>
			<g>
				<polygon class="st4" points="316.5,91.1 316.8,91.1 315.6,94.9 315.3,94.9 				"/>
				<polygon class="st4" points="317.6,91.1 317.9,91.1 316.8,94.9 316.5,94.9 				"/>
				<polygon class="st4" points="318.7,91.1 319,91.1 317.9,94.9 317.6,94.9 				"/>
				<polygon class="st4" points="319.9,91.1 320.2,91.1 319,94.9 318.7,94.9 				"/>
			</g>
			<g>
				<polygon class="st4" points="321,91.1 321.3,91.1 320.2,94.9 319.9,94.9 				"/>
				<polygon class="st4" points="322.1,91.1 322.4,91.1 321.3,94.9 321,94.9 				"/>
				<polygon class="st4" points="323.3,91.1 323.6,91.1 322.4,94.9 322.1,94.9 				"/>
				<polygon class="st4" points="324.4,91.1 324.7,91.1 323.6,94.9 323.3,94.9 				"/>
			</g>
			<g>
				<polygon class="st4" points="325.5,91.1 325.8,91.1 324.7,94.9 324.4,94.9 				"/>
				<polygon class="st4" points="326.7,91.1 327,91.1 325.8,94.9 325.5,94.9 				"/>
				<polygon class="st4" points="327.8,91.1 328.1,91.1 327,94.9 326.7,94.9 				"/>
				<polygon class="st4" points="328.9,91.1 329.2,91.1 328.1,94.9 327.8,94.9 				"/>
			</g>
		</g>
		<line class="st7" x1="312.1" y1="91.2" x2="329.5" y2="91.2"/>
		<g>
			<g>
				<polygon class="st4" points="386.9,103 386.6,103 387.7,106.8 388,106.8 				"/>
				<polygon class="st4" points="385.7,103 385.4,103 386.6,106.8 386.9,106.8 				"/>
				<polygon class="st4" points="384.6,103 384.3,103 385.4,106.8 385.7,106.8 				"/>
				<polygon class="st4" points="383.5,103 383.2,103 384.3,106.8 384.6,106.8 				"/>
			</g>
			<g>
				<polygon class="st4" points="382.3,103 382,103 383.2,106.8 383.5,106.8 				"/>
				<polygon class="st4" points="381.2,103 380.9,103 382,106.8 382.3,106.8 				"/>
				<polygon class="st4" points="380.1,103 379.8,103 380.9,106.8 381.2,106.8 				"/>
				<polygon class="st4" points="378.9,103 378.6,103 379.8,106.8 380.1,106.8 				"/>
			</g>
			<g>
				<polygon class="st4" points="377.8,103 377.5,103 378.6,106.8 378.9,106.8 				"/>
				<polygon class="st4" points="376.7,103 376.4,103 377.5,106.8 377.8,106.8 				"/>
				<polygon class="st4" points="375.5,103 375.2,103 376.4,106.8 376.7,106.8 				"/>
				<polygon class="st4" points="374.4,103 374.1,103 375.2,106.8 375.5,106.8 				"/>
			</g>
			<g>
				<polygon class="st4" points="373.3,103 373,103 374.1,106.8 374.4,106.8 				"/>
				<polygon class="st4" points="372.1,103 371.8,103 373,106.8 373.3,106.8 				"/>
				<polygon class="st4" points="371,103 370.7,103 371.8,106.8 372.1,106.8 				"/>
				<polygon class="st4" points="369.9,103 369.6,103 370.7,106.8 371,106.8 				"/>
			</g>
		</g>
		<line class="st7" x1="386.8" y1="103.1" x2="369.5" y2="103.1"/>
		<g>
			<g>
				<polygon class="st4" points="369.2,103 368.9,103 370.1,106.8 370.4,106.8 				"/>
				<polygon class="st4" points="368.1,103 367.8,103 368.9,106.8 369.2,106.8 				"/>
				<polygon class="st4" points="367,103 366.7,103 367.8,106.8 368.1,106.8 				"/>
				<polygon class="st4" points="365.8,103 365.5,103 366.7,106.8 367,106.8 				"/>
			</g>
			<g>
				<polygon class="st4" points="364.7,103 364.4,103 365.5,106.8 365.8,106.8 				"/>
				<polygon class="st4" points="363.6,103 363.3,103 364.4,106.8 364.7,106.8 				"/>
				<polygon class="st4" points="362.4,103 362.1,103 363.3,106.8 363.6,106.8 				"/>
				<polygon class="st4" points="361.3,103 361,103 362.1,106.8 362.4,106.8 				"/>
			</g>
			<g>
				<polygon class="st4" points="360.2,103 359.9,103 361,106.8 361.3,106.8 				"/>
				<polygon class="st4" points="359,103 358.7,103 359.9,106.8 360.2,106.8 				"/>
				<polygon class="st4" points="357.9,103 357.6,103 358.7,106.8 359,106.8 				"/>
				<polygon class="st4" points="356.8,103 356.5,103 357.6,106.8 357.9,106.8 				"/>
			</g>
			<g>
				<polygon class="st4" points="355.6,103 355.3,103 356.5,106.8 356.8,106.8 				"/>
				<polygon class="st4" points="354.5,103 354.2,103 355.3,106.8 355.6,106.8 				"/>
				<polygon class="st4" points="353.4,103 353.1,103 354.2,106.8 354.5,106.8 				"/>
				<polygon class="st4" points="352.2,103 351.9,103 353.1,106.8 353.4,106.8 				"/>
			</g>
		</g>
		<line class="st7" x1="369.2" y1="103.1" x2="351.8" y2="103.1"/>
		<rect x="316" y="90.6" class="st5" width="1.4" height="2.4"/>
		<rect x="326.1" y="90.6" class="st5" width="1.4" height="2.4"/>
		<rect x="336.1" y="90.6" class="st5" width="1.4" height="2.4"/>
		<path class="st8" d="M182.6,106h24.3l-23,1.3h19.3l-19.9,1.2h17.4c-0.4,0-17.4,1.3-17.4,1.3h14.9l-14.9,1.2h13.1l-13.7,1.2h11.2
			l-11.2,1.9h8.1l-8.1,1.3h6.2l-6.8,1.2h5l-5.6,1.9h3.7l-3.7,1.2h2.5l-3.1,1l-2.7-0.2L182.6,106z"/>
		<path class="st8" d="M272.4,93.1l4.6-10.2l14.7,0l-13.4,1.2h11.5l-12.1,1.2l10.2,0c-0.4,0-10.2,1.3-10.2,1.3h7.8l-7.8,1.3l5,0.1
			l-5.6,1.2l3.4,0.4L277,91l2.2,0l-2.2,1.2l1,0.1l0.9,0.7"/>
		<path class="st8" d="M207.3,102.7l3.5-13.9h19.3L212,90.7l15.3,0.1l-15.6,1.2l13.7,0.1c-0.3,0-13.9,1.4-13.9,1.4l12-0.1l-12.1,1.2
			l10.6,0.1l-10.9,1.2l8.9,0.1l-9,1.4l6.5,0.5l-6.7,1.1l5.2,0.2l-5.5,1.2l4,0.1l-4.6,1.5l3.1,0.4"/>
		<path class="st8" d="M387.3,106h-24.3l23,1.3h-19.3l19.9,1.2h-17.4c0.4,0,17.4,1.3,17.4,1.3h-14.9l14.9,1.2h-13.1l13.7,1.2h-11.2
			l11.2,1.9h-8.1l8.1,1.3h-6.2l6.8,1.2h-5l5.6,1.9h-3.7l3.7,1.2h-2.5l3.1,1l2.7-0.2L387.3,106z"/>
		<path class="st8" d="M362.6,102.7l-3.5-13.9h-19.3l18.2,1.8l-15.3,0.1l15.6,1.2L344.6,92c0.3,0,13.9,1.4,13.9,1.4l-12-0.1
			l12.1,1.2L348,94.5l10.9,1.2l-8.9,0.1l9,1.4l-6.6,0.5l6.7,1.1l-5.2,0.2l5.5,1.2l-4,0.1l4.6,1.5l-3.1,0.4"/>
		<path class="st5" d="M230.9,98.4h-1.8c-0.6,0-1,0.6-1,1.4v0.3c0,0.8,0.5,1.4,1,1.4h1.8c0.6,0,1-0.6,1-1.4v-0.3
			C231.9,99.1,231.5,98.4,230.9,98.4z"/>
		<path class="st5" d="M216.3,98.4h-1.4c-0.4,0-0.8,0.6-0.8,1.4v0.3c0,0.8,0.4,1.4,0.8,1.4h1.4c0.4,0,0.8-0.6,0.8-1.4v-0.3
			C217.1,99.1,216.7,98.4,216.3,98.4z"/>
		<path class="st5" d="M236.3,98.4h-1.8c-0.6,0-1,0.6-1,1.4v0.3c0,0.8,0.5,1.4,1,1.4h1.8c0.6,0,1-0.6,1-1.4v-0.3
			C237.3,99.1,236.9,98.4,236.3,98.4z"/>
		<path class="st5" d="M220.4,98.4H219c-0.4,0-0.8,0.6-0.8,1.4v0.3c0,0.8,0.3,1.4,0.8,1.4h1.4c0.4,0,0.8-0.6,0.8-1.4v-0.3
			C221.2,99.1,220.9,98.4,220.4,98.4z"/>
		<path class="st5" d="M241.5,98.4h-1.8c-0.6,0-1,0.6-1,1.4v0.3c0,0.8,0.4,1.4,1,1.4h1.8c0.6,0,1-0.6,1-1.4v-0.3
			C242.5,99.1,242,98.4,241.5,98.4z"/>
		<path class="st5" d="M246.9,98.4H245c-0.6,0-1,0.6-1,1.4v0.3c0,0.8,0.5,1.4,1,1.4h1.8c0.6,0,1-0.6,1-1.4v-0.3
			C247.9,99.1,247.4,98.4,246.9,98.4z"/>
		<path class="st5" d="M252.3,98.4h-1.8c-0.6,0-1,0.6-1,1.4v0.3c0,0.8,0.5,1.4,1,1.4h1.8c0.6,0,1-0.6,1-1.4v-0.3
			C253.3,99.1,252.8,98.4,252.3,98.4z"/>
		<path class="st5" d="M257.4,98.4h-1.8c-0.6,0-1,0.6-1,1.4v0.3c0,0.8,0.5,1.4,1,1.4h1.8c0.6,0,1-0.6,1-1.4v-0.3
			C258.5,99.1,258,98.4,257.4,98.4z"/>
		<path class="st5" d="M273.4,98.4h-1.8c-0.6,0-1,0.6-1,1.4v0.3c0,0.8,0.5,1.4,1,1.4h1.8c0.6,0,1-0.6,1-1.4v-0.3
			C274.4,99.1,274,98.4,273.4,98.4z"/>
		<path class="st5" d="M262.9,98.4H261c-0.6,0-1,0.6-1,1.4v0.3c0,0.8,0.5,1.4,1,1.4h1.8c0.6,0,1-0.6,1-1.4v-0.3
			C263.9,99.1,263.4,98.4,262.9,98.4z"/>
		<path class="st5" d="M278.8,98.4H277c-0.6,0-1,0.6-1,1.4v0.3c0,0.8,0.4,1.4,1,1.4h1.8c0.6,0,1-0.6,1-1.4v-0.3
			C279.8,99.1,279.4,98.4,278.8,98.4z"/>
		<path class="st5" d="M268.3,98.4h-1.8c-0.6,0-1,0.6-1,1.4v0.3c0,0.8,0.5,1.4,1,1.4h1.8c0.6,0,1-0.6,1-1.4v-0.3
			C269.3,99.1,268.8,98.4,268.3,98.4z"/>
		<g>
			<g>
				<polygon class="st4" points="259.1,91.1 259.3,91.1 258.2,94.9 257.9,94.9 				"/>
				<polygon class="st4" points="260.2,91.1 260.5,91.1 259.3,94.9 259.1,94.9 				"/>
				<polygon class="st4" points="261.3,91.1 261.6,91.1 260.5,94.9 260.2,94.9 				"/>
				<polygon class="st4" points="262.5,91.1 262.7,91.1 261.6,94.9 261.3,94.9 				"/>
			</g>
			<g>
				<polygon class="st4" points="263.6,91.1 263.9,91.1 262.7,94.9 262.5,94.9 				"/>
				<polygon class="st4" points="264.7,91.1 265,91.1 263.9,94.9 263.6,94.9 				"/>
				<polygon class="st4" points="265.9,91.1 266.1,91.1 265,94.9 264.7,94.9 				"/>
				<polygon class="st4" points="267,91.1 267.3,91.1 266.1,94.9 265.9,94.9 				"/>
			</g>
			<g>
				<polygon class="st4" points="268.1,91.1 268.4,91.1 267.3,94.9 267,94.9 				"/>
				<polygon class="st4" points="269.3,91.1 269.5,91.1 268.4,94.9 268.1,94.9 				"/>
				<polygon class="st4" points="270.4,91.1 270.7,91.1 269.5,94.9 269.3,94.9 				"/>
				<polygon class="st4" points="271.5,91.1 271.8,91.1 270.7,94.9 270.4,94.9 				"/>
			</g>
			<g>
				<polygon class="st4" points="272.7,91.1 272.9,91.1 271.8,94.9 271.5,94.9 				"/>
				<polygon class="st4" points="273.8,91.1 274.1,91.1 272.9,94.9 272.7,94.9 				"/>
				<polygon class="st4" points="274.9,91.1 275.2,91.1 274.1,94.9 273.8,94.9 				"/>
				<polygon class="st4" points="276.1,91.1 276.3,91.1 275.2,94.9 274.9,94.9 				"/>
			</g>
		</g>
		<line class="st7" x1="259.2" y1="91.2" x2="276.6" y2="91.2"/>
		<g>
			<g>
				<polygon class="st4" points="276.7,91.1 277,91.1 275.8,94.9 275.6,94.9 				"/>
				<polygon class="st4" points="277.8,91.1 278.1,91.1 277,94.9 276.7,94.9 				"/>
				<polygon class="st4" points="279,91.1 279.2,91.1 278.1,94.9 277.8,94.9 				"/>
				<polygon class="st4" points="280.1,91.1 280.4,91.1 279.2,94.9 279,94.9 				"/>
			</g>
			<g>
				<polygon class="st4" points="281.2,91.1 281.5,91.1 280.4,94.9 280.1,94.9 				"/>
				<polygon class="st4" points="282.4,91.1 282.6,91.1 281.5,94.9 281.2,94.9 				"/>
				<polygon class="st4" points="283.5,91.1 283.8,91.1 282.6,94.9 282.4,94.9 				"/>
				<polygon class="st4" points="284.6,91.1 284.9,91.1 283.8,94.9 283.5,94.9 				"/>
			</g>
			<g>
				<polygon class="st4" points="285.8,91.1 286,91.1 284.9,94.9 284.6,94.9 				"/>
				<polygon class="st4" points="286.9,91.1 287.2,91.1 286,94.9 285.8,94.9 				"/>
				<polygon class="st4" points="288,91.1 288.3,91.1 287.2,94.9 286.9,94.9 				"/>
				<polygon class="st4" points="289.1,91.1 289.4,91.1 288.3,94.9 288,94.9 				"/>
			</g>
			<g>
				<polygon class="st4" points="290.3,91.1 290.6,91.1 289.4,94.9 289.1,94.9 				"/>
				<polygon class="st4" points="291.4,91.1 291.7,91.1 290.6,94.9 290.3,94.9 				"/>
				<polygon class="st4" points="292.5,91.1 292.8,91.1 291.7,94.9 291.4,94.9 				"/>
				<polygon class="st4" points="293.7,91.1 294,91.1 292.8,94.9 292.5,94.9 				"/>
			</g>
		</g>
		<line class="st7" x1="276.8" y1="91.2" x2="294.2" y2="91.2"/>
		<polygon class="st8" points="227.5,74.6 227.5,74 233.7,73.6 234.4,73.6 		"/>
		<polygon class="st8" points="227.3,66 222.9,81.4 223.1,83.4 227.9,65.8 		"/>
		<polygon class="st8" points="342.4,74.6 342.4,74 336.2,73.6 335.6,73.6 		"/>
		<polygon class="st8" points="342.6,66 347,81.4 346.8,83.4 342,65.8 		"/>
	</g>
</g>
</svg>
