<?xml version="1.0" encoding="utf-8"?>
<!-- Generator: Adobe Illustrator 22.1.0, SVG Export Plug-In . SVG Version: 6.00 Build 0)  -->
<svg version="1.1" id="Capa_1" xmlns="http://www.w3.org/2000/svg" xmlns:xlink="http://www.w3.org/1999/xlink" x="0px" y="0px"
	 viewBox="0 0 595.3 209.9" style="enable-background:new 0 0 595.3 209.9;" xml:space="preserve">
<style type="text/css">
	.st0{fill:#D6C283;}
	.st1{fill-rule:evenodd;clip-rule:evenodd;fill:#1F1D1A;}
	.st2{fill-rule:evenodd;clip-rule:evenodd;fill:#CBB369;}
	.st3{clip-path:url(#SVGID_2_);}
	.st4{fill-rule:evenodd;clip-rule:evenodd;fill:#D6C283;}
	.st5{fill-rule:evenodd;clip-rule:evenodd;fill:#11171F;}
	.st6{fill-rule:evenodd;clip-rule:evenodd;fill:#FFFFFF;}
	
		.st7{fill-rule:evenodd;clip-rule:evenodd;fill:none;stroke:#FFFFFF;stroke-linecap:round;stroke-linejoin:round;stroke-miterlimit:10;}
	
		.st8{fill-rule:evenodd;clip-rule:evenodd;fill:none;stroke:#11171F;stroke-linecap:round;stroke-linejoin:round;stroke-miterlimit:10;}
	.st9{fill-rule:evenodd;clip-rule:evenodd;fill:#D3D3D4;}
</style>
<g>
	<path class="st0" d="M122.2,158.4c0.9,1.2,2,2.3,3.3,3.2c1.3,0.9,2.7,1.6,4.2,2.2c1.5,0.5,2.8,0.9,4.1,1c0.2,0.1,0.4,0.1,0.5,0
		c0.1-0.1,0-0.2-0.5-0.4c-1.2-0.2-2.4-0.7-3.8-1.6c-1.4-0.9-2.7-1.8-4-2.9s-2.3-2.2-3.1-3.2c-0.8-1-1.3-1.9-1.4-2.5
		c0-0.4,0-0.8,0.2-1.4c0.2-0.6,0.7-0.9,1.6-0.9c0.9-0.1,1.8,0.1,2.7,0.5c0.9,0.4,1.4,0.9,1.5,1.5c0.1,1.2,0,2.1-0.4,2.7
		s-0.4,0.8-0.3,0.8c0.4,0,0.7-0.5,1-1.3c0.3-0.8,0.4-1.6,0.4-2.3c-0.1-1.2-0.6-2-1.6-2.5c-1-0.5-2.1-0.7-3.4-0.6
		c-0.8,0.1-1.4,0.3-2,0.9c-0.5,0.5-0.8,1.4-0.7,2.6C120.8,155.7,121.3,157.1,122.2,158.4z"/>
	<path class="st0" d="M134.3,169c-1,0-2.2-0.2-3.4-0.7c-1.2-0.5-2.6-1-3.9-1.7c-1.4-0.7-2.8-1.4-4.3-2.2c-1.5-0.8-3-1.5-4.4-2.2
		c-1.5-0.6-2.9-1.2-4.4-1.6c-1.5-0.4-2.8-0.6-4.2-0.5c-0.5,0-1.1,0.1-1.7,0.3s-1.3,0.4-1.9,0.7c-0.6,0.3-1.3,0.7-1.9,1.1
		c-0.6,0.5-1.1,1-1.4,1.5c-0.1,0.2,0,0.4,0.1,0.4c0.1,0,0.3,0,0.6-0.2c1.4-1.9,3.6-2.9,6.4-3.1c1.3-0.1,2.8,0.3,4.7,1.2
		c1.9,0.9,3.9,1.9,6.1,3c2.2,1.1,4.6,2.1,7,3.1c2.4,0.9,4.8,1.3,7.1,1.2c0.2-0.1,0.2-0.3,0.2-0.4C134.7,169.1,134.5,169,134.3,169z"
		/>
	<path class="st0" d="M142.3,168.6c-1.8-0.1-3.7-0.5-5.4-1c-2.8-0.9-5.7-2.1-8.5-3.5c-2.3-1.2-4.7-2.5-7-3.9c-2.3-1.4-4.7-2.6-7-3.7
		c-2.4-1.1-4.8-2-7.3-2.7c-2.5-0.7-5.1-0.9-7.8-0.7c-3.4,0.2-5.9,1-7.4,2.2c-1.6,1.3-2.2,2.8-2.1,4.7c0.1,1,0.4,1.8,0.9,2.5
		c0.5,0.7,1.1,1.2,1.8,1.7c0.7,0.4,1.4,0.8,2.2,1c0.8,0.2,1.5,0.3,2.1,0.2c0.3,0,0.2-0.1-0.3-0.2c-0.5-0.2-1.1-0.4-1.8-0.9
		c-0.7-0.4-1.4-1-2.1-1.6c-0.7-0.7-1.1-1.5-1.2-2.6c0-0.5,0-1.2,0.2-1.9c0.2-0.7,0.5-1.4,1-2c0.5-0.6,1.1-1.1,2-1.6
		c0.8-0.5,1.8-0.7,3-0.8c2.6-0.2,5.2,0.1,7.6,0.8c2.5,0.7,4.9,1.6,7.4,2.8c2.4,1.2,4.9,2.5,7.3,3.9c2.5,1.4,5,2.7,7.7,3.9
		c2.7,1.3,5.5,2.3,8.4,3.2c2.5,0.7,5.1,1.1,8,1"/>
	<g>
		<path class="st1" d="M170.1,87.8c0,3.9,0,7.1-0.2,8.9c-0.2,1.2-0.4,2.1-1.2,2.2c-0.4,0.1-0.9,0.2-1.2,0.2c-0.2,0-0.3,0.1-0.3,0.3
			c0,0.3,0.2,0.4,0.7,0.4h8.9c0.5,0,0.7-0.1,0.7-0.4c0-0.1-0.1-0.3-0.4-0.3c-0.4,0-1.4-0.1-2-0.2c-1.3-0.2-1.6-1.1-1.7-2.2
			c-0.2-1.7-0.2-4.9-0.2-8.9v-3.5c0-0.3,0.1-0.4,0.3-0.4c0.7,0,5.6,0,6.7,0.1c1.4,0.2,2.1,0.9,2.3,1.5c0.2,0.5,0.2,1.1,0.3,1.5
			c0,0.2,0.1,0.4,0.3,0.4c0.4,0,0.4-0.4,0.4-0.8c0-0.3,0.1-1.9,0.2-2.7c0.1-1.3,0.3-2,0.3-2.2c0-0.2,0-0.3-0.2-0.3
			c-0.2,0-0.3,0.2-0.5,0.4c-0.4,0.5-1,0.6-2.1,0.7c-0.6,0-1.2,0-2,0l-5.7,0c-0.3,0-0.3-0.1-0.3-0.4V71.1c0-0.3,0.1-0.4,0.4-0.4
			l6.8,0.1c1.7,0,2.8,0.8,3.1,1.3c0.2,0.5,0.4,1.2,0.4,1.5c0,0.3,0.1,0.5,0.3,0.5s0.3-0.2,0.3-0.4c0.1-0.7,0.2-2.5,0.2-2.9
			c0.1-1.1,0.3-1.6,0.3-1.9c0-0.2-0.1-0.4-0.2-0.4c-0.2,0-0.3,0.2-0.6,0.2c-0.4,0.5-1.1,0.5-2,0.5c-1,0-9.8,0-10.6,0l-1.5,0
			c-0.9,0-2,0-2.9,0c-0.5,0-0.7,0.1-0.7,0.3c0,0.1,0.2,0.2,0.3,0.2c0.4,0.2,1.1,0.2,1.4,0.3c1.4,0.3,1.7,0.9,1.8,2.3
			c0.1,1.3,0.1,2.4,0.1,8.6V87.8z"/>
		<path class="st1" d="M195.4,89.5c0,3.4,0,6.2-0.2,7.6c-0.2,1-0.2,1.7-0.9,1.9c-0.3,0-0.8,0.1-1.1,0.1c-0.2,0-0.3,0.2-0.3,0.3
			c0,0.1,0.2,0.2,0.6,0.2c0.6,0,1.4,0,2.1-0.1c0.7,0.1,1.4,0.1,1.5,0.1c0.5,0,1.4,0,2.9,0.1c1.5-0.1,3.7,0,6.5,0
			c1.5,0,1.9,0,2.1-0.9c0.2-0.7,0.5-3.1,0.5-3.4s0-0.1-0.2-0.1s-0.3-0.3-0.4,0.1c-0.2,1.4-0.7,2-1.7,2.4c-1,0.4-2.8,0.4-3.8,0.4
			c-3.7,0-4.4-0.5-4.5-2.8c0-0.7,0-4.8,0-6v-2.9c0-0.1,0-0.2,0.3-0.2c0.6,0,4.6,0,5.7,0.2c1.4,0.2,1.8,0.6,1.9,1.1
			c0.2,0.5,0.2,0.8,0.2,1.1c0,0.2,0.1,0.3,0.3,0.3c0.3,0,0.4-0.4,0.4-0.7c0-0.2,0.1-1.6,0.2-2.3c0.1-1.1,0.3-1.7,0.3-1.9
			s-0.1-0.3-0.2-0.3c-0.1,0-0.3,0.2-0.6,0.4c-0.4,0.4-1,0.4-1.9,0.5c-0.9,0.1-5.8,0.1-6.2,0.1c-0.2,0-0.2-0.1-0.2-0.4v-8.9
			c0-0.2,0-0.4,0.2-0.4c0.4,0,4.8,0,5.4,0.1c2,0.2,2.4,0.5,2.7,1c0.2,0.4,0.2,0.9,0.2,1.2c0,0.3,0.1,0.4,0.3,0.4
			c0.2,0,0.3-0.2,0.3-0.3c0.1-0.7,0.2-2.3,0.2-2.6c0.1-1,0.3-1.4,0.3-1.6c0-0.2,0-0.3-0.2-0.3c-0.2,0-0.3,0.1-0.5,0.2
			c-0.3,0.5-1.1,0.6-1.8,0.6c-0.9,0-8.5,0-8.8,0c-0.2,0-2.4-0.1-4.1-0.1c-0.4,0-0.6,0.1-0.6,0.3c0,0.1,0.2,0.3,0.3,0.3
			c0.3,0.1,0.9,0.1,1.2,0.2c1.2,0.1,1.4,0.7,1.5,1.8c0.1,1,0.1,2,0.1,7V89.5z"/>
		<path class="st1" d="M222.9,75.9c0-0.2,0.1-0.3,0.3-0.4c0.4-0.1,1.6-0.2,2.7-0.2c4.1,0,6.5,2.3,6.5,6.4c0,2.5-1,4.2-2.3,5
			c-0.9,0.5-1.9,0.6-2.8,0.6c-1.7,0-3.6-0.2-4.2-0.5c-0.2-0.1-0.3-0.2-0.3-0.4V75.9z M219.9,89.7c0,3.3,0,6-0.2,7.4
			c-0.2,1-0.2,1.7-1,1.8c-0.3,0.1-0.8,0.2-1.1,0.2c-0.2,0-0.3,0.2-0.3,0.3c0,0.2,0.2,0.4,0.6,0.4h8.1c0.4,0,0.6-0.1,0.6-0.4
			c0-0.1,0-0.3-0.3-0.3c-0.4,0-1.2-0.1-1.7-0.2c-1.2-0.2-1.4-0.8-1.5-1.8c-0.2-1.4-0.2-4.1-0.2-7.4v-0.8c0-0.2,0.1-0.3,0.3-0.3
			l4.8,0.1c0.2,0,0.3,0,0.5,0.2c0.8,0.9,2.5,3.1,4.1,5c1.9,2.6,3.2,4.2,4.7,5.1c0.9,0.6,1.8,0.8,3.9,0.8h2.2c0.7,0,0.9-0.1,0.9-0.4
			c0-0.1-0.1-0.3-0.3-0.3c-0.2,0-0.6,0-1.3-0.1c-0.9-0.1-2.1-0.4-4-2.4c-2.1-2.1-4.5-5.3-7.4-9.1c3.3-2.7,4.3-5.1,4.3-7.5
			c0-2.3-1.5-3.8-2.3-4.4c-1.9-1.5-4.6-1.7-7-1.7h-8.9c-0.4,0-0.6,0.1-0.6,0.3c0,0.1,0.2,0.3,0.3,0.3c0.3,0,0.9,0,1.2,0
			c1.2,0.1,1.4,0.7,1.5,1.8c0.1,1,0.1,2,0.1,7.1V89.7z"/>
		<path class="st1" d="M252.2,75.9c0-0.2,0.1-0.3,0.3-0.4c0.4-0.1,1.6-0.2,2.7-0.2c4,0,6.5,2.3,6.5,6.4c0,2.5-1,4.2-2.3,5
			c-0.9,0.5-1.9,0.6-2.8,0.6c-1.7,0-3.6-0.2-4.2-0.5c-0.2-0.1-0.3-0.2-0.3-0.4V75.9z M249.1,89.7c0,3.3,0,6-0.2,7.4
			c-0.2,1-0.2,1.7-0.9,1.8c-0.3,0.1-0.8,0.2-1.1,0.2c-0.2,0-0.3,0.2-0.3,0.3c0,0.2,0.2,0.4,0.6,0.4h8.1c0.4,0,0.6-0.1,0.6-0.4
			c0-0.1,0-0.3-0.3-0.3c-0.3,0-1.2-0.1-1.7-0.2c-1.2-0.2-1.4-0.8-1.5-1.8c-0.2-1.4-0.2-4.1-0.2-7.4v-0.8c0-0.2,0.1-0.3,0.3-0.3
			l4.8,0.1c0.3,0,0.3,0,0.5,0.2c0.8,0.9,2.5,3.1,4.1,5c1.9,2.6,3.1,4.2,4.7,5.1c0.9,0.6,1.8,0.8,3.9,0.8h2.3c0.6,0,0.9-0.1,0.9-0.4
			c0-0.1-0.1-0.3-0.3-0.3s-0.6,0-1.3-0.1c-0.9-0.1-2.1-0.4-4-2.4c-2.1-2.1-4.5-5.3-7.4-9.1c3.3-2.7,4.3-5.1,4.3-7.5
			c0-2.3-1.5-3.8-2.3-4.4c-1.9-1.5-4.6-1.7-7-1.7h-8.9c-0.4,0-0.6,0.1-0.6,0.3c0,0.1,0.2,0.3,0.3,0.3c0.3,0,0.9,0,1.2,0
			c1.2,0.1,1.4,0.7,1.5,1.8c0.1,1,0.1,2,0.1,7.1V89.7z"/>
		<path class="st1" d="M282.3,93.7c0,0.6,0,2-0.1,3.4c-0.1,1-0.3,1.6-1.1,1.8c-0.3,0.1-0.7,0.2-1.1,0.2c-0.2,0-0.3,0.2-0.3,0.3
			c0,0.2,0.2,0.4,0.6,0.4h7.9c0.4,0,0.6-0.1,0.6-0.4c0-0.1-0.1-0.3-0.3-0.3c-0.3,0-1.1-0.1-1.6-0.2c-1.1-0.2-1.3-0.8-1.4-1.8
			c-0.1-1.4-0.1-2.8-0.1-3.4v-2.9c0-1.1-0.2-2.2,0.5-3.4c0.7-1.4,5.8-9.4,7-10.8c0.8-0.9,1.1-1.3,1.8-1.7c0.6-0.3,1.3-0.4,1.7-0.4
			c0.3,0,1.1-0.2,1.1-0.4c0-0.1-0.8-0.2-1.1-0.2h-6c-0.4,0-0.6,0.1-0.6,0.2c0,0.2,0.2,0.4,0.5,0.5c0.4,0.1,0.6,0.4,0.6,0.9
			c0,0.4-0.2,1-0.6,1.8c-0.6,1.1-5.1,8.4-5.8,9.8l-6.4-10.6c-0.2-0.4-0.5-0.8-0.5-1.3c0-0.3,0.2-0.4,0.5-0.6
			c0.3-0.1,0.6-0.3,0.6-0.4c0-0.2-0.1-0.3-0.5-0.3h-6.7c-0.3,0-0.4,0.1-0.4,0.3c0,0.2,0.2,0.4,0.4,0.4c0.3,0,1,0.2,1.5,0.5
			c0.7,0.4,1.5,1.2,2.4,2.5c1.2,1.8,6.1,9.4,6.4,9.9c0.5,1,0.8,1.6,0.8,3.5V93.7z"/>
	</g>
	<g>
		<path class="st1" d="M99,119.3c0-6.3,0-7.4,0.1-8.7c0.1-1.4,0.4-2.1,1.6-2.3c0.5-0.1,1.1-0.1,1.4-0.1c0.2,0,0.3-0.1,0.3-0.3
			c0-0.3-0.2-0.4-0.7-0.4H93c-0.5,0-0.7,0.1-0.7,0.4c0,0.2,0.2,0.3,0.3,0.3c0.4,0,1.1,0,1.4,0.1c1.4,0.3,1.7,0.9,1.8,2.3
			c0.1,1.3,0.1,2.4,0.1,8.7v7.1c0,3.8,0,6.9-0.2,8.6c-0.2,1.2-0.4,2.1-1.2,2.2c-0.4,0.2-0.9,0.2-1.2,0.2c-0.2,0-0.3,0.1-0.3,0.3
			c0,0.3,0.2,0.4,0.7,0.4c0.6,0,1.5-0.1,2.3-0.1c0.7,0,1.3,0,1.5,0c1.1,0,2.3,0,4,0.1c1.7-0.1,3.9-0.1,6.8-0.1c2.2,0,2.3-0.1,2.6-1
			c0.3-1.1,0.6-3.6,0.6-4c0-0.4,0-0.6-0.2-0.6c-0.2,0-0.3,0.2-0.4,0.5c-0.1,0.8-0.5,1.8-1.1,2.4c-1,1.2-2.8,1.2-5,1.2
			c-3.2,0-4.3-0.3-4.9-0.9c-0.7-0.7-0.9-3.3-0.9-9.2V119.3z"/>
		<path class="st1" d="M123.8,127.2c-0.1,0-0.2-0.1-0.1-0.2l3.4-9.5c0.2-0.5,0.4-0.5,0.6,0l3.6,9.5c0,0.2,0,0.2-0.1,0.2H123.8z
			 M118.6,134.3c-0.7,1.7-1.4,2.9-3,3.1c-0.3,0-0.8,0.1-1.1,0.1c-0.2,0-0.3,0.1-0.3,0.3c0,0.2,0.2,0.4,0.7,0.4h6.9
			c0.3,0,0.5-0.1,0.5-0.4c0-0.2-0.1-0.3-0.4-0.3h-0.3c-0.6,0-1.2-0.2-1.2-0.9c0-0.6,0.2-1.4,0.5-2.3l2.1-5.4
			c0.1-0.2,0.2-0.3,0.4-0.3h8.3c0.2,0,0.2,0,0.3,0.2l3.2,7.7c0.2,0.6-0.1,0.8-0.3,0.9c-0.2,0.1-0.2,0.1-0.2,0.3
			c0,0.2,0.6,0.2,1.3,0.3c2.5,0.1,5.2,0.1,5.7,0.1c0.4,0,0.8-0.1,0.8-0.4c0-0.2-0.2-0.3-0.5-0.3c-0.4,0-0.9,0-1.4-0.2
			c-0.8-0.2-1.8-0.7-3.1-3.7c-2.2-5.1-8-19.4-8.6-20.8c-0.4-0.8-0.5-1.3-0.9-1.3c-0.2,0-0.4,0.2-0.9,1.3L118.6,134.3z"/>
		<path class="st1" d="M149.3,117.3c1.1,1.2,5.1,5.4,9.2,9.6c3.7,4.4,8.8,9.5,9.2,9.8c2.1,1.8,2.5,2,2.8,2c0.3,0,0.3-0.2,0.3-2.4
			l0.1-20.5c0-2.1,0.1-2.8,1.3-3c0.4-0.1,0.7-0.1,0.9-0.1c0.2,0,0.4-0.2,0.4-0.4c0-0.2-0.3-0.3-0.6-0.3h-6.9c-0.4,0-0.7,0-0.7,0.3
			c0,0.1,0,0.4,0.3,0.4c0.3,0,1.1,0,1.7,0.2c1.1,0.2,1.3,1,1.3,3.2l0.4,17.5c-1.1-1.2-4.9-5.3-8.4-9c-5.5-6.2-10.6-11.7-11.2-12.2
			c-0.4-0.4-1-1.1-1.4-1.1c-0.3,0-0.5,0.4-0.5,1.7v19.7c0,3.1-0.1,4.1-1,4.3c-0.5,0.2-1.2,0.2-1.5,0.2c-0.2,0-0.3,0.1-0.3,0.3
			c0,0.3,0.2,0.4,0.6,0.4h7.3c0.4,0,0.6-0.1,0.6-0.4c0-0.2-0.1-0.3-0.3-0.3c-0.3,0-1.1,0-1.8-0.2c-1-0.2-1.3-1.1-1.4-3.9
			L149.3,117.3z"/>
		<path class="st1" d="M186.7,114.6c0-0.4,0.1-0.6,0.5-0.7c0.3-0.1,1.5-0.2,2.2-0.2c4.4,0,8.5,0.4,12,3.8c1.5,1.5,3.5,4.2,3.5,8.6
			c0,3.1-1,6.4-2.9,8.2c-2.2,2-5.3,3.1-8.7,3.1c-4.4,0-5.7-0.7-6.2-1.4c-0.3-0.4-0.4-1.6-0.4-2.5c0-0.6,0-3.8,0-7.5V114.6z
			 M183.7,128.4c0,3,0,5.7-0.2,7.1c-0.2,1-0.2,1.6-1,1.8c-0.3,0.1-0.8,0.2-1.1,0.2c-0.2,0-0.3,0.2-0.3,0.3c0,0.2,0.2,0.4,0.6,0.4
			c0.6,0,1.4-0.1,2.2-0.1c0.7,0,1.3,0,1.4,0c0.1,0,1.3,0.1,2.9,0.2c1.6,0.5,3.6,0.6,5.2,0.6c6.3,0,9.7-2.6,11.3-4.1
			c1.8-2,3.4-5.3,3.4-9.7c0-4.1-1.5-6.9-3.1-8.7c-4.4-4.5-11.2-4.1-14.9-4.1h-8.9c-0.4,0-0.6,0.1-0.6,0.3c0,0.1,0.2,0.3,0.3,0.3
			c0.3,0,0.9,0,1.2,0.1c1.2,0.2,1.4,0.7,1.5,1.9c0.1,1.1,0.1,2.1,0.1,7.4V128.4z"/>
		<path class="st1" d="M221.5,122.1c0-5.3,0-6.2,0-7.3c0.1-1.2,0.3-1.7,1.3-1.9c0.4-0.1,0.7-0.1,0.9-0.1c0.1,0,0.3-0.2,0.3-0.3
			c0-0.2-0.2-0.3-0.6-0.3h-7c-0.4,0-0.6,0.1-0.6,0.3c0,0.1,0.1,0.3,0.3,0.3c0.2,0,0.7,0,1.1,0.1c0.8,0.2,1.1,0.7,1.1,1.8
			c0.1,1.1,0.1,2,0.1,7.3v6c0,3.3,0,6-0.2,7.4c-0.1,1-0.2,1.6-0.9,1.8c-0.3,0.1-0.8,0.2-1.1,0.2c-0.2,0-0.3,0.2-0.3,0.3
			c0,0.2,0.2,0.4,0.6,0.4h7.9c0.4,0,0.6-0.1,0.6-0.4c0-0.1-0.1-0.3-0.3-0.3c-0.3,0-1.1-0.1-1.6-0.2c-1.1-0.2-1.2-0.8-1.3-1.8
			c-0.2-1.4-0.2-4.1-0.2-7.4V122.1z"/>
		<path class="st1" d="M237,117.3c1.1,1.2,5.1,5.4,9.2,9.6c3.7,4.4,8.8,9.5,9.2,9.8c2.1,1.8,2.5,2,2.8,2c0.3,0,0.3-0.2,0.3-2.4
			l0.1-20.5c0-2.1,0.1-2.8,1.3-3c0.4-0.1,0.7-0.1,0.9-0.1c0.2,0,0.4-0.2,0.4-0.4c0-0.2-0.3-0.3-0.6-0.3h-6.9c-0.4,0-0.7,0-0.7,0.3
			c0,0.1,0,0.4,0.3,0.4c0.3,0,1.1,0,1.7,0.2c1.1,0.2,1.3,1,1.3,3.2l0.4,17.5c-1.1-1.2-4.9-5.3-8.4-9c-5.5-6.2-10.6-11.7-11.2-12.2
			c-0.4-0.4-1-1.1-1.4-1.1c-0.3,0-0.5,0.4-0.5,1.7v19.7c0,3.1-0.1,4.1-1,4.3c-0.5,0.2-1.2,0.2-1.5,0.2c-0.2,0-0.3,0.1-0.3,0.3
			c0,0.3,0.2,0.4,0.6,0.4h7.3c0.4,0,0.6-0.1,0.6-0.4c0-0.2-0.1-0.3-0.3-0.3c-0.3,0-1.1,0-1.8-0.2c-1-0.2-1.3-1.1-1.4-3.9L237,117.3z
			"/>
		<path class="st1" d="M288.7,135.6c0,0.7-0.3,0.9-0.8,1.1c-1,0.6-2.7,0.7-4,0.7c-3.4,0-6.6-1-9.5-3.8c-1.3-1.2-3.9-4.9-3.9-10
			c0-3.9,1.5-7,3.7-8.5c2.8-2,5.5-2.2,7.8-2.2c4.6,0,7.4,1.4,8.3,2.6c0.6,0.8,0.8,1.8,0.8,2.2c0,0.3,0,0.5,0.3,0.5
			c0.2,0,0.4-0.2,0.4-0.7c0-3.4,0.2-4.3,0.2-4.8c0-0.2-0.1-0.3-0.5-0.3c-0.9,0-2.2-0.2-3-0.4c-0.7-0.2-3.3-0.6-5.6-0.6
			c-2.8,0-6.5,0.2-9.8,2.2c-3.2,1.9-5.7,5.7-5.7,11.1c0,4.6,1.9,8.5,4,10.4c4.1,3.4,9.3,3.7,12.1,3.7c2.3,0,5.7-0.3,7.8-1.4
			c0.4-0.2,0.5-0.3,0.5-2v-4.1c0-1.5,0-2.6,0-3.7c0.1-1.3,0.4-1.8,1.4-2c0.4-0.1,0.7-0.1,0.9-0.1c0.1,0,0.3-0.2,0.3-0.3
			c0-0.3-0.2-0.3-0.6-0.3h-7.6c-0.4,0-0.6,0-0.6,0.3c0,0.1,0.2,0.3,0.3,0.3c0.3,0,1,0,1.3,0.1c1.5,0.3,1.6,0.7,1.6,3.7V135.6z"/>
	</g>
	<g>
		<path class="st2" d="M160.9,175.4c2.2,0,4.3-0.3,6-1.1c2.8-2,3.5-5.1,3.5-6.8c0-3.3-1.1-5.8-5.9-9.7l-1.1-0.9
			c-3.6-3.1-4.6-4.6-4.6-6.9c0-3,2.1-4.8,4.8-4.8c3.6,0,4.7,1.7,4.9,2.2c0.2,0.5,0.5,1.6,0.5,2.1c0,0.3,0.1,0.5,0.3,0.5
			c0.2,0,0.3-0.3,0.3-0.9c0-3.1,0.2-4.5,0.2-4.8c0-0.2-0.1-0.3-0.4-0.3s-0.7,0-1.4-0.2c-1,0.6-2.1,0.5-3.6,0.5
			c-4.9,0-8.3,2.5-8.3,6.9c0,2.8,1.1,5.3,5.4,8.9l1.7,1.5c3.3,2.9,4.4,4.6,4.4,7.4c0,2.6-1.8,5.5-5.5,5.5c-2.9,0-5.5-1.2-6.1-4.2
			c-0.1-0.6-0.1-1.2-0.1-1.5c0-0.3,0-0.5-0.3-0.5c-0.2,0-0.3,0.2-0.4,0.7c0,0.7-0.2,2.3-0.2,4.4c0,1.1,0,1.2,0.7,1.4
			C157.2,175.2,159,175.4,160.9,175.4z"/>
		<path class="st2" d="M179.6,164c0,5.2,1.3,7.7,2.8,9.4c2.7,1.9,6.8,2,8.1,2c2.3,0,5.3-0.2,8.2-2.1c2.5-2.5,2.9-6.9,2.9-10.7v-3.8
			c0-5.5,0-6.5,0-7.7c0.1-1.2,0.3-1.8,1.3-2c0.5-0.1,0.7-0.1,0.9-0.1c0.2,0,0.3-0.3,0.3-0.5c0-0.3-0.2-0.5-0.6-0.5H197
			c-0.4,0-0.6,0.1-0.6,0.5c0,0.2,0.1,0.5,0.3,0.5c0.4,0,1,0,1.3,0.1c1.3,0.2,1.5,0.8,1.6,2s0.1,2.1,0.1,7.7v4.5
			c0,3.7-0.4,6.6-2.2,8.6c-1.3,1.5-3.6,2.5-6,2.5c-2.2,0-3.9-0.3-5.8-1.9c-1.7-1.4-2.9-3.6-2.9-8.7v-5c0-5.5,0-6.5,0.1-7.7
			c0.1-1.2,0.3-1.8,1.3-2c0.5-0.1,0.7-0.1,1-0.1c0.2,0,0.4-0.3,0.4-0.5c0-0.3-0.2-0.5-0.7-0.5h-7.6c-0.4,0-0.6,0.1-0.6,0.5
			c0,0.2,0.2,0.5,0.3,0.5c0.3,0,0.9,0,1.2,0.1c1.2,0.2,1.4,0.8,1.5,2c0.1,1.1,0.1,2.1,0.1,7.7V164z"/>
		<path class="st2" d="M217,158.7c0-5.5,0-6.5,0-7.7c0.1-1.2,0.3-1.8,1.3-2c0.4-0.1,0.6-0.1,0.9-0.1c0.1,0,0.3-0.3,0.3-0.5
			c0-0.3-0.2-0.5-0.6-0.5h-7c-0.4,0-0.6,0.1-0.6,0.5c0,0.2,0.1,0.5,0.3,0.5c0.2,0,0.7,0,1.1,0.1c0.8,0.2,1.1,0.7,1.1,1.9
			c0.1,1.1,0.1,2.1,0.1,7.7v6.3c0,3.4,0,6.2-0.2,7.7c-0.1,1-0.2,1.7-1,1.9c-0.3,0.1-0.8,0.2-1.1,0.2c-0.2,0-0.3,0.3-0.3,0.5
			c0,0.3,0.2,0.5,0.6,0.5h7.8c0.4,0,0.6-0.2,0.6-0.5c0-0.2-0.1-0.5-0.3-0.5c-0.3,0-1.1-0.1-1.6-0.2c-1.1-0.2-1.2-0.8-1.3-1.9
			c-0.2-1.5-0.2-4.3-0.2-7.7V158.7z"/>
		<path class="st2" d="M238.7,149.3l4.9,0.1c3.7,0.1,4.6,0.9,4.7,2l0.1,0.4c0,0.5,0.1,0.6,0.3,0.6c0.2,0,0.4-0.2,0.4-0.5
			c0,0.3,0.2-2.3,0.2-3.3c0-0.2,0-0.4-0.2-0.4c-0.2,0-0.6,0.1-1.2,0.2c-0.6,0-1.5,0-2.8,0h-13.9c-0.4,0-1.8,0-2.8-0.2
			c-1,0.2-1.4-0.1-1.6-0.1c-0.1,0-0.3,0.5-0.4,0.7c-0.1-0.2-0.8,2.5-0.8,2.9c0,0.2,0.2,0.3,0.2,0.3c0.2,0,0.3,0,0.4-0.3
			c0.1-0.3,0.2-0.5,0.6-1.2c0.5-0.9,1.4-1.1,3.7-1.2l5.2-0.1v15.4c0,3.5,0,6.4-0.2,7.9c-0.1,1.1-0.3,1.8-1.1,2
			c-0.3,0.1-0.7,0.2-1.1,0.2c-0.2,0-0.3,0.2-0.3,0.4c0,0.4,0.2,0.5,0.6,0.5h8.2c0.4,0,0.6-0.2,0.6-0.5c0-0.2,0-0.5-0.3-0.5
			c-0.4,0-1.2-0.1-1.8-0.2c-1.2-0.2-1.4-0.9-1.5-1.9c-0.2-1.5-0.2-4.4-0.2-7.9V149.3z"/>
		<path class="st2" d="M258.4,165.2c0,3.4,0,6.2-0.2,7.7c-0.2,1.1-0.2,1.8-0.9,1.9c-0.3-0.1-0.8,0-1.1,0c-0.2,0-0.3,0.3-0.3,0.5
			c0,0,0.2,0.1,0.6,0.1c0.6,0,1.4,0,2.1-0.1c0.7,0.3,1.4,0.3,1.4,0.3c0.5,0,1.4,0,2.8,0.1c1.4-0.3,3.5-0.3,6.1-0.3
			c1.7,0,2.1,0,2.4-0.6c0.2-0.5,0.5-3.1,0.5-3.3c0-0.3,0-1.2-0.2-1.2s-0.3,0.8-0.4,1.2c-0.2,1.5-0.7,2.1-1.9,2.6
			c-1,0.4-2.7,0.4-3.6,0.4c-3.5,0-4.1-0.5-4.2-3c0-0.7,0-5,0-6.3v-3.1c0-0.1,0-0.3,0.2-0.3c0.6,0,4.4,0,5.3,0.2
			c1.4,0.2,1.7,0.6,1.8,1.1c0.2,0.5,0.2,0.9,0.2,1.2c0,0.2,0.1,0.4,0.4,0.4c0.4,0,0.5-0.4,0.5-0.7c0-0.3,0.1-1.6,0.2-2.3
			c0.1-0.8,0.3-1.4,0.3-1.6c0-0.2-0.1-0.3-0.2-0.3c-0.1,0-0.3,0.2-0.7,0.5c-0.5,0.4-1.1,0.5-1.9,0.6c-0.8,0.1-5.4,0.1-5.9,0.1
			c-0.2,0-0.2-0.1-0.2-0.4v-10.7c0-0.3,0-0.4,0.2-0.4c0.4,0,4.5,0,5.1,0.1c1.9,0.3,2.3,0.6,2.7,1.2c0.3,0.5,0.3,1.1,0.3,1.4
			c0,0.3,0.1,0.5,0.3,0.5c0.2,0,0.3-0.2,0.3-0.4c0.1,0.1,0.2-1.5,0.2-1.9c0.1-1,0.3-1.5,0.3-1.7c0-0.2,0-0.4-0.2-0.4
			c-0.2,0-0.3,0.1-0.5,0.2c-0.3-0.1-1.3,0-2,0c-0.8,0-8.1,0-8.3,0c-0.2,0-2.4-0.1-4.1-0.1c-0.4,0-0.6,0.1-0.6,0.2
			c0,0.1,0.2,0.2,0.3,0.2c0.3,0.2,0.9,0.3,1.2,0.3c1.2,0.2,1.4,0.8,1.5,2.1c0.1,1.2,0.1,2.2,0.1,8V165.2z"/>
		<path class="st2" d="M284.6,175.4c1.9,0,4.1-0.2,5.5-0.8c2.6-1.7,3.3-3.9,3.3-6c0-3.1-1.5-5.5-5.8-8.6l-1-0.7
			c-3.6-2.5-4.7-3.8-4.7-6c0-2.5,2.1-3.8,4.7-3.8c3.2,0,4.4,1.3,4.6,1.8c0.2,0.4,0.5,1.3,0.5,1.8c0,0.3,0.1,0.5,0.3,0.5
			c0.2-0.3,0.3-0.5,0.3-1.1c0-2.5,0.2-3.7,0.2-3.9c0-0.2-0.1-0.3-0.4-0.3c-0.3,0-0.6,0-1.3-0.2c-0.9,0.6-2.3,0.5-3.7,0.5
			c-4.7,0-7.3,2-7.3,6.2c0,2.5,1,4.6,4.5,7.6l1.6,1.3c3.2,2.4,4.5,3.6,4.5,6.2c0,2.7-1.8,4.7-5.3,4.7c-2.2,0-4.8-0.9-5.3-3.5
			c-0.1-0.5-0.1-1-0.1-1.3c0-0.3-0.1-0.4-0.4-0.4c-0.2,0-0.3,0.2-0.3,0.6c0,0.6-0.2,2-0.2,3.8c0,0.9,0,1,0.6,1.2
			C281,175.2,283,175.4,284.6,175.4z"/>
	</g>
</g>
<g>
	<defs>
		<rect id="SVGID_1_" x="311.3" y="13.6" width="187.5" height="196.5"/>
	</defs>
	<clipPath id="SVGID_2_">
		<use xlink:href="#SVGID_1_"  style="overflow:visible;"/>
	</clipPath>
	<g class="st3">
		<path class="st4" d="M-103,175.1c0,0,28.7-9.2,322-12.7c293.3-3.5,366.3,13.6,322,14.6c-3.9,0.1-8.2,0.1-12.8,0.2
			c-47.2,0.5-124.1-1-125.2,1.6c-1.2,2.9,27.4,6.5,13.8,7.3c-13.6,0.7-46,1.8-46,1.8s25.8-3.1,13.8-5.5c-11.9-2.3-120.8-9-151.8-7.3
			c0,0,264.8,0,193.2-5.5c-71.6-5.4-406.2-3.9-473.8,3.6C-47.9,173.2-87.3,177.6-103,175.1z"/>
		<path class="st4" d="M-11.1,182.3c-4.2,0.8,104-12,156.4-10.9c0,0-38.1,3.8-32.2,3.6s94,4.2,92,3.6
			C203.1,178.1,30.3,174.9-11.1,182.3z"/>
		<path class="st4" d="M90.9,180.7c-1.9,0.7,48-12.1,72.2-10.9c0,0-17.6,3.8-14.9,3.6c2.7-0.1,43.4,4.2,42.5,3.6
			C189.9,176.5,110,173.3,90.9,180.7z"/>
		<polygon class="st5" points="220.6,173.2 222.8,173.2 502.3,173.2 522.2,167.3 522.2,160.6 500.1,160.6 487.2,120.1 423.5,120.1 
			421,104.1 421.3,104.1 414.5,77.7 421.9,66.6 433,66.6 428.5,59.2 382.8,59.2 371,17.7 366.6,17.7 370.3,36.9 351.8,36.9 
			354.4,39 371,41.4 368.1,73.2 294.3,73.2 284,88 253.7,88 242,61.4 236,61.4 236,49.5 232.4,49.5 232.4,61.4 222.8,61.4 
			220.6,61.4 211,61.4 211,49.5 207.3,49.5 207.3,61.4 201.4,61.4 189.6,88 159.3,88 149,77.7 75.3,77.7 72.3,41.4 88.9,39 
			91.5,36.9 73,36.9 76.7,17.7 72.3,17.7 60.5,59.2 14.8,59.2 10.4,66.6 21.4,66.6 28.8,77.7 20.7,109.5 20.3,109.5 18.6,120.1 
			-43.9,120.1 -56.8,160.6 -78.9,160.6 -78.9,167.3 -59,173.2 		"/>
		<path class="st6" d="M362,102.3h4.8c1.4,0,2.6,1.6,2.6,3.7v0.7c0,2.1-1.2,3.7-2.6,3.7H362c-1.4,0-2.6-1.6-2.6-3.7V106
			C359.3,103.9,360.5,102.3,362,102.3z"/>
		<path class="st6" d="M399.8,102.3h3.7c1.1,0,2,1.6,2,3.7v0.7c0,2.1-0.9,3.7-2,3.7h-3.7c-1.1,0-2-1.6-2-3.7V106
			C397.8,103.9,398.7,102.3,399.8,102.3z"/>
		<path class="st6" d="M348,102.3h4.7c1.4,0,2.6,1.6,2.6,3.7v0.7c0,2.1-1.2,3.7-2.6,3.7H348c-1.4,0-2.6-1.6-2.6-3.7V106
			C345.3,103.9,346.5,102.3,348,102.3z"/>
		<path class="st6" d="M389.1,102.3h3.7c1.1,0,2,1.6,2,3.7v0.7c0,2.1-0.9,3.7-2,3.7h-3.7c-1.1,0-2-1.6-2-3.7V106
			C387,103.9,388,102.3,389.1,102.3z"/>
		<path class="st6" d="M334.6,102.3h4.7c1.4,0,2.6,1.6,2.6,3.7v0.7c0,2.1-1.2,3.7-2.6,3.7h-4.7c-1.4,0-2.6-1.6-2.6-3.7V106
			C332,103.9,333.2,102.3,334.6,102.3z"/>
		<path class="st6" d="M320.6,102.3h4.8c1.4,0,2.6,1.6,2.6,3.7v0.7c0,2.1-1.2,3.7-2.6,3.7h-4.8c-1.4,0-2.6-1.6-2.6-3.7V106
			C318,103.9,319.1,102.3,320.6,102.3z"/>
		<path class="st6" d="M306.6,102.3h4.7c1.4,0,2.6,1.6,2.6,3.7v0.7c0,2.1-1.2,3.7-2.6,3.7h-4.7c-1.5,0-2.6-1.6-2.6-3.7V106
			C304,103.9,305.1,102.3,306.6,102.3z"/>
		<path class="st6" d="M293.2,102.3h4.7c1.4,0,2.6,1.6,2.6,3.7v0.7c0,2.1-1.2,3.7-2.6,3.7h-4.7c-1.4,0-2.6-1.6-2.6-3.7V106
			C290.6,103.9,291.8,102.3,293.2,102.3z"/>
		<path class="st6" d="M251.9,102.3h4.7c1.4,0,2.6,1.6,2.6,3.7v0.7c0,2.1-1.2,3.7-2.6,3.7h-4.7c-1.4,0-2.6-1.6-2.6-3.7V106
			C249.2,103.9,250.4,102.3,251.9,102.3z"/>
		<path class="st6" d="M279.2,102.3h4.7c1.5,0,2.6,1.6,2.6,3.7v0.7c0,2.1-1.2,3.7-2.6,3.7h-4.7c-1.4,0-2.6-1.6-2.6-3.7V106
			C276.6,103.9,277.8,102.3,279.2,102.3z"/>
		<path class="st6" d="M237.8,102.3h4.7c1.4,0,2.6,1.6,2.6,3.7v0.7c0,2.1-1.2,3.7-2.6,3.7h-4.7c-1.4,0-2.6-1.6-2.6-3.7V106
			C235.2,103.9,236.4,102.3,237.8,102.3z"/>
		<path class="st6" d="M265.2,102.3h4.8c1.4,0,2.6,1.6,2.6,3.7v0.7c0,2.1-1.2,3.7-2.6,3.7h-4.8c-1.4,0-2.6-1.6-2.6-3.7V106
			C262.6,103.9,263.7,102.3,265.2,102.3z"/>
		<path class="st6" d="M224.5,102.3h4.8c1.4,0,2.6,1.6,2.6,3.7v0.7c0,2.1-1.2,3.7-2.6,3.7h-4.8c-1.4,0-2.6-1.6-2.6-3.7V106
			C221.8,103.9,223,102.3,224.5,102.3z"/>
		<path class="st6" d="M362,146.7h4.8c1.4,0,2.6,1.7,2.6,3.7v0.8c0,2-1.2,3.7-2.6,3.7H362c-1.4,0-2.6-1.7-2.6-3.7v-0.8
			C359.3,148.4,360.5,146.7,362,146.7z"/>
		<path class="st6" d="M392.2,146.7h4.7c1.4,0,2.6,1.7,2.6,3.7v0.8c0,2-1.2,3.7-2.6,3.7h-4.7c-1.4,0-2.6-1.7-2.6-3.7v-0.8
			C389.6,148.4,390.8,146.7,392.2,146.7z"/>
		<path class="st6" d="M348,146.7h4.7c1.4,0,2.6,1.7,2.6,3.7v0.8c0,2-1.2,3.7-2.6,3.7H348c-1.4,0-2.6-1.7-2.6-3.7v-0.8
			C345.3,148.4,346.5,146.7,348,146.7z"/>
		<path class="st6" d="M378.2,146.7h4.7c1.4,0,2.6,1.7,2.6,3.7v0.8c0,2-1.2,3.7-2.6,3.7h-4.7c-1.4,0-2.6-1.7-2.6-3.7v-0.8
			C375.6,148.4,376.7,146.7,378.2,146.7z"/>
		<path class="st6" d="M334.6,146.7h4.7c1.4,0,2.6,1.7,2.6,3.7v0.8c0,2-1.2,3.7-2.6,3.7h-4.7c-1.4,0-2.6-1.7-2.6-3.7v-0.8
			C332,148.4,333.2,146.7,334.6,146.7z"/>
		<path class="st6" d="M320.6,146.7h4.8c1.4,0,2.6,1.7,2.6,3.7v0.8c0,2-1.2,3.7-2.6,3.7h-4.8c-1.4,0-2.6-1.7-2.6-3.7v-0.8
			C318,148.4,319.1,146.7,320.6,146.7z"/>
		<path class="st6" d="M306.6,146.7h4.7c1.4,0,2.6,1.7,2.6,3.7v0.8c0,2-1.2,3.7-2.6,3.7h-4.7c-1.5,0-2.6-1.7-2.6-3.7v-0.8
			C304,148.4,305.1,146.7,306.6,146.7z"/>
		<path class="st6" d="M293.2,146.7h4.7c1.4,0,2.6,1.7,2.6,3.7v0.8c0,2-1.2,3.7-2.6,3.7h-4.7c-1.4,0-2.6-1.7-2.6-3.7v-0.8
			C290.6,148.4,291.8,146.7,293.2,146.7z"/>
		<path class="st6" d="M251.9,146.7h4.7c1.4,0,2.6,1.7,2.6,3.7v0.8c0,2-1.2,3.7-2.6,3.7h-4.7c-1.4,0-2.6-1.7-2.6-3.7v-0.8
			C249.2,148.4,250.4,146.7,251.9,146.7z"/>
		<path class="st6" d="M279.2,146.7h4.7c1.5,0,2.6,1.7,2.6,3.7v0.8c0,2-1.2,3.7-2.6,3.7h-4.7c-1.4,0-2.6-1.7-2.6-3.7v-0.8
			C276.6,148.4,277.8,146.7,279.2,146.7z"/>
		<path class="st6" d="M237.8,146.7h4.7c1.4,0,2.6,1.7,2.6,3.7v0.8c0,2-1.2,3.7-2.6,3.7h-4.7c-1.4,0-2.6-1.7-2.6-3.7v-0.8
			C235.2,148.4,236.4,146.7,237.8,146.7z"/>
		<path class="st6" d="M265.2,146.7h4.8c1.4,0,2.6,1.7,2.6,3.7v0.8c0,2-1.2,3.7-2.6,3.7h-4.8c-1.4,0-2.6-1.7-2.6-3.7v-0.8
			C262.6,148.4,263.7,146.7,265.2,146.7z"/>
		<path class="st6" d="M224.5,146.7h4.8c1.4,0,2.6,1.7,2.6,3.7v0.8c0,2-1.2,3.7-2.6,3.7h-4.8c-1.4,0-2.6-1.7-2.6-3.7v-0.8
			C221.8,148.4,223,146.7,224.5,146.7z"/>
		<path class="st6" d="M391.5,124.5h4.7c1.4,0,2.6,1.6,2.6,3.7v0.7c0,2.1-1.2,3.7-2.6,3.7h-4.7c-1.5,0-2.6-1.6-2.6-3.7v-0.7
			C388.9,126.2,390,124.5,391.5,124.5z"/>
		<path class="st6" d="M377.5,124.5h4.7c1.4,0,2.6,1.6,2.6,3.7v0.7c0,2.1-1.2,3.7-2.6,3.7h-4.7c-1.4,0-2.6-1.6-2.6-3.7v-0.7
			C374.8,126.2,376,124.5,377.5,124.5z"/>
		<path class="st6" d="M364.1,124.5h4.7c1.5,0,2.6,1.6,2.6,3.7v0.7c0,2.1-1.2,3.7-2.6,3.7h-4.7c-1.4,0-2.6-1.6-2.6-3.7v-0.7
			C361.5,126.2,362.7,124.5,364.1,124.5z"/>
		<path class="st6" d="M350.1,124.5h4.8c1.4,0,2.6,1.6,2.6,3.7v0.7c0,2.1-1.2,3.7-2.6,3.7h-4.8c-1.4,0-2.6-1.6-2.6-3.7v-0.7
			C347.5,126.2,348.6,124.5,350.1,124.5z"/>
		<path class="st6" d="M336.1,124.5h4.7c1.4,0,2.6,1.6,2.6,3.7v0.7c0,2.1-1.2,3.7-2.6,3.7h-4.7c-1.4,0-2.6-1.6-2.6-3.7v-0.7
			C333.5,126.2,334.6,124.5,336.1,124.5z"/>
		<path class="st6" d="M322.7,124.5h4.7c1.4,0,2.6,1.6,2.6,3.7v0.7c0,2.1-1.2,3.7-2.6,3.7h-4.7c-1.4,0-2.6-1.6-2.6-3.7v-0.7
			C320.1,126.2,321.3,124.5,322.7,124.5z"/>
		<path class="st6" d="M281.3,124.5h4.7c1.4,0,2.6,1.6,2.6,3.7v0.7c0,2.1-1.2,3.7-2.6,3.7h-4.7c-1.4,0-2.6-1.6-2.6-3.7v-0.7
			C278.7,126.2,279.9,124.5,281.3,124.5z"/>
		<path class="st6" d="M308.7,124.5h4.8c1.4,0,2.6,1.6,2.6,3.7v0.7c0,2.1-1.2,3.7-2.6,3.7h-4.8c-1.4,0-2.6-1.6-2.6-3.7v-0.7
			C306.1,126.2,307.3,124.5,308.7,124.5z"/>
		<path class="st6" d="M237.8,124.5h4.7c1.4,0,2.6,1.6,2.6,3.7v0.7c0,2.1-1.2,3.7-2.6,3.7h-4.7c-1.4,0-2.6-1.6-2.6-3.7v-0.7
			C235.2,126.2,236.4,124.5,237.8,124.5z"/>
		<path class="st6" d="M294.7,124.5h4.7c1.4,0,2.6,1.6,2.6,3.7v0.7c0,2.1-1.2,3.7-2.6,3.7h-4.7c-1.4,0-2.6-1.6-2.6-3.7v-0.7
			C292.1,126.2,293.3,124.5,294.7,124.5z"/>
		<path class="st6" d="M224.5,124.5h4.8c1.4,0,2.6,1.6,2.6,3.7v0.7c0,2.1-1.2,3.7-2.6,3.7h-4.8c-1.4,0-2.6-1.6-2.6-3.7v-0.7
			C221.8,126.2,223,124.5,224.5,124.5z"/>
		<polygon class="st6" points="385.2,67.2 381.7,73.2 408.2,73.2 413,67.2 		"/>
		<polygon class="st5" points="388.8,67.2 385.2,73.2 387.1,73.2 390.3,66.8 		"/>
		<polygon class="st5" points="404.7,67.2 401.2,73.2 403,73.2 406.2,66.8 		"/>
		<polygon class="st5" points="396.4,67.2 392.9,73.2 394.8,73.2 398,66.8 		"/>
		<path class="st4" d="M404.6,160.9v2.3h-13.3v-2.6H222.4c0,0-0.7,3.7,0,3.7h290.1h9.3l0.4-3.5L404.6,160.9z"/>
		<path class="st6" d="M81.7,146.7H77c-1.4,0-2.6,1.7-2.6,3.7v0.8c0,2,1.2,3.7,2.6,3.7h4.7c1.5,0,2.6-1.7,2.6-3.7v-0.8
			C84.3,148.4,83.2,146.7,81.7,146.7z"/>
		<path class="st6" d="M51.5,146.7h-4.7c-1.4,0-2.6,1.7-2.6,3.7v0.8c0,2,1.2,3.7,2.6,3.7h4.7c1.4,0,2.6-1.7,2.6-3.7v-0.8
			C54.1,148.4,52.9,146.7,51.5,146.7z"/>
		<path class="st6" d="M95.7,146.7H91c-1.4,0-2.6,1.7-2.6,3.7v0.8c0,2,1.2,3.7,2.6,3.7h4.7c1.4,0,2.6-1.7,2.6-3.7v-0.8
			C98.4,148.4,97.2,146.7,95.7,146.7z"/>
		<path class="st6" d="M65.5,146.7h-4.8c-1.4,0-2.6,1.7-2.6,3.7v0.8c0,2,1.2,3.7,2.6,3.7h4.8c1.4,0,2.6-1.7,2.6-3.7v-0.8
			C68.1,148.4,67,146.7,65.5,146.7z"/>
		<path class="st6" d="M109.1,146.7h-4.7c-1.5,0-2.6,1.7-2.6,3.7v0.8c0,2,1.2,3.7,2.6,3.7h4.7c1.4,0,2.6-1.7,2.6-3.7v-0.8
			C111.7,148.4,110.5,146.7,109.1,146.7z"/>
		<path class="st6" d="M123.1,146.7h-4.8c-1.4,0-2.6,1.7-2.6,3.7v0.8c0,2,1.2,3.7,2.6,3.7h4.8c1.4,0,2.6-1.7,2.6-3.7v-0.8
			C125.7,148.4,124.6,146.7,123.1,146.7z"/>
		<path class="st6" d="M137.1,146.7h-4.7c-1.4,0-2.6,1.7-2.6,3.7v0.8c0,2,1.2,3.7,2.6,3.7h4.7c1.4,0,2.6-1.7,2.6-3.7v-0.8
			C139.7,148.4,138.6,146.7,137.1,146.7z"/>
		<path class="st6" d="M150.5,146.7h-4.7c-1.4,0-2.6,1.7-2.6,3.7v0.8c0,2,1.2,3.7,2.6,3.7h4.7c1.4,0,2.6-1.7,2.6-3.7v-0.8
			C153.1,148.4,151.9,146.7,150.5,146.7z"/>
		<path class="st6" d="M191.9,146.7h-4.7c-1.4,0-2.6,1.7-2.6,3.7v0.8c0,2,1.2,3.7,2.6,3.7h4.7c1.4,0,2.6-1.7,2.6-3.7v-0.8
			C194.5,148.4,193.3,146.7,191.9,146.7z"/>
		<path class="st6" d="M164.5,146.7h-4.8c-1.4,0-2.6,1.7-2.6,3.7v0.8c0,2,1.2,3.7,2.6,3.7h4.8c1.4,0,2.6-1.7,2.6-3.7v-0.8
			C167.1,148.4,165.9,146.7,164.5,146.7z"/>
		<path class="st6" d="M205.9,146.7h-4.8c-1.4,0-2.6,1.7-2.6,3.7v0.8c0,2,1.2,3.7,2.6,3.7h4.8c1.4,0,2.6-1.7,2.6-3.7v-0.8
			C208.5,148.4,207.3,146.7,205.9,146.7z"/>
		<path class="st6" d="M178.5,146.7h-4.7c-1.4,0-2.6,1.7-2.6,3.7v0.8c0,2,1.2,3.7,2.6,3.7h4.7c1.4,0,2.6-1.7,2.6-3.7v-0.8
			C181.1,148.4,179.9,146.7,178.5,146.7z"/>
		<path class="st6" d="M52.2,124.5h-4.7c-1.4,0-2.6,1.6-2.6,3.7v0.7c0,2.1,1.2,3.7,2.6,3.7h4.7c1.4,0,2.6-1.6,2.6-3.7v-0.7
			C54.8,126.2,53.7,124.5,52.2,124.5z"/>
		<path class="st6" d="M66.2,124.5h-4.7c-1.5,0-2.6,1.6-2.6,3.7v0.7c0,2.1,1.2,3.7,2.6,3.7h4.7c1.4,0,2.6-1.6,2.6-3.7v-0.7
			C68.9,126.2,67.7,124.5,66.2,124.5z"/>
		<path class="st6" d="M79.6,124.5h-4.8c-1.4,0-2.6,1.6-2.6,3.7v0.7c0,2.1,1.2,3.7,2.6,3.7h4.8c1.4,0,2.6-1.6,2.6-3.7v-0.7
			C82.2,126.2,81,124.5,79.6,124.5z"/>
		<path class="st6" d="M93.6,124.5h-4.7c-1.4,0-2.6,1.6-2.6,3.7v0.7c0,2.1,1.2,3.7,2.6,3.7h4.7c1.4,0,2.6-1.6,2.6-3.7v-0.7
			C96.2,126.2,95,124.5,93.6,124.5z"/>
		<path class="st6" d="M107.6,124.5h-4.7c-1.4,0-2.6,1.6-2.6,3.7v0.7c0,2.1,1.2,3.7,2.6,3.7h4.7c1.4,0,2.6-1.6,2.6-3.7v-0.7
			C110.3,126.2,109.1,124.5,107.6,124.5z"/>
		<path class="st6" d="M121,124.5h-4.8c-1.4,0-2.6,1.6-2.6,3.7v0.7c0,2.1,1.2,3.7,2.6,3.7h4.8c1.4,0,2.6-1.6,2.6-3.7v-0.7
			C123.6,126.2,122.4,124.5,121,124.5z"/>
		<path class="st6" d="M162.4,124.5h-4.7c-1.5,0-2.6,1.6-2.6,3.7v0.7c0,2.1,1.2,3.7,2.6,3.7h4.7c1.4,0,2.6-1.6,2.6-3.7v-0.7
			C165,126.2,163.8,124.5,162.4,124.5z"/>
		<path class="st6" d="M135,124.5h-4.7c-1.4,0-2.6,1.6-2.6,3.7v0.7c0,2.1,1.2,3.7,2.6,3.7h4.7c1.5,0,2.6-1.6,2.6-3.7v-0.7
			C137.6,126.2,136.4,124.5,135,124.5z"/>
		<path class="st6" d="M205.9,124.5h-4.8c-1.4,0-2.6,1.6-2.6,3.7v0.7c0,2.1,1.2,3.7,2.6,3.7h4.8c1.4,0,2.6-1.6,2.6-3.7v-0.7
			C208.5,126.2,207.3,124.5,205.9,124.5z"/>
		<path class="st6" d="M149,124.5h-4.7c-1.4,0-2.6,1.6-2.6,3.7v0.7c0,2.1,1.2,3.7,2.6,3.7h4.7c1.4,0,2.6-1.6,2.6-3.7v-0.7
			C151.6,126.2,150.5,124.5,149,124.5z"/>
		<polygon class="st6" points="55.1,67.2 58.7,73.2 32.1,73.2 27.4,67.2 		"/>
		<polygon class="st5" points="51.6,67.2 55.1,73.2 53.3,73.2 50.1,66.8 		"/>
		<polygon class="st5" points="35.7,67.2 39.2,73.2 37.3,73.2 34.1,66.8 		"/>
		<polygon class="st5" points="43.9,67.2 47.5,73.2 45.6,73.2 42.4,66.8 		"/>
		<path class="st4" d="M39.5,160.9v2.3h13.3v-2.6h168.9c0,0,0.7,3.7,0,3.7H-77.8l-0.4-3.5L39.5,160.9z"/>
		<polygon class="st4" points="195.7,75.2 248.6,75.2 253,88.3 190.3,88.3 		"/>
		<polyline class="st4" points="60.6,63.3 12.5,63.3 15.4,58.4 60.6,58.9 		"/>
		<polyline class="st4" points="382.7,63.3 430.9,63.3 427.9,58.4 382.7,58.9 		"/>
		<line class="st7" x1="416.7" y1="87.4" x2="419.2" y2="86.2"/>
		<polygon class="st5" points="459.1,64.8 459.1,66 418.3,90.7 417.1,89.5 		"/>
		<polygon class="st5" points="437.3,78.2 437.6,79.5 404.9,114.4 403.4,113.7 		"/>
		<polygon class="st5" points="-14.9,64.8 -14.9,66 26,90.5 27.2,89.3 		"/>
		<polygon class="st5" points="6.9,78.1 6.6,79.4 39.4,114.1 40.9,113.4 		"/>
		<rect x="82.6" y="82" class="st6" width="3.7" height="6.2"/>
		<rect x="108.5" y="82" class="st6" width="3.7" height="6.2"/>
		<rect x="134.5" y="82" class="st6" width="3.7" height="6.2"/>
		<g>
			<g>
				<polygon class="st5" points="-42.8,114.2 -42.1,114.2 -45,124 -45.7,124 				"/>
				<polygon class="st5" points="-39.9,114.2 -39.1,114.2 -42.1,124 -42.8,124 				"/>
				<polygon class="st5" points="-36.9,114.2 -36.2,114.2 -39.1,124 -39.9,124 				"/>
				<polygon class="st5" points="-34,114.2 -33.3,114.2 -36.2,124 -36.9,124 				"/>
			</g>
			<g>
				<polygon class="st5" points="-31.1,114.2 -30.3,114.2 -33.3,124 -34,124 				"/>
				<polygon class="st5" points="-28.1,114.2 -27.4,114.2 -30.3,124 -31.1,124 				"/>
				<polygon class="st5" points="-25.2,114.2 -24.5,114.2 -27.4,124 -28.1,124 				"/>
				<polygon class="st5" points="-22.3,114.2 -21.5,114.2 -24.5,124 -25.2,124 				"/>
			</g>
			<g>
				<polygon class="st5" points="-19.3,114.2 -18.6,114.2 -21.5,124 -22.3,124 				"/>
				<polygon class="st5" points="-16.4,114.2 -15.7,114.2 -18.6,124 -19.3,124 				"/>
				<polygon class="st5" points="-13.5,114.2 -12.7,114.2 -15.7,124 -16.4,124 				"/>
				<polygon class="st5" points="-10.5,114.2 -9.8,114.2 -12.7,124 -13.5,124 				"/>
			</g>
			<g>
				<polygon class="st5" points="-7.6,114.2 -6.9,114.2 -9.8,124 -10.5,124 				"/>
				<polygon class="st5" points="-4.7,114.2 -3.9,114.2 -6.9,124 -7.6,124 				"/>
				<polygon class="st5" points="-1.7,114.2 -1,114.2 -3.9,124 -4.7,124 				"/>
				<polygon class="st5" points="1.2,114.2 1.9,114.2 -1,124 -1.7,124 				"/>
			</g>
		</g>
		<line class="st8" x1="-42.4" y1="114.4" x2="2.6" y2="114.4"/>
		<g>
			<g>
				<polygon class="st5" points="2.9,114.2 3.6,114.2 0.6,124 -0.1,124 				"/>
				<polygon class="st5" points="5.8,114.2 6.5,114.2 3.6,124 2.9,124 				"/>
				<polygon class="st5" points="8.7,114.2 9.5,114.2 6.5,124 5.8,124 				"/>
				<polygon class="st5" points="11.7,114.2 12.4,114.2 9.5,124 8.7,124 				"/>
			</g>
			<g>
				<polygon class="st5" points="14.6,114.2 15.3,114.2 12.4,124 11.7,124 				"/>
				<polygon class="st5" points="17.5,114.2 18.3,114.2 15.3,124 14.6,124 				"/>
				<polygon class="st5" points="20.5,114.2 21.2,114.2 18.3,124 17.5,124 				"/>
				<polygon class="st5" points="23.4,114.2 24.1,114.2 21.2,124 20.5,124 				"/>
			</g>
			<g>
				<polygon class="st5" points="26.3,114.2 27.1,114.2 24.1,124 23.4,124 				"/>
				<polygon class="st5" points="29.3,114.2 30,114.2 27.1,124 26.3,124 				"/>
				<polygon class="st5" points="32.2,114.2 32.9,114.2 30,124 29.3,124 				"/>
				<polygon class="st5" points="35.1,114.2 35.9,114.2 32.9,124 32.2,124 				"/>
			</g>
			<g>
				<polygon class="st5" points="38.1,114.2 38.8,114.2 35.9,124 35.1,124 				"/>
				<polygon class="st5" points="41,114.2 41.7,114.2 38.8,124 38.1,124 				"/>
				<polygon class="st5" points="43.9,114.2 44.7,114.2 41.7,124 41,124 				"/>
				<polygon class="st5" points="46.9,114.2 47.6,114.2 44.7,124 43.9,124 				"/>
			</g>
		</g>
		<line class="st8" x1="3.3" y1="114.4" x2="48.2" y2="114.4"/>
		<g>
			<g>
				<polygon class="st5" points="246,83.3 246.7,83.3 243.8,93.2 243.1,93.2 				"/>
				<polygon class="st5" points="249,83.3 249.7,83.3 246.7,93.2 246,93.2 				"/>
				<polygon class="st5" points="251.9,83.3 252.6,83.3 249.7,93.2 249,93.2 				"/>
				<polygon class="st5" points="254.8,83.3 255.6,83.3 252.6,93.2 251.9,93.2 				"/>
			</g>
			<g>
				<polygon class="st5" points="257.8,83.3 258.5,83.3 255.6,93.2 254.8,93.2 				"/>
				<polygon class="st5" points="260.7,83.3 261.4,83.3 258.5,93.2 257.8,93.2 				"/>
				<polygon class="st5" points="263.6,83.3 264.4,83.3 261.4,93.2 260.7,93.2 				"/>
				<polygon class="st5" points="266.6,83.3 267.3,83.3 264.4,93.2 263.6,93.2 				"/>
			</g>
			<g>
				<polygon class="st5" points="269.5,83.3 270.2,83.3 267.3,93.2 266.6,93.2 				"/>
				<polygon class="st5" points="272.4,83.3 273.2,83.3 270.2,93.2 269.5,93.2 				"/>
				<polygon class="st5" points="275.4,83.3 276.1,83.3 273.2,93.2 272.4,93.2 				"/>
				<polygon class="st5" points="278.3,83.3 279,83.3 276.1,93.2 275.4,93.2 				"/>
			</g>
			<g>
				<polygon class="st5" points="281.2,83.3 282,83.3 279,93.2 278.3,93.2 				"/>
				<polygon class="st5" points="284.2,83.3 284.9,83.3 282,93.2 281.2,93.2 				"/>
				<polygon class="st5" points="287.1,83.3 287.8,83.3 284.9,93.2 284.2,93.2 				"/>
				<polygon class="st5" points="290,83.3 290.8,83.3 287.8,93.2 287.1,93.2 				"/>
			</g>
		</g>
		<line class="st8" x1="246.4" y1="83.5" x2="291.4" y2="83.5"/>
		<g>
			<g>
				<polygon class="st5" points="291.7,83.3 292.4,83.3 289.5,93.2 288.7,93.2 				"/>
				<polygon class="st5" points="294.6,83.3 295.3,83.3 292.4,93.2 291.7,93.2 				"/>
				<polygon class="st5" points="297.6,83.3 298.3,83.3 295.3,93.2 294.6,93.2 				"/>
				<polygon class="st5" points="300.5,83.3 301.2,83.3 298.3,93.2 297.6,93.2 				"/>
			</g>
			<g>
				<polygon class="st5" points="303.4,83.3 304.2,83.3 301.2,93.2 300.5,93.2 				"/>
				<polygon class="st5" points="306.4,83.3 307.1,83.3 304.2,93.2 303.4,93.2 				"/>
				<polygon class="st5" points="309.3,83.3 310,83.3 307.1,93.2 306.4,93.2 				"/>
				<polygon class="st5" points="312.2,83.3 313,83.3 310,93.2 309.3,93.2 				"/>
			</g>
			<g>
				<polygon class="st5" points="315.2,83.3 315.9,83.3 313,93.2 312.2,93.2 				"/>
				<polygon class="st5" points="318.1,83.3 318.8,83.3 315.9,93.2 315.2,93.2 				"/>
				<polygon class="st5" points="321,83.3 321.8,83.3 318.8,93.2 318.1,93.2 				"/>
				<polygon class="st5" points="324,83.3 324.7,83.3 321.8,93.2 321,93.2 				"/>
			</g>
			<g>
				<polygon class="st5" points="326.9,83.3 327.6,83.3 324.7,93.2 324,93.2 				"/>
				<polygon class="st5" points="329.8,83.3 330.6,83.3 327.6,93.2 326.9,93.2 				"/>
				<polygon class="st5" points="332.8,83.3 333.5,83.3 330.6,93.2 329.8,93.2 				"/>
				<polygon class="st5" points="335.7,83.3 336.4,83.3 333.5,93.2 332.8,93.2 				"/>
			</g>
		</g>
		<line class="st8" x1="292.1" y1="83.5" x2="337.1" y2="83.5"/>
		<g>
			<g>
				<polygon class="st5" points="485.8,114.2 485,114.2 488,124 488.7,124 				"/>
				<polygon class="st5" points="482.8,114.2 482.1,114.2 485,124 485.8,124 				"/>
				<polygon class="st5" points="479.9,114.2 479.2,114.2 482.1,124 482.8,124 				"/>
				<polygon class="st5" points="477,114.2 476.2,114.2 479.2,124 479.9,124 				"/>
			</g>
			<g>
				<polygon class="st5" points="474,114.2 473.3,114.2 476.2,124 477,124 				"/>
				<polygon class="st5" points="471.1,114.2 470.4,114.2 473.3,124 474,124 				"/>
				<polygon class="st5" points="468.2,114.2 467.4,114.2 470.4,124 471.1,124 				"/>
				<polygon class="st5" points="465.2,114.2 464.5,114.2 467.4,124 468.2,124 				"/>
			</g>
			<g>
				<polygon class="st5" points="462.3,114.2 461.6,114.2 464.5,124 465.2,124 				"/>
				<polygon class="st5" points="459.4,114.2 458.6,114.2 461.6,124 462.3,124 				"/>
				<polygon class="st5" points="456.4,114.2 455.7,114.2 458.6,124 459.4,124 				"/>
				<polygon class="st5" points="453.5,114.2 452.8,114.2 455.7,124 456.4,124 				"/>
			</g>
			<g>
				<polygon class="st5" points="450.5,114.2 449.8,114.2 452.8,124 453.5,124 				"/>
				<polygon class="st5" points="447.6,114.2 446.9,114.2 449.8,124 450.5,124 				"/>
				<polygon class="st5" points="444.7,114.2 443.9,114.2 446.9,124 447.6,124 				"/>
				<polygon class="st5" points="441.7,114.2 441,114.2 443.9,124 444.7,124 				"/>
			</g>
		</g>
		<line class="st8" x1="485.8" y1="114.4" x2="440.8" y2="114.4"/>
		<g>
			<g>
				<polygon class="st5" points="440.1,114.2 439.4,114.2 442.3,124 443,124 				"/>
				<polygon class="st5" points="437.2,114.2 436.4,114.2 439.4,124 440.1,124 				"/>
				<polygon class="st5" points="434.2,114.2 433.5,114.2 436.4,124 437.2,124 				"/>
				<polygon class="st5" points="431.3,114.2 430.6,114.2 433.5,124 434.2,124 				"/>
			</g>
			<g>
				<polygon class="st5" points="428.4,114.2 427.6,114.2 430.6,124 431.3,124 				"/>
				<polygon class="st5" points="425.4,114.2 424.7,114.2 427.6,124 428.4,124 				"/>
				<polygon class="st5" points="422.5,114.2 421.8,114.2 424.7,124 425.4,124 				"/>
				<polygon class="st5" points="419.6,114.2 418.8,114.2 421.8,124 422.5,124 				"/>
			</g>
			<g>
				<polygon class="st5" points="416.6,114.2 415.9,114.2 418.8,124 419.6,124 				"/>
				<polygon class="st5" points="413.7,114.2 413,114.2 415.9,124 416.6,124 				"/>
				<polygon class="st5" points="410.7,114.2 410,114.2 413,124 413.7,124 				"/>
				<polygon class="st5" points="407.8,114.2 407.1,114.2 410,124 410.7,124 				"/>
			</g>
			<g>
				<polygon class="st5" points="404.9,114.2 404.1,114.2 407.1,124 407.8,124 				"/>
				<polygon class="st5" points="401.9,114.2 401.2,114.2 404.1,124 404.9,124 				"/>
				<polygon class="st5" points="399,114.2 398.3,114.2 401.2,124 401.9,124 				"/>
				<polygon class="st5" points="396.1,114.2 395.3,114.2 398.3,124 399,124 				"/>
			</g>
		</g>
		<line class="st8" x1="440.1" y1="114.4" x2="395.1" y2="114.4"/>
		<rect x="302.3" y="82" class="st6" width="3.7" height="6.2"/>
		<rect x="328.3" y="82" class="st6" width="3.7" height="6.2"/>
		<rect x="354.2" y="82" class="st6" width="3.7" height="6.2"/>
		<path class="st9" d="M-43.4,121.8h62.9l-59.6,3.3H9.7l-51.6,3.2H3.3c-1.1,0-45.1,3.3-45.1,3.3h38.7l-38.7,3.2H-8l-35.4,3.2h29
			l-29,4.9h21l-21,3.3h16.1l-17.7,3.2h12.9l-14.5,4.9h9.7l-9.7,3.2h6.5l-8.1,2.7l-7-0.5L-43.4,121.8z"/>
		<path class="st9" d="M189.3,88.4L201.2,62l38,0.1l-34.8,3.2h29.8l-31.4,3.2l26.4-0.1c-1.1,0-26.4,3.3-26.4,3.3h20.3L202.8,75
			l13,0.2l-14.6,3l8.7,1l-8.7,3.9l5.8,0.1l-5.8,3.1l2.5,0.2l2.3,1.9"/>
		<path class="st9" d="M20.5,113.4l9.1-35.9h50.1l-47.1,4.8l39.6,0.1l-40.5,3.1l35.5,0.2c-0.9,0-36.1,3.5-36.1,3.5l31.1-0.2
			l-31.3,3.1l27.6,0.1l-28.1,3l23.1,0.2l-23.2,3.5l17,1.4l-17.3,2.8l13.6,0.5l-14.2,3l10.5,0.2l-11.8,3.9l8,1"/>
		<path class="st9" d="M487,121.8h-62.9l59.6,3.3h-49.9l51.6,3.2h-45.1c1.1,0,45.1,3.3,45.1,3.3h-38.7l38.7,3.2h-33.8l35.4,3.2h-29
			l29,4.9h-21l21,3.3h-16.1l17.7,3.2h-12.9l14.5,4.9h-9.7l9.7,3.2h-6.4l8.1,2.7l7-0.5L487,121.8z"/>
		<path class="st9" d="M423,113.4l-9.1-35.9h-50.1l47.1,4.8l-39.6,0.1l40.5,3.1l-35.4,0.2c0.9,0,36.1,3.5,36.1,3.5l-31.1-0.2
			l31.3,3.1l-27.6,0.1l28.1,3l-23.1,0.2l23.2,3.5l-17,1.4l17.3,2.8l-13.6,0.5l14.2,3l-10.5,0.2l11.8,3.9l-8,1"/>
		<path class="st6" d="M81.7,102.3H77c-1.4,0-2.6,1.6-2.6,3.7v0.7c0,2.1,1.2,3.7,2.6,3.7h4.7c1.5,0,2.6-1.6,2.6-3.7V106
			C84.3,103.9,83.2,102.3,81.7,102.3z"/>
		<path class="st6" d="M43.9,102.3h-3.6c-1.1,0-2,1.6-2,3.7v0.7c0,2.1,0.9,3.7,2,3.7h3.6c1.1,0,2-1.6,2-3.7V106
			C45.9,103.9,45,102.3,43.9,102.3z"/>
		<path class="st6" d="M95.7,102.3H91c-1.4,0-2.6,1.6-2.6,3.7v0.7c0,2.1,1.2,3.7,2.6,3.7h4.7c1.4,0,2.6-1.6,2.6-3.7V106
			C98.4,103.9,97.2,102.3,95.7,102.3z"/>
		<path class="st6" d="M54.6,102.3H51c-1.1,0-2,1.6-2,3.7v0.7c0,2.1,0.9,3.7,2,3.7h3.7c1.1,0,2-1.6,2-3.7V106
			C56.6,103.9,55.7,102.3,54.6,102.3z"/>
		<path class="st6" d="M109.1,102.3h-4.7c-1.5,0-2.6,1.6-2.6,3.7v0.7c0,2.1,1.2,3.7,2.6,3.7h4.7c1.4,0,2.6-1.6,2.6-3.7V106
			C111.7,103.9,110.5,102.3,109.1,102.3z"/>
		<path class="st6" d="M123.1,102.3h-4.8c-1.4,0-2.6,1.6-2.6,3.7v0.7c0,2.1,1.2,3.7,2.6,3.7h4.8c1.4,0,2.6-1.6,2.6-3.7V106
			C125.7,103.9,124.6,102.3,123.1,102.3z"/>
		<path class="st6" d="M137.1,102.3h-4.7c-1.4,0-2.6,1.6-2.6,3.7v0.7c0,2.1,1.2,3.7,2.6,3.7h4.7c1.4,0,2.6-1.6,2.6-3.7V106
			C139.7,103.9,138.6,102.3,137.1,102.3z"/>
		<path class="st6" d="M150.5,102.3h-4.7c-1.4,0-2.6,1.6-2.6,3.7v0.7c0,2.1,1.2,3.7,2.6,3.7h4.7c1.4,0,2.6-1.6,2.6-3.7V106
			C153.1,103.9,151.9,102.3,150.5,102.3z"/>
		<path class="st6" d="M191.9,102.3h-4.7c-1.4,0-2.6,1.6-2.6,3.7v0.7c0,2.1,1.2,3.7,2.6,3.7h4.7c1.4,0,2.6-1.6,2.6-3.7V106
			C194.5,103.9,193.3,102.3,191.9,102.3z"/>
		<path class="st6" d="M164.5,102.3h-4.8c-1.4,0-2.6,1.6-2.6,3.7v0.7c0,2.1,1.2,3.7,2.6,3.7h4.8c1.4,0,2.6-1.6,2.6-3.7V106
			C167.1,103.9,165.9,102.3,164.5,102.3z"/>
		<path class="st6" d="M205.9,102.3h-4.8c-1.4,0-2.6,1.6-2.6,3.7v0.7c0,2.1,1.2,3.7,2.6,3.7h4.8c1.4,0,2.6-1.6,2.6-3.7V106
			C208.5,103.9,207.3,102.3,205.9,102.3z"/>
		<path class="st6" d="M178.5,102.3h-4.7c-1.4,0-2.6,1.6-2.6,3.7v0.7c0,2.1,1.2,3.7,2.6,3.7h4.7c1.4,0,2.6-1.6,2.6-3.7V106
			C181.1,103.9,179.9,102.3,178.5,102.3z"/>
		<g>
			<g>
				<polygon class="st5" points="154.7,83.3 155.4,83.3 152.5,93.2 151.7,93.2 				"/>
				<polygon class="st5" points="157.6,83.3 158.3,83.3 155.4,93.2 154.7,93.2 				"/>
				<polygon class="st5" points="160.6,83.3 161.3,83.3 158.3,93.2 157.6,93.2 				"/>
				<polygon class="st5" points="163.5,83.3 164.2,83.3 161.3,93.2 160.6,93.2 				"/>
			</g>
			<g>
				<polygon class="st5" points="166.4,83.3 167.1,83.3 164.2,93.2 163.5,93.2 				"/>
				<polygon class="st5" points="169.4,83.3 170.1,83.3 167.1,93.2 166.4,93.2 				"/>
				<polygon class="st5" points="172.3,83.3 173,83.3 170.1,93.2 169.4,93.2 				"/>
				<polygon class="st5" points="175.2,83.3 176,83.3 173,93.2 172.3,93.2 				"/>
			</g>
			<g>
				<polygon class="st5" points="178.2,83.3 178.9,83.3 176,93.2 175.2,93.2 				"/>
				<polygon class="st5" points="181.1,83.3 181.8,83.3 178.9,93.2 178.2,93.2 				"/>
				<polygon class="st5" points="184,83.3 184.8,83.3 181.8,93.2 181.1,93.2 				"/>
				<polygon class="st5" points="186.9,83.3 187.7,83.3 184.8,93.2 184,93.2 				"/>
			</g>
			<g>
				<polygon class="st5" points="189.9,83.3 190.6,83.3 187.7,93.2 186.9,93.2 				"/>
				<polygon class="st5" points="192.8,83.3 193.6,83.3 190.6,93.2 189.9,93.2 				"/>
				<polygon class="st5" points="195.8,83.3 196.5,83.3 193.6,93.2 192.8,93.2 				"/>
				<polygon class="st5" points="198.7,83.3 199.4,83.3 196.5,93.2 195.8,93.2 				"/>
			</g>
		</g>
		<line class="st8" x1="155.1" y1="83.5" x2="200.1" y2="83.5"/>
		<g>
			<g>
				<polygon class="st5" points="200.3,83.3 201.1,83.3 198.1,93.2 197.4,93.2 				"/>
				<polygon class="st5" points="203.3,83.3 204,83.3 201.1,93.2 200.3,93.2 				"/>
				<polygon class="st5" points="206.2,83.3 206.9,83.3 204,93.2 203.3,93.2 				"/>
				<polygon class="st5" points="209.2,83.3 209.9,83.3 206.9,93.2 206.2,93.2 				"/>
			</g>
			<g>
				<polygon class="st5" points="212.1,83.3 212.8,83.3 209.9,93.2 209.2,93.2 				"/>
				<polygon class="st5" points="215,83.3 215.8,83.3 212.8,93.2 212.1,93.2 				"/>
				<polygon class="st5" points="218,83.3 218.7,83.3 215.8,93.2 215,93.2 				"/>
				<polygon class="st5" points="220.9,83.3 221.6,83.3 218.7,93.2 218,93.2 				"/>
			</g>
			<g>
				<polygon class="st5" points="223.8,83.3 224.6,83.3 221.6,93.2 220.9,93.2 				"/>
				<polygon class="st5" points="226.8,83.3 227.5,83.3 224.6,93.2 223.8,93.2 				"/>
				<polygon class="st5" points="229.7,83.3 230.4,83.3 227.5,93.2 226.8,93.2 				"/>
				<polygon class="st5" points="232.6,83.3 233.4,83.3 230.4,93.2 229.7,93.2 				"/>
			</g>
			<g>
				<polygon class="st5" points="235.6,83.3 236.3,83.3 233.4,93.2 232.6,93.2 				"/>
				<polygon class="st5" points="238.5,83.3 239.2,83.3 236.3,93.2 235.6,93.2 				"/>
				<polygon class="st5" points="241.4,83.3 242.2,83.3 239.2,93.2 238.5,93.2 				"/>
				<polygon class="st5" points="244.4,83.3 245.1,83.3 242.2,93.2 241.4,93.2 				"/>
			</g>
		</g>
		<line class="st8" x1="200.7" y1="83.5" x2="245.7" y2="83.5"/>
		<polygon class="st9" points="73,40.6 73,39 89.1,38.1 90.7,38 		"/>
		<polygon class="st9" points="72.5,18.2 61,58.3 61.6,63.5 74,17.7 		"/>
		<polygon class="st9" points="370.6,40.6 370.6,39 354.5,38.1 352.9,38 		"/>
		<polygon class="st9" points="371.1,18.2 382.5,58.3 382,63.5 369.5,17.7 		"/>
	</g>
</g>
</svg>
