<?xml version="1.0" encoding="utf-8"?>
<!-- Generator: Adobe Illustrator 22.1.0, SVG Export Plug-In . SVG Version: 6.00 Build 0)  -->
<svg version="1.1" id="Capa_1" xmlns="http://www.w3.org/2000/svg" xmlns:xlink="http://www.w3.org/1999/xlink" x="0px" y="0px"
	 viewBox="0 0 595.3 209.9" style="enable-background:new 0 0 595.3 209.9;" xml:space="preserve">
<style type="text/css">
	.st0{fill:#D6C283;}
	.st1{fill-rule:evenodd;clip-rule:evenodd;fill:#FFFFFF;}
	.st2{fill-rule:evenodd;clip-rule:evenodd;fill:#CBB369;}
	.st3{clip-path:url(#SVGID_2_);}
	.st4{fill-rule:evenodd;clip-rule:evenodd;fill:#FFFFFF;stroke:#FFFFFF;stroke-miterlimit:10;}
	
		.st5{fill-rule:evenodd;clip-rule:evenodd;fill:#FFFFFF;stroke:#FFFFFF;stroke-linecap:round;stroke-linejoin:round;stroke-miterlimit:10;}
	.st6{fill-rule:evenodd;clip-rule:evenodd;fill:#D6C283;}
	.st7{fill-rule:evenodd;clip-rule:evenodd;fill:#11171F;}
	
		.st8{fill-rule:evenodd;clip-rule:evenodd;fill:none;stroke:#FFFFFF;stroke-linecap:round;stroke-linejoin:round;stroke-miterlimit:10;}
	
		.st9{fill-rule:evenodd;clip-rule:evenodd;fill:#11171F;stroke:#FFFFFF;stroke-linecap:round;stroke-linejoin:round;stroke-miterlimit:10;}
	.st10{fill-rule:evenodd;clip-rule:evenodd;fill:#A8A7A8;}
	.st11{fill-rule:evenodd;clip-rule:evenodd;fill:#D3D3D4;}
	.st12{fill-rule:evenodd;clip-rule:evenodd;fill:none;}
</style>
<g>
	<g>
		<path class="st0" d="M120.2,151.3c0.9,1.2,2,2.3,3.3,3.2c1.3,0.9,2.7,1.6,4.2,2.2c1.5,0.5,2.8,0.9,4.1,1c0.2,0.1,0.4,0.1,0.5,0
			c0.1-0.1,0-0.2-0.5-0.4c-1.2-0.2-2.4-0.7-3.8-1.6c-1.4-0.9-2.7-1.8-4-2.9c-1.2-1.1-2.3-2.2-3.1-3.2c-0.8-1-1.3-1.9-1.4-2.5
			c0-0.4,0-0.8,0.2-1.4c0.2-0.6,0.7-0.9,1.6-0.9c0.9-0.1,1.8,0.1,2.7,0.5c0.9,0.4,1.4,0.9,1.5,1.5c0.1,1.2,0,2.1-0.4,2.7
			s-0.4,0.8-0.3,0.8c0.4,0,0.7-0.5,1-1.3c0.3-0.8,0.4-1.6,0.4-2.3c-0.1-1.2-0.6-2-1.6-2.5c-1-0.5-2.1-0.7-3.4-0.6
			c-0.8,0.1-1.4,0.3-2,0.9c-0.5,0.5-0.8,1.4-0.7,2.6C118.7,148.6,119.3,150.1,120.2,151.3z"/>
		<path class="st0" d="M132.2,162c-1,0-2.2-0.2-3.4-0.7c-1.2-0.5-2.6-1-3.9-1.7c-1.4-0.7-2.8-1.4-4.3-2.2c-1.5-0.8-3-1.5-4.4-2.2
			c-1.5-0.6-2.9-1.2-4.4-1.6c-1.5-0.4-2.8-0.6-4.2-0.5c-0.5,0-1.1,0.1-1.7,0.3c-0.6,0.2-1.3,0.4-1.9,0.7c-0.6,0.3-1.3,0.7-1.9,1.1
			c-0.6,0.5-1.1,1-1.4,1.5c-0.1,0.2,0,0.4,0.1,0.4c0.1,0,0.3,0,0.6-0.2c1.4-1.9,3.6-2.9,6.4-3.1c1.3-0.1,2.8,0.3,4.7,1.2
			c1.9,0.9,3.9,1.9,6.1,3c2.2,1.1,4.6,2.1,7,3.1c2.4,0.9,4.8,1.3,7.1,1.2c0.2-0.1,0.2-0.3,0.2-0.4C132.7,162,132.5,162,132.2,162z"
			/>
		<path class="st0" d="M140.3,161.6c-1.8-0.1-3.7-0.5-5.4-1c-2.8-0.9-5.7-2.1-8.5-3.5c-2.3-1.2-4.7-2.5-7-3.9
			c-2.3-1.4-4.7-2.6-7-3.7c-2.4-1.1-4.8-2-7.3-2.7s-5.1-0.9-7.8-0.7c-3.4,0.2-5.9,1-7.4,2.2c-1.6,1.3-2.2,2.8-2.1,4.7
			c0.1,1,0.4,1.8,0.9,2.5c0.5,0.7,1.1,1.2,1.8,1.7c0.7,0.4,1.4,0.8,2.2,1s1.5,0.3,2.1,0.2c0.3,0,0.2-0.1-0.3-0.2
			c-0.5-0.2-1.1-0.4-1.8-0.9c-0.7-0.4-1.4-1-2.1-1.6c-0.7-0.7-1.1-1.5-1.2-2.6c0-0.5,0-1.2,0.2-1.9c0.2-0.7,0.5-1.4,1-2
			c0.5-0.6,1.1-1.1,2-1.6c0.8-0.5,1.8-0.7,3-0.8c2.6-0.2,5.2,0.1,7.6,0.8c2.5,0.7,4.9,1.6,7.4,2.8c2.4,1.2,4.9,2.5,7.3,3.9
			c2.5,1.4,5,2.7,7.7,3.9c2.7,1.3,5.5,2.3,8.4,3.2c2.5,0.7,5.1,1.1,8,1"/>
		<g>
			<path class="st1" d="M168,80.8c0,3.9,0,7.1-0.2,8.9c-0.2,1.2-0.4,2.1-1.2,2.2c-0.4,0.1-0.9,0.2-1.2,0.2c-0.2,0-0.3,0.1-0.3,0.3
				c0,0.3,0.2,0.4,0.7,0.4h8.9c0.5,0,0.7-0.1,0.7-0.4c0-0.1-0.1-0.3-0.4-0.3c-0.4,0-1.4-0.1-2-0.2c-1.3-0.2-1.6-1.1-1.7-2.2
				c-0.2-1.7-0.2-4.9-0.2-8.9v-3.5c0-0.3,0.1-0.4,0.3-0.4c0.7,0,5.6,0,6.7,0.1c1.4,0.2,2.1,0.9,2.3,1.5c0.2,0.5,0.2,1.1,0.3,1.5
				c0,0.2,0.1,0.4,0.3,0.4c0.4,0,0.4-0.4,0.4-0.8c0-0.3,0.1-1.9,0.2-2.7c0.1-1.3,0.3-2,0.3-2.2c0-0.2,0-0.3-0.2-0.3
				c-0.2,0-0.3,0.2-0.5,0.4c-0.4,0.5-1,0.6-2.1,0.7c-0.6,0-1.2,0-2,0l-5.7,0c-0.3,0-0.3-0.1-0.3-0.4V64c0-0.3,0.1-0.4,0.4-0.4
				l6.8,0.1c1.7,0,2.8,0.8,3.1,1.3c0.2,0.5,0.4,1.2,0.4,1.5c0,0.3,0.1,0.5,0.3,0.5c0.2,0,0.3-0.2,0.3-0.4c0.1-0.7,0.2-2.5,0.2-2.9
				c0.1-1.1,0.3-1.6,0.3-1.9c0-0.2-0.1-0.4-0.2-0.4c-0.2,0-0.3,0.2-0.6,0.2c-0.4,0.5-1.1,0.5-2,0.5c-1,0-9.8,0-10.6,0l-1.5,0
				c-0.9,0-2,0-2.9,0c-0.5,0-0.7,0.1-0.7,0.3c0,0.1,0.2,0.2,0.3,0.2c0.4,0.2,1.1,0.2,1.4,0.3c1.4,0.3,1.7,0.9,1.8,2.3
				c0.1,1.3,0.1,2.4,0.1,8.6V80.8z"/>
			<path class="st1" d="M193.3,82.4c0,3.4,0,6.2-0.2,7.6c-0.2,1-0.2,1.7-0.9,1.9c-0.3,0-0.8,0.1-1.1,0.1c-0.2,0-0.3,0.2-0.3,0.3
				c0,0.1,0.2,0.2,0.6,0.2c0.6,0,1.4,0,2.1-0.1c0.7,0.1,1.4,0.1,1.5,0.1c0.5,0,1.4,0,2.9,0.1c1.5-0.1,3.7,0,6.5,0
				c1.5,0,1.9,0,2.1-0.9c0.2-0.7,0.5-3.1,0.5-3.4s0-0.1-0.2-0.1c-0.2,0-0.3-0.3-0.4,0.1c-0.2,1.4-0.7,2-1.7,2.4
				c-1,0.4-2.8,0.4-3.8,0.4c-3.7,0-4.4-0.5-4.5-2.8c0-0.7,0-4.8,0-6v-2.9c0-0.1,0-0.2,0.3-0.2c0.6,0,4.6,0,5.7,0.2
				c1.4,0.2,1.8,0.6,1.9,1.1c0.2,0.5,0.2,0.8,0.2,1.1c0,0.2,0.1,0.3,0.3,0.3c0.3,0,0.4-0.4,0.4-0.7c0-0.2,0.1-1.6,0.2-2.3
				c0.1-1.1,0.3-1.7,0.3-1.9s-0.1-0.3-0.2-0.3c-0.1,0-0.3,0.2-0.6,0.4c-0.4,0.4-1,0.4-1.9,0.5c-0.9,0.1-5.8,0.1-6.2,0.1
				c-0.2,0-0.2-0.1-0.2-0.4v-8.9c0-0.2,0-0.4,0.2-0.4c0.4,0,4.8,0,5.4,0.1c2,0.2,2.4,0.5,2.7,1c0.2,0.4,0.2,0.9,0.2,1.2
				c0,0.3,0.1,0.4,0.3,0.4c0.2,0,0.3-0.2,0.3-0.3c0.1-0.7,0.2-2.3,0.2-2.6c0.1-1,0.3-1.4,0.3-1.6c0-0.2,0-0.3-0.2-0.3
				c-0.2,0-0.3,0.1-0.5,0.2c-0.3,0.5-1.1,0.6-1.8,0.6c-0.9,0-8.5,0-8.8,0c-0.2,0-2.4-0.1-4.1-0.1c-0.4,0-0.6,0.1-0.6,0.3
				c0,0.1,0.2,0.3,0.3,0.3c0.3,0.1,0.9,0.1,1.2,0.2c1.2,0.1,1.4,0.7,1.5,1.8c0.1,1,0.1,2,0.1,7V82.4z"/>
			<path class="st1" d="M220.9,68.8c0-0.2,0.1-0.3,0.3-0.4c0.4-0.1,1.6-0.2,2.7-0.2c4.1,0,6.5,2.3,6.5,6.4c0,2.5-1,4.2-2.3,5
				c-0.9,0.5-1.9,0.6-2.8,0.6c-1.7,0-3.6-0.2-4.2-0.5c-0.2-0.1-0.3-0.2-0.3-0.4V68.8z M217.9,82.6c0,3.3,0,6-0.2,7.4
				c-0.2,1-0.2,1.7-1,1.8c-0.3,0.1-0.8,0.2-1.1,0.2c-0.2,0-0.3,0.2-0.3,0.3c0,0.2,0.2,0.4,0.6,0.4h8.1c0.4,0,0.6-0.1,0.6-0.4
				c0-0.1,0-0.3-0.3-0.3c-0.4,0-1.2-0.1-1.7-0.2c-1.2-0.2-1.4-0.8-1.5-1.8c-0.2-1.4-0.2-4.1-0.2-7.4v-0.8c0-0.2,0.1-0.3,0.3-0.3
				l4.8,0.1c0.2,0,0.3,0,0.5,0.2c0.8,0.9,2.5,3.1,4.1,5c1.9,2.6,3.2,4.2,4.7,5.1c0.9,0.6,1.8,0.8,3.9,0.8h2.2c0.7,0,0.9-0.1,0.9-0.4
				c0-0.1-0.1-0.3-0.3-0.3s-0.6,0-1.3-0.1c-0.9-0.1-2.1-0.4-4-2.4c-2.1-2.1-4.5-5.3-7.4-9.1c3.3-2.7,4.3-5.1,4.3-7.5
				c0-2.3-1.5-3.8-2.3-4.4c-1.9-1.5-4.6-1.7-7-1.7h-8.9c-0.4,0-0.6,0.1-0.6,0.3c0,0.1,0.2,0.3,0.3,0.3c0.3,0,0.9,0,1.2,0
				c1.2,0.1,1.4,0.7,1.5,1.8c0.1,1,0.1,2,0.1,7.1V82.6z"/>
			<path class="st1" d="M250.1,68.8c0-0.2,0.1-0.3,0.3-0.4c0.4-0.1,1.6-0.2,2.7-0.2c4,0,6.5,2.3,6.5,6.4c0,2.5-1,4.2-2.3,5
				c-0.9,0.5-1.9,0.6-2.8,0.6c-1.7,0-3.6-0.2-4.2-0.5c-0.2-0.1-0.3-0.2-0.3-0.4V68.8z M247.1,82.6c0,3.3,0,6-0.2,7.4
				c-0.2,1-0.2,1.7-0.9,1.8c-0.3,0.1-0.8,0.2-1.1,0.2c-0.2,0-0.3,0.2-0.3,0.3c0,0.2,0.2,0.4,0.6,0.4h8.1c0.4,0,0.6-0.1,0.6-0.4
				c0-0.1,0-0.3-0.3-0.3c-0.3,0-1.2-0.1-1.7-0.2c-1.2-0.2-1.4-0.8-1.5-1.8c-0.2-1.4-0.2-4.1-0.2-7.4v-0.8c0-0.2,0.1-0.3,0.3-0.3
				l4.8,0.1c0.3,0,0.3,0,0.5,0.2c0.8,0.9,2.5,3.1,4.1,5c1.9,2.6,3.1,4.2,4.7,5.1c0.9,0.6,1.8,0.8,3.9,0.8h2.3c0.6,0,0.9-0.1,0.9-0.4
				c0-0.1-0.1-0.3-0.3-0.3c-0.2,0-0.6,0-1.3-0.1c-0.9-0.1-2.1-0.4-4-2.4c-2.1-2.1-4.5-5.3-7.4-9.1c3.3-2.7,4.3-5.1,4.3-7.5
				c0-2.3-1.5-3.8-2.3-4.4c-1.9-1.5-4.6-1.7-7-1.7h-8.9c-0.4,0-0.6,0.1-0.6,0.3c0,0.1,0.2,0.3,0.3,0.3c0.3,0,0.9,0,1.2,0
				c1.2,0.1,1.4,0.7,1.5,1.8c0.1,1,0.1,2,0.1,7.1V82.6z"/>
			<path class="st1" d="M280.3,86.7c0,0.6,0,2-0.1,3.4c-0.1,1-0.3,1.6-1.1,1.8c-0.3,0.1-0.7,0.2-1.1,0.2c-0.2,0-0.3,0.2-0.3,0.3
				c0,0.2,0.2,0.4,0.6,0.4h7.9c0.4,0,0.6-0.1,0.6-0.4c0-0.1-0.1-0.3-0.3-0.3c-0.3,0-1.1-0.1-1.6-0.2c-1.1-0.2-1.3-0.8-1.4-1.8
				c-0.1-1.4-0.1-2.8-0.1-3.4v-2.9c0-1.1-0.2-2.2,0.5-3.4c0.7-1.4,5.8-9.4,7-10.8c0.8-0.9,1.1-1.3,1.8-1.7c0.6-0.3,1.3-0.4,1.7-0.4
				c0.3,0,1.1-0.2,1.1-0.4c0-0.1-0.8-0.2-1.1-0.2h-6c-0.4,0-0.6,0.1-0.6,0.2c0,0.2,0.2,0.4,0.5,0.5c0.4,0.1,0.6,0.4,0.6,0.9
				c0,0.4-0.2,1-0.6,1.8c-0.6,1.1-5.1,8.4-5.8,9.8l-6.4-10.6c-0.2-0.4-0.5-0.8-0.5-1.3c0-0.3,0.2-0.4,0.5-0.6
				c0.3-0.1,0.6-0.3,0.6-0.4c0-0.2-0.1-0.3-0.5-0.3h-6.7c-0.3,0-0.4,0.1-0.4,0.3c0,0.2,0.2,0.4,0.4,0.4c0.3,0,1,0.2,1.5,0.5
				c0.7,0.4,1.5,1.2,2.4,2.5c1.2,1.8,6.1,9.4,6.4,9.9c0.5,1,0.8,1.6,0.8,3.5V86.7z"/>
		</g>
		<g>
			<path class="st1" d="M97,112.2c0-6.3,0-7.4,0.1-8.7c0.1-1.4,0.4-2.1,1.6-2.3c0.5-0.1,1.1-0.1,1.4-0.1c0.2,0,0.3-0.1,0.3-0.3
				c0-0.3-0.2-0.4-0.7-0.4H91c-0.5,0-0.7,0.1-0.7,0.4c0,0.2,0.2,0.3,0.3,0.3c0.4,0,1.1,0,1.4,0.1c1.4,0.3,1.7,0.9,1.8,2.3
				c0.1,1.3,0.1,2.4,0.1,8.7v7.1c0,3.8,0,6.9-0.2,8.6c-0.2,1.2-0.4,2.1-1.2,2.2c-0.4,0.2-0.9,0.2-1.2,0.2c-0.2,0-0.3,0.1-0.3,0.3
				c0,0.3,0.2,0.4,0.7,0.4c0.6,0,1.5-0.1,2.3-0.1c0.7,0,1.3,0,1.5,0c1.1,0,2.3,0,4,0.1c1.7-0.1,3.9-0.1,6.8-0.1c2.2,0,2.3-0.1,2.6-1
				c0.3-1.1,0.6-3.6,0.6-4s0-0.6-0.2-0.6c-0.2,0-0.3,0.2-0.4,0.5c-0.1,0.8-0.5,1.8-1.1,2.4c-1,1.2-2.8,1.2-5,1.2
				c-3.2,0-4.3-0.3-4.9-0.9c-0.7-0.7-0.9-3.3-0.9-9.2V112.2z"/>
			<path class="st1" d="M121.8,120.1c-0.1,0-0.2-0.1-0.1-0.2l3.4-9.5c0.2-0.5,0.4-0.5,0.6,0l3.6,9.5c0,0.2,0,0.2-0.1,0.2H121.8z
				 M116.6,127.2c-0.7,1.7-1.4,2.9-3,3.1c-0.3,0-0.8,0.1-1.1,0.1c-0.2,0-0.3,0.1-0.3,0.3c0,0.2,0.2,0.4,0.7,0.4h6.9
				c0.3,0,0.5-0.1,0.5-0.4c0-0.2-0.1-0.3-0.4-0.3h-0.3c-0.6,0-1.2-0.2-1.2-0.9c0-0.6,0.2-1.4,0.5-2.3l2.1-5.4
				c0.1-0.2,0.2-0.3,0.4-0.3h8.3c0.2,0,0.2,0,0.3,0.2l3.2,7.7c0.2,0.6-0.1,0.8-0.3,0.9c-0.2,0.1-0.2,0.1-0.2,0.3
				c0,0.2,0.6,0.2,1.3,0.3c2.5,0.1,5.2,0.1,5.7,0.1c0.4,0,0.8-0.1,0.8-0.4c0-0.2-0.2-0.3-0.5-0.3c-0.4,0-0.9,0-1.4-0.2
				c-0.8-0.2-1.8-0.7-3.1-3.7c-2.2-5.1-8-19.4-8.6-20.8c-0.4-0.8-0.5-1.3-0.9-1.3c-0.2,0-0.4,0.2-0.9,1.3L116.6,127.2z"/>
			<path class="st1" d="M147.3,110.3c1.1,1.2,5.1,5.4,9.2,9.6c3.7,4.4,8.8,9.5,9.2,9.8c2.1,1.8,2.5,2,2.8,2c0.3,0,0.3-0.2,0.3-2.4
				l0.1-20.5c0-2.1,0.1-2.8,1.3-3c0.4-0.1,0.7-0.1,0.9-0.1c0.2,0,0.4-0.2,0.4-0.4c0-0.2-0.3-0.3-0.6-0.3h-6.9c-0.4,0-0.7,0-0.7,0.3
				c0,0.1,0,0.4,0.3,0.4c0.3,0,1.1,0,1.7,0.2c1.1,0.2,1.3,1,1.3,3.2l0.4,17.5c-1.1-1.2-4.9-5.3-8.4-9c-5.5-6.2-10.6-11.7-11.2-12.2
				c-0.4-0.4-1-1.1-1.4-1.1c-0.3,0-0.5,0.4-0.5,1.7v19.7c0,3.1-0.1,4.1-1,4.3c-0.5,0.2-1.2,0.2-1.5,0.2c-0.2,0-0.3,0.1-0.3,0.3
				c0,0.3,0.2,0.4,0.6,0.4h7.3c0.4,0,0.6-0.1,0.6-0.4c0-0.2-0.1-0.3-0.3-0.3c-0.3,0-1.1,0-1.8-0.2c-1-0.2-1.3-1.1-1.4-3.9
				L147.3,110.3z"/>
			<path class="st1" d="M184.7,107.5c0-0.4,0.1-0.6,0.5-0.7c0.3-0.1,1.5-0.2,2.2-0.2c4.4,0,8.5,0.4,12,3.8c1.5,1.5,3.5,4.2,3.5,8.6
				c0,3.1-1,6.4-2.9,8.2c-2.2,2-5.3,3.1-8.7,3.1c-4.4,0-5.7-0.7-6.2-1.4c-0.3-0.4-0.4-1.6-0.4-2.5c0-0.6,0-3.8,0-7.5V107.5z
				 M181.6,121.4c0,3,0,5.7-0.2,7.1c-0.2,1-0.2,1.6-1,1.8c-0.3,0.1-0.8,0.2-1.1,0.2c-0.2,0-0.3,0.2-0.3,0.3c0,0.2,0.2,0.4,0.6,0.4
				c0.6,0,1.4-0.1,2.2-0.1c0.7,0,1.3,0,1.4,0c0.1,0,1.3,0.1,2.9,0.2c1.6,0.5,3.6,0.6,5.2,0.6c6.3,0,9.7-2.6,11.3-4.1
				c1.8-2,3.4-5.3,3.4-9.7c0-4.1-1.5-6.9-3.1-8.7c-4.4-4.5-11.2-4.1-14.9-4.1h-8.9c-0.4,0-0.6,0.1-0.6,0.3c0,0.1,0.2,0.3,0.3,0.3
				c0.3,0,0.9,0,1.2,0.1c1.2,0.2,1.4,0.7,1.5,1.9c0.1,1.1,0.1,2.1,0.1,7.4V121.4z"/>
			<path class="st1" d="M219.5,115.1c0-5.3,0-6.2,0-7.3c0.1-1.2,0.3-1.7,1.3-1.9c0.4-0.1,0.7-0.1,0.9-0.1c0.1,0,0.3-0.2,0.3-0.3
				c0-0.2-0.2-0.3-0.6-0.3h-7c-0.4,0-0.6,0.1-0.6,0.3c0,0.1,0.1,0.3,0.3,0.3c0.2,0,0.7,0,1.1,0.1c0.8,0.2,1.1,0.7,1.1,1.8
				c0.1,1.1,0.1,2,0.1,7.3v6c0,3.3,0,6-0.2,7.4c-0.1,1-0.2,1.6-0.9,1.8c-0.3,0.1-0.8,0.2-1.1,0.2c-0.2,0-0.3,0.2-0.3,0.3
				c0,0.2,0.2,0.4,0.6,0.4h7.9c0.4,0,0.6-0.1,0.6-0.4c0-0.1-0.1-0.3-0.3-0.3c-0.3,0-1.1-0.1-1.6-0.2c-1.1-0.2-1.2-0.8-1.3-1.8
				c-0.2-1.4-0.2-4.1-0.2-7.4V115.1z"/>
			<path class="st1" d="M235,110.3c1.1,1.2,5.1,5.4,9.2,9.6c3.7,4.4,8.8,9.5,9.2,9.8c2.1,1.8,2.5,2,2.8,2c0.3,0,0.3-0.2,0.3-2.4
				l0.1-20.5c0-2.1,0.1-2.8,1.3-3c0.4-0.1,0.7-0.1,0.9-0.1c0.2,0,0.4-0.2,0.4-0.4c0-0.2-0.3-0.3-0.6-0.3h-6.9c-0.4,0-0.7,0-0.7,0.3
				c0,0.1,0,0.4,0.3,0.4c0.3,0,1.1,0,1.7,0.2c1.1,0.2,1.3,1,1.3,3.2l0.4,17.5c-1.1-1.2-4.9-5.3-8.4-9c-5.5-6.2-10.6-11.7-11.2-12.2
				c-0.4-0.4-1-1.1-1.4-1.1c-0.3,0-0.5,0.4-0.5,1.7v19.7c0,3.1-0.1,4.1-1,4.3c-0.5,0.2-1.2,0.2-1.5,0.2c-0.2,0-0.3,0.1-0.3,0.3
				c0,0.3,0.2,0.4,0.6,0.4h7.3c0.4,0,0.6-0.1,0.6-0.4c0-0.2-0.1-0.3-0.3-0.3c-0.3,0-1.1,0-1.8-0.2c-1-0.2-1.3-1.1-1.4-3.9L235,110.3
				z"/>
			<path class="st1" d="M286.7,128.5c0,0.7-0.3,0.9-0.8,1.1c-1,0.6-2.7,0.7-4,0.7c-3.4,0-6.6-1-9.5-3.8c-1.3-1.2-3.9-4.9-3.9-10
				c0-3.9,1.5-7,3.7-8.5c2.8-2,5.5-2.2,7.8-2.2c4.6,0,7.4,1.4,8.3,2.6c0.6,0.8,0.8,1.8,0.8,2.2c0,0.3,0,0.5,0.3,0.5
				c0.2,0,0.4-0.2,0.4-0.7c0-3.4,0.2-4.3,0.2-4.8c0-0.2-0.1-0.3-0.5-0.3c-0.9,0-2.2-0.2-3-0.4c-0.7-0.2-3.3-0.6-5.6-0.6
				c-2.8,0-6.5,0.2-9.8,2.2c-3.2,1.9-5.7,5.7-5.7,11.1c0,4.6,1.9,8.5,4,10.4c4.1,3.4,9.3,3.7,12.1,3.7c2.3,0,5.7-0.3,7.8-1.4
				c0.4-0.2,0.5-0.3,0.5-2v-4.1c0-1.5,0-2.6,0-3.7c0.1-1.3,0.4-1.8,1.4-2c0.4-0.1,0.7-0.1,0.9-0.1c0.1,0,0.3-0.2,0.3-0.3
				c0-0.3-0.2-0.3-0.6-0.3h-7.6c-0.4,0-0.6,0-0.6,0.3c0,0.1,0.2,0.3,0.3,0.3c0.3,0,1,0,1.3,0.1c1.5,0.3,1.6,0.7,1.6,3.7V128.5z"/>
		</g>
		<g>
			<path class="st2" d="M158.9,168.3c2.2,0,4.3-0.3,6-1.1c2.8-2,3.5-5.1,3.5-6.8c0-3.3-1.1-5.8-5.9-9.7l-1.1-0.9
				c-3.6-3.1-4.6-4.6-4.6-6.9c0-3,2.1-4.8,4.8-4.8c3.6,0,4.7,1.7,4.9,2.2c0.2,0.5,0.5,1.6,0.5,2.1c0,0.3,0.1,0.5,0.3,0.5
				c0.2,0,0.3-0.3,0.3-0.9c0-3.1,0.2-4.5,0.2-4.8s-0.1-0.3-0.4-0.3c-0.3,0-0.7,0-1.4-0.2c-1,0.6-2.1,0.5-3.6,0.5
				c-4.9,0-8.3,2.5-8.3,6.9c0,2.8,1.1,5.3,5.4,8.9l1.7,1.5c3.3,2.9,4.4,4.6,4.4,7.4c0,2.6-1.8,5.5-5.5,5.5c-2.9,0-5.5-1.2-6.1-4.2
				c-0.1-0.6-0.1-1.2-0.1-1.5c0-0.3,0-0.5-0.3-0.5c-0.2,0-0.3,0.2-0.4,0.7c0,0.7-0.2,2.3-0.2,4.4c0,1.1,0,1.2,0.7,1.4
				C155.2,168.1,157,168.3,158.9,168.3z"/>
			<path class="st2" d="M177.6,157c0,5.2,1.3,7.7,2.8,9.4c2.7,1.9,6.8,2,8.1,2c2.3,0,5.3-0.2,8.2-2.1c2.5-2.5,2.9-6.9,2.9-10.7v-3.8
				c0-5.5,0-6.5,0-7.7c0.1-1.2,0.3-1.8,1.3-2c0.5-0.1,0.7-0.1,0.9-0.1c0.2,0,0.3-0.3,0.3-0.5c0-0.3-0.2-0.5-0.6-0.5H195
				c-0.4,0-0.6,0.1-0.6,0.5c0,0.2,0.1,0.5,0.3,0.5c0.4,0,1,0,1.3,0.1c1.3,0.2,1.5,0.8,1.6,2c0,1.1,0.1,2.1,0.1,7.7v4.5
				c0,3.7-0.4,6.6-2.2,8.6c-1.3,1.5-3.6,2.5-6,2.5c-2.2,0-3.9-0.3-5.8-1.9c-1.7-1.4-2.9-3.6-2.9-8.7v-5c0-5.5,0-6.5,0.1-7.7
				c0.1-1.2,0.3-1.8,1.3-2c0.5-0.1,0.7-0.1,1-0.1c0.2,0,0.4-0.3,0.4-0.5c0-0.3-0.2-0.5-0.7-0.5h-7.6c-0.4,0-0.6,0.1-0.6,0.5
				c0,0.2,0.2,0.5,0.3,0.5c0.3,0,0.9,0,1.2,0.1c1.2,0.2,1.4,0.8,1.5,2c0.1,1.1,0.1,2.1,0.1,7.7V157z"/>
			<path class="st2" d="M215,151.7c0-5.5,0-6.5,0-7.7c0.1-1.2,0.3-1.8,1.3-2c0.4-0.1,0.6-0.1,0.9-0.1c0.1,0,0.3-0.3,0.3-0.5
				c0-0.3-0.2-0.5-0.6-0.5h-7c-0.4,0-0.6,0.1-0.6,0.5c0,0.2,0.1,0.5,0.3,0.5c0.2,0,0.7,0,1.1,0.1c0.8,0.2,1.1,0.7,1.1,1.9
				c0.1,1.1,0.1,2.1,0.1,7.7v6.3c0,3.4,0,6.2-0.2,7.7c-0.1,1-0.2,1.7-1,1.9c-0.3,0.1-0.8,0.2-1.1,0.2c-0.2,0-0.3,0.3-0.3,0.5
				c0,0.3,0.2,0.5,0.6,0.5h7.8c0.4,0,0.6-0.2,0.6-0.5c0-0.2-0.1-0.5-0.3-0.5c-0.3,0-1.1-0.1-1.6-0.2c-1.1-0.2-1.2-0.8-1.3-1.9
				c-0.2-1.5-0.2-4.3-0.2-7.7V151.7z"/>
			<path class="st2" d="M236.6,142.3l4.9,0.1c3.7,0.1,4.6,0.9,4.7,2l0.1,0.4c0,0.5,0.1,0.6,0.3,0.6c0.2,0,0.4-0.2,0.4-0.5
				c0,0.3,0.2-2.3,0.2-3.3c0-0.2,0-0.4-0.2-0.4c-0.2,0-0.6,0.1-1.2,0.2c-0.6,0-1.5,0-2.8,0h-13.9c-0.4,0-1.8,0-2.8-0.2
				c-1,0.2-1.4-0.1-1.6-0.1c-0.1,0-0.3,0.5-0.4,0.7c-0.1-0.2-0.8,2.5-0.8,2.9c0,0.2,0.2,0.3,0.2,0.3c0.2,0,0.3,0,0.4-0.3
				c0.1-0.3,0.2-0.5,0.6-1.2c0.5-0.9,1.4-1.1,3.7-1.2l5.2-0.1v15.4c0,3.5,0,6.4-0.2,7.9c-0.1,1.1-0.3,1.8-1.1,2
				c-0.3,0.1-0.7,0.2-1.1,0.2c-0.2,0-0.3,0.2-0.3,0.4c0,0.4,0.2,0.5,0.6,0.5h8.2c0.4,0,0.6-0.2,0.6-0.5c0-0.2,0-0.5-0.3-0.5
				c-0.4,0-1.2-0.1-1.8-0.2c-1.2-0.2-1.4-0.9-1.5-1.9c-0.2-1.5-0.2-4.4-0.2-7.9V142.3z"/>
			<path class="st2" d="M256.3,158.1c0,3.4,0,6.2-0.2,7.7c-0.2,1.1-0.2,1.8-0.9,1.9c-0.3-0.1-0.8,0-1.1,0c-0.2,0-0.3,0.3-0.3,0.5
				c0,0,0.2,0.1,0.6,0.1c0.6,0,1.4,0,2.1-0.1c0.7,0.3,1.4,0.3,1.4,0.3c0.5,0,1.4,0,2.8,0.1c1.4-0.3,3.5-0.3,6.1-0.3
				c1.7,0,2.1,0,2.4-0.6c0.2-0.5,0.5-3.1,0.5-3.3c0-0.3,0-1.2-0.2-1.2s-0.3,0.8-0.4,1.2c-0.2,1.5-0.7,2.1-1.9,2.6
				c-1,0.4-2.7,0.4-3.6,0.4c-3.5,0-4.1-0.5-4.2-3c0-0.7,0-5,0-6.3V155c0-0.1,0-0.3,0.2-0.3c0.6,0,4.4,0,5.3,0.2
				c1.4,0.2,1.7,0.6,1.8,1.1c0.2,0.5,0.2,0.9,0.2,1.2c0,0.2,0.1,0.4,0.4,0.4c0.4,0,0.5-0.4,0.5-0.7c0-0.3,0.1-1.6,0.2-2.3
				c0.1-0.8,0.3-1.4,0.3-1.6c0-0.2-0.1-0.3-0.2-0.3c-0.1,0-0.3,0.2-0.7,0.5c-0.5,0.4-1.1,0.5-1.9,0.6c-0.8,0.1-5.4,0.1-5.9,0.1
				c-0.2,0-0.2-0.1-0.2-0.4v-10.7c0-0.3,0-0.4,0.2-0.4c0.4,0,4.5,0,5.1,0.1c1.9,0.3,2.3,0.6,2.7,1.2c0.3,0.5,0.3,1.1,0.3,1.4
				c0,0.3,0.1,0.5,0.3,0.5c0.2,0,0.3-0.2,0.3-0.4c0.1,0.1,0.2-1.5,0.2-1.9c0.1-1,0.3-1.5,0.3-1.7c0-0.2,0-0.4-0.2-0.4
				c-0.2,0-0.3,0.1-0.5,0.2c-0.3-0.1-1.3,0-2,0c-0.8,0-8.1,0-8.3,0c-0.2,0-2.4-0.1-4.1-0.1c-0.4,0-0.6,0.1-0.6,0.2
				c0,0.1,0.2,0.2,0.3,0.2c0.3,0.2,0.9,0.3,1.2,0.3c1.2,0.2,1.4,0.8,1.5,2.1c0.1,1.2,0.1,2.2,0.1,8V158.1z"/>
			<path class="st2" d="M282.6,168.3c1.9,0,4.1-0.2,5.5-0.8c2.6-1.7,3.3-3.9,3.3-6c0-3.1-1.5-5.5-5.8-8.6l-1-0.7
				c-3.6-2.5-4.7-3.8-4.7-6c0-2.5,2.1-3.8,4.7-3.8c3.2,0,4.4,1.3,4.6,1.8c0.2,0.4,0.5,1.3,0.5,1.8c0,0.3,0.1,0.5,0.3,0.5
				c0.2-0.3,0.3-0.5,0.3-1.1c0-2.5,0.2-3.7,0.2-3.9c0-0.2-0.1-0.3-0.4-0.3c-0.3,0-0.6,0-1.3-0.2c-0.9,0.6-2.3,0.5-3.7,0.5
				c-4.7,0-7.3,2-7.3,6.2c0,2.5,1,4.6,4.5,7.6l1.6,1.3c3.2,2.4,4.5,3.6,4.5,6.2c0,2.7-1.8,4.7-5.3,4.7c-2.2,0-4.8-0.9-5.3-3.5
				c-0.1-0.5-0.1-1-0.1-1.3c0-0.3-0.1-0.4-0.4-0.4c-0.2,0-0.3,0.2-0.3,0.6c0,0.6-0.2,2-0.2,3.8c0,0.9,0,1,0.6,1.2
				C279,168.1,281,168.3,282.6,168.3z"/>
		</g>
	</g>
	<g>
		<defs>
			<rect id="SVGID_1_" x="309.3" y="6.5" width="187.5" height="196.5"/>
		</defs>
		<clipPath id="SVGID_2_">
			<use xlink:href="#SVGID_1_"  style="overflow:visible;"/>
		</clipPath>
		<g class="st3">
			<g>
				<g>
					<g>
						<polygon class="st4" points="236.4,81.8 237.1,81.8 234.3,91.2 233.6,91.2 						"/>
						<polygon class="st4" points="239.2,81.8 239.9,81.8 237.1,91.2 236.4,91.2 						"/>
						<polygon class="st4" points="242.1,81.8 242.7,81.8 239.9,91.2 239.2,91.2 						"/>
						<polygon class="st4" points="244.9,81.8 245.6,81.8 242.7,91.2 242.1,91.2 						"/>
					</g>
					<g>
						<polygon class="st4" points="247.7,81.8 248.4,81.8 245.6,91.2 244.9,91.2 						"/>
						<polygon class="st4" points="250.5,81.8 251.2,81.8 248.4,91.2 247.7,91.2 						"/>
						<polygon class="st4" points="253.3,81.8 254,81.8 251.2,91.2 250.5,91.2 						"/>
						<polygon class="st4" points="256.1,81.8 256.8,81.8 254,91.2 253.3,91.2 						"/>
					</g>
					<g>
						<polygon class="st4" points="259,81.8 259.7,81.8 256.8,91.2 256.1,91.2 						"/>
						<polygon class="st4" points="261.8,81.8 262.5,81.8 259.7,91.2 259,91.2 						"/>
						<polygon class="st4" points="264.6,81.8 265.3,81.8 262.5,91.2 261.8,91.2 						"/>
						<polygon class="st4" points="267.4,81.8 268.1,81.8 265.3,91.2 264.6,91.2 						"/>
					</g>
					<g>
						<polygon class="st4" points="270.2,81.8 270.9,81.8 268.1,91.2 267.4,91.2 						"/>
						<polygon class="st4" points="273,81.8 273.7,81.8 270.9,91.2 270.2,91.2 						"/>
						<polygon class="st4" points="275.9,81.8 276.6,81.8 273.7,91.2 273,91.2 						"/>
						<polygon class="st4" points="278.7,81.8 279.4,81.8 276.6,91.2 275.9,91.2 						"/>
					</g>
				</g>
				<g>
					<g>
						<polygon class="st4" points="280.3,81.8 281,81.8 278.2,91.2 277.4,91.2 						"/>
						<polygon class="st4" points="283.1,81.8 283.8,81.8 281,91.2 280.3,91.2 						"/>
						<polygon class="st4" points="285.9,81.8 286.6,81.8 283.8,91.2 283.1,91.2 						"/>
						<polygon class="st4" points="288.7,81.8 289.4,81.8 286.6,91.2 285.9,91.2 						"/>
					</g>
					<g>
						<polygon class="st4" points="291.5,81.8 292.2,81.8 289.4,91.2 288.7,91.2 						"/>
						<polygon class="st4" points="294.4,81.8 295.1,81.8 292.2,91.2 291.5,91.2 						"/>
						<polygon class="st4" points="297.2,81.8 297.9,81.8 295.1,91.2 294.4,91.2 						"/>
						<polygon class="st4" points="300,81.8 300.7,81.8 297.9,91.2 297.2,91.2 						"/>
					</g>
					<g>
						<polygon class="st4" points="302.8,81.8 303.5,81.8 300.7,91.2 300,91.2 						"/>
						<polygon class="st4" points="305.6,81.8 306.3,81.8 303.5,91.2 302.8,91.2 						"/>
						<polygon class="st4" points="308.4,81.8 309.2,81.8 306.3,91.2 305.6,91.2 						"/>
						<polygon class="st4" points="311.3,81.8 312,81.8 309.2,91.2 308.4,91.2 						"/>
					</g>
					<g>
						<polygon class="st4" points="314.1,81.8 314.8,81.8 312,91.2 311.3,91.2 						"/>
						<polygon class="st4" points="316.9,81.8 317.6,81.8 314.8,91.2 314.1,91.2 						"/>
						<polygon class="st4" points="319.7,81.8 320.4,81.8 317.6,91.2 316.9,91.2 						"/>
						<polygon class="st4" points="322.5,81.8 323.2,81.8 320.4,91.2 319.7,91.2 						"/>
					</g>
				</g>
				<g>
					<g>
						<g>
							<polygon class="st4" points="148.7,81.8 149.4,81.8 146.6,91.2 145.9,91.2 							"/>
							<polygon class="st4" points="151.5,81.8 152.2,81.8 149.4,91.2 148.7,91.2 							"/>
							<polygon class="st4" points="154.3,81.8 155.1,81.8 152.2,91.2 151.5,91.2 							"/>
							<polygon class="st4" points="157.2,81.8 157.9,81.8 155.1,91.2 154.3,91.2 							"/>
						</g>
						<g>
							<polygon class="st4" points="160,81.8 160.7,81.8 157.9,91.2 157.2,91.2 							"/>
							<polygon class="st4" points="162.8,81.8 163.5,81.8 160.7,91.2 160,91.2 							"/>
							<polygon class="st4" points="165.6,81.8 166.3,81.8 163.5,91.2 162.8,91.2 							"/>
							<polygon class="st4" points="168.4,81.8 169.1,81.8 166.3,91.2 165.6,91.2 							"/>
						</g>
						<g>
							<polygon class="st4" points="171.2,81.8 172,81.8 169.1,91.2 168.4,91.2 							"/>
							<polygon class="st4" points="174.1,81.8 174.8,81.8 172,91.2 171.2,91.2 							"/>
							<polygon class="st4" points="176.9,81.8 177.6,81.8 174.8,91.2 174.1,91.2 							"/>
							<polygon class="st4" points="179.7,81.8 180.4,81.8 177.6,91.2 176.9,91.2 							"/>
						</g>
						<g>
							<polygon class="st4" points="182.5,81.8 183.2,81.8 180.4,91.2 179.7,91.2 							"/>
							<polygon class="st4" points="185.3,81.8 186,81.8 183.2,91.2 182.5,91.2 							"/>
							<polygon class="st4" points="188.2,81.8 188.9,81.8 186,91.2 185.3,91.2 							"/>
							<polygon class="st4" points="191,81.8 191.7,81.8 188.9,91.2 188.2,91.2 							"/>
						</g>
					</g>
					<line class="st5" x1="149.1" y1="82" x2="192.3" y2="82"/>
				</g>
				<g>
					<g>
						<g>
							<polygon class="st4" points="192.6,81.8 193.3,81.8 190.4,91.2 189.7,91.2 							"/>
							<polygon class="st4" points="195.4,81.8 196.1,81.8 193.3,91.2 192.6,91.2 							"/>
							<polygon class="st4" points="198.2,81.8 198.9,81.8 196.1,91.2 195.4,91.2 							"/>
							<polygon class="st4" points="201,81.8 201.7,81.8 198.9,91.2 198.2,91.2 							"/>
						</g>
						<g>
							<polygon class="st4" points="203.8,81.8 204.5,81.8 201.7,91.2 201,91.2 							"/>
							<polygon class="st4" points="206.7,81.8 207.4,81.8 204.5,91.2 203.8,91.2 							"/>
							<polygon class="st4" points="209.5,81.8 210.2,81.8 207.4,91.2 206.7,91.2 							"/>
							<polygon class="st4" points="212.3,81.8 213,81.8 210.2,91.2 209.5,91.2 							"/>
						</g>
						<g>
							<polygon class="st4" points="215.1,81.8 215.8,81.8 213,91.2 212.3,91.2 							"/>
							<polygon class="st4" points="217.9,81.8 218.6,81.8 215.8,91.2 215.1,91.2 							"/>
							<polygon class="st4" points="220.7,81.8 221.4,81.8 218.6,91.2 217.9,91.2 							"/>
							<polygon class="st4" points="223.6,81.8 224.3,81.8 221.4,91.2 220.7,91.2 							"/>
						</g>
						<g>
							<polygon class="st4" points="226.4,81.8 227.1,81.8 224.3,91.2 223.6,91.2 							"/>
							<polygon class="st4" points="229.2,81.8 229.9,81.8 227.1,91.2 226.4,91.2 							"/>
							<polygon class="st4" points="232,81.8 232.7,81.8 229.9,91.2 229.2,91.2 							"/>
							<polygon class="st4" points="234.8,81.8 235.5,81.8 232.7,91.2 232,91.2 							"/>
						</g>
					</g>
					<line class="st5" x1="192.9" y1="82" x2="236.1" y2="82"/>
				</g>
			</g>
			<polygon class="st1" points="440.8,64 440.8,65.2 401.6,88.8 400.4,87.6 			"/>
			<polygon class="st1" points="418.4,76.4 418.7,77.6 386.3,110.9 384.8,110.1 			"/>
			<polygon class="st1" points="-14.3,64 -14.3,65.2 24.8,88.6 26,87.4 			"/>
			<polygon class="st1" points="5.1,76.4 4.8,77.5 35.4,110.6 36.8,109.8 			"/>
			<path class="st6" d="M-98.8,169.7c0,0,27.6-8.8,309.2-12.2c281.6-3.3,351.7,13,309.2,13.9c-42.5,0.9-131.4-1-132.5,1.7
				c-1.2,2.8,26.3,6.3,13.2,7c-13.1,0.7-44.2,1.7-44.2,1.7s24.7-3,13.2-5.2c-11.5-2.2-116-8.6-145.7-7c0,0,254.3,0,185.5-5.2
				s-390.1-3.8-454.9,3.5C-45.8,167.9-83.7,172.1-98.8,169.7z"/>
			<path class="st6" d="M-10.4,176.6c-4,0.7,99.9-11.5,150.2-10.4c0,0-36.6,3.6-30.9,3.5c5.7-0.1,90.3,4,88.3,3.5
				C195.2,172.6,29.2,169.5-10.4,176.6z"/>
			<path class="st6" d="M87.5,175.1c-1.9,0.7,46.1-11.5,69.4-10.4c0,0-16.9,3.6-14.3,3.5c2.6-0.1,41.7,4,40.8,3.5
				C182.5,171.1,105.8,168,87.5,175.1z"/>
			<polygon class="st5" points="212,167.9 214.1,167.9 482.5,167.9 501.6,162.2 501.6,155.8 480.4,155.8 468.1,117 406.8,117 
				404.5,101.7 404.7,101.7 398.2,76.4 405.3,65.7 415.9,65.7 411.7,58.7 367.8,58.7 356.5,18.9 352.2,18.9 355.7,37.4 338,37.4 
				340.5,39.4 356.5,41.6 353.6,72.1 282.8,72.1 272.9,86.3 243.8,86.3 232.5,60.8 226.8,60.8 226.8,49.4 223.3,49.4 223.3,60.8 
				214.1,60.8 212,60.8 202.8,60.8 202.8,49.4 199.2,49.4 199.2,60.8 193.6,60.8 182.2,86.3 153.2,86.3 143.3,76.4 72.5,76.4 
				69.6,41.6 85.6,39.4 88,37.4 70.3,37.4 73.9,18.9 69.6,18.9 58.3,58.7 14.4,58.7 10.1,65.7 20.8,65.7 27.8,76.4 20,106.9 
				19.6,106.9 18.1,117 -42,117 -54.3,155.8 -75.6,155.8 -75.6,162.2 -56.4,167.9 			"/>
			<path class="st7" d="M347.8,100h4.6c1.4,0,2.5,1.6,2.5,3.5v0.7c0,2-1.1,3.5-2.5,3.5h-4.6c-1.4,0-2.5-1.6-2.5-3.5v-0.7
				C345.2,101.6,346.4,100,347.8,100z"/>
			<path class="st7" d="M384.1,100h3.5c1.1,0,1.9,1.6,1.9,3.5v0.7c0,2-0.9,3.5-1.9,3.5h-3.5c-1.1,0-1.9-1.6-1.9-3.5v-0.7
				C382.2,101.6,383,100,384.1,100z"/>
			<path class="st7" d="M334.3,100h4.6c1.4,0,2.5,1.6,2.5,3.5v0.7c0,2-1.1,3.5-2.5,3.5h-4.6c-1.4,0-2.5-1.6-2.5-3.5v-0.7
				C331.8,101.6,332.9,100,334.3,100z"/>
			<path class="st7" d="M373.8,100h3.5c1.1,0,1.9,1.6,1.9,3.5v0.7c0,2-0.9,3.5-1.9,3.5h-3.5c-1.1,0-1.9-1.6-1.9-3.5v-0.7
				C371.9,101.6,372.7,100,373.8,100z"/>
			<path class="st7" d="M321.5,100h4.6c1.4,0,2.5,1.6,2.5,3.5v0.7c0,2-1.1,3.5-2.5,3.5h-4.6c-1.4,0-2.5-1.6-2.5-3.5v-0.7
				C319,101.6,320.1,100,321.5,100z"/>
			<path class="st7" d="M308,100h4.6c1.4,0,2.5,1.6,2.5,3.5v0.7c0,2-1.1,3.5-2.5,3.5H308c-1.4,0-2.5-1.6-2.5-3.5v-0.7
				C305.5,101.6,306.6,100,308,100z"/>
			<path class="st7" d="M294.6,100h4.6c1.4,0,2.5,1.6,2.5,3.5v0.7c0,2-1.1,3.5-2.5,3.5h-4.6c-1.4,0-2.5-1.6-2.5-3.5v-0.7
				C292,101.6,293.2,100,294.6,100z"/>
			<path class="st7" d="M281.8,100h4.6c1.4,0,2.5,1.6,2.5,3.5v0.7c0,2-1.1,3.5-2.5,3.5h-4.6c-1.4,0-2.5-1.6-2.5-3.5v-0.7
				C279.2,101.6,280.4,100,281.8,100z"/>
			<path class="st7" d="M242,100h4.6c1.4,0,2.5,1.6,2.5,3.5v0.7c0,2-1.1,3.5-2.5,3.5H242c-1.4,0-2.5-1.6-2.5-3.5v-0.7
				C239.5,101.6,240.6,100,242,100z"/>
			<path class="st7" d="M268.3,100h4.6c1.4,0,2.5,1.6,2.5,3.5v0.7c0,2-1.1,3.5-2.5,3.5h-4.6c-1.4,0-2.5-1.6-2.5-3.5v-0.7
				C265.8,101.6,266.9,100,268.3,100z"/>
			<path class="st7" d="M228.6,100h4.6c1.4,0,2.5,1.6,2.5,3.5v0.7c0,2-1.1,3.5-2.5,3.5h-4.6c-1.4,0-2.5-1.6-2.5-3.5v-0.7
				C226,101.6,227.2,100,228.6,100z"/>
			<path class="st7" d="M254.8,100h4.6c1.4,0,2.5,1.6,2.5,3.5v0.7c0,2-1.1,3.5-2.5,3.5h-4.6c-1.4,0-2.5-1.6-2.5-3.5v-0.7
				C252.3,101.6,253.4,100,254.8,100z"/>
			<path class="st7" d="M215.7,100h4.6c1.4,0,2.5,1.6,2.5,3.5v0.7c0,2-1.1,3.5-2.5,3.5h-4.6c-1.4,0-2.5-1.6-2.5-3.5v-0.7
				C213.2,101.6,214.3,100,215.7,100z"/>
			<path class="st7" d="M347.8,142.5h4.6c1.4,0,2.5,1.6,2.5,3.5v0.7c0,2-1.1,3.5-2.5,3.5h-4.6c-1.4,0-2.5-1.6-2.5-3.5v-0.7
				C345.2,144.1,346.4,142.5,347.8,142.5z"/>
			<path class="st7" d="M376.8,142.5h4.6c1.4,0,2.5,1.6,2.5,3.5v0.7c0,2-1.1,3.5-2.5,3.5h-4.6c-1.4,0-2.5-1.6-2.5-3.5v-0.7
				C374.3,144.1,375.4,142.5,376.8,142.5z"/>
			<path class="st7" d="M334.3,142.5h4.6c1.4,0,2.5,1.6,2.5,3.5v0.7c0,2-1.1,3.5-2.5,3.5h-4.6c-1.4,0-2.5-1.6-2.5-3.5v-0.7
				C331.8,144.1,332.9,142.5,334.3,142.5z"/>
			<path class="st7" d="M363.3,142.5h4.6c1.4,0,2.5,1.6,2.5,3.5v0.7c0,2-1.1,3.5-2.5,3.5h-4.6c-1.4,0-2.5-1.6-2.5-3.5v-0.7
				C360.8,144.1,361.9,142.5,363.3,142.5z"/>
			<path class="st7" d="M321.5,142.5h4.6c1.4,0,2.5,1.6,2.5,3.5v0.7c0,2-1.1,3.5-2.5,3.5h-4.6c-1.4,0-2.5-1.6-2.5-3.5v-0.7
				C319,144.1,320.1,142.5,321.5,142.5z"/>
			<path class="st7" d="M308,142.5h4.6c1.4,0,2.5,1.6,2.5,3.5v0.7c0,2-1.1,3.5-2.5,3.5H308c-1.4,0-2.5-1.6-2.5-3.5v-0.7
				C305.5,144.1,306.6,142.5,308,142.5z"/>
			<path class="st7" d="M294.6,142.5h4.6c1.4,0,2.5,1.6,2.5,3.5v0.7c0,2-1.1,3.5-2.5,3.5h-4.6c-1.4,0-2.5-1.6-2.5-3.5v-0.7
				C292,144.1,293.2,142.5,294.6,142.5z"/>
			<path class="st7" d="M281.8,142.5h4.6c1.4,0,2.5,1.6,2.5,3.5v0.7c0,2-1.1,3.5-2.5,3.5h-4.6c-1.4,0-2.5-1.6-2.5-3.5v-0.7
				C279.2,144.1,280.4,142.5,281.8,142.5z"/>
			<path class="st7" d="M242,142.5h4.6c1.4,0,2.5,1.6,2.5,3.5v0.7c0,2-1.1,3.5-2.5,3.5H242c-1.4,0-2.5-1.6-2.5-3.5v-0.7
				C239.5,144.1,240.6,142.5,242,142.5z"/>
			<path class="st7" d="M268.3,142.5h4.6c1.4,0,2.5,1.6,2.5,3.5v0.7c0,2-1.1,3.5-2.5,3.5h-4.6c-1.4,0-2.5-1.6-2.5-3.5v-0.7
				C265.8,144.1,266.9,142.5,268.3,142.5z"/>
			<path class="st7" d="M228.6,142.5h4.6c1.4,0,2.5,1.6,2.5,3.5v0.7c0,2-1.1,3.5-2.5,3.5h-4.6c-1.4,0-2.5-1.6-2.5-3.5v-0.7
				C226,144.1,227.2,142.5,228.6,142.5z"/>
			<path class="st7" d="M254.8,142.5h4.6c1.4,0,2.5,1.6,2.5,3.5v0.7c0,2-1.1,3.5-2.5,3.5h-4.6c-1.4,0-2.5-1.6-2.5-3.5v-0.7
				C252.3,144.1,253.4,142.5,254.8,142.5z"/>
			<path class="st7" d="M215.7,142.5h4.6c1.4,0,2.5,1.6,2.5,3.5v0.7c0,2-1.1,3.5-2.5,3.5h-4.6c-1.4,0-2.5-1.6-2.5-3.5v-0.7
				C213.2,144.1,214.3,142.5,215.7,142.5z"/>
			<path class="st7" d="M376.1,121.3h4.6c1.4,0,2.5,1.6,2.5,3.5v0.7c0,1.9-1.1,3.5-2.5,3.5h-4.6c-1.4,0-2.5-1.6-2.5-3.5v-0.7
				C373.6,122.8,374.7,121.3,376.1,121.3z"/>
			<path class="st7" d="M362.6,121.3h4.6c1.4,0,2.5,1.6,2.5,3.5v0.7c0,1.9-1.1,3.5-2.5,3.5h-4.6c-1.4,0-2.5-1.6-2.5-3.5v-0.7
				C360.1,122.8,361.2,121.3,362.6,121.3z"/>
			<path class="st7" d="M349.8,121.3h4.6c1.4,0,2.5,1.6,2.5,3.5v0.7c0,1.9-1.1,3.5-2.5,3.5h-4.6c-1.4,0-2.5-1.6-2.5-3.5v-0.7
				C347.3,122.8,348.4,121.3,349.8,121.3z"/>
			<path class="st7" d="M336.4,121.3h4.6c1.4,0,2.5,1.6,2.5,3.5v0.7c0,1.9-1.1,3.5-2.5,3.5h-4.6c-1.4,0-2.5-1.6-2.5-3.5v-0.7
				C333.8,122.8,335,121.3,336.4,121.3z"/>
			<path class="st7" d="M322.9,121.3h4.6c1.4,0,2.5,1.6,2.5,3.5v0.7c0,1.9-1.1,3.5-2.5,3.5h-4.6c-1.4,0-2.5-1.6-2.5-3.5v-0.7
				C320.4,122.8,321.5,121.3,322.9,121.3z"/>
			<path class="st7" d="M310.1,121.3h4.6c1.4,0,2.5,1.6,2.5,3.5v0.7c0,1.9-1.1,3.5-2.5,3.5h-4.6c-1.4,0-2.5-1.6-2.5-3.5v-0.7
				C307.6,122.8,308.7,121.3,310.1,121.3z"/>
			<path class="st7" d="M270.3,121.3h4.6c1.4,0,2.5,1.6,2.5,3.5v0.7c0,1.9-1.1,3.5-2.5,3.5h-4.6c-1.4,0-2.5-1.6-2.5-3.5v-0.7
				C267.8,122.8,268.9,121.3,270.3,121.3z"/>
			<path class="st7" d="M296.6,121.3h4.6c1.4,0,2.5,1.6,2.5,3.5v0.7c0,1.9-1.1,3.5-2.5,3.5h-4.6c-1.4,0-2.5-1.6-2.5-3.5v-0.7
				C294.1,122.8,295.2,121.3,296.6,121.3z"/>
			<path class="st7" d="M228.6,121.3h4.6c1.4,0,2.5,1.6,2.5,3.5v0.7c0,1.9-1.1,3.5-2.5,3.5h-4.6c-1.4,0-2.5-1.6-2.5-3.5v-0.7
				C226,122.8,227.2,121.3,228.6,121.3z"/>
			<path class="st7" d="M283.2,121.3h4.6c1.4,0,2.5,1.6,2.5,3.5v0.7c0,1.9-1.1,3.5-2.5,3.5h-4.6c-1.4,0-2.5-1.6-2.5-3.5v-0.7
				C280.6,122.8,281.8,121.3,283.2,121.3z"/>
			<path class="st7" d="M215.7,121.3h4.6c1.4,0,2.5,1.6,2.5,3.5v0.7c0,1.9-1.1,3.5-2.5,3.5h-4.6c-1.4,0-2.5-1.6-2.5-3.5v-0.7
				C213.2,122.8,214.3,121.3,215.7,121.3z"/>
			<polygon class="st1" points="370.1,66.4 366.7,72.1 392.2,72.1 396.7,66.4 			"/>
			<polygon class="st7" points="373.5,66.4 370.1,72.1 371.9,72.1 375,66 			"/>
			<polygon class="st7" points="388.8,66.4 385.4,72.1 387.2,72.1 390.3,66 			"/>
			<polygon class="st7" points="380.8,66.4 377.5,72.1 379.2,72.1 382.4,66 			"/>
			<path class="st6" d="M388.7,156.1v2.2h-12.7v-2.5H213.7c0,0-0.7,3.5,0,3.5h287.6l0.4-3.4L388.7,156.1z"/>
			<path class="st7" d="M78.7,142.5h-4.6c-1.4,0-2.5,1.6-2.5,3.5v0.7c0,2,1.1,3.5,2.5,3.5h4.6c1.4,0,2.5-1.6,2.5-3.5v-0.7
				C81.2,144.1,80.1,142.5,78.7,142.5z"/>
			<path class="st7" d="M49.6,142.5h-4.6c-1.4,0-2.5,1.6-2.5,3.5v0.7c0,2,1.1,3.5,2.5,3.5h4.6c1.4,0,2.5-1.6,2.5-3.5v-0.7
				C52.1,144.1,51,142.5,49.6,142.5z"/>
			<path class="st7" d="M92.1,142.5h-4.6c-1.4,0-2.5,1.6-2.5,3.5v0.7c0,2,1.1,3.5,2.5,3.5h4.6c1.4,0,2.5-1.6,2.5-3.5v-0.7
				C94.6,144.1,93.5,142.5,92.1,142.5z"/>
			<path class="st7" d="M63.1,142.5h-4.6c-1.4,0-2.5,1.6-2.5,3.5v0.7c0,2,1.1,3.5,2.5,3.5h4.6c1.4,0,2.5-1.6,2.5-3.5v-0.7
				C65.6,144.1,64.5,142.5,63.1,142.5z"/>
			<path class="st7" d="M104.9,142.5h-4.6c-1.4,0-2.5,1.6-2.5,3.5v0.7c0,2,1.1,3.5,2.5,3.5h4.6c1.4,0,2.5-1.6,2.5-3.5v-0.7
				C107.5,144.1,106.3,142.5,104.9,142.5z"/>
			<path class="st7" d="M118.4,142.5h-4.6c-1.4,0-2.5,1.6-2.5,3.5v0.7c0,2,1.1,3.5,2.5,3.5h4.6c1.4,0,2.5-1.6,2.5-3.5v-0.7
				C120.9,144.1,119.8,142.5,118.4,142.5z"/>
			<path class="st7" d="M131.8,142.5h-4.6c-1.4,0-2.5,1.6-2.5,3.5v0.7c0,2,1.1,3.5,2.5,3.5h4.6c1.4,0,2.5-1.6,2.5-3.5v-0.7
				C134.4,144.1,133.2,142.5,131.8,142.5z"/>
			<path class="st7" d="M144.7,142.5h-4.6c-1.4,0-2.5,1.6-2.5,3.5v0.7c0,2,1.1,3.5,2.5,3.5h4.6c1.4,0,2.5-1.6,2.5-3.5v-0.7
				C147.2,144.1,146.1,142.5,144.7,142.5z"/>
			<path class="st7" d="M184.4,142.5h-4.6c-1.4,0-2.5,1.6-2.5,3.5v0.7c0,2,1.1,3.5,2.5,3.5h4.6c1.4,0,2.5-1.6,2.5-3.5v-0.7
				C186.9,144.1,185.8,142.5,184.4,142.5z"/>
			<path class="st7" d="M158.1,142.5h-4.6c-1.4,0-2.5,1.6-2.5,3.5v0.7c0,2,1.1,3.5,2.5,3.5h4.6c1.4,0,2.5-1.6,2.5-3.5v-0.7
				C160.7,144.1,159.5,142.5,158.1,142.5z"/>
			<path class="st7" d="M197.9,142.5h-4.6c-1.4,0-2.5,1.6-2.5,3.5v0.7c0,2,1.1,3.5,2.5,3.5h4.6c1.4,0,2.5-1.6,2.5-3.5v-0.7
				C200.4,144.1,199.3,142.5,197.9,142.5z"/>
			<path class="st7" d="M171.6,142.5H167c-1.4,0-2.5,1.6-2.5,3.5v0.7c0,2,1.1,3.5,2.5,3.5h4.6c1.4,0,2.5-1.6,2.5-3.5v-0.7
				C174.1,144.1,173,142.5,171.6,142.5z"/>
			<path class="st7" d="M50.3,121.3h-4.6c-1.4,0-2.5,1.6-2.5,3.5v0.7c0,1.9,1.1,3.5,2.5,3.5h4.6c1.4,0,2.5-1.6,2.5-3.5v-0.7
				C52.9,122.8,51.7,121.3,50.3,121.3z"/>
			<path class="st7" d="M63.8,121.3h-4.6c-1.4,0-2.5,1.6-2.5,3.5v0.7c0,1.9,1.1,3.5,2.5,3.5h4.6c1.4,0,2.5-1.6,2.5-3.5v-0.7
				C66.3,122.8,65.2,121.3,63.8,121.3z"/>
			<path class="st7" d="M76.6,121.3H72c-1.4,0-2.5,1.6-2.5,3.5v0.7c0,1.9,1.1,3.5,2.5,3.5h4.6c1.4,0,2.5-1.6,2.5-3.5v-0.7
				C79.1,122.8,78,121.3,76.6,121.3z"/>
			<path class="st7" d="M90.1,121.3h-4.6c-1.4,0-2.5,1.6-2.5,3.5v0.7c0,1.9,1.1,3.5,2.5,3.5h4.6c1.4,0,2.5-1.6,2.5-3.5v-0.7
				C92.6,122.8,91.4,121.3,90.1,121.3z"/>
			<path class="st7" d="M103.5,121.3H99c-1.4,0-2.5,1.6-2.5,3.5v0.7c0,1.9,1.1,3.5,2.5,3.5h4.6c1.4,0,2.5-1.6,2.5-3.5v-0.7
				C106,122.8,104.9,121.3,103.5,121.3z"/>
			<path class="st7" d="M116.3,121.3h-4.6c-1.4,0-2.5,1.6-2.5,3.5v0.7c0,1.9,1.1,3.5,2.5,3.5h4.6c1.4,0,2.5-1.6,2.5-3.5v-0.7
				C118.9,122.8,117.7,121.3,116.3,121.3z"/>
			<path class="st7" d="M156.1,121.3h-4.6c-1.4,0-2.5,1.6-2.5,3.5v0.7c0,1.9,1.1,3.5,2.5,3.5h4.6c1.4,0,2.5-1.6,2.5-3.5v-0.7
				C158.6,122.8,157.5,121.3,156.1,121.3z"/>
			<path class="st7" d="M129.8,121.3h-4.6c-1.4,0-2.5,1.6-2.5,3.5v0.7c0,1.9,1.1,3.5,2.5,3.5h4.6c1.4,0,2.5-1.6,2.5-3.5v-0.7
				C132.3,122.8,131.2,121.3,129.8,121.3z"/>
			<path class="st7" d="M197.9,121.3h-4.6c-1.4,0-2.5,1.6-2.5,3.5v0.7c0,1.9,1.1,3.5,2.5,3.5h4.6c1.4,0,2.5-1.6,2.5-3.5v-0.7
				C200.4,122.8,199.3,121.3,197.9,121.3z"/>
			<path class="st7" d="M143.3,121.3h-4.6c-1.4,0-2.5,1.6-2.5,3.5v0.7c0,1.9,1.1,3.5,2.5,3.5h4.6c1.4,0,2.5-1.6,2.5-3.5v-0.7
				C145.8,122.8,144.7,121.3,143.3,121.3z"/>
			<polygon class="st1" points="53.1,66.4 56.5,72.1 31,72.1 26.5,66.4 			"/>
			<polygon class="st7" points="49.7,66.4 53.1,72.1 51.3,72.1 48.2,66 			"/>
			<polygon class="st7" points="34.4,66.4 37.8,72.1 36,72.1 32.9,66 			"/>
			<polygon class="st7" points="42.4,66.4 45.8,72.1 44,72.1 40.9,66 			"/>
			<path class="st6" d="M38.1,156.1v2.2h12.8v-2.5h162.2c0,0,0.7,3.5,0,3.5H-74.5l-0.4-3.4L38.1,156.1z"/>
			<polyline class="st6" points="58.4,62.7 12.1,62.7 15,57.9 58.4,58.4 			"/>
			<polyline class="st6" points="367.7,62.7 413.9,62.7 411.1,57.9 367.7,58.4 			"/>
			<line class="st8" x1="400.3" y1="85.7" x2="402.7" y2="84.5"/>
			<rect x="79.5" y="80.6" class="st7" width="3.6" height="5.9"/>
			<rect x="104.4" y="80.6" class="st7" width="3.5" height="5.9"/>
			<rect x="129.3" y="80.6" class="st7" width="3.6" height="5.9"/>
			<polygon class="st8" points="-40.9,108.2 -40.2,108.2 -43,117.6 -43.8,117.6 			"/>
			<polygon class="st8" points="-38.1,108.2 -37.4,108.2 -40.2,117.6 -40.9,117.6 			"/>
			<polygon class="st8" points="-35.3,108.2 -34.6,108.2 -37.4,117.6 -38.1,117.6 			"/>
			<polygon class="st8" points="-32.5,108.2 -31.8,108.2 -34.6,117.6 -35.3,117.6 			"/>
			<polygon class="st8" points="-29.7,108.2 -29,108.2 -31.8,117.6 -32.5,117.6 			"/>
			<polygon class="st8" points="-26.8,108.2 -26.1,108.2 -29,117.6 -29.7,117.6 			"/>
			<polygon class="st8" points="-24,108.2 -23.3,108.2 -26.1,117.6 -26.8,117.6 			"/>
			<polygon class="st8" points="-21.2,108.2 -20.5,108.2 -23.3,117.6 -24,117.6 			"/>
			<polygon class="st8" points="-18.4,108.2 -17.7,108.2 -20.5,117.6 -21.2,117.6 			"/>
			<polygon class="st8" points="-15.6,108.2 -14.9,108.2 -17.7,117.6 -18.4,117.6 			"/>
			<polygon class="st8" points="-12.8,108.2 -12,108.2 -14.9,117.6 -15.6,117.6 			"/>
			<polygon class="st8" points="-9.9,108.2 -9.2,108.2 -12,117.6 -12.8,117.6 			"/>
			<polygon class="st8" points="-7.1,108.2 -6.4,108.2 -9.2,117.6 -9.9,117.6 			"/>
			<polygon class="st8" points="-4.3,108.2 -3.6,108.2 -6.4,117.6 -7.1,117.6 			"/>
			<polygon class="st8" points="-1.5,108.2 -0.8,108.2 -3.6,117.6 -4.3,117.6 			"/>
			<polygon class="st8" points="1.3,108.2 2,108.2 -0.8,117.6 -1.5,117.6 			"/>
			<line class="st8" x1="-40.5" y1="108.4" x2="2.7" y2="108.4"/>
			<polygon class="st8" points="2.9,108.2 3.6,108.2 0.8,117.6 0.1,117.6 			"/>
			<polygon class="st8" points="5.7,108.2 6.4,108.2 3.6,117.6 2.9,117.6 			"/>
			<polygon class="st8" points="8.6,108.2 9.3,108.2 6.4,117.6 5.7,117.6 			"/>
			<polygon class="st8" points="11.4,108.2 12.1,108.2 9.3,117.6 8.6,117.6 			"/>
			<polygon class="st8" points="14.2,108.2 14.9,108.2 12.1,117.6 11.4,117.6 			"/>
			<polygon class="st8" points="17,108.2 17.7,108.2 14.9,117.6 14.2,117.6 			"/>
			<polygon class="st8" points="19.8,108.2 20.5,108.2 17.7,117.6 17,117.6 			"/>
			<polygon class="st8" points="22.7,108.2 23.4,108.2 20.5,117.6 19.8,117.6 			"/>
			<polygon class="st8" points="25.5,108.2 26.2,108.2 23.4,117.6 22.7,117.6 			"/>
			<polygon class="st8" points="28.3,108.2 29,108.2 26.2,117.6 25.5,117.6 			"/>
			<polygon class="st8" points="31.1,108.2 31.8,108.2 29,117.6 28.3,117.6 			"/>
			<polygon class="st8" points="33.9,108.2 34.6,108.2 31.8,117.6 31.1,117.6 			"/>
			<polygon class="st8" points="36.7,108.2 37.4,108.2 34.6,117.6 33.9,117.6 			"/>
			<polygon class="st8" points="39.6,108.2 40.3,108.2 37.4,117.6 36.7,117.6 			"/>
			<polygon class="st8" points="42.4,108.2 43.1,108.2 40.3,117.6 39.6,117.6 			"/>
			<polygon class="st8" points="45.2,108.2 45.9,108.2 43.1,117.6 42.4,117.6 			"/>
			<line class="st8" x1="3.3" y1="108.4" x2="46.5" y2="108.4"/>
			<polygon class="st9" points="466.6,111.3 465.9,111.3 468.8,120.8 469.5,120.8 			"/>
			<polygon class="st9" points="463.8,111.3 463.1,111.3 465.9,120.8 466.6,120.8 			"/>
			<polygon class="st9" points="461,111.3 460.3,111.3 463.1,120.8 463.8,120.8 			"/>
			<polygon class="st9" points="458.2,111.3 457.5,111.3 460.3,120.8 461,120.8 			"/>
			<polygon class="st9" points="455.4,111.3 454.7,111.3 457.5,120.8 458.2,120.8 			"/>
			<polygon class="st9" points="452.6,111.3 451.8,111.3 454.7,120.8 455.4,120.8 			"/>
			<polygon class="st9" points="449.7,111.3 449,111.3 451.8,120.8 452.6,120.8 			"/>
			<polygon class="st9" points="446.9,111.3 446.2,111.3 449,120.8 449.7,120.8 			"/>
			<polygon class="st9" points="444.1,111.3 443.4,111.3 446.2,120.8 446.9,120.8 			"/>
			<polygon class="st9" points="441.3,111.3 440.6,111.3 443.4,120.8 444.1,120.8 			"/>
			<polygon class="st9" points="438.5,111.3 437.8,111.3 440.6,120.8 441.3,120.8 			"/>
			<polygon class="st9" points="435.6,111.3 434.9,111.3 437.8,120.8 438.5,120.8 			"/>
			<polygon class="st9" points="432.8,111.3 432.1,111.3 434.9,120.8 435.6,120.8 			"/>
			<polygon class="st9" points="430,111.3 429.3,111.3 432.1,120.8 432.8,120.8 			"/>
			<polygon class="st9" points="427.2,111.3 426.5,111.3 429.3,120.8 430,120.8 			"/>
			<polygon class="st9" points="424.4,111.3 423.7,111.3 426.5,120.8 427.2,120.8 			"/>
			<line class="st8" x1="466.6" y1="111.6" x2="423.4" y2="111.6"/>
			<polygon class="st9" points="422.8,111.3 422.1,111.3 424.9,120.8 425.6,120.8 			"/>
			<polygon class="st9" points="420,111.3 419.3,111.3 422.1,120.8 422.8,120.8 			"/>
			<polygon class="st9" points="417.1,111.3 416.4,111.3 419.3,120.8 420,120.8 			"/>
			<polygon class="st9" points="414.3,111.3 413.6,111.3 416.4,120.8 417.1,120.8 			"/>
			<polygon class="st9" points="411.5,111.3 410.8,111.3 413.6,120.8 414.3,120.8 			"/>
			<polygon class="st9" points="408.7,111.3 408,111.3 410.8,120.8 411.5,120.8 			"/>
			<polygon class="st9" points="405.9,111.3 405.2,111.3 408,120.8 408.7,120.8 			"/>
			<polygon class="st9" points="403.1,111.3 402.4,111.3 405.2,120.8 405.9,120.8 			"/>
			<polygon class="st9" points="400.2,111.3 399.5,111.3 402.4,120.8 403.1,120.8 			"/>
			<polygon class="st9" points="397.4,111.3 396.7,111.3 399.5,120.8 400.2,120.8 			"/>
			<polygon class="st9" points="394.6,111.3 393.9,111.3 396.7,120.8 397.4,120.8 			"/>
			<polygon class="st9" points="391.8,111.3 391.1,111.3 393.9,120.8 394.6,120.8 			"/>
			<polygon class="st9" points="389,111.3 388.3,111.3 391.1,120.8 391.8,120.8 			"/>
			<polygon class="st9" points="386.2,111.3 385.5,111.3 388.3,120.8 389,120.8 			"/>
			<polygon class="st9" points="383.3,111.3 382.6,111.3 385.5,120.8 386.2,120.8 			"/>
			<polygon class="st9" points="380.5,111.3 379.8,111.3 382.6,120.8 383.3,120.8 			"/>
			<line class="st8" x1="422.8" y1="111.6" x2="379.6" y2="111.6"/>
			<rect x="290.5" y="80.6" class="st7" width="3.5" height="5.9"/>
			<rect x="315.4" y="80.6" class="st7" width="3.6" height="5.9"/>
			<rect x="340.3" y="80.6" class="st7" width="3.6" height="5.9"/>
			<path class="st10" d="M-41.5,118.7h60.3l-57.3,3.2h48l-49.5,3.1H3.4C2.3,124.9-40,128-40,128h37.1l-37.1,3.1h32.5l-34,3.1h27.8
				l-27.8,4.7h20.1l-20.1,3.1h15.5l-17,3.1h12.4l-13.9,4.7h9.3l-9.3,3.1h6.2l-7.7,2.6l-6.7-0.5L-41.5,118.7z"/>
			<path class="st11" d="M181.9,86.7l11.4-25.3l36.5,0.1l-33.4,3.1H225l-30.1,3.1l25.3-0.1c-1.1,0-25.3,3.2-25.3,3.2h19.5l-19.5,3.1
				l12.5,0.2L193.3,77l8.4,0.9l-8.4,3.7l5.6,0.1l-5.6,3l2.4,0.2l2.2,1.8"/>
			<path class="st10" d="M19.9,110.6l8.8-34.4h48.1l-45.2,4.6l38,0.1l-38.9,3l34,0.2c-0.8,0-34.6,3.4-34.6,3.4l29.8-0.2l-30.1,3
				l26.5,0.1l-27,2.9l22.2,0.2l-22.3,3.4l16.3,1.3l-16.6,2.7l13,0.5l-13.7,2.9l10.1,0.2l-11.3,3.7l7.7,1"/>
			<path class="st7" d="M467.8,118.7h-60.4l57.3,3.2h-48l49.5,3.1h-43.3c1.1,0,43.3,3.1,43.3,3.1h-37.1l37.1,3.1h-32.5l34,3.1h-27.9
				l27.9,4.7h-20.1l20.1,3.1h-15.5l17,3.1H457l13.9,4.7h-9.3l9.3,3.1h-6.2l7.7,2.6l6.7-0.5L467.8,118.7z"/>
			<path class="st7" d="M406.4,110.6l-8.8-34.4h-48.1l45.2,4.6l-38,0.1l38.9,3L361.5,84c0.8,0,34.6,3.4,34.6,3.4l-29.8-0.2l30.1,3
				L370,90.3l27,2.9l-22.2,0.2l22.3,3.4l-16.3,1.3l16.6,2.7l-13,0.5l13.7,2.9l-10.1,0.2l11.3,3.7l-7.7,1"/>
			<path class="st7" d="M78.7,100h-4.6c-1.4,0-2.5,1.6-2.5,3.5v0.7c0,2,1.1,3.5,2.5,3.5h4.6c1.4,0,2.5-1.6,2.5-3.5v-0.7
				C81.2,101.6,80.1,100,78.7,100z"/>
			<path class="st7" d="M42.3,100h-3.5c-1.1,0-1.9,1.6-1.9,3.5v0.7c0,2,0.9,3.5,1.9,3.5h3.5c1.1,0,1.9-1.6,1.9-3.5v-0.7
				C44.2,101.6,43.4,100,42.3,100z"/>
			<path class="st7" d="M92.1,100h-4.6c-1.4,0-2.5,1.6-2.5,3.5v0.7c0,2,1.1,3.5,2.5,3.5h4.6c1.4,0,2.5-1.6,2.5-3.5v-0.7
				C94.6,101.6,93.5,100,92.1,100z"/>
			<path class="st7" d="M52.6,100h-3.5c-1.1,0-1.9,1.6-1.9,3.5v0.7c0,2,0.9,3.5,1.9,3.5h3.5c1.1,0,1.9-1.6,1.9-3.5v-0.7
				C54.6,101.6,53.7,100,52.6,100z"/>
			<path class="st7" d="M104.9,100h-4.6c-1.4,0-2.5,1.6-2.5,3.5v0.7c0,2,1.1,3.5,2.5,3.5h4.6c1.4,0,2.5-1.6,2.5-3.5v-0.7
				C107.5,101.6,106.3,100,104.9,100z"/>
			<path class="st7" d="M118.4,100h-4.6c-1.4,0-2.5,1.6-2.5,3.5v0.7c0,2,1.1,3.5,2.5,3.5h4.6c1.4,0,2.5-1.6,2.5-3.5v-0.7
				C120.9,101.6,119.8,100,118.4,100z"/>
			<path class="st7" d="M131.8,100h-4.6c-1.4,0-2.5,1.6-2.5,3.5v0.7c0,2,1.1,3.5,2.5,3.5h4.6c1.4,0,2.5-1.6,2.5-3.5v-0.7
				C134.4,101.6,133.2,100,131.8,100z"/>
			<path class="st7" d="M144.7,100h-4.6c-1.4,0-2.5,1.6-2.5,3.5v0.7c0,2,1.1,3.5,2.5,3.5h4.6c1.4,0,2.5-1.6,2.5-3.5v-0.7
				C147.2,101.6,146.1,100,144.7,100z"/>
			<path class="st7" d="M184.4,100h-4.6c-1.4,0-2.5,1.6-2.5,3.5v0.7c0,2,1.1,3.5,2.5,3.5h4.6c1.4,0,2.5-1.6,2.5-3.5v-0.7
				C186.9,101.6,185.8,100,184.4,100z"/>
			<path class="st7" d="M158.1,100h-4.6c-1.4,0-2.5,1.6-2.5,3.5v0.7c0,2,1.1,3.5,2.5,3.5h4.6c1.4,0,2.5-1.6,2.5-3.5v-0.7
				C160.7,101.6,159.5,100,158.1,100z"/>
			<path class="st7" d="M197.9,100h-4.6c-1.4,0-2.5,1.6-2.5,3.5v0.7c0,2,1.1,3.5,2.5,3.5h4.6c1.4,0,2.5-1.6,2.5-3.5v-0.7
				C200.4,101.6,199.3,100,197.9,100z"/>
			<path class="st7" d="M171.6,100H167c-1.4,0-2.5,1.6-2.5,3.5v0.7c0,2,1.1,3.5,2.5,3.5h4.6c1.4,0,2.5-1.6,2.5-3.5v-0.7
				C174.1,101.6,173,100,171.6,100z"/>
			<polygon class="st11" points="70.3,40.8 70.3,39.4 85.7,38.4 87.2,38.4 			"/>
			<polygon class="st11" points="69.8,19.4 58.8,57.8 59.3,62.8 71.3,18.9 			"/>
			<polygon class="st11" points="356,40.8 356,39.4 340.5,38.4 339.1,38.4 			"/>
			<polygon class="st11" points="356.5,19.4 367.5,57.8 367,62.8 355,18.9 			"/>
			<polygon class="st12" points="146.3,80 152.6,86.3 272.9,86.3 277.6,78.4 			"/>
			<polygon class="st6" points="188.1,74 238.9,74 243.1,86.5 182.9,86.5 			"/>
		</g>
	</g>
</g>
</svg>
