<?xml version="1.0" standalone="no"?>
<!DOCTYPE svg PUBLIC "-//W3C//DTD SVG 20010904//EN"
 "http://www.w3.org/TR/2001/REC-SVG-20010904/DTD/svg10.dtd">
<svg version="1.0" xmlns="http://www.w3.org/2000/svg"
 width="417.000000pt" height="417.000000pt" viewBox="0 0 417.000000 417.000000"
 preserveAspectRatio="xMidYMid meet">
<metadata>
Created by potrace 1.11, written by Peter Selinger 2001-2013
</metadata>
<g transform="translate(0.000000,417.000000) scale(0.100000,-0.100000)"
fill="#000000" stroke="none">
<path d="M2500 2838 c1 -13 7 -51 14 -85 l14 -63 -79 0 c-44 0 -79 -4 -79 -9
0 -11 25 -17 104 -27 l58 -7 -6 -86 c-8 -99 -17 -184 -21 -191 -2 -3 -119 -5
-260 -5 -141 0 -260 -2 -266 -5 -6 -4 -8 -175 -7 -446 l3 -439 220 -5 220 -6
-222 -2 c-141 -1 -223 -6 -223 -12 0 -5 17 -11 38 -11 20 -1 53 -3 72 -4 19
-2 80 -6 135 -9 55 -4 125 -9 155 -11 30 -2 93 -7 140 -10 171 -12 207 -26
114 -45 -90 -17 -87 -19 36 -14 251 9 312 13 317 18 3 2 -29 15 -71 27 -149
43 -139 44 632 46 326 1 602 5 614 9 11 3 16 10 11 15 -10 10 -141 35 -233 44
-59 6 -95 15 -58 15 16 0 28 35 20 58 -2 8 -34 12 -101 12 l-98 0 -51 163
c-28 89 -56 181 -63 205 l-12 42 -191 1 c-105 0 -232 1 -283 0 l-91 0 -12 71
-12 70 58 59 c32 32 55 61 52 65 -3 3 -30 -20 -59 -50 -50 -53 -68 -58 -69
-19 0 14 107 77 134 79 10 1 23 9 28 17 5 9 51 42 104 73 89 54 127 83 87 66
-11 -4 -94 -51 -186 -106 -92 -54 -170 -96 -173 -94 -2 3 -6 14 -8 24 -2 11
-7 30 -11 44 -4 19 2 38 25 73 31 45 34 47 81 47 27 0 49 2 49 5 0 9 -34 59
-45 67 -5 4 -98 4 -205 1 l-196 -6 -48 174 c-60 213 -54 199 -77 199 -13 0
-19 -7 -19 -22z m524 -864 c8 -21 8 -24 -3 -24 -5 0 -11 9 -14 20 -6 24 8 27
17 4z m27 -1 c0 -15 2 -15 7 -3 10 21 39 24 46 4 9 -22 -3 -32 -14 -14 -7 10
-10 11 -10 3 0 -7 -9 -13 -20 -13 -11 0 -20 2 -20 4 0 2 -3 11 -6 20 -3 9 -1
16 5 16 6 0 11 -8 12 -17z m99 5 c0 -6 6 -5 16 3 13 10 17 10 25 -2 12 -19 11
-29 -1 -29 -5 0 -10 8 -10 18 -1 16 -1 16 -14 0 -7 -10 -16 -18 -20 -18 -3 0
-6 8 -7 18 0 14 -2 14 -9 -3 -5 -11 -9 -17 -9 -13 -1 3 -3 13 -6 20 -4 9 2 14
15 15 11 1 20 -3 20 -9z m73 -8 c3 -11 2 -20 -3 -20 -4 0 -10 9 -13 20 -3 11
-2 20 3 20 4 0 10 -9 13 -20z m27 -13 c0 -18 -2 -19 -10 -7 -13 20 -13 43 0
35 6 -3 10 -16 10 -28z m47 7 c2 -10 0 -13 -3 -6 -3 6 -10 12 -15 12 -6 0 -7
-4 -4 -10 3 -5 2 -10 -3 -10 -5 0 -12 9 -15 20 -4 16 -1 19 16 16 13 -2 23
-11 24 -22z m33 0 c0 -8 -4 -14 -10 -14 -5 0 -10 9 -10 21 0 11 5 17 10 14 6
-3 10 -13 10 -21z m21 14 c0 -10 2 -10 6 0 6 14 23 6 23 -11 0 -21 -38 -17
-43 4 -3 10 -1 19 4 19 5 0 9 -6 10 -12z m59 -14 c0 -8 -4 -14 -10 -14 -5 0
-10 9 -10 21 0 11 5 17 10 14 6 -3 10 -13 10 -21z m20 16 c0 -5 5 -10 11 -10
5 0 7 5 4 10 -3 6 -1 10 4 10 6 0 11 -8 11 -18 0 -25 -37 -26 -43 -1 -3 10 -1
19 4 19 5 0 9 -4 9 -10z m60 -16 c0 -8 -4 -14 -10 -14 -5 0 -10 9 -10 21 0 11
5 17 10 14 6 -3 10 -13 10 -21z m20 11 c0 -8 4 -15 10 -15 5 0 7 6 4 13 -6 17
28 19 38 3 11 -15 10 -26 -2 -26 -5 0 -11 8 -11 18 -1 16 -2 16 -6 0 -6 -24
-39 -23 -46 2 -3 11 -1 20 4 20 5 0 9 -7 9 -15z"/>
<path d="M780 2399 c-30 -3 -47 -6 -37 -7 19 -2 19 -2 18 -146 0 -68 -4 -102
-13 -107 -20 -12 -7 -15 42 -8 25 3 38 7 29 7 -9 1 -19 8 -21 15 -4 10 -3 78
1 109 2 10 65 -3 73 -15 5 -7 8 0 8 15 0 26 -2 26 -44 22 l-44 -5 3 48 c2 26
4 51 4 54 2 11 59 3 75 -10 14 -12 16 -10 16 11 0 27 -9 28 -110 17z"/>
<path d="M1215 2359 c-27 -3 -42 -7 -32 -7 15 -2 17 -14 17 -101 0 -56 -4
-103 -10 -106 -22 -13 -8 -20 32 -17 32 3 37 7 25 14 -23 12 -23 74 0 82 12 5
29 -7 59 -42 45 -51 72 -66 95 -51 11 7 11 9 -3 9 -9 0 -34 21 -56 47 l-40 46
21 29 c44 60 -11 110 -108 97z m75 -29 c23 -23 24 -29 10 -64 -7 -20 -16 -26
-40 -26 -30 0 -30 0 -30 55 0 48 2 55 20 55 11 0 29 -9 40 -20z"/>
<path d="M1470 2360 c-28 -3 -39 -7 -29 -12 14 -5 16 -22 15 -101 0 -53 -4
-99 -8 -103 -16 -15 -7 -20 28 -16 25 3 33 7 25 15 -6 6 -11 27 -11 48 0 29 4
36 19 35 11 0 30 -14 42 -31 47 -60 74 -77 104 -64 15 6 16 8 4 8 -9 1 -35 21
-58 46 l-42 46 20 33 c24 39 25 46 9 69 -17 23 -63 34 -118 27z m56 -16 c53
-14 46 -96 -9 -102 -27 -3 -27 -2 -27 52 0 58 1 59 36 50z"/>
<path d="M969 2351 c18 -12 18 -200 -1 -212 -8 -6 0 -9 25 -10 97 -3 104 -2
110 20 4 17 3 17 -26 3 -40 -20 -62 -6 -62 39 -1 19 1 39 3 46 4 14 54 7 64
-10 5 -7 8 -2 8 13 0 24 -3 26 -35 22 -19 -2 -35 0 -36 4 0 5 -2 24 -4 42 -2
17 0 32 3 33 4 0 15 2 25 4 9 2 24 -3 31 -11 12 -11 15 -11 20 2 3 9 6 18 6
20 0 2 -33 4 -72 4 -45 0 -68 -4 -59 -9z"/>
<path d="M1658 2353 c8 -3 31 -32 53 -66 40 -61 51 -121 28 -144 -7 -7 -2 -12
20 -15 35 -5 62 6 38 15 -39 15 3 152 61 198 l25 19 -32 0 c-23 0 -31 -5 -31
-17 0 -10 -11 -35 -24 -57 l-24 -38 -28 43 c-15 24 -27 50 -27 56 0 8 -14 13
-36 12 -20 0 -30 -3 -23 -6z"/>
<path d="M90 2059 c0 -4 4 -11 10 -14 5 -3 9 -55 8 -121 -1 -93 -5 -117 -17
-124 -11 -7 12 -9 69 -7 82 2 85 3 88 27 3 23 3 24 -10 7 -14 -18 -65 -26 -86
-13 -13 8 -14 226 -2 242 6 6 -2 10 -25 10 -19 0 -35 -3 -35 -7z"/>
<path d="M340 1920 c-24 -61 -51 -115 -59 -120 -12 -7 -8 -9 17 -10 21 0 32 4
30 13 -5 25 13 67 30 69 54 4 57 3 77 -39 17 -35 25 -42 49 -43 26 0 28 2 13
13 -9 6 -35 57 -58 112 -23 55 -44 104 -48 108 -4 4 -27 -42 -51 -103z m70
-21 c0 -5 -13 -9 -30 -9 -19 0 -28 4 -25 13 2 6 9 26 15 42 l12 30 14 -34 c8
-18 14 -37 14 -42z"/>
<path d="M560 1918 c0 -84 -4 -118 -12 -121 -7 -3 4 -6 25 -6 34 -1 37 1 24
14 -10 10 -15 38 -16 90 l-1 76 92 -93 93 -93 5 110 c3 61 8 115 12 120 7 12
-48 12 -60 1 -4 -4 0 -6 8 -4 12 2 16 -12 18 -79 2 -46 1 -83 -1 -83 -2 0 -45
42 -95 93 l-92 92 0 -117z"/>
<path d="M853 2017 c-2 -4 1 -6 9 -5 18 4 24 -187 7 -208 -10 -12 -2 -14 47
-15 74 -2 82 -1 121 18 67 31 81 134 24 185 -19 17 -44 28 -64 29 -102 4 -139
3 -144 -4z m151 -22 c41 -20 58 -49 58 -98 -1 -50 -33 -85 -85 -94 -59 -9 -67
5 -67 113 l0 94 31 0 c17 0 45 -7 63 -15z"/>
<path d="M1195 2021 c-25 -4 -34 -8 -25 -12 22 -9 22 -195 0 -209 -11 -7 0
-10 34 -10 43 0 47 2 32 13 -14 10 -17 29 -18 105 0 60 4 97 12 107 7 8 11 14
9 14 -2 -1 -22 -5 -44 -8z"/>
<path d="M1337 2023 c-4 -3 -7 -55 -7 -114 0 -76 -4 -109 -12 -112 -7 -3 5 -6
27 -6 27 0 36 2 26 8 -10 7 -15 33 -17 91 l-2 82 90 -92 c49 -50 92 -89 95
-86 4 3 7 50 8 104 0 53 4 103 9 110 4 7 2 12 -6 13 -7 0 -21 2 -31 4 -14 3
-16 0 -7 -10 12 -15 21 -165 10 -165 -4 0 -45 40 -92 90 -46 49 -88 87 -91 83z"/>
<path d="M1685 2016 c-89 -39 -89 -171 -1 -214 31 -16 90 -19 124 -8 23 8 24
8 24 59 1 17 5 38 10 44 8 9 1 12 -28 11 -21 -1 -33 -3 -26 -6 7 -2 12 -22 12
-48 0 -38 -3 -44 -24 -50 -34 -8 -94 23 -111 57 -28 54 -14 119 32 142 15 7
34 12 41 11 6 -1 21 -2 32 -3 11 0 29 -10 40 -21 11 -11 20 -17 21 -12 0 4 2
15 4 25 2 9 0 17 -3 17 -4 1 -32 3 -62 5 -35 3 -66 0 -85 -9z"/>
<path d="M651 1719 c-34 -31 -22 -73 39 -134 49 -50 55 -69 31 -99 -20 -24
-57 -19 -79 11 l-19 26 1 -27 c2 -34 19 -45 64 -40 41 4 70 28 75 64 6 35 -14
69 -62 108 -27 22 -41 41 -41 56 0 25 17 43 38 40 6 -1 19 -2 27 -3 9 0 20
-11 25 -23 8 -21 9 -20 9 10 1 31 0 32 -42 32 -30 0 -50 -6 -66 -21z"/>
<path d="M839 1681 c5 -9 8 -51 8 -95 1 -69 3 -81 24 -102 45 -44 128 -35 154
17 9 17 15 56 15 102 0 40 4 77 9 83 6 5 -3 9 -26 10 -20 1 -30 -2 -23 -6 16
-10 20 -133 7 -173 -16 -48 -72 -63 -105 -27 -15 16 -20 38 -21 101 -1 44 2
86 8 93 7 9 1 12 -24 13 -29 0 -33 -2 -26 -16z"/>
<path d="M1130 1688 c0 -4 5 -10 10 -13 13 -8 11 -173 -1 -197 -9 -16 -5 -18
33 -18 36 0 39 2 25 13 -14 10 -17 29 -18 102 0 50 2 97 6 106 5 13 0 16 -24
15 -17 0 -31 -4 -31 -8z"/>
<path d="M1257 1678 c-4 -14 -1 -16 11 -9 10 5 29 9 45 9 l27 0 0 -97 c0 -62
-4 -101 -12 -109 -9 -9 -3 -12 31 -12 38 0 41 2 27 15 -11 11 -15 38 -15 106
0 100 7 112 60 92 25 -10 29 -9 29 6 0 15 -12 17 -99 17 -87 0 -100 -3 -104
-18z"/>
<path d="M1536 1596 c1 -55 -2 -109 -7 -118 -9 -16 -3 -18 59 -18 60 0 68 2
69 20 2 17 -1 18 -20 7 -12 -7 -31 -13 -42 -12 -17 0 -20 8 -23 52 -3 49 -2
52 20 49 13 -1 29 -6 36 -10 7 -4 12 -6 13 -4 9 36 7 37 -32 32 l-39 -6 0 46
c0 44 1 46 28 46 15 0 33 -5 40 -12 9 -9 12 -8 12 8 0 16 -8 19 -58 20 l-58 1
2 -101z"/>
<path d="M1740 1680 c-31 -31 -24 -56 30 -107 52 -49 61 -76 29 -96 -25 -16
-67 0 -71 26 -3 22 -3 22 -9 1 -9 -30 2 -44 38 -48 45 -6 93 26 93 61 -1 33
-12 48 -62 86 -39 28 -48 57 -25 74 17 14 49 7 64 -13 12 -16 13 -15 13 9 0
25 -3 27 -40 27 -27 0 -47 -7 -60 -20z"/>
<path d="M327 1667 c-3 -8 1 -27 9 -42 8 -15 14 -29 14 -31 0 -2 -27 9 -60 26
-33 17 -82 33 -108 35 l-47 5 50 -13 c28 -8 95 -37 151 -66 55 -28 118 -54
140 -56 35 -4 36 -4 9 4 -47 13 -82 30 -65 30 8 1 1 9 -16 20 -37 22 -76 70
-68 82 9 15 42 10 47 -6 4 -11 4 -10 3 2 -2 23 -51 30 -59 10z m73 -103 c0 -2
-9 0 -20 6 -11 6 -20 13 -20 16 0 2 9 0 20 -6 11 -6 20 -13 20 -16z"/>
<path d="M73 1638 c-23 -29 -18 -78 7 -78 6 0 5 8 -2 19 -9 15 -9 25 0 45 13
28 10 33 -5 14z"/>
<path d="M194 1585 c-17 -13 -16 -13 13 -3 28 11 39 8 110 -25 43 -20 85 -37
93 -37 25 1 -143 79 -171 80 -14 0 -34 -7 -45 -15z"/>
</g>
</svg>
