<svg xmlns="http://www.w3.org/2000/svg" viewBox="0 0 13.053 4.879" height="18.44" width="49.334"><path d="M7.867 2.017c.212.318.476.609.794.82.317.239.635.424 1.005.556.37.133.688.238.98.265.052.026.079.026.131 0 .027-.027 0-.053-.105-.08-.291-.052-.582-.185-.926-.423a6.55 6.55 0 0 1-.953-.74 7.256 7.256 0 0 1-.767-.82c-.212-.265-.318-.477-.318-.662 0-.106 0-.212.053-.37.027-.16.159-.239.397-.239.212-.026.423.027.662.132.238.106.343.239.343.397.027.318 0 .556-.079.688-.08.132-.106.212-.08.212.08 0 .16-.106.239-.344.08-.212.106-.423.106-.582-.027-.318-.16-.53-.397-.662a1.39 1.39 0 0 0-.82-.158c-.186.026-.344.079-.477.211-.132.133-.185.344-.158.662.026.45.132.82.37 1.137zM10.777 4.77a2.02 2.02 0 0 1-.82-.186c-.29-.132-.608-.265-.952-.45s-.688-.37-1.032-.582a10.52 10.52 0 0 0-1.085-.556 8.823 8.823 0 0 0-1.058-.423 2.705 2.705 0 0 0-1.006-.132c-.132 0-.264.026-.423.08-.159.052-.318.105-.476.184-.159.08-.318.186-.45.291a1.246 1.246 0 0 0-.344.397c-.026.053 0 .106.026.106.027 0 .08 0 .133-.053.344-.476.873-.74 1.534-.794.318-.026.688.08 1.138.318.45.238.953.503 1.482.794.529.29 1.11.555 1.693.793a4.036 4.036 0 0 0 1.72.318c.053-.027.053-.08.053-.106h-.133z" class="st1" fill="#d6c283"/><path d="M12.735 4.663c-.45-.026-.873-.132-1.323-.264a13.95 13.95 0 0 1-2.063-.9 21.919 21.919 0 0 1-1.694-1.005 27.287 27.287 0 0 0-1.693-.953A11.155 11.155 0 0 0 4.189.853C3.581.668 2.972.615 2.311.668 1.49.721.882.906.51 1.25c-.37.318-.555.741-.502 1.217.026.238.08.45.212.635s.264.318.423.424c.159.105.344.185.53.238.184.053.343.08.502.08.08 0 .053-.027-.08-.08a2.474 2.474 0 0 1-.979-.635 1.166 1.166 0 0 1-.29-.662c0-.132 0-.29.052-.476.053-.185.133-.344.238-.503.106-.158.265-.29.477-.423.211-.132.45-.185.74-.212a4.88 4.88 0 0 1 1.853.212c.608.185 1.19.423 1.772.714.582.291 1.19.635 1.773 1.006A15.6 15.6 0 0 0 9.084 3.79c.662.344 1.35.609 2.037.82a6.555 6.555 0 0 0 1.932.265" class="st1" fill="#d6c283"/></svg>