<?xml version="1.0" encoding="UTF-8"?><svg width="57px" height="54px" viewBox="0 0 57 54" version="1.1" xmlns="http://www.w3.org/2000/svg" xmlns:xlink="http://www.w3.org/1999/xlink"><g transform="translate(-540.000000, -693.000000)" fill="#F3F7F9"><g transform="translate(429.000000, 503.000000)"><g transform="translate(111.000000, 141.000000)"><g transform="translate(0.000000, 49.000000)"><path d="M21.2,0 L26,7.85820896 C15.8,14.5074627 10.8,21.358209 10.8,32.8432836 C11.4,32.641791 12,32.641791 12.6,32.641791 C18,32.641791 23.2,36.2686567 23.2,42.9179104 C23.2,49.7686567 18.8,54 12.6,54 C4.6,54 0,47.5522388 0,35.8656716 C0,19.7462687 7.4,8.05970149 21.2,0 Z"></path><path d="M52.2,0 L57,7.85820896 C46.8,14.5074627 41.8,21.358209 41.8,32.8432836 C42.4,32.641791 43,32.641791 43.6,32.641791 C49,32.641791 54.2,36.2686567 54.2,42.9179104 C54.2,49.7686567 49.8,54 43.6,54 C35.6,54 31,47.5522388 31,35.8656716 C31,19.7462687 38.4,8.05970149 52.2,0 Z"></path></g></g></g></g></svg>