<svg xmlns="http://www.w3.org/2000/svg" viewBox="0 0 13.047 4.714" height="17.815" width="49.311"><path d="M5.212 1.879a3.333 3.333 0 0 1-.793.82c-.318.238-.662.397-1.006.555a3.75 3.75 0 0 1-.979.239c-.053.026-.106.026-.132 0-.027-.027 0-.053.106-.08.29-.053.582-.185.926-.397a5.12 5.12 0 0 0 .952-.74c.291-.265.556-.556.768-.794.211-.265.317-.477.317-.635 0-.08 0-.212-.053-.344C5.292.37 5.16.29 4.921.265c-.211 0-.423.026-.661.132-.212.106-.344.238-.344.397-.027.317 0 .529.08.688.079.158.105.211.079.211-.08 0-.16-.105-.239-.317a1.6 1.6 0 0 1-.105-.582c.026-.318.158-.53.396-.635C4.366.053 4.63 0 4.947 0c.186 0 .345.08.477.212s.185.344.159.661a2.23 2.23 0 0 1-.37 1.006zM2.275 4.577c.239 0 .53-.053.82-.185.292-.106.61-.264.953-.45l1.032-.555c.37-.212.714-.37 1.085-.556a8.603 8.603 0 0 1 1.058-.397 2.705 2.705 0 0 1 1.006-.132c.132 0 .264.026.423.08.159.052.317.105.476.184.159.08.318.186.45.292.132.105.264.238.344.396.026.053 0 .08-.027.106-.026 0-.079 0-.132-.053-.344-.476-.873-.74-1.534-.767-.292-.026-.688.08-1.138.318-.45.238-.953.476-1.482.767-.529.29-1.111.529-1.693.767a4.036 4.036 0 0 1-1.72.318c-.053-.027-.053-.08-.026-.106 0-.027.052-.027.105-.027z" class="st1" fill="#d6c283"/><path d="M.317 4.471c.45-.026.9-.132 1.323-.264.688-.212 1.376-.53 2.064-.9a35.284 35.284 0 0 0 1.693-.979 17.838 17.838 0 0 1 1.694-.926A8.984 8.984 0 0 1 8.864.741a5.543 5.543 0 0 1 1.878-.185c.82.053 1.429.238 1.8.555.37.318.528.715.502 1.19-.027.239-.08.45-.212.61a1.607 1.607 0 0 1-.423.423 1.91 1.91 0 0 1-.53.238c-.184.053-.37.08-.502.053-.08 0-.053-.027.08-.08.132-.026.264-.105.45-.211.184-.106.343-.238.528-.397.16-.159.265-.397.291-.662 0-.132 0-.29-.052-.476a1.755 1.755 0 0 0-.239-.503A1.198 1.198 0 0 0 11.96.9a2.03 2.03 0 0 0-.74-.212A4.88 4.88 0 0 0 9.365.9c-.608.185-1.19.423-1.772.714-.583.291-1.191.635-1.773.979-.609.37-1.217.688-1.852 1.005-.662.318-1.323.582-2.038.794A6.555 6.555 0 0 1 0 4.657" class="st1" fill="#d6c283"/></svg>